<?xml version="1.0" encoding="utf-8"?>
<!-- Generator: Adobe Illustrator 27.9.0, SVG Export Plug-In . SVG Version: 6.00 Build 0)  -->
<svg version="1.1" id="Capa_1" xmlns="http://www.w3.org/2000/svg" xmlns:xlink="http://www.w3.org/1999/xlink" x="0px" y="0px"
	 viewBox="0 0 600 600" style="enable-background:new 0 0 600 600;" xml:space="preserve">
<style type="text/css">
	.st0{fill:gainsboro;}
</style>
<g>
	<g>
		<path class="st0" d="M241,454.8c0-96.5,0-160.2,0-256.6c4.4,0,8.4,0,12.9,0c0,8.6,0,16.9,0,25.6c28,0-27.6,0,0.1,0
			c0,4.4,0,8.4,0,12.8c-27.8,0,27.8,0,0,0c0,6.5,0-19.8,0-13.4c12.8,0,25.4,0,38.2,0c0.2-2.2,0.3-4.1,0.4-6.1c4.3,0,8.3,0,12.4,0
			c0.2,2.1,0.3,4.1,0.5,6c12.9,0,25.5,0,38.5,0c0-4.3,0-8.3,0-12.4c4.4,0,8.4,0,12.9,0c0,4.2,0,8.3,0,12.4c13.1,0,25.8,0,38.7,0
			c0-8.6,0-16.8,0-25.1c4.4,0,8.5,0,12.9,0c0,85.9,0,171.4,0,257 M408.5,455.1c0,4.3,0,8.6,0,12.8c-128.7,0-38.8-1.7-167.5-1.7
			c0-4.2,0-8.5,0-11.5 M253.9,454.9c47.3,0,94.2,0,141.3,0c0-47.2,0-94.1,0-141.5c-1.5,0-2.9,0-4.2,0c-12.9,0-25.9-0.1-38.8,0
			c-3.1,0-5.5-1-7.7-3.2c-6.7-6.8-13.5-13.5-20.4-20.1c-1.3-1.2-3.4-2.1-5.2-2.1c-6.1-0.3-12.3,0-18.5-0.1c-5.7-0.1-7.9-2.4-8-8.1
			c-0.1-5.4,0-10.8,0-16.2c0-1.2-0.1-2.4-0.2-3.5c-13,0-25.6,0-38.3,0C253.9,325.1,253.9,389.8,253.9,454.9z M395.2,300.4
			c0-21.6,0-42.7,0-63.8c-12.9,0-25.5,0-38.1,0c0,21.4,0,42.6,0,63.8C369.9,300.4,382.4,300.4,395.2,300.4z M305.4,275
			c5.7,0,10.9,0.1,16.2,0c3.9-0.1,7,1.1,9.7,4c3.8,4,7.9,7.9,12.4,12.3c0-18.9,0-36.7,0-54.7c-12.9,0-25.5,0-38.3,0
			C305.4,249.4,305.4,261.9,305.4,275z M292.2,236.5c-13,0-25.6,0-38.2,0c0,3.6,0,6.9,0,10.2c12.8,0,25.4,0,38.2,0
			C292.2,243.2,292.2,240,292.2,236.5z"/>
		<path class="st0" d="M344.1,352.2c4.2,0,8.1,0,12.4,0c0,4.2,0,8.2,0,12.5c-4.2,0-8.1,0-12.4,0
			C344.1,360.6,344.1,356.7,344.1,352.2z"/>
		<path class="st0" d="M344.1,338.8c0-4.3,0-8.3,0-12.4c4.2,0,8.2,0,12.4,0c0,4.1,0,8.1,0,12.4C352.4,338.8,348.4,338.8,344.1,338.8
			z"/>
		<path class="st0" d="M356.6,378.2c0,4.1,0,8.1,0,12.3c-4.2,0-8.1,0-12.4,0c0-4,0-7.9,0-12.3C348.1,378.2,352.1,378.2,356.6,378.2z
			"/>
		<path class="st0" d="M344.4,403.8c4,0,7.9,0,12.1,0c0,4.1,0,8.2,0,12.5c-3.9,0-7.7,0-12.1,0C344.4,412.3,344.4,408.2,344.4,403.8z
			"/>
		<path class="st0" d="M356.6,429.6c0,4.4,0,8.3,0,12.5c-4.2,0-8.2,0-12.4,0c0-4.2,0-8.2,0-12.5
			C348.3,429.6,352.3,429.6,356.6,429.6z"/>
		<path class="st0" d="M266.8,364.6c0-4.3,0-8.2,0-12.4c4.2,0,8.3,0,12.5,0c0,4.2,0,8.1,0,12.4C275.2,364.6,271.2,364.6,266.8,364.6
			z"/>
		<path class="st0" d="M266.8,378c4.2,0,8.2,0,12.4,0c0,4.2,0,8.2,0,12.5c-4.1,0-8.2,0-12.4,0C266.8,386.4,266.8,382.4,266.8,378z"
			/>
		<path class="st0" d="M279.3,300.8c0,4.1,0,8,0,12.3c-4,0-8,0-12.4,0c0-3.9,0-8,0-12.3C271,300.8,275,300.8,279.3,300.8z"/>
		<path class="st0" d="M305,300.7c0,4.2,0,8.1,0,12.3c-4.1,0-8.1,0-12.4,0c0-4,0-8.1,0-12.3C296.6,300.7,300.6,300.7,305,300.7z"/>
		<path class="st0" d="M318.4,300.7c4.1,0,8.1,0,12.3,0c0,4.1,0,8.2,0,12.4c-4.1,0-8.1,0-12.3,0C318.4,309.1,318.4,305,318.4,300.7z
			"/>
		<path class="st0" d="M266.8,416.3c0-4.1,0-8.1,0-12.3c4,0,8.1,0,12.4,0c0,4,0,8,0,12.3C275.1,416.3,271.1,416.3,266.8,416.3z"/>
		<path class="st0" d="M292.6,416.3c0-4.3,0-8.3,0-12.5c4.2,0,8.1,0,12.4,0c0,4.1,0,8.2,0,12.5C300.8,416.3,296.8,416.3,292.6,416.3
			z"/>
		<path class="st0" d="M279.3,339c-4.2,0-8.2,0-12.4,0c0-4.1,0-8.2,0-12.5c4.1,0,8.2,0,12.4,0C279.3,330.6,279.3,334.6,279.3,339z"
			/>
		<path class="st0" d="M266.9,429.6c4.3,0,8.2,0,12.4,0c0,4.2,0,8.1,0,12.4c-4,0-8.1,0-12.4,0C266.9,437.9,266.9,433.9,266.9,429.6z
			"/>
		<path class="st0" d="M305,442.2c-4.3,0-8.1,0-12.3,0c0-4.1,0-8.2,0-12.5c4,0,8,0,12.3,0C305,433.8,305,437.8,305,442.2z"/>
		<path class="st0" d="M305.1,326.6c0,4.1,0,8,0,12.2c-4.1,0-8.2,0-12.5,0c0-4,0-7.9,0-12.2C296.6,326.6,300.6,326.6,305.1,326.6z"
			/>
		<path class="st0" d="M382.4,429.7c0,4.2,0,8.1,0,12.3c-4.2,0-8.2,0-12.5,0c0-4,0-8,0-12.3C374,429.7,378,429.7,382.4,429.7z"/>
		<path class="st0" d="M318.3,442c0-4.3,0-8.3,0-12.4c4.2,0,8.1,0,12.4,0c0,4.1,0,8.2,0,12.4C326.6,442,322.6,442,318.3,442z"/>
		<path class="st0" d="M304.9,364.8c-4.2,0-8,0-12.2,0c0-4.2,0-8.2,0-12.5c4,0,8,0,12.2,0C304.9,356.3,304.9,360.4,304.9,364.8z"/>
		<path class="st0" d="M318.1,352.3c4.4,0,8.3,0,12.6,0c0,4.1,0,8.1,0,12.6c-3.6,0-7,0.1-10.5-0.1c-0.7,0-1.9-1.2-2-1.9
			C318,359.5,318.1,356,318.1,352.3z"/>
		<path class="st0" d="M369.9,352.6c0.4-0.3,0.5-0.4,0.6-0.4c12-1.4,13.3,0,11.6,12.4c-4,0-8,0-12.3,0
			C369.9,360.6,369.9,356.6,369.9,352.6z"/>
		<path class="st0" d="M330.8,403.9c0,4.2,0,8.1,0,12.3c-4.2,0-8.2,0-12.5,0c0-4.1,0-8,0-12.3C322.4,403.9,326.5,403.9,330.8,403.9z
			"/>
		<path class="st0" d="M369.9,416.2c0-4.5,0-8.3,0-12.4c4.2,0,8.1,0,12.4,0c0,4.1,0,8.1,0,12.4C378.1,416.2,374,416.2,369.9,416.2z"
			/>
		<path class="st0" d="M382.3,338.9c-4.5,0-8.3,0-12.4,0c0-4.2,0-8.1,0-12.4c4.1,0,8.1,0,12.4,0
			C382.3,330.7,382.3,334.8,382.3,338.9z"/>
		<path class="st0" d="M292.5,390.5c0-4.3,0-8.2,0-12.3c4.2,0,8.2,0,12.5,0c0,4.1,0,8.1,0,12.3C300.9,390.5,296.8,390.5,292.5,390.5
			z"/>
		<path class="st0" d="M330.7,326.6c0,4.1,0,8,0,12.3c-4.1,0-8.1,0-12.4,0c0-4,0-8,0-12.3C322.4,326.6,326.4,326.6,330.7,326.6z"/>
		<path class="st0" d="M330.7,378.2c0,4.2,0,8.2,0,12.3c-4.2,0-8.1,0-12.4,0c0-4.1,0-8,0-12.3C322.4,378.2,326.4,378.2,330.7,378.2z
			"/>
		<path class="st0" d="M382.6,390.5c-4.4,0-8.3,0-12.6,0c0-4.1,0-8.1,0-12.6c3.6,0,7-0.1,10.5,0.1c0.7,0,1.9,1.2,2,1.9
			C382.7,383.3,382.6,386.8,382.6,390.5z"/>
	</g>
	<polygon id="g" class="st0" points="505.5,52.1 565.4,43.2 499.5,82.9 501.7,133.1 465.7,106.9 402,151.1 440.9,94.9 405,75.4 
		470.2,61.1 509.9,11.7 	"/>
	<polygon id="f" class="st0" points="299.2,113.6 237.8,127.9 273,142.9 231.8,193.1 292.5,153.4 327,178.9 330.8,132.4 
		391.5,100.9 334.5,108.4 341.2,66.4 	"/>
	<polygon id="e" class="st0" points="121.6,222.3 64.6,250.1 102.8,254.6 87.1,299.5 138,255.3 186.8,255.3 168.1,224.6 
		213.8,180.3 153.1,208.9 139.6,174.4 	"/>
	<path id="d" class="st0" d="M87.8,399.3l-53.3,29.3l39,1.4c0,0-15,42-15,45c0,3,47.2-48.7,47.2-48.7l45.7,3.7l-17.2-29.2l35.2-40.5
		l-50.2,24.7l-19.5-32.3L87.8,399.3z"/>
	<path id="c" class="st0" d="M135.8,532.8c0,0-30,25.5-32.2,27c-2.2,1.5,34.5-3,34.5-3s1.5,27,1.5,29.2c0,2.2,28.5-42.7,28.5-42.7
		l43.5-10.5L191.3,517l18-33.7L168.8,508l-33.8-8.2L135.8,532.8z"/>
	<path id="b" class="st0" d="M272.3,541.7l-36,9.7l18,5.3c0,0-8.2,29.2-7.5,31.5c0.7,2.2,30.8-24.8,30.8-24.8l16.5,9l2.2-24.7
		l28.5-22.5l-30.7,8.3l-6.8-18.8L272.3,541.7z"/>
	<polygon id="a" class="st0" points="378.7,510.3 349.5,528.3 369,530.5 369.7,552.2 392.2,526 413.2,531.2 406.5,512.5 424.5,487 
		398.2,499.7 385.5,483.2 	"/>
</g>
</svg>
