<?xml version="1.0" encoding="utf-8"?>
<!-- Generator: Adobe Illustrator 27.9.0, SVG Export Plug-In . SVG Version: 6.00 Build 0)  -->
<svg version="1.1" id="Layer_1" xmlns="http://www.w3.org/2000/svg" xmlns:xlink="http://www.w3.org/1999/xlink" x="0px" y="0px"
	 viewBox="0 0 150 150" style="enable-background:new 0 0 150 150;" xml:space="preserve">
<style type="text/css">
	.st0{fill:#CCCCCC;}
	.st1{fill:#000000;}
	.home{cursor: pointer;opacity: 0.5;}
	.home:hover{opacity: 1;}
</style>
<g class="home">
	<path class="st0" d="M127.6,139.6H22.4c-6.6,0-12-5.4-12-12V22.4c0-6.6,5.4-12,12-12h105.2c6.6,0,12,5.4,12,12v105.2 C139.6,134.2,134.2,139.6,127.6,139.6z"/>
	<path class="st1" d="M125.7,81.9c-0.5,1.2-2.1,3.2-6.3,3.2h-7.3v28.7c0,5.8-4.7,10.5-10.5,10.5H91c-1.4,0-2.5-1.1-2.5-2.5v-17 c0-7.5-6-13.5-13.5-13.5s-13.5,6-13.5,13.5v17c0,1.4-1.1,2.5-2.5,2.5H48.4c-5.8,0-10.5-4.7-10.5-10.5l0-28.7h-7.3 c-4.3,0-5.8-2-6.3-3.2c-0.5-1.2-1-3.7,1.9-6.9L67.8,29c1.9-2.1,4.5-3.3,7.2-3.3c2.7,0,5.3,1.2,7.2,3.3l41.7,46.1 C126.7,78.2,126.3,80.7,125.7,81.9L125.7,81.9z"/>
</g>
<script>
	const home = document.querySelector(".home")
	home.addEventListener("click", () => {
		window.history.go(-1);
	});
</script>
</svg>
