<?xml version="1.0" encoding="utf-8"?>
<!-- Generator: Adobe Illustrator 27.9.0, SVG Export Plug-In . SVG Version: 6.00 Build 0)  -->
<svg version="1.1" id="Layer_1" xmlns="http://www.w3.org/2000/svg" xmlns:xlink="http://www.w3.org/1999/xlink" x="0px" y="0px"
	 viewBox="0 0 702 379.4" style="enable-background:new 0 0 702 379.4;" xml:space="preserve">
<style type="text/css">
	.st0{fill:#9B853E;}
	.st1{font-family: "Exo", sans-serif;font-weight: bolder}
	.st2{font-size:63.5523px;}
	.st3{font-family: "Exo", sans-serif;font-weight: 400}
	.st4{fill-rule:evenodd;clip-rule:evenodd;fill:#243A71;}
	.st5{fill:#FFFFFF;}
	.st6{font-size:106.1894px;}
</style>
<text transform="matrix(1 0 0 1 140.0535 58.9983)" class="st0 st1 st2">FINANCIAMOS</text>
<text transform="matrix(1 0 0 1 158.6414 134.5257)" class="st0 st1 st2">TU VIVIENDA</text>
<text transform="matrix(1 0 0 1 208.3074 210.0545)" class="st0 st3 st2">EN HASTA</text>

<path class="st4" d="M78.9,372.2c-9.1-1.1-17.2-5.1-21.9-11.1l-37.7-47.9c-5.6-7.1-5.6-15.8,0-22.8L57,242.6
	c4.8-5.9,12.8-10,21.9-11.1c180.7,0,361.5,0,542.2,0c9.1,1.1,17.2,5.1,21.9,11.1l37.7,47.9c5.6,7.1,5.6,15.8,0,22.8L643,361.1
	c-4.8,5.9-12.8,10-21.9,11.1C440.4,372.2,259.6,372.2,78.9,372.2"/>
<text transform="matrix(1 0 0 1 129.1658 341.0603)" class="st5 st3 st6">20 AÑOS</text>
</svg>
