<?xml version="1.0" encoding="utf-8"?>
<!-- Generator: Adobe Illustrator 27.9.0, SVG Export Plug-In . SVG Version: 6.00 Build 0)  -->
<svg version="1.1" id="Layer_1" xmlns="http://www.w3.org/2000/svg" xmlns:xlink="http://www.w3.org/1999/xlink" x="0px" y="0px"
	 viewBox="0 0 400 750" style="enable-background:new 0 0 400 750;" xml:space="preserve">
<style type="text/css">
	.st0{fill:none;stroke:#FFFFFF;stroke-width:5.5038;stroke-miterlimit:22.9256;
		/* stroke-dasharray: 100; */
	}
	.st1{fill-rule:evenodd;clip-rule:evenodd;fill:#FFFFFF;}
	.st2{fill:#21376F;}
	.st3{fill-rule:evenodd;clip-rule:evenodd;fill:#21376F;}
</style>
<g>
	<path class="st0" d="M62,22.6C68.1,11.7,79.3,5,91.5,5h22.4h183.5h22.4c12.2,0,23.4,6.7,29.5,17.6l41.2,73.6
		c6.1,10.8,6.1,24.2,0,35.1l-41.2,73.6c-6.1,10.8-17.3,17.5-29.5,17.5"/>
	<path class="st0" d="M62,281c6.1-10.9,17.3-17.6,29.5-17.6h22.4h183.5h22.4c12.2,0,23.4,6.7,29.5,17.6l41.2,73.6
		c6.1,10.8,6.1,24.2,0,35.1l-41.2,73.6c-6.1,10.8-17.3,17.5-29.5,17.5"/>
	<path class="st1" d="M379.2,360.4L338,286.8c-6.1-10.9-17.3-17.6-29.5-17.6h-22.4H102.6H80.2c-12.2,0-23.4,6.7-29.5,17.6L9.6,360.4
		c-6.1,10.8-6.1,24.2,0,35.1L50.8,469c6.1,10.8,17.3,17.5,29.5,17.5h22.4h183.5h22.4c12.2,0,23.4-6.7,29.5-17.5l41.2-73.5
		C385.3,384.6,385.3,371.2,379.2,360.4"/>
	<path class="st2" d="M262.6,364.7c2.6,5.4,3.1,11,1.6,16.6c-2.8,10.3-12.7,17-23.4,15.9c-1.3-0.1-1.9,0.2-2.2,0.5
		c-0.3,0.3-0.7,0.8-0.7,1.7v37.1c0,3.1-2.4,5.6-5.4,5.6c-3,0-5.4-2.5-5.4-5.6v-53.1c0-14.3-9.4-26.6-22.9-29.9
		c-2.7-0.7-4.5-3.3-4.1-6.1c0.5-4.6,3.6-9,9.2-13c1.5-1.1,1.6-2.9,1.6-3.7c-0.1-3,0.5-6.1,1.7-9c2.5-6.4,7.9-11.3,14.3-13
		c3.8-1,7.8-1,11.6,0c6.3,1.7,11.6,6.6,14.2,13c1.2,3,1.7,6,1.6,9.1c0,0.9,0.2,2.6,1.6,3.6c5.8,4.2,9.3,11,9.3,18.2
		c0,3.3-0.8,6.6-2.2,9.8c-0.6,1.2-0.5,1.7-0.5,1.7C262.3,364.2,262.5,364.5,262.6,364.7L262.6,364.7z M156.6,414.1v-11.2h38v11.2
		H156.6z M216.3,383.4c0-10.8-8.5-19.6-19-19.6h-43.4c-10.5,0-19,8.8-19,19.6c0,7.8,4.5,14.4,10.8,17.6v13.1h-5.4
		c-3,0-5.4,2.5-5.4,5.6c0,3.1,2.4,5.6,5.4,5.6h5.4v11.2c0,3.1,2.4,5.6,5.4,5.6c3,0,5.4-2.5,5.4-5.6v-11.2h38v11.2
		c0,3.1,2.4,5.6,5.4,5.6c3,0,5.4-2.5,5.4-5.6v-11.2h5.4c3,0,5.4-2.5,5.4-5.6c0-3.1-2.4-5.6-5.4-5.6h-5.4V401
		C211.8,397.8,216.3,391.2,216.3,383.4z"/>
	<path class="st1" d="M379.2,101.9L338,28.4c-6.1-10.9-17.3-17.6-29.5-17.6h-22.4H102.6H80.2c-12.2,0-23.4,6.7-29.5,17.6L9.6,101.9
		c-6.1,10.8-6.1,24.2,0,35.1l41.2,73.5c6.1,10.8,17.3,17.5,29.5,17.5h22.4h183.5h22.4c12.2,0,23.4-6.7,29.5-17.5l41.2-73.5
		C385.3,126.1,385.3,112.8,379.2,101.9"/>
	<path class="st3" d="M186.2,72.6c-0.2,1.9,0,3.7,0.6,5.4c1.8,5,7.8,1.3,17.4,2.7c0,0-3.9,4.7-0.4,8.1c2,2,6.7,1.3,10,1.3l0,31.1
		c-3.7,0-7.4,0-11,0c-6.2,0-5.4-0.8-8.7,2.6l-27.9,28.7c-1.1,1.1-4.6,5.1-5.8,5.7l0-36.4c1,0.1,2.1,0.9,3.4,1.2
		c1.4,0.4,2.7,0.5,4.2,0.5c2.7-0.1,5.2-1,7-2.3c3.4-2.4,6.6-6.4,6.3-12.7c-0.1-3.1-1.6-6.8-3.2-8.7c-2.4-2.6-0.9-0.9-1-5.1
		c0-2.9-1-5.3-2.3-7.1c-1.4-2-3.2-3.1-5.5-4.1c0.5-4.9,0.4-7.2-2.2-10.6c-4.5-5.8-13.2-6-17.9-0.2c-2.8,3.5-2.7,5.5-2.5,10.6
		c-3,2.1-7.5,3.9-7.7,11.1c-0.1,4.4,1.4,2.7-1,5.4c-1.7,1.9-3.1,5.5-3.3,8.7c-0.2,6,2.9,10.4,6.3,12.7c1.8,1.2,4.4,2.2,7.1,2.3
		c4.4,0.2,6-1.5,7.5-1.7c0.6,9.6,0,28,0.1,39.5c0,4.1-3.7,4.5-5.4,7.8c-6.6-0.1-12.4-1.1-14.8,4c-2,4.2,0,10.4,7.4,10.3
		c5.9,0,11.8,0.7,16-2.6c3.1-2.5,31.7-32.4,37.7-38.6c1.6-1.7,3-3.1,4.6-4.8c2.4-2.6,1.5-1.8,7.8-1.9l0,24c-5,0.1-8,0.1-12,4
		c-1,1-1.6,2-2.5,3.1c-5.4,0.3-10.4,1.4-12.7,7.9c-0.8,2.2-1.2,7,0.6,8.4c1.2,0.9,7.9,0.5,10,0.5c3.8,0,64.8,0.4,66.3-0.2
		c1.6-0.6,1.4-2.1,1.4-4l0-42.5c0-5.4,0.6-6-4.6-6l0-40.7c3.6,0,6.5,0.6,8.3-1.9c2-2.7,0.7-6.2-1.1-7.7c-3.8-3.2-7.3-6.4-11.1-9.7
		l-11.2-9.7c-8.8-8.4-9.1-2.9-13.1-0.9c-2.2-3.7-6.7-5.2-12.2-3.6c-6.5-8.2-14.2-3.3-15.9-3c-4.5-6.1-13.5-5.3-17.9,0.6
		c-3,4.1-3.2,10.9,1,15.3c0.7,0.7,0.9,1,1.7,1.6C185,71.9,185.5,71.9,186.2,72.6 M190.9,75.6c-1.5-7,6.3-6.5,7.3-8
		c0.9-1.4-1.3-8,5-10.4c6.6-2.4,8.9,3.6,9.8,4.5c1.9,1.8,3.4-0.7,5.5-1c2.7-0.4,4.5,1.1,5.3,2.5c-0.6,1.5-2,2-3,3l-9.1,8
		c-1.7,1.6-1.2,1.6-4.3,1.6C203.9,75.8,192.6,76.3,190.9,75.6z M223.2,130.8c0-6.9-0.5-16.1,0.1-22.7c1.1-14.1,21.8-14.4,23.1,0
		c0.6,6.6,0,15.8,0.1,22.7L223.2,130.8z M230.2,135.6l9.3,0l0,4.8l-9.3,0V135.6z M230.2,145.2l9.3,0l0,4.8l-9.3,0V145.2z
		 M230.2,154.8l9.3,0l0,4.8l-9.3,0V154.8z M230.2,164.3l9.3,0l0,4.8l-9.3,0V164.3z M209.2,164.8l0.1,14l-23.2,0
		c0.1-3.1,1.6-5.1,3.5-6.2c3.7-2.1,5.9,0.3,7.7-0.7c1.4-0.8,1.1-3.2,4.2-5.6C203.2,164.9,206.6,163.6,209.2,164.8z M230.2,173.9
		l9.3,0l0,4.8l-9.3,0V173.9z"/>
	<path class="st0" d="M62,539.5c6.1-10.9,17.3-17.6,29.5-17.6h22.4h183.5h22.4c12.2,0,23.4,6.7,29.5,17.6l41.2,73.6
		c6.1,10.8,6.1,24.2,0,35.1l-41.2,73.6c-6.1,10.8-17.3,17.5-29.5,17.5"/>
	<path class="st1" d="M379.2,618.8L338,545.3c-6.1-10.9-17.3-17.6-29.5-17.6h-22.4H102.6H80.2c-12.2,0-23.4,6.7-29.5,17.6L9.6,618.8
		c-6.1,10.8-6.1,24.2,0,35.1l41.2,73.5c6.1,10.8,17.3,17.5,29.5,17.5h22.4h183.5h22.4c12.2,0,23.4-6.7,29.5-17.5l41.2-73.5
		C385.3,643.1,385.3,629.7,379.2,618.8"/>
	<path class="st2" d="M248.5,700.2h-97.1v-13.9c0-18.2,11.8-27.1,27.4-30.8l21.1,21.8l21.1-21.8c15.6,3.7,27.4,12.6,27.4,30.8V700.2
		z M183.8,610.1c4.5,0.7,9.9,1.1,16.2,1.1c6.3,0,11.7-0.5,16.2-1.1c0,11.2-2,23.3-16.2,23.3C185.8,633.4,183.8,621.3,183.8,610.1z
		 M189.2,581.3c0-1.1,0.7-2,1.6-2.3l9.1-3.1l9.1,3.1c1,0.3,1.6,1.3,1.6,2.3v8.1c0,8.4-8.4,12.5-10.8,13.5
		c-2.4-1.2-10.8-6.1-10.8-13.5V581.3z M167.6,616.7c0,18.4,14.5,33.4,32.4,33.4c17.8,0,32.4-15,32.4-33.4v-16.6l10.8-5.6v-16.7
		l-34-10c-6-1.5-12.3-1.5-18.3,0l-34,10v16.7l10.8,5.6V616.7z"/>
</g>
</svg>
