<?xml version="1.0" encoding="utf-8"?>
<!-- Generator: Adobe Illustrator 27.9.0, SVG Export Plug-In . SVG Version: 6.00 Build 0)  -->
<svg version="1.1" id="Layer_1" xmlns="http://www.w3.org/2000/svg" xmlns:xlink="http://www.w3.org/1999/xlink" x="0px" y="0px"
	 viewBox="0 0 400 750" style="enable-background:new 0 0 400 750;" xml:space="preserve">
<style type="text/css">
	.st0{fill:none;stroke:#FFFFFF;stroke-width:5.5038;stroke-miterlimit:22.9256;}
	.st1{fill-rule:evenodd;clip-rule:evenodd;fill:#FFFFFF;}
	.st2{fill:#21376F;}
	.st3{fill-rule:evenodd;clip-rule:evenodd;fill:#21376F;}
</style>
<g>
	<path class="st0" d="M62,539.5c6.1-10.9,17.3-17.6,29.5-17.6h22.4h183.5h22.4c12.2,0,23.4,6.7,29.5,17.6l41.2,73.6
		c6.1,10.8,6.1,24.2,0,35.1l-41.2,73.6c-6.1,10.8-17.3,17.5-29.5,17.5"/>
	<path class="st1" d="M379.2,618.8L338,545.3c-6.1-10.9-17.3-17.6-29.5-17.6h-22.4H102.6H80.2c-12.2,0-23.4,6.7-29.5,17.6L9.6,618.8
		c-6.1,10.8-6.1,24.2,0,35.1l41.2,73.5c6.1,10.8,17.3,17.5,29.5,17.5h22.4h183.5h22.4c12.2,0,23.4-6.7,29.5-17.5l41.2-73.5
		C385.3,643,385.3,629.7,379.2,618.8"/>
	<path class="st2" d="M240,573c4.5-2.1,8.9-5.2,13.6-6.3c10.7-2.4,20.7,8.7,18.7,19.1c-0.7,3.6-3.5,5.9-6.6,5.4
		c-2.4-0.3-4.7-2.7-6.8-4.6c-0.7-0.6-0.5-2.4-1.1-3.3c-0.6-0.8-2-1.9-2.6-1.7c-1,0.3-2.3,1.7-2.3,2.7c-0.2,6.7-0.2,13.4,0.1,20.1
		c0,1.2,1.4,2.6,2.4,3.4c15.8,12.6,22.1,29.8,19.1,49.5c-4.5,29.3-29.4,45.6-54.6,42.9c-8.9-1-16.7-4.3-24.1-9.3
		c-5.8-3.9-12.2-3.5-18.8-2.7c-5.9,0.7-12,1.8-17.9,1.1c-19.1-2.2-33.4-18.7-34.3-39.3c-0.9-19.3,13.4-39.9,36.6-42
		c5.3-0.5,10.9,0.7,16.1,1.9c6,1.4,11.3-0.3,16.7-2.5c2.2-0.9,4.1-2.6,6.3-3.2c6.6-1.9,8.5-6.4,7.5-13c-0.4-2.4-0.1-4.9,0-7.3
		c0.1-7.7,3.6-13.2,10.4-16c6.8-2.8,13.3-1.5,18.9,3.5c1,0.8,1.4,2.3,2.1,3.5C239.7,574.3,239.8,573.7,240,573 M207.2,618.3
		c-1,0.3-1.6,0.4-2.1,0.7c-11.1,6.5-22.6,7.6-35,4.4c-6.8-1.7-13.9-0.3-19.4,4c-10.5,8.1-14.2,18.8-9.2,31.7
		c4.5,11.7,16.3,18,28.3,15.9c5.3-0.9,10.8-1.7,16.1-1.6c8.2,0.2,15.5,3.8,22.7,7.9c16.5,9.4,35.9,4.1,46.2-12.1
		c9.1-14.4,8.1-32.2-2.1-42.7c-4.4,0.2-9,1.8-10.7,0.2c-4.8-4.8-10.2-3.8-15.6-3.7c-2,0.1-4.4,1.2-6,2.6c-4.5,4.1-10.6,2.5-12.3-3.4
		C207.9,620.9,207.5,619.6,207.2,618.3z M253.4,612.9c-1.6,3.5-0.8,6,1.5,8.5c12.3,13.5,12.1,33.6,6.2,45.9
		c-10.6,22.3-37.4,28.9-56.7,16.9c-10.5-6.5-21.2-8.6-33.3-5.3c-8.4,2.3-16.7,0.9-23.8-4.9c-10.1-8.1-14.6-18.6-11.6-31.6
		c2.8-12.1,9.9-20.8,22.2-23.1c5.2-1,10.9-0.5,16.2,0.5c11.2,2.2,21.3-0.1,30.8-6.3c2.9-1.9,3.7-4,2.6-7.1c-0.4-0.1-0.8-0.2-1-0.1
		c-1.3,0.6-2.7,1.2-4,2c-9.6,6.3-19.6,7.4-30.8,4.9c-21.2-4.6-41.3,11.4-42.6,34.3c-1.2,22.4,20.3,43.1,43.7,37.2
		c10.5-2.7,20.3-1.3,29.6,4.9c7.5,4.9,16.1,7.4,24.9,6.4c20.1-2.2,34.4-12.8,41.3-33C274.6,645.2,268.1,623,253.4,612.9z
		 M212.3,600.9C212.3,600.9,212.3,600.9,212.3,600.9c0,6.1-0.2,12.2,0.1,18.2c0.1,1.4,1.6,2.7,2.5,4.1c1-1.4,2.2-2.7,3-4.2
		c0.4-0.8,0.1-2.1,0.1-3.1c0-10.2,0-20.3,0-30.5c0-4.8,2.4-8,6.3-8.5c4-0.4,6.9,2,8.3,6.5c0.4,1.3,2,2.3,3,3.4
		c0.8-1.5,2.3-3.2,2.2-4.6c-0.5-6.4-6.4-11.5-12.3-11.3c-7.2,0.3-12.7,5.3-13,12.2C212.1,589,212.3,594.9,212.3,600.9z M242.6,600.9
		C242.6,600.9,242.5,600.9,242.6,600.9c-0.1,6.2-0.2,12.4,0.1,18.7c0.1,1.3,1.9,2.4,3,3.7c0.8-1.3,1.9-2.4,2.4-3.8
		c0.4-0.9,0.1-2.1,0.1-3.2c0-10.6-0.3-21.3,0.2-31.8c0.1-2.4,2.4-5.8,4.5-6.7c2-0.9,5.3,0.3,7.6,1.4c1.2,0.6,1.3,3.2,2.2,4.7
		c0.8,1.2,2.1,2.1,3.2,3.1c0.8-1.4,1.9-2.7,2.4-4.2c0.3-0.8-0.3-2.1-0.7-3c-2.7-6.3-8.9-9.8-15-8.5c-5.7,1.2-9.8,6.5-9.9,13.3
		C242.5,590,242.6,595.4,242.6,600.9z M230.5,597.5c1.2,0,2.5,0.3,3.5-0.1c1.5-0.6,3.7-1.3,4.1-2.5c0.9-2.6-1.6-2.6-3.3-3.4
		c-2.3-1.2-4.5-3.1-6.1-5.2c-1.2-1.6-0.7-5.3-3.7-4.2c-1.3,0.5-1.8,3.7-2.5,5.8c-0.2,0.5,0,1.2,0,1.8
		C222.7,597.6,222.7,597.6,230.5,597.5z M230.4,602c-1.8,0-3.6-0.3-5.2,0.1c-1.1,0.3-2,1.8-3,2.7c1,1,1.9,2.8,2.9,2.9
		c3.5,0.4,7,0.4,10.5,0c1-0.1,2.3-1.9,2.5-3c0.1-0.7-1.4-2.3-2.4-2.6C234,601.7,232.1,602,230.4,602z M191.2,633.3
		c2.7,1.4,5.2,2.2,7,3.7c2.9,2.4,5.3,2.4,8.3,0.1c5.3-4.2,9.2-4,14.8,0c1.3,0.9,3,1.3,4.3,2.1c0.7,0.5,1.6,1.7,1.4,2.3
		c-0.2,0.7-1.5,1.8-2.1,1.7c-2.1-0.5-4.4-1-6-2.3c-3.6-2.9-6.6-3.1-10.2,0.1c-3.8,3.4-7.9,3.5-12.1,0.3c-3.8-2.9-7.2-3.9-10.9,0
		c-0.8,0.8-2,1.6-3.1,1.6c-1.5,0-3.1-0.8-4.6-1.2c1-1,1.9-2.2,3.1-2.9C184.5,636.8,187.8,635.1,191.2,633.3z M218.9,648.8
		c2.7,1.4,5.2,2.3,7.2,3.9c2.8,2.2,5.2,2.2,8,0.1c5.4-4.1,8.6-4.1,14.5-0.3c1.5,0.9,3.3,1.4,4.7,2.4c0.7,0.5,1.5,1.7,1.3,2.5
		c-0.1,0.6-1.6,1.5-2.3,1.4c-1.9-0.4-4.2-0.9-5.6-2.2c-3.5-3-6.4-3.5-10-0.1c-3.7,3.5-8.5,3.6-12.5,0.3c-3.7-3.2-6.8-3.2-10.6,0
		c-1.5,1.3-4,1.6-6.1,2c-0.5,0.1-1.5-0.8-1.8-1.5c-0.2-0.5,0.2-1.7,0.6-1.9C210.4,653,214.5,651,218.9,648.8z M161.2,648.8
		c2.5,1.3,4.9,2.2,6.8,3.6c3.1,2.4,5.7,2.5,8.7-0.1c4.5-3.8,9.1-3.7,13.7-0.4c1.5,1.1,3.4,1.7,5,2.7c0.7,0.5,1.7,1.6,1.5,2.3
		c-0.2,0.7-1.5,1.8-2.1,1.7c-2.2-0.5-4.7-1-6.4-2.4c-3.4-2.7-6.1-2.8-9.4,0c-4.5,3.8-9.2,3.6-13.6-0.2c-2.9-2.6-5.5-2.7-8.7-0.3
		c-1.8,1.4-4.1,2.1-6.3,2.9c-0.6,0.2-1.8-0.4-2.2-1c-0.3-0.6-0.1-2.1,0.3-2.4C152.6,653.1,156.7,651.1,161.2,648.8z M237.9,618.1
		c0.2-2.9,1.4-5.6-2.3-5.7c-3.7-0.1-7.4-0.2-11,0.1c-0.9,0.1-2.3,1.9-2.2,2.9c0,0.9,1.5,2.5,2.5,2.6
		C229.1,618.2,233.3,618.1,237.9,618.1z"/>
	<path class="st0" d="M62,22.6C68.1,11.7,79.3,5,91.5,5h22.4h183.5h22.4c12.2,0,23.4,6.7,29.5,17.6l41.2,73.6
		c6.1,10.8,6.1,24.2,0,35.1l-41.2,73.6c-6.1,10.8-17.3,17.5-29.5,17.5"/>
	<path class="st1" d="M379.2,101.9L338,28.4c-6.1-10.9-17.3-17.6-29.5-17.6h-22.4H102.6H80.2c-12.2,0-23.4,6.7-29.5,17.6L9.6,101.9
		c-6.1,10.8-6.1,24.2,0,35.1l41.2,73.5c6.1,10.8,17.3,17.5,29.5,17.5h22.4h183.5h22.4c12.2,0,23.4-6.7,29.5-17.5l41.2-73.5
		C385.3,126.1,385.3,112.7,379.2,101.9"/>
	<path class="st2" d="M265.1,129.9v50.8c-0.6,1.3-1.5,2.2-2.8,2.9h-63.1c-2.2-1-2.8-2.8-2.8-5.3c0.1-15.4,0-30.9,0-46.3
		c0-9.1,6-16.9,14.6-19c0.7-0.2,1-0.5,1.2-1.2c1.5-5.9,4.8-10.3,10.2-13c1.4-0.7,3-1.2,4.5-1.8c0-1.6,0.1-3.3,0-5
		c-0.3-5.3-4.2-9.9-9.3-10.6c-2.6-0.4-5.3-0.2-8-0.3c-2.1,0-4.1,0-6,0c-0.1,3.1,0,6.1-0.5,9c-2.2,13.4-9.4,22.6-21.6,27.9
		c-0.8,0.3-0.9,0.8-0.9,1.5c0,5.2,0,10.4,0,15.6v1.3c1.3,0,2.5,0,3.7,0c2.3,0,4,1.7,4,3.9c0,2.2-1.7,3.9-4,4c-1.2,0-2.3,0-3.5,0v7.8
		c1.1,0,2.2,0,3.3,0c2.6,0,4.3,1.6,4.3,4c0,2.3-1.7,3.9-4.2,3.9c-1.1,0-2.2,0-3.4,0c0,4,0,7.7,0,11.5c0,1.5-0.5,2.7-1.5,3.7
		c-1.4,1.4-2.7,2.8-4.1,4.1c-1.6,1.5-3.3,3-4.9,4.5h-2c-1-0.8-2.1-1.6-3-2.5c-1.9-1.9-3.8-3.9-5.7-5.8c-1.3-1.2-1.8-2.6-1.8-4.4
		c0-17.1,0-34.3,0-51.4c0-0.9-0.3-1.3-1.1-1.7c-10.6-4.5-17.5-12.5-20.7-23.9c-0.5-1.9-0.8-3.9-1.2-5.9v-6c0.2-1,0.3-2,0.5-2.9
		c2.6-13.5,10-22.9,22.6-27.4c12.7-4.6,24.3-1.9,34.4,7.2c4.3,3.9,7.3,8.7,9.3,14.3c0.5,0,0.9,0,1.4,0c4.4,0,8.7-0.1,13.1,0
		c9.1,0.1,17.1,7.5,18.2,16.7c0.3,2.4,0.3,4.8,0.4,7.2c0.1,0,0.3,0.1,0.4,0.1c7.5,2.1,12.2,7,14.2,14.7c0.1,0.4,0.7,0.9,1.2,1
		c5.5,1.5,9.7,4.8,12.3,10C263.9,125.1,264.4,127.6,265.1,129.9 M204.1,175.6h53.4c0-0.3,0-0.5,0-0.7c0-14.3,0-28.5,0-42.8
		c0-6.6-4.8-11.6-11.2-11.9c-2.5-0.1-3.9-1.6-4.1-4.2c-0.1-1.4-0.3-2.8-0.8-4.1c-1.2-3.2-3.5-5.5-6.8-6.8c0,0.6,0,1.1,0,1.5
		c0,3.1,0.1,6.3-0.1,9.4c-0.1,1.1-0.6,2.3-1.3,3.1c-1,1.2-2.5,1.4-4,0.7c-1.5-0.7-2.3-1.9-2.3-3.6c0-3.6,0-7.2,0-11
		c-0.5,0.2-0.9,0.4-1.3,0.5c-4,2.2-6.1,5.6-6.4,10.3c-0.1,2.4-1.5,4.2-3.7,4.1c-6.1,0-11.7,5.1-11.6,12.8
		c0.2,13.7,0.1,27.4,0.1,41.1V175.6z M193.2,73.2C189,63,176.1,54.3,161.8,58.5c-13.9,4.1-22.2,19.2-18.4,33.5
		c3.9,14.6,18.3,23.3,32.4,19.5c15.6-4.3,21.7-19.8,19.6-30.5c-4.6,0-9.3,0-13.9,0c-1.1,0-1.7,0.3-2.2,1.4
		c-2.3,4.9-7.5,7.4-12.6,6.2c-4.9-1.1-8.7-5.6-9-10.7c-0.3-5.4,2.9-10.3,7.9-12c4.9-1.6,10.5,0.2,13.1,4.9c1.2,2.1,2.4,2.5,4.5,2.5
		C186.5,73.1,189.8,73.2,193.2,73.2z M165.5,120.2c0,0.3-0.1,0.6-0.1,1c0,16,0,32.1,0,48.1c0,0.4,0,0.9,0.2,1.1
		c1.1,1.3,2.3,2.5,3.7,3.9c1-1.1,1.9-2.2,2.8-3.1c0.7-0.6,0.9-1.3,0.9-2.3c0-15.8,0-31.6,0-47.3v-1.4H165.5z M173,77.1
		c0-2.1-1.7-3.9-3.7-4c-2.1-0.1-3.8,1.7-3.9,3.8c-0.1,2.2,1.7,4,3.8,4C171.2,81,173,79.3,173,77.1z"/>
	<path class="st2" d="M230.6,167.6c-4.9,0-9.7,0-14.6,0c-2.8,0-4.3-1.6-4.3-4.4c0-4.9,0-9.8,0-14.6c0-1.5,0.5-2.7,1.5-3.7
		c4.9-5,9.7-10,14.6-15c1.9-2,4.1-2,6,0c4.9,5,9.7,10,14.6,15c1,1,1.5,2.2,1.5,3.7c0,4.9,0,9.8,0,14.6c0,2.9-1.5,4.4-4.3,4.4
		C240.6,167.6,235.6,167.6,230.6,167.6 M230.8,137.9c-2.6,2.6-5,5.2-7.4,7.7c-1.3,1.4-3.1,2.5-3.8,4.2c-0.7,1.7-0.2,3.8-0.2,5.8
		c0,1.4,0,2.8,0,4.2h7.6c0-1.2,0-2.3,0-3.4c0-2.5,1.6-4.3,3.8-4.3c2.3,0,3.8,1.8,3.9,4.4c0,1.1,0,2.2,0,3.4h7.6c0-3.2,0-6.4,0-9.5
		c0-0.3-0.2-0.8-0.4-1C238.2,145.5,234.5,141.7,230.8,137.9z"/>
	<path class="st0" d="M62,281c6.1-10.9,17.3-17.6,29.5-17.6h22.4h183.5h22.4c12.2,0,23.4,6.7,29.5,17.6l41.2,73.6
		c6.1,10.8,6.1,24.2,0,35.1l-41.2,73.6c-6.1,10.8-17.3,17.5-29.5,17.5"/>
	<path class="st1" d="M379.2,360.4L338,286.8c-6.1-10.9-17.3-17.6-29.5-17.6h-22.4H102.6H80.2c-12.2,0-23.4,6.7-29.5,17.6L9.6,360.4
		c-6.1,10.8-6.1,24.2,0,35.1L50.8,469c6.1,10.8,17.3,17.5,29.5,17.5h22.4h183.5h22.4c12.2,0,23.4-6.7,29.5-17.5l41.2-73.5
		C385.3,384.6,385.3,371.2,379.2,360.4"/>
	<path class="st3" d="M199.8,423.2h-41.4c0-0.8,1.3-7.7,1.5-9.1c0.2-1.5,0.5-3.1,0.8-4.6c0.1-1.1,0.4-1,1.1-1.6
		c10.3-8.3,24.3-8.4,34.6-0.1c0.5,0.5,1,0.6,1.1,1.5l1.5,9.2C199.3,419.4,199.9,422.4,199.8,423.2 M225,361c-1.8-2-0.4-7.4,0.4-9.9
		c-7.5-3-9.9-9.1-7.5-16.5c-0.2,0.8-0.2,1.6,0,2.7c2.6,13,18.8,13.7,27.1,6.1c13.1-11.9-0.7,6.4-13.3,8.5c-0.8,2.9-2.4,8.9-5.3,9.6
		c-2.3,8-4.4,16-6.7,24c0.8,0.5,1.1,1.3,0.9,2.1c-0.1,0.5-0.5,0.9-1.1,1c-0.2,2.2-0.8,5.1-1.7,8.3c-1,3.3-2.1,6.3-3.2,8.2
		c0.4,0.4,0.5,0.9,0.4,1.4c-0.2,0.9-1.4,1.2-2.5,0.9c-0.8-0.2-2-1.1-1.7-2.2c0.1-0.5,0.5-0.8,1.1-0.9c0.1-2.2,0.8-5.3,1.7-8.6
		c0.9-3.2,2-6,3-7.9c-0.3-0.5-0.5-0.9-0.3-1.5c0.2-0.7,1-1.2,1.8-1.2C220.6,377,222.8,369,225,361z M219.7,385.8
		c-0.3-0.1-0.6,0-0.7,0.2c-0.1,0.2,0.2,0.5,0.5,0.6c0.2,0.1,0.6,0.1,0.7-0.2C220.3,386.1,220,385.9,219.7,385.8z M214.2,405.1
		c-0.3-0.1-0.6,0-0.7,0.2c-0.1,0.2,0.2,0.5,0.5,0.6c0.2,0.1,0.6,0.1,0.7-0.2C214.7,405.4,214.4,405.2,214.2,405.1z M218.5,390.1
		c-0.3-0.1-1.1,1.4-1.6,3.3c-0.6,1.9-0.8,3.6-0.5,3.7c0.5,0.2,1.5-3,1.6-3.3C218.2,393.4,219.1,390.2,218.5,390.1z M235.8,337.4
		c0.2-1.2,4.3-0.5,4.1,0.8C239.6,339.5,235.6,338.8,235.8,337.4z M219,336.5c-0.3-1.6-0.1-2.6,0.7-3.3c1.6-1.6,5.5-1.3,8.4-0.4
		c0.7,0.2,1.2,0.4,1.7,0.6c0.7,0.3,1.3,0.5,1.9,0.8c2.3,0.7,3.9,0.4,5.5,0.1c1.6-0.3,3.1-0.5,5.4,0.1c1.7,0.5,2.9,1.6,3.2,3.1
		c0.4,1.8-0.4,3.7-1.4,4.6C236.9,348.8,221.5,348.8,219,336.5z M222.5,336.5c0,0,5.9,2.7,4.4,3c-0.2,0-3,1-2.3,1.2
		c0.3,0.1,6.5-2.1,11.2-0.8c1.8,0.5,6.6,0.9,6.9-1.3c0.6-3.3-9.9-4.8-9.8-1.9c0.1,1.2-1.1,1.6-2.6,2
		C229.1,339.3,223.9,337.1,222.5,336.5z M221.6,333.4c0.1,0.6,2.1,0.4,2-0.2C223.6,332.5,221.6,332.8,221.6,333.4z M224.3,333.2
		c-0.1,0.4,1.2,0.5,1.2,0.2C225.5,333,224.3,332.8,224.3,333.2z M226.1,351.3c-0.4,1.3-1.9,7.5,0.1,8.2c2.1,0.6,4.1-5.7,4.7-7.6
		C229.3,352.1,227.7,351.9,226.1,351.3z M225.2,359.6c0.5,0.6,0.9,0.3,0.5-0.3C225.1,358.6,224.7,359,225.2,359.6z M241.9,394.1
		c0.4-0.1,1.5,0.5,1.7,0.7c1,0.9,1.4,1.9,1.4,3.7c-0.1,1.5-1,4.6-1.5,6l-1.3,3.7c-1.1,3-2.2,6.8-2.4,10.1c-0.1,1.6-0.1,3.3-0.1,4.9
		v5c0,3.1,0,6.5,0,9.6c-0.4,0-1-0.3-1.4-0.5c-0.2-0.1-0.3-0.1-0.5-0.2l-3.5-1.2c-0.4-0.1-0.5-0.2-0.9-0.3c-0.3-0.1-0.6-0.2-0.8-0.3
		c-1-0.3-6.8-2.3-6.9-2.3c-0.1-5.4-0.2-11-0.2-16.5c0-2.1,0-4.2,0.3-6.2c0.2-0.8,0.2-1.6,0.5-2.3c0.1-0.3,0.2-0.7,0.4-1
		c0.2-0.4,0.2-0.7,0.4-1.1c0.8-2.6,2.2-6.1,2.3-8.9c0.3-0.1,1.7,0.2,2.1,0.2c0.7,0.1,1.4,0.2,2,0.3l3.2,0.4c0.8,0.1,4.8,0.7,5.2,0.7
		c0.6,0,1.2-0.4,1.5-0.9c0.3-0.5,0.4-1.5,0.1-2l-2.3-0.2C241,395.1,241.5,394.2,241.9,394.1z M224.9,393l0.4-0.4
		c0.1-0.1,0,0,0.1-0.1c0.1,0,0.4-0.2,0.8-0.2c0.5,0,6.3,0.7,6.9,0.8c1.3,0.2,2.6,0.3,3.9,0.5c0.7,0.1,1.3,0.2,2,0.2
		c0.7,0.1,1.3,0.2,2,0.2c-0.1,0.4-0.4,0.3-0.7,1.8c-0.2,1.2,0.2,1.9,0.2,2.2c-0.4,0-1.9-0.2-2.4-0.2c-0.8-0.1-1.6-0.2-2.3-0.3
		c-1.6-0.2-3.2-0.3-4.8-0.5c-1.6-0.2-3.2-0.4-4.7-0.6c-0.3,0-1.1-0.1-1.2-0.2c-0.2-0.1-0.4-0.7-0.4-0.9
		C224.3,393.9,224.9,393.2,224.9,393z M233.5,409.8c0.1-0.1,0.3-0.3,0.3-0.4c-0.2,0-0.3,0.1-0.4,0.2c-0.4,0-1.1,0.5-1.4,0.8
		c-0.3,0.2-0.7,0.7-0.9,1.2c-0.5,1.1-0.5,2.4-0.3,3.7c0.5,3-1.1,2.5-1.5,2.1c-0.2-0.2-0.2-0.4-0.3-0.8c-0.1-0.5-0.3-1-0.6-1.5
		c-0.1-0.1-0.4-0.4-0.6-0.5c0.2,0.2,0.3,0.8,0.2,1.2c-0.1,0.8-0.4,1.6-0.7,2.3c-0.5,1.3-0.5,2.3-0.1,3.6c0.1,0.5,0.8,1.7,1.1,1.9
		c0-0.8-0.1-1.6,0-2.3c0.2-2.2,0-2.3,1.2-2.2c0.3,0,0.7,0.1,1.1,0.1c0.4,0,0.7,0.1,1,0.2c0.8,0.2,2,0.4,2.8,0.6
		c0.6,0.2,1.3,0.3,1.4,0.9c0.1,0.7,0.1,1.4,0.1,2.2l0.1,2.3c0.2-0.1,0.5-0.5,0.6-0.7c0.9-1.6,0.9-3.8,0.4-5.5
		c-0.1-0.4-0.2-0.6-0.4-0.9c-0.1-0.3-0.3-0.5-0.5-0.8c-0.2-0.2-0.3-0.4-0.5-0.5c0.1,0.2,0.2,0.3,0.2,0.4c0.1,0.2,0.1,0.3,0.1,0.5
		c-0.1,0.2,0.1,0.5,0,0.9c-0.1,0.7-1.1,1-1.5,0.2c-0.6-1-0.2-1.7-0.6-3.1l-0.5-1.3c-0.5-1-0.7-1.9-0.4-3.2
		C233.2,410.4,233.5,409.9,233.5,409.8z M235.5,427.8c0.4-0.9,0.3-6.7-0.1-7c-0.1-0.1-0.5-0.2-0.7-0.2c-0.1,0-0.2-0.1-0.4-0.2
		c-0.4-0.2-2.1-0.5-2.6-0.6c-0.4-0.1-2.3-0.3-2.6-0.2c-0.2,0.2-0.3,3-0.3,3.6c0,0.5,0.1,2.2,0.2,2.6c0.1,0.4-0.1,0.5,0.3,0.6
		c0.8,0.3,1.9,0.7,2.8,0.9C232.9,427.4,234.9,427.8,235.5,427.8z M224.9,433.7c0.2,0.1,2.3,0.8,2.6,0.9l5.4,1.8
		c0.9,0.3,1.7,0.5,2.6,0.9c0.9,0.3,1.7,0.6,2.7,0.9c0.5,0.2,0.8,0.3,1.4,0.5c0.2,0.1,0.5,0.2,0.8,0.1c0.6-0.3,2.4-1.1,3.1-1.4
		c0.8-0.4,1.7-0.7,2.5-1.1c1.1-0.5,2.6-1,3.8-1.6c0.8-0.3,0.7-0.1,0.7-1.1c0-2.4-0.2-4.8-0.2-7.1c-0.1-2.3-0.2-4.7-0.3-7
		c-0.1-1.2-0.1-2.3-0.2-3.5c0-0.7-0.1-4.9-0.2-5.3c-0.2-1.2-0.1-3.8-0.3-5.1c-0.2-1.1-0.2-2.3-0.4-3.3c-0.1-0.4-0.2-1-0.2-1.6
		c-0.5-2.2-1.1-4.8-2.8-6.2c-1.9-1.6-3.8-1.2-5.6-1.6c-0.5-0.1-1.1-0.1-1.7-0.2l-1.6-0.2c-1.1-0.2-2.1-0.2-3.2-0.3
		c-0.9-0.1-2.3-0.2-3.2-0.4c-1.1-0.2-2.1-0.2-3.2-0.3c-1.3-0.2-2-0.2-2.7,0.5c-1,0.9-1.4,2.7-0.7,4.1c0.3,0.5,0.4,0.6,1.1,0.7
		c0.5,0.1,1.1,0.1,1.7,0.2c0.5,0,1.1,0.2,1.7,0.2c0.1,1.2-0.3,2.3-0.5,3.3l-1.5,4.8c-0.2,0.7-0.5,1.2-0.6,1.9
		c-0.4,1-0.4,0.9-0.5,1.9c-0.6,3.3-0.5,6.2-0.5,9.6c0,1.6,0.1,3.3,0.1,5c0,1.6,0,3.4,0.1,5c0,0.8,0,1.6,0.1,2.5
		C224.9,432,224.8,432.9,224.9,433.7z M155.6,341.9c-0.1,0.6,0,0.2,0.1,0.4l0.2-0.3c0.5-0.8,0.7-1.8,1.6-3.3
		c7.8-12.5,26-14.8,37.7-6.1c1.8,1.3,3.6,3.2,4.9,5c1.2,1.7,1.8,2.8,2.6,4.9c0.2,0.5,0.4,1.5,0.6,1.9c0-2.3-1.7-6-2.8-7.6
		c-4-6.3-12.1-10.6-19.8-11c-9.5-0.4-19.3,4.1-23.6,12.3C156.7,338.8,155.6,341.2,155.6,341.9z M158.9,375.7h-0.5
		c0.2,0.1,0.1,0.1,0.2,0.2c0.7,0.2,1.6,0.4,2.3,0.6c0.8,0.2,1.7,0.4,2.4,0.5c1.7,0.3,3.4,0.5,5.1,0.7c9.2,1.1,23.8,0.7,32-2.1
		c-0.9,0.1-2,0.3-2.9,0.5c-1.1,0.2-2,0.2-3.1,0.4c-2,0.2-4.3,0.5-6.3,0.5c0.2-0.3,0.8-0.8,1.1-1.1c1.2-1.2,2-2.8,2.4-4.7
		c0.7-2.8,0.4-5.7-0.4-8.3c-0.9-3.3-2.9-8.2-2.6-11.7c0.3-2.1,1.4-2.3,1.9-2.9c-1.7,0.1-2.7,1.3-3.3,2.4c-0.8,1.6-0.8,2.9-1.2,4.7
		c-1.1,4.5-5.7,3.6-5.5,0c0.1-3,2.8-4.3,2.9-8.8c0-1.7-0.5-3.3-1.3-4.5c-0.7-0.9-2-2.1-3.2-2.5c-0.4,0-0.3-0.2-0.3,0.2
		c0.6,0.2,3.5,3.4,1.9,6c-0.5,0.7-1.5,1.7-2.8,1.6c-1.2-0.1-2.3-1.1-2.8-1.7c-3.2-3.7-3.1-9.9,0.5-12.8v-0.2h-0.1
		c-1.3,0.3-3,2.3-3.8,3.6c-0.9,1.6-1.5,4-1.2,6.1c0.8,5,2.3,7.3,0.1,12.7c-1.6,3.8-3.5,6.3-4.1,10.9c-0.5,3.7,0.6,7.3,3,9.8
		c0.2,0.2,0.8,0.7,1,1c-1.9,0.1-6.5-0.5-8.7-0.7C161,376,159.5,375.7,158.9,375.7z M188.9,398.7c1.1-0.4,2.3-0.6,3.3-1
		c1.1-0.4,2-0.9,3-1.2c0.1,0.1,0-0.1,0.1,0.2c0.2,0.5,0.9,5.4,0.9,5.6c-0.5-0.2-1.3-0.8-1.7-1c-1.1-0.7-2.5-1.3-3.7-1.8L188.9,398.7
		z M162,402.4l1-5.9c0.6,0.2,2,0.9,3.2,1.3c1.1,0.4,2.3,0.6,3.4,1c-0.5,0.2-1.4,0.5-2,0.7c-0.6,0.2-1.4,0.5-2,0.9L162,402.4z
		 M164.1,366.6c-0.8-0.6-1.6-1-2.9-2.1c-2.7-2.3-4.9-4.9-6.5-8.5c-6.8-15.8,6.3-31.9,24.3-32c17.9-0.1,31.4,15.8,24.6,31.8
		c-1.5,3.5-3.6,6.1-6.4,8.5c-1.2,1.1-2,1.4-2.8,2.1c-0.1,0.9,0,2-0.1,3c-0.1,0.9-0.4,1.8-0.5,2.6c2.3,0.2,10.9,1.7,11.3,3.5
		c-0.5,1.9-9.3,3.2-11.8,3.5c-8.5,1.2-20,1.1-28.6,0c-2.6-0.3-11.1-1.6-11.8-3.5c0.6-1.9,9-3.2,11.5-3.5c0-0.5-0.4-1.8-0.5-2.5
		C164.1,368.6,164.2,367.6,164.1,366.6z M171,313c0-1-0.2-1.4,0.9-1.4h12.2c0.5,0,3-0.1,3.2,0.2c0.1,0.2,0.1,3.5,0.1,4
		c-5-1.4-7.6-1.5-12.6-0.9c-1.4,0.2-2.6,0.7-3.8,0.9L171,313z M167.7,317.2c-0.3,0.1-1.4,0.7-1.7,0.9c-8.1,4.4-13.9,12.7-15,22.7
		c-0.2,2.3-0.1,7.3,0.1,9.8c0.5,4.9,3.4,10.3,6.6,13.5c0.8,0.9,1.6,1.6,2.6,2.4c0.9,0.7,1.1,0.7,1.1,1.4c0,0.6,0.1,1.9-0.1,2.5
		c-2.6,0.5-10.2,1.8-10.4,5.2c-0.1,1.4,0.1,3.6,0.4,4.9c0.8,4.8,2.9,8.9,6.2,12.1c0.4,0.4,1.1,0.9,1.4,1.2c0.1,0.2-1.2,7.2-1.4,8.1
		c-0.5,2.6-0.9,5.3-1.4,7.9c-0.4,2.6-0.9,5.3-1.4,7.9c-0.5,2.6-0.9,5.4-1.4,7.9l-1.1,6c-0.1,1.2-0.1,1.5-0.6,1.7
		c-1.4,0.7-1.3,1.5-1.5,3.2c-0.5,4.6-1.7,5.5,2.6,5.5c1.7,0,2.8,0.2,3.5-1.1c0.5-0.8,0.5-2.8,0.8-4c0.1-0.6,0.2-1.5,0.3-2.1
		c0.1-1.2-0.4-1.3-0.8-1.6l1-5.7l43,0.1l0.9,5.6c-1,0.9-0.8,1.3-0.5,2.8c0.2,1.1,0.3,2.1,0.5,3.3c0.2,1.2,0.3,1.9,1.2,2.4
		c0.8,0.4,2.3,0.2,3.3,0.2c3.2,0,2.4-1.4,2-4.4c-0.2-1.8-0.2-3.4-1.4-4.1c-0.7-0.4-0.5-0.1-0.8-1.1c-0.7-4.1-1.4-8.3-2.1-12.5
		c-0.7-4.2-1.4-8.2-2.1-12.5c-0.6-4.1-1.4-8.5-2.1-12.5c-0.3-1.6-0.3-1.2,0.5-1.9c3.5-3.3,5.8-7.1,6.8-12.2c0.3-1.5,0.9-5.4,0.2-6.6
		c-1.1-1.9-5-3-7.2-3.6c-0.5-0.2-2.6-0.5-2.9-0.6v-2.9c0.2-0.4,5.4-3.3,8.6-10.8c1-2.2,1.7-5.1,1.8-7.8c0-0.9,0-1.7,0-2.5
		c0.1-2.6,0.2-4.1-0.2-6.8c-0.9-5.7-3.1-9.9-5.8-13.6c-2.3-3-7.2-7.3-10.7-8.5c-0.4-3.6,0.9-6.8-2-8.5c-1.3-0.8-2.9-0.5-4.6-0.5
		h-10.2c-1.7,0-3.2-0.2-4.4,0.5C166.9,310.5,167.8,313.5,167.7,317.2"/>
</g>
</svg>
