<?xml version="1.0" encoding="utf-8"?>
<!-- Generator: Adobe Illustrator 27.9.0, SVG Export Plug-In . SVG Version: 6.00 Build 0)  -->
<svg version="1.1" id="Layer_1" xmlns="http://www.w3.org/2000/svg" xmlns:xlink="http://www.w3.org/1999/xlink" x="0px" y="0px"
	 viewBox="0 0 900 650" style="enable-background:new 0 0 900 650;" xml:space="preserve">
<style type="text/css">
	.st0{fill-rule:evenodd;clip-rule:evenodd;fill:#243A71;}
	.st1{fill:#FFFFFF;}
	.st2{font-family: "Exo", sans-serif;font-weight: 300}
	.st3{font-size:92.7084px;}
	.st4{font-size:52.9792px;}
	.st5{fill:#231F20;}
	.st6{font-family: "Exo", sans-serif;font-weight: bolder}
	.st7{font-family: "Exo", sans-serif;font-weight: bolder}
	.st8{fill-rule:evenodd;clip-rule:evenodd;fill:#E93A98;}
	.st8{fill-rule:evenodd;clip-rule:evenodd;fill:#E93A98;}
	.st9{fill-rule:evenodd;clip-rule:evenodd;fill:#7E650F;}
	.st10{fill-rule:evenodd;clip-rule:evenodd;fill:#6F9A38;}
	.st11{fill-rule:evenodd;clip-rule:evenodd;fill:#F29026;}
	.st12{fill-rule:evenodd;clip-rule:evenodd;fill:#8F62A5;}
	.st13{fill-rule:evenodd;clip-rule:evenodd;fill:#C371D5;}
	.st14{fill-rule:evenodd;clip-rule:evenodd;fill:#33D988;}
	.st15{font-family: "Exo", sans-serif;font-weight: bolder}
	.st16{font-size:12.5583px;}
	.st17{fill-rule:evenodd;clip-rule:evenodd;fill:#0D6FB1;}
	.st18{fill-rule:evenodd;clip-rule:evenodd;fill:#7D1F87;}
	.st19{fill-rule:evenodd;clip-rule:evenodd;fill:#E32A28;}
	.st20{fill-rule:evenodd;clip-rule:evenodd;fill:#35CBDA;}
	.st21{fill-rule:evenodd;clip-rule:evenodd;fill:#836309;}
	.st22{fill-rule:evenodd;clip-rule:evenodd;fill:#7A670E;}
	.st23{fill-rule:evenodd;clip-rule:evenodd;fill:#727272;}
	.st24{fill:#9A843E;}
	.st25{font-size:55.4834px;}
</style>
<path class="st0" d="M214.7,636.1c-8-1-15-4.5-19.1-9.7l-33-41.8c-4.9-6.2-4.9-13.8,0-19.9l33-41.8c4.2-5.2,11.2-8.7,19.1-9.7
	c157.8,0,315.6,0,473.4,0c8,1,15,4.5,19.1,9.7l33,41.8c4.9,6.2,4.9,13.8,0,19.9l-33,41.8c-4.2,5.2-11.2,8.7-19.1,9.7
	C530.3,636.1,372.5,636.1,214.7,636.1"/>
<text transform="matrix(1 0 0 1 230.2595 608.9026)" class="st1 st2 st3">26.000 </text>
<text transform="matrix(1 0 0 1 568.736 608.9026)" class="st1 st2 st4">UDS</text>
<text transform="matrix(1 0 0 1 44.6384 36.4573)" class="st5 st6 st7">Garita de seguridad - ingreso</text>
<text transform="matrix(1 0 0 1 44.6384 70.8167)" class="st5 st6 st7">Area de servicio</text>
<text transform="matrix(1 0 0 1 44.6384 105.1799)" class="st5 st6 st7">Plaza y circuito recreativa y juegos infantiles</text>
<text transform="matrix(1 0 0 1 44.6384 139.5393)" class="st5 st6 st7">Quincho 1</text>
<text transform="matrix(1 0 0 1 44.6384 173.9026)" class="st5 st6 st7">Quincho 2</text>
<text transform="matrix(1 0 0 1 44.6384 208.2659)" class="st5 st6 st7">Gym</text>
<text transform="matrix(1 0 0 1 44.6384 242.6292)" class="st5 st6 st7">Cancha multideporte</text>
<path class="st8" d="M22.2,13.9c6.7,0,12.2,5.5,12.2,12.2c0,6.7-5.5,12.2-12.2,12.2c-6.7,0-12.2-5.5-12.2-12.2
	C10,19.4,15.5,13.9,22.2,13.9"/>
<path class="st9" d="M22.2,52.5c6.7,0,12.2,5.5,12.2,12.2c0,6.7-5.5,12.2-12.2,12.2S10,71.4,10,64.7C10,57.9,15.5,52.5,22.2,52.5"/>
<path class="st10" d="M22.2,85.4c6.7,0,12.2,5.5,12.2,12.2c0,6.7-5.5,12.2-12.2,12.2c-6.7,0-12.2-5.5-12.2-12.2
	C10,90.8,15.5,85.4,22.2,85.4"/>
<path class="st11" d="M22.2,119.8c6.7,0,12.2,5.5,12.2,12.2c0,6.7-5.5,12.2-12.2,12.2c-6.7,0-12.2-5.5-12.2-12.2
	C10,125.3,15.5,119.8,22.2,119.8"/>
<path class="st12" d="M22.2,155.1c6.7,0,12.2,5.5,12.2,12.2c0,6.7-5.5,12.2-12.2,12.2c-6.7,0-12.2-5.5-12.2-12.2
	C10,160.6,15.5,155.1,22.2,155.1"/>
<path class="st13" d="M22.2,187.2c6.7,0,12.2,5.5,12.2,12.2c0,6.7-5.5,12.2-12.2,12.2c-6.7,0-12.2-5.5-12.2-12.2
	C10,192.6,15.5,187.2,22.2,187.2"/>
<path class="st14" d="M22.2,221.6c6.7,0,12.2,5.5,12.2,12.2c0,6.7-5.5,12.2-12.2,12.2c-6.7,0-12.2-5.5-12.2-12.2
	C10,227.1,15.5,221.6,22.2,221.6"/>
<text transform="matrix(1 0 0 1 18.4626 69.3674)" class="st1 st15 st16">2</text>
<text transform="matrix(1 0 0 1 19.9587 30.8127)" class="st1 st15 st16">1</text>
<text transform="matrix(1 0 0 1 18.6657 238.4963)" class="st1 st15 st16">7</text>
<text transform="matrix(1 0 0 1 18.5642 102.2112)" class="st1 st15 st16">3</text>
<text transform="matrix(1 0 0 1 18.1813 136.676)" class="st1 st15 st16">4</text>
<text transform="matrix(1 0 0 1 18.404 171.9143)" class="st1 st15 st16">5</text>
<text transform="matrix(1 0 0 1 18.4118 204.0198)" class="st1 st15 st16">6</text>
<text transform="matrix(1 0 0 1 540.361 40.7854)" class="st5 st6 st7">Cancha de padel</text>
<text transform="matrix(1 0 0 1 540.361 75.1487)" class="st5 st6 st7">Club house</text>
<text transform="matrix(1 0 0 1 540.361 109.5081)" class="st5 st6 st7">Salón de Eventos</text>
<text transform="matrix(1 0 0 1 540.361 143.8713)" class="st5 st6 st7">Sector piscina y solarium </text>
<text transform="matrix(1 0 0 1 540.361 178.2307)" class="st5 st6 st7">Estaconamientos</text>
<text transform="matrix(1 0 0 1 540.361 212.594)" class="st5 st6 st7">Planta de tratamiento de eﬂuentes</text>
<text transform="matrix(1 0 0 1 540.361 246.9534)" class="st5 st6 st7">Minimarket</text>
<path class="st17" d="M517.9,18c6.7,0,12.2,5.5,12.2,12.2c0,6.7-5.5,12.2-12.2,12.2c-6.7,0-12.2-5.5-12.2-12.2
	C505.7,23.5,511.2,18,517.9,18"/>
<path class="st18" d="M517.9,53.3c6.7,0,12.2,5.5,12.2,12.2c0,6.7-5.5,12.2-12.2,12.2c-6.7,0-12.2-5.5-12.2-12.2
	C505.7,58.8,511.2,53.3,517.9,53.3"/>
<path class="st19" d="M517.9,87.8c6.7,0,12.2,5.5,12.2,12.2c0,6.7-5.5,12.2-12.2,12.2c-6.7,0-12.2-5.5-12.2-12.2
	C505.7,93.2,511.2,87.8,517.9,87.8"/>
<path class="st20" d="M517.9,122.3c6.7,0,12.2,5.5,12.2,12.2c0,6.7-5.5,12.2-12.2,12.2c-6.7,0-12.2-5.5-12.2-12.2
	C505.7,127.7,511.2,122.3,517.9,122.3"/>
<path class="st21" d="M517.9,158.3c6.7,0,12.2,5.5,12.2,12.2c0,6.7-5.5,12.2-12.2,12.2c-6.7,0-12.2-5.5-12.2-12.2
	C505.7,163.8,511.2,158.3,517.9,158.3"/>
<path class="st22" d="M517.9,193.9c6.7,0,12.2,5.5,12.2,12.2c0,6.7-5.5,12.2-12.2,12.2c-6.7,0-12.2-5.5-12.2-12.2
	C505.7,199.3,511.2,193.9,517.9,193.9"/>
<path class="st23" d="M517.9,230c6.7,0,12.2,5.5,12.2,12.2c0,6.7-5.5,12.2-12.2,12.2c-6.7,0-12.2-5.5-12.2-12.2
	C505.7,235.4,511.2,230,517.9,230"/>
<text transform="matrix(1 0 0 1 511.5251 246.8362)" class="st1 st15 st16">14</text>
<text transform="matrix(1 0 0 1 514.0446 34.8752)" class="st1 st15 st16">8</text>
<text transform="matrix(1 0 0 1 514.1813 70.1487)" class="st1 st15 st16">9</text>
<text transform="matrix(1 0 0 1 511.6345 104.6252)" class="st1 st15 st16">10</text>
<text transform="matrix(1 0 0 1 513.3102 139.137)" class="st1 st15 st16">11</text>
<text transform="matrix(1 0 0 1 511.9313 175.2151)" class="st1 st15 st16">12</text>
<text transform="matrix(1 0 0 1 511.9899 210.7307)" class="st1 st15 st16">13</text>
<text transform="matrix(1 0 0 1 180.1501 427.9846)" class="st24 st2 st25">LOTES DESDE 360 M²</text>
<text transform="matrix(1 0 0 1 298.6813 493.926)" class="st24 st2 st25">A PARTIR DE</text>
</svg>
