<?xml version="1.0" encoding="utf-8"?>
<!-- Generator: Adobe Illustrator 27.9.0, SVG Export Plug-In . SVG Version: 6.00 Build 0)  -->
<svg version="1.1" id="Layer_1" xmlns="http://www.w3.org/2000/svg" xmlns:xlink="http://www.w3.org/1999/xlink" x="0px" y="0px"
	 viewBox="0 0 1000 800" style="enable-background:new 0 0 1000 800;" xml:space="preserve">
<style type="text/css">
	.st0{opacity:0.5;fill-rule:evenodd;clip-rule:evenodd;fill:#21376F;}
	.st1{opacity:0.5;fill:#21376F;}
	.st2{font-family: "Exo", sans-serif;font-weight: bolder}
	.st3{font-size:114.1084px;}
	.st4{opacity:0.5;fill-rule:evenodd;clip-rule:evenodd;fill:#FFFFFF;}
	.st5{fill:#21376F;}
	.st6{font-size:15.8222px;}
	.st7{fill:#FFFFFF;}
	.st8{font-family: "Exo", sans-serif;font-weight: bolder}
	.st9{font-size:16.0611px;}
	.st10{fill-rule:evenodd;clip-rule:evenodd;fill:#FFFFFF;}
	.st11{font-size:25.8798px;}
	.st12{font-size:37.0208px;}
	.st13{font-size:55.5332px;}
</style>
<path class="st0" d="M75.1,19.3h696c-3.9,11.8-6,24.4-6,37.4c0,66.1,53.6,119.6,119.6,119.6c10.7,0,21.1-1.4,31-4.1v594.9
	c0,18.6-15.2,33.8-33.8,33.8H75.1c-18.6,0-33.8-15.2-33.8-33.8V53.1C41.3,34.5,56.5,19.3,75.1,19.3"/>
<g>
	<text transform="matrix(-6.123234e-17 -1 1 -6.123234e-17 823.5256 763.9443)" class="st1 st2 st3"> T</text>
	<text transform="matrix(-6.123234e-17 -1 1 -6.123234e-17 823.5266 668.0928)" class="st1 st2 st3">ODO a </text>
</g>
<path class="st1" d="M821.2,287.6l2.4-0.2c3.1-0.3,5.3-3,5-6.1c-0.3-3.1-3-5.3-6.1-5l-2.4,0.2L821.2,287.6z"/>
<path class="st1" d="M818.1,287.9l-1.1-11.4c-1.6-0.2-3.3-0.9-5-1.6c-2.6-1-5.3-2.1-8.1-1.8c-7.6,0.7-10.7,5.1-10.4,9
	c0.2,2.7,3.5,9.3,15.2,8.2c2.6-0.2,4.3-0.8,5.9-1.4C815.7,288.6,816.7,288.2,818.1,287.9L818.1,287.9z"/>
<path class="st1" d="M799.7,268.6l2.4,0.2c3.1,0.3,5.8-1.9,6.1-5c0.3-3.1-1.9-5.8-5-6.1l-2.4-0.2L799.7,268.6z"/>
<path class="st1" d="M791.4,270c-2.6,1-5.4,2-8.1,1.7c-7.6-0.8-10.7-5.3-10.3-9.1c0.3-2.6,3.6-9.3,15.3-8c2.6,0.3,4.2,0.9,5.9,1.5
	c1.1,0.4,2.2,0.8,3.5,1l-1.2,11.4C794.9,268.7,793.2,269.3,791.4,270L791.4,270z"/>
<path class="st1" d="M771.4,287.6l2.4-0.2c3.1-0.3,5.3-3,5-6.1c-0.3-3.1-3-5.3-6.1-5l-2.4,0.2L771.4,287.6z"/>
<path class="st1" d="M768.2,287.9l-1.1-11.4c-1.6-0.2-3.3-0.9-5-1.6c-2.6-1-5.3-2.1-8.1-1.8c-7.6,0.7-10.7,5.1-10.4,9
	c0.2,2.7,3.5,9.3,15.2,8.2c2.6-0.2,4.3-0.8,5.9-1.4C765.8,288.6,766.9,288.2,768.2,287.9L768.2,287.9z"/>
<path class="st1" d="M749.8,268.6l2.4,0.2c3.1,0.3,5.8-1.9,6.1-5c0.3-3.1-1.9-5.8-5-6.1l-2.4-0.2L749.8,268.6z"/>
<path class="st1" d="M741.6,270c-2.6,1-5.4,2-8.1,1.7c-7.6-0.8-10.7-5.3-10.3-9.1c0.3-2.6,3.6-9.3,15.3-8c2.6,0.3,4.2,0.9,5.9,1.5
	c1.1,0.4,2.2,0.8,3.5,1l-1.2,11.4C745,268.7,743.3,269.3,741.6,270L741.6,270z"/>
<path class="st4" d="M85.4,160.3h559c2.5,0,4.6-2.1,4.6-4.6V62.8c0-2.5-2.1-4.6-4.6-4.6h-559c-2.5,0-4.6,2.1-4.6,4.6v92.8
	C80.7,158.2,82.8,160.3,85.4,160.3"/>
<path class="st5" d="M128.3,103.6V92.9c0-1.2-1-2.1-2.1-2.1c-1.2,0-2.1,1-2.1,2.1v8.6h-6.4c-1.2,0-2.1,1-2.1,2.1
	c0,1.2,1,2.1,2.1,2.1h8.6C127.3,105.7,128.3,104.8,128.3,103.6z"/>
<path class="st5" d="M149.7,82.2c-1.2,0-2.1,1-2.1,2.1v5.1c-4.8-7.2-12.8-11.5-21.4-11.5c-14.2,0-25.7,11.5-25.7,25.7
	c0,10.6,6.5,20.1,16.3,23.9c0.2,0.1,0.5,0.1,0.8,0.1c0,0,0,0,0,0c1.2,0,2.1-1,2.1-2.1c0-0.9-0.5-1.7-1.4-2
	c-8.2-3.2-13.7-11.1-13.7-20c0-11.8,9.6-21.4,21.4-21.4c7.6,0,14.7,4.1,18.5,10.7l-5.6,0c-1.2,0-2.1,1-2.1,2.1c0,1.2,1,2.1,2.1,2.1
	h6.4c3.5,0,6.4-2.9,6.4-6.4v-6.4C151.8,83.2,150.8,82.2,149.7,82.2z"/>
<text transform="matrix(1 0 0 1 125.5071 123.6616)" class="st5 st2 st6">1min</text>
<path class="st7" d="M622.8,92.2c-0.1,0-0.1-0.1-0.2-0.1l-45.4-15.7c0,0,0,0,0,0c-0.3-0.1-0.6-0.1-0.9,0c0,0,0,0,0,0l-45.4,15.7
	c-0.1,0-0.2,0.1-0.2,0.1c-0.5,0.3-0.8,0.8-0.8,1.4c0,0.6,0.3,1.1,0.8,1.4c0.1,0,0.1,0.1,0.2,0.1l11.5,4v14.4
	c-2.3,0.7-3.9,2.8-3.9,5.2c0,1.9,1,3.6,2.5,4.6c-0.2,1-0.4,2-0.7,3.2c-0.6,3.3-1.1,7.6-1.1,12.5c0,0.3,0.1,0.6,0.3,0.9
	c0.6,0.8,2.1,2.3,4.4,2.3c2.3,0,3.9-1.4,4.4-2.3c0.2-0.3,0.3-0.6,0.3-0.9c0-5-0.5-9.2-1.1-12.5c-0.2-1.2-0.4-2.3-0.7-3.2
	c1.5-1,2.5-2.7,2.5-4.6c0-2.5-1.7-4.6-3.9-5.2v-13.3l30.8,10.6c0,0,0,0,0,0c0.3,0.1,0.6,0.1,0.9,0c0,0,0,0,0,0l45.4-15.7
	c0.1,0,0.2-0.1,0.2-0.1c0.5-0.3,0.8-0.8,0.8-1.4C623.6,93,623.3,92.5,622.8,92.2L622.8,92.2z"/>
<path class="st7" d="M576.6,114.1c-0.2,0-0.3,0-0.5-0.1l-24.5-8.5V128c0,0.9,0.7,1.6,1.6,1.6c0.2,0,15.2,0.1,22.5,5.9
	c0.3,0.2,0.6,0.3,1,0.3c0.3,0,0.7-0.1,1-0.3c7.3-5.8,22.4-5.9,22.5-5.9c0.9,0,1.6-0.7,1.6-1.6l0-22.5l-24.5,8.5
	C577,114.1,576.8,114.1,576.6,114.1L576.6,114.1z"/>
<text transform="matrix(1 0 0 1 190.6345 92.3018)" class="st8 st9">| C</text>
<text transform="matrix(1 0 0 1 208.1404 92.3018)" class="st8 st9">olegio Inmaculado C</text>
<text transform="matrix(1 0 0 1 357.8113 92.3018)" class="st8 st9">or</text>
<text transform="matrix(1 0 0 1 373.4226 92.3018)" class="st8 st9">azón de M</text>
<text transform="matrix(1 0 0 1 448.8923 92.3018)" class="st8 st9">aría</text>
<text transform="matrix(1 0 0 1 190.6335 114.8511)" class="st8 st9">| C</text>
<text transform="matrix(1 0 0 1 208.1399 114.8511)" class="st8 st9">olegio Católico Cristo R</text>
<text transform="matrix(1 0 0 1 378.1433 114.8511)" class="st8 st9">e</text>
<text transform="matrix(1 0 0 1 386.656 114.8511)" class="st8 st9">y</text>
<text transform="matrix(1 0 0 1 190.6331 137.3999)" class="st8 st9">| M</text>
<text transform="matrix(1 0 0 1 212.4441 137.3999)" class="st8 st9">aecenas v</text>
<text transform="matrix(1 0 0 1 285.4241 137.3999)" class="st8 st9">el dictum</text>
<path class="st4" d="M85.4,401h559c2.5,0,4.6-2.1,4.6-4.6v-92.8c0-2.5-2.1-4.6-4.6-4.6h-559c-2.5,0-4.6,2.1-4.6,4.6v92.8
	C80.7,398.9,82.8,401,85.4,401"/>
<path class="st7" d="M604.1,362.9h-15.9v15.9H565v-15.9h-15.9v-23.2H565v-15.9l23.2,0v15.9l15.9,0L604.1,362.9L604.1,362.9z
	 M576.6,310.7c-21.7,0-39.3,17.6-39.3,39.3c0,21.7,17.6,39.3,39.3,39.3c21.7,0,39.3-17.6,39.3-39.3
	C615.9,328.3,598.3,310.7,576.6,310.7z"/>
<path class="st5" d="M128.3,344.3v-10.7c0-1.2-1-2.1-2.1-2.1c-1.2,0-2.1,1-2.1,2.1v8.6h-6.4c-1.2,0-2.1,1-2.1,2.1
	c0,1.2,1,2.1,2.1,2.1h8.6C127.3,346.5,128.3,345.5,128.3,344.3z"/>
<path class="st5" d="M149.7,322.9c-1.2,0-2.1,1-2.1,2.1v5.1c-4.8-7.2-12.8-11.5-21.4-11.5c-14.2,0-25.7,11.5-25.7,25.7
	c0,10.6,6.5,20.1,16.3,23.9c0.2,0.1,0.5,0.1,0.8,0.1c0,0,0,0,0,0c1.2,0,2.1-1,2.1-2.1c0-0.9-0.5-1.7-1.4-2
	c-8.2-3.2-13.7-11.1-13.7-20c0-11.8,9.6-21.4,21.4-21.4c7.6,0,14.7,4.1,18.5,10.7l-5.6,0c-1.2,0-2.1,1-2.1,2.1c0,1.2,1,2.1,2.1,2.1
	h6.4c3.5,0,6.4-2.9,6.4-6.4v-6.4C151.8,323.9,150.8,322.9,149.7,322.9z"/>
<text transform="matrix(1 0 0 1 125.5071 364.3838)" class="st5 st2 st6">30min</text>
<path class="st4" d="M85.4,521.4h559c2.5,0,4.6-2.1,4.6-4.6v-92.8c0-2.5-2.1-4.6-4.6-4.6h-559c-2.5,0-4.6,2.1-4.6,4.6v92.8
	C80.7,519.3,82.8,521.4,85.4,521.4"/>
<path class="st5" d="M128.3,464.7V454c0-1.2-1-2.1-2.1-2.1c-1.2,0-2.1,1-2.1,2.1v8.6h-6.4c-1.2,0-2.1,1-2.1,2.1c0,1.2,1,2.1,2.1,2.1
	h8.6C127.3,466.8,128.3,465.9,128.3,464.7z"/>
<path class="st5" d="M149.7,443.3c-1.2,0-2.1,1-2.1,2.1v5.1c-4.8-7.2-12.8-11.5-21.4-11.5c-14.2,0-25.7,11.5-25.7,25.7
	c0,10.6,6.5,20.1,16.3,23.9c0.2,0.1,0.5,0.1,0.8,0.1c0,0,0,0,0,0c1.2,0,2.1-1,2.1-2.1c0-0.9-0.5-1.7-1.4-2
	c-8.2-3.2-13.7-11.1-13.7-20c0-11.8,9.6-21.4,21.4-21.4c7.6,0,14.7,4.1,18.5,10.7l-5.6,0c-1.2,0-2.1,1-2.1,2.1c0,1.2,1,2.1,2.1,2.1
	h6.4c3.5,0,6.4-2.9,6.4-6.4v-6.4C151.8,444.3,150.8,443.3,149.7,443.3L149.7,443.3z"/>
<text transform="matrix(1 0 0 1 125.5071 484.7441)" class="st5 st2 st6">1min</text>
<path class="st4" d="M85.4,280.6h559c2.5,0,4.6-2.1,4.6-4.6v-92.8c0-2.5-2.1-4.6-4.6-4.6h-559c-2.5,0-4.6,2.1-4.6,4.6V276
	C80.7,278.6,82.8,280.6,85.4,280.6"/>
<path class="st7" d="M619.1,226c0,2.1-1.8,3.9-3.9,3.9h-8.4c-2.1,0-3.9-1.8-3.9-3.9v-5.7c0-2.1,1.8-3.9,3.9-3.9h8.4
	c2.1,0,3.9,1.8,3.9,3.9V226z M598.6,230.5h-16.2V217h16.2V230.5z M576.9,230.5h-16.2V217h16.2V230.5z M554.7,230.8h-16.2v-13.5h16.2
	V230.8z M622.7,220.3c0-5.1-3.3-9.3-6.9-9.3h-78.2c-3.9,0-6.9,4.2-6.9,9.3v20.2l10.8,0c0.6-4.2,4.2-7.2,8.4-7.2
	c4.2,0,7.8,3.3,8.4,7.2h36.4c0.6-4.2,4.2-7.2,8.4-7.2c4.2,0,7.8,3.3,8.4,7.2h11.1V220.3z"/>
<path class="st7" d="M556.5,241.6c0-3.7-3-6.6-6.6-6.6c-3.7,0-6.6,3-6.6,6.6c0,3.7,3,6.6,6.6,6.6
	C553.5,248.3,556.5,245.3,556.5,241.6"/>
<path class="st7" d="M609.7,241.6c0-3.7-3-6.6-6.6-6.6c-3.7,0-6.6,3-6.6,6.6c0,3.7,3,6.6,6.6,6.6
	C606.8,248.3,609.7,245.3,609.7,241.6"/>
<rect x="530.6" y="241.9" class="st7" width="9" height="2.1"/>
<path class="st5" d="M128.3,224v-10.7c0-1.2-1-2.1-2.1-2.1c-1.2,0-2.1,1-2.1,2.1v8.6h-6.4c-1.2,0-2.1,1-2.1,2.1c0,1.2,1,2.1,2.1,2.1
	h8.6C127.3,226.1,128.3,225.1,128.3,224z"/>
<path class="st5" d="M149.7,202.6c-1.2,0-2.1,1-2.1,2.1v5.1c-4.8-7.2-12.8-11.5-21.4-11.5c-14.2,0-25.7,11.5-25.7,25.7
	c0,10.6,6.5,20.1,16.3,23.9c0.2,0.1,0.5,0.1,0.8,0.1c0,0,0,0,0,0c1.2,0,2.1-1,2.1-2.1c0-0.9-0.5-1.7-1.4-2
	c-8.2-3.2-13.7-11.1-13.7-20c0-11.8,9.6-21.4,21.4-21.4c7.6,0,14.7,4.1,18.5,10.7l-5.6,0c-1.2,0-2.1,1-2.1,2.1c0,1.2,1,2.1,2.1,2.1
	h6.4c3.5,0,6.4-2.9,6.4-6.4v-6.4C151.8,203.5,150.8,202.6,149.7,202.6z"/>
<text transform="matrix(1 0 0 1 125.5071 244.0225)" class="st5 st2 st6">5min</text>
<text transform="matrix(1 0 0 1 190.6345 212.6626)" class="st8 st9">| M</text>
<text transform="matrix(1 0 0 1 212.4451 212.6626)" class="st8 st9">aecenas v</text>
<text transform="matrix(1 0 0 1 285.4255 212.6626)" class="st8 st9">el dictum</text>
<text transform="matrix(1 0 0 1 190.6345 235.2114)" class="st8 st9">| C</text>
<text transform="matrix(1 0 0 1 208.1404 235.2114)" class="st8 st9">olegio Inmaculado C</text>
<text transform="matrix(1 0 0 1 357.8113 235.2114)" class="st8 st9">or</text>
<text transform="matrix(1 0 0 1 373.4226 235.2114)" class="st8 st9">azón de M</text>
<text transform="matrix(1 0 0 1 448.8923 235.2114)" class="st8 st9">aría</text>
<text transform="matrix(1 0 0 1 190.6335 257.7612)" class="st8 st9">| C</text>
<text transform="matrix(1 0 0 1 208.1394 257.7612)" class="st8 st9">olegio Católico Cristo R</text>
<text transform="matrix(1 0 0 1 378.1433 257.7612)" class="st8 st9">e</text>
<text transform="matrix(1 0 0 1 386.656 257.7612)" class="st8 st9">y</text>
<path class="st4" d="M85.4,641.7h559c2.5,0,4.6-2.1,4.6-4.6v-92.8c0-2.5-2.1-4.6-4.6-4.6h-559c-2.5,0-4.6,2.1-4.6,4.6v92.8
	C80.7,639.6,82.8,641.7,85.4,641.7"/>
<path class="st5" d="M128.3,585v-10.7c0-1.2-1-2.1-2.1-2.1c-1.2,0-2.1,1-2.1,2.1v8.6h-6.4c-1.2,0-2.1,1-2.1,2.1c0,1.2,1,2.1,2.1,2.1
	h8.6C127.3,587.2,128.3,586.2,128.3,585z"/>
<path class="st5" d="M149.7,563.7c-1.2,0-2.1,1-2.1,2.1v5.1c-4.8-7.2-12.8-11.5-21.4-11.5c-14.2,0-25.7,11.5-25.7,25.7
	c0,10.6,6.5,20.1,16.3,23.9c0.2,0.1,0.5,0.1,0.8,0.1c0,0,0,0,0,0c1.2,0,2.1-1,2.1-2.1c0-0.9-0.5-1.7-1.4-2
	c-8.2-3.2-13.7-11.1-13.7-20c0-11.8,9.6-21.4,21.4-21.4c7.6,0,14.7,4.1,18.5,10.7l-5.6,0c-1.2,0-2.1,1-2.1,2.1c0,1.2,1,2.1,2.1,2.1
	h6.4c3.5,0,6.4-2.9,6.4-6.4v-6.4C151.8,564.6,150.8,563.7,149.7,563.7L149.7,563.7z"/>
<text transform="matrix(1 0 0 1 125.5071 605.1055)" class="st5 st2 st6">1min</text>
<path class="st4" d="M85.4,762.1h559c2.5,0,4.6-2.1,4.6-4.6v-92.8c0-2.5-2.1-4.6-4.6-4.6h-559c-2.5,0-4.6,2.1-4.6,4.6v92.8
	C80.7,760,82.8,762.1,85.4,762.1"/>
<path class="st7" d="M573,735.7c1.8,0,3.4,0.7,4.7,2c1.2,1.3,1.8,2.8,1.8,4.5c0,1.8-0.7,3.4-1.9,4.6c-1.2,1.2-2.8,1.9-4.6,1.9
	c-1.8,0-3.4-0.7-4.6-1.9c-1.2-1.2-1.9-2.8-1.9-4.6c0-1.8,0.7-3.4,1.9-4.6C569.5,736.4,571.2,735.7,573,735.7z"/>
<path class="st7" d="M592.5,735.7c1.8,0,3.4,0.7,4.6,1.9c1.2,1.2,1.9,2.8,1.9,4.6c0,1.8-0.7,3.4-1.9,4.6c-1.2,1.2-2.8,1.9-4.6,1.9
	c-1.8,0-3.4-0.7-4.6-1.9c-1.2-1.2-1.9-2.8-1.9-4.6c0-1.8,0.7-3.4,1.9-4.6C589,736.4,590.7,735.7,592.5,735.7L592.5,735.7z"/>
<path class="st7" d="M546.1,678c-1.3,0-2.3-1-2.3-2.3c0-1.3,1-2.3,2.3-2.3h12.5c1.2,0,2.1,0.9,2.3,2l2.9,13.5h40.8l0.5,0.1
	c1.3,0.3,2,1.5,1.8,2.8l-4.2,19.4c-0.2,1-1.2,1.8-2.3,1.8l-31.5-0.1l2.4,11.1h30.2c0.7,0,1.3,0.3,1.8,0.8l5.6,5.6
	c0.9,0.9,0.9,2.4,0,3.3c-0.9,0.9-2.4,0.9-3.3,0l-5-5h-31.1c-1.1,0-2-0.8-2.3-1.8L556.7,678H546.1z"/>
<path class="st5" d="M128.3,705.4v-10.7c0-1.2-1-2.1-2.1-2.1c-1.2,0-2.1,1-2.1,2.1v8.6h-6.4c-1.2,0-2.1,1-2.1,2.1
	c0,1.2,1,2.1,2.1,2.1h8.6C127.3,707.5,128.3,706.6,128.3,705.4z"/>
<path class="st5" d="M149.7,684c-1.2,0-2.1,1-2.1,2.1v5.1c-4.8-7.2-12.8-11.5-21.4-11.5c-14.2,0-25.7,11.5-25.7,25.7
	c0,10.6,6.5,20.1,16.3,23.9c0.2,0.1,0.5,0.1,0.8,0.1c0,0,0,0,0,0c1.2,0,2.1-1,2.1-2.1c0-0.9-0.5-1.7-1.4-2
	c-8.2-3.2-13.7-11.1-13.7-20c0-11.8,9.6-21.4,21.4-21.4c7.6,0,14.7,4.1,18.5,10.7l-5.6,0c-1.2,0-2.1,1-2.1,2.1c0,1.2,1,2.1,2.1,2.1
	h6.4c3.5,0,6.4-2.9,6.4-6.4v-6.4C151.8,685,150.8,684,149.7,684L149.7,684z"/>
<text transform="matrix(1 0 0 1 125.5071 725.4658)" class="st5 st2 st6">1min</text>
<text transform="matrix(1 0 0 1 190.6345 320.3516)" class="st8 st9">| C</text>
<text transform="matrix(1 0 0 1 208.1404 320.3516)" class="st8 st9">olegio Inmaculado C</text>
<text transform="matrix(1 0 0 1 357.8113 320.3516)" class="st8 st9">or</text>
<text transform="matrix(1 0 0 1 373.4226 320.3516)" class="st8 st9">azón de M</text>
<text transform="matrix(1 0 0 1 448.8923 320.3516)" class="st8 st9">aría</text>
<text transform="matrix(1 0 0 1 190.6335 342.9004)" class="st8 st9">| C</text>
<text transform="matrix(1 0 0 1 208.1399 342.9004)" class="st8 st9">olegio Católico Cristo R</text>
<text transform="matrix(1 0 0 1 378.1433 342.9004)" class="st8 st9">e</text>
<text transform="matrix(1 0 0 1 386.656 342.9004)" class="st8 st9">y</text>
<text transform="matrix(1 0 0 1 190.6331 365.4502)" class="st8 st9">| M</text>
<text transform="matrix(1 0 0 1 212.4441 365.4502)" class="st8 st9">aecenas v</text>
<text transform="matrix(1 0 0 1 285.4241 365.4502)" class="st8 st9">el dictum</text>
<text transform="matrix(1 0 0 1 190.6331 387.999)" class="st8 st9">| C</text>
<text transform="matrix(1 0 0 1 208.1389 387.999)" class="st8 st9">olegio Inmaculado C</text>
<text transform="matrix(1 0 0 1 357.8098 387.999)" class="st8 st9">or</text>
<text transform="matrix(1 0 0 1 373.4207 387.999)" class="st8 st9">azón de M</text>
<text transform="matrix(1 0 0 1 448.8904 387.999)" class="st8 st9">aría</text>
<text transform="matrix(1 0 0 1 190.6345 453.3838)" class="st8 st9">| C</text>
<text transform="matrix(1 0 0 1 208.1404 453.3838)" class="st8 st9">olegio Inmaculado C</text>
<text transform="matrix(1 0 0 1 357.8113 453.3838)" class="st8 st9">or</text>
<text transform="matrix(1 0 0 1 373.4226 453.3838)" class="st8 st9">azón de M</text>
<text transform="matrix(1 0 0 1 448.8923 453.3838)" class="st8 st9">aría</text>
<text transform="matrix(1 0 0 1 190.6335 475.9336)" class="st8 st9">| C</text>
<text transform="matrix(1 0 0 1 208.1399 475.9336)" class="st8 st9">olegio Católico Cristo R</text>
<text transform="matrix(1 0 0 1 378.1433 475.9336)" class="st8 st9">e</text>
<text transform="matrix(1 0 0 1 386.656 475.9336)" class="st8 st9">y</text>
<text transform="matrix(1 0 0 1 190.6331 498.4824)" class="st8 st9">| M</text>
<text transform="matrix(1 0 0 1 212.4441 498.4824)" class="st8 st9">aecenas v</text>
<text transform="matrix(1 0 0 1 285.4241 498.4824)" class="st8 st9">el dictum</text>
<path class="st7" d="M579.6,609.9c0,4.1-3.3,7.4-7.4,7.4l-14.8,0c-4.1,0-7.4-3.3-7.4-7.4l0-19.2h29.6V609.9z M557.4,564.1h14.8
	c4.1,0,7.4,3.3,7.4,7.4v10.4H550v-10.4C550,567.4,553.3,564.1,557.4,564.1L557.4,564.1z M612.1,577.2c-0.1-5-2.1-9.7-5.6-13.2
	l-7.5-7.5c-0.8-0.8-2-1.3-3.1-1.3c-2.5,0-4.4,2-4.4,4.4c0,1.2,0.5,2.3,1.3,3.1l4.6,4.6v7c0,0,0,0,0,0c0,3.5,2.5,6.5,5.9,7.2l0,28.2
	c0,0.8-0.7,1.5-1.5,1.5c-0.8,0-1.5-0.7-1.5-1.5v-3c0-5.7-4.6-10.4-10.4-10.4l-1.5,0v-25.1c0-9-7.3-16.3-16.3-16.3h-14.8
	c-9,0-16.3,7.3-16.3,16.3v38.4c0,9,7.3,16.3,16.3,16.3l14.8,0c9,0,16.3-7.3,16.3-16.3v-4.4h1.5c0.8,0,1.5,0.7,1.5,1.5v3
	c0,5.7,4.6,10.4,10.4,10.4c5.7,0,10.4-4.6,10.4-10.4C612.1,604.2,612.1,577.3,612.1,577.2z"/>
<path class="st7" d="M610.1,472l-9.9-7.2v46l5.1,0c6.5,0,11.8-5.3,11.8-11.8v-13.3C617.1,480.2,614.5,475.2,610.1,472z M553.1,464.8
	l-9.9,7.2c-4.4,3.2-6.9,8.2-6.9,13.6V499c0,6.5,5.3,11.8,11.8,11.8h5.1V464.8z M569.9,443.4h3.4v6.7l-13.5,9.8v50.9h6.7v-16.8
	c0-5.6,4.5-10.1,10.1-10.1c5.6,0,10.1,4.5,10.1,10.1v16.8l6.7,0v-50.9l-13.5-9.8v-6.7h3.4c1.9,0,3.4-1.5,3.4-3.4
	c0-1.9-1.5-3.4-3.4-3.4H580v-3.4c0-1.9-1.5-3.4-3.4-3.4c-1.9,0-3.4,1.5-3.4,3.4v3.4h-3.4c-1.9,0-3.4,1.5-3.4,3.4
	S568,443.4,569.9,443.4z M580,493.9v16.8h-6.7v-16.8c0-1.9,1.5-3.4,3.4-3.4C578.5,490.5,580,492,580,493.9L580,493.9z"/>
<text transform="matrix(1 0 0 1 190.6345 565.9473)" class="st8 st9">| C</text>
<text transform="matrix(1 0 0 1 208.1404 565.9473)" class="st8 st9">olegio Católico Cristo R</text>
<text transform="matrix(1 0 0 1 378.1443 565.9473)" class="st8 st9">e</text>
<text transform="matrix(1 0 0 1 386.657 565.9473)" class="st8 st9">y</text>
<text transform="matrix(1 0 0 1 190.634 588.4961)" class="st8 st9">| C</text>
<text transform="matrix(1 0 0 1 208.1404 588.4961)" class="st8 st9">olegio Inmaculado C</text>
<text transform="matrix(1 0 0 1 357.8108 588.4961)" class="st8 st9">or</text>
<text transform="matrix(1 0 0 1 373.4226 588.4961)" class="st8 st9">azón de M</text>
<text transform="matrix(1 0 0 1 448.8923 588.4961)" class="st8 st9">aría</text>
<text transform="matrix(1 0 0 1 190.6335 611.0459)" class="st8 st9">| M</text>
<text transform="matrix(1 0 0 1 212.4441 611.0459)" class="st8 st9">aecenas v</text>
<text transform="matrix(1 0 0 1 285.4241 611.0459)" class="st8 st9">el dictum</text>
<text transform="matrix(1 0 0 1 190.6345 681.4336)" class="st8 st9">| C</text>
<text transform="matrix(1 0 0 1 208.1404 681.4336)" class="st8 st9">olegio Inmaculado C</text>
<text transform="matrix(1 0 0 1 357.8113 681.4336)" class="st8 st9">or</text>
<text transform="matrix(1 0 0 1 373.4226 681.4336)" class="st8 st9">azón de M</text>
<text transform="matrix(1 0 0 1 448.8923 681.4336)" class="st8 st9">aría</text>
<text transform="matrix(1 0 0 1 190.6335 703.9824)" class="st8 st9">| C</text>
<text transform="matrix(1 0 0 1 208.1399 703.9824)" class="st8 st9">olegio Católico Cristo R</text>
<text transform="matrix(1 0 0 1 378.1433 703.9824)" class="st8 st9">e</text>
<text transform="matrix(1 0 0 1 386.656 703.9824)" class="st8 st9">y</text>
<text transform="matrix(1 0 0 1 190.6331 726.5322)" class="st8 st9">| M</text>
<text transform="matrix(1 0 0 1 212.4441 726.5322)" class="st8 st9">aecenas v</text>
<text transform="matrix(1 0 0 1 285.4241 726.5322)" class="st8 st9">el dictum</text>
<text transform="matrix(1 0 0 1 190.6331 749.0811)" class="st8 st9">| C</text>
<text transform="matrix(1 0 0 1 208.1389 749.0811)" class="st8 st9">olegio Inmaculado C</text>
<text transform="matrix(1 0 0 1 357.8098 749.0811)" class="st8 st9">or</text>
<text transform="matrix(1 0 0 1 373.4207 749.0811)" class="st8 st9">azón de M</text>
<text transform="matrix(1 0 0 1 448.8904 749.0811)" class="st8 st9">aría</text>
<path class="st10" d="M756.8,6.8h166.4c14.6,0,26.6,12,26.6,26.6v119.8c0,11.3-7.1,20.9-17,24.8c5.2-1,9.9-3.5,13.6-7.2
	c4.7-4.7,7.6-11.2,7.6-18.3V29.7c0-7.1-2.9-13.6-7.6-18.3c-4.7-4.7-11.2-7.6-18.3-7.6H757.5c-7.1,0-13.6,2.9-18.3,7.6
	c-3,3-5.3,6.7-6.5,10.8C736.9,13.1,746.1,6.8,756.8,6.8 M757.5,1h170.6c7.9,0,15.1,3.2,20.2,8.4c5.2,5.2,8.4,12.4,8.4,20.2v122.8
	c0,7.9-3.2,15.1-8.4,20.2c-5.2,5.2-12.4,8.4-20.2,8.4H757.5c-7.9,0-15.1-3.2-20.2-8.4c-5.2-5.2-8.4-12.4-8.4-20.2V29.7
	c0-7.9,3.2-15.1,8.4-20.2C742.4,4.2,749.6,1,757.5,1z"/>
<path class="st5" d="M920.6,83.3V96h-37.9l9.5-12.6H920.6z M874.8,96h-30V76.4l21.5-12.9l20.1,16.9L874.8,96L874.8,96z M844.8,68.6
	V29.7c0-5.2,4.2-9.5,9.5-9.5h9.5v36.9L844.8,68.6z M886.5,20.8c-4.5,4.5-6.9,10.4-6.9,16.7c0,6.3,2.5,12.3,7.2,17l16.4,15.3
	l16.7-15.5c0.2-0.2,0.4-0.5,0.6-0.7V77h-28.7l-21.8-18.7V20.2h17.1C886.9,20.4,886.7,20.6,886.5,20.8z M903.2,42.3
	c-2.6,0-4.7-2.1-4.7-4.7c0-2.6,2.1-4.7,4.7-4.7c2.6,0,4.7,2.1,4.7,4.7C907.9,40.2,905.8,42.3,903.2,42.3z M915.5,25.3
	c-3.3-3.3-7.6-5.1-12.3-5.1c-4.6,0-9,1.8-12.3,5.1c-3.3,3.3-5.1,7.6-5.1,12.3c0,4.6,1.8,9,5.2,12.4l12.2,11.3l12.3-11.4
	c3.3-3.3,5.1-7.6,5.1-12.3C920.6,32.9,918.8,28.6,915.5,25.3z"/>
<text transform="matrix(1 0 0 1 757.7102 106.7583)" class="st5 st2 st11">v</text>
<text transform="matrix(1 0 0 1 771.7893 106.7583)" class="st5 st2 st11">er en</text>
<text transform="matrix(1 0 0 1 832.6067 106.7583)" class="st5 st2 st12"> </text>
<text transform="matrix(1 0 0 1 757.7102 155.3984)" class="st5 st2 st13">MAPS</text>
</svg>
