<?xml version="1.0" encoding="utf-8"?>
<!-- Generator: Adobe Illustrator 27.9.0, SVG Export Plug-In . SVG Version: 6.00 Build 0)  -->
<svg version="1.1" id="Layer_1" xmlns="http://www.w3.org/2000/svg" xmlns:xlink="http://www.w3.org/1999/xlink" x="0px" y="0px"
	 viewBox="0 0 1000 800" style="enable-background:new 0 0 1000 800;" xml:space="preserve">
<style type="text/css">
	.st0{opacity:0.5;fill-rule:evenodd;clip-rule:evenodd;fill:#21376F;enable-background:new    ;}
	.st1{opacity:0.5;fill:#21376F;enable-background:new    ;}
	.st2{font-family: "Exo", sans-serif;font-weight: bolder}
	.st3{font-size:114.1084px;}
	.st4{opacity:0.5;fill-rule:evenodd;clip-rule:evenodd;fill:#FFFFFF;enable-background:new    ;}
	.st5{fill:#21376F;}
	.st6{font-size:15.8222px;}
	.st7{font-size:20px;}
	.st8{fill-rule:evenodd;clip-rule:evenodd;fill:#FFFFFF;}
	.st9{font-size:25.8798px;}
	.st10{font-size:37.0208px;}
	.st11{font-size:55.5332px;}
	.st12{fill:#FFFFFF;}
	.mapsBtn{fill-rule:evenodd;clip-rule:evenodd;fill:transparent;opacity: 0;cursor: pointer;}
</style>
<path class="st0" d="M75.1,19.3h696c-3.9,11.8-6,24.4-6,37.4c0,66.1,53.6,119.6,119.6,119.6c10.7,0,21.1-1.4,31-4.1v594.9
	c0,18.6-15.2,33.8-33.8,33.8H75.1c-18.6,0-33.8-15.2-33.8-33.8v-714C41.3,34.5,56.5,19.3,75.1,19.3"/>
<g>
	<text transform="matrix(-6.123234e-17 -1 1 -6.123234e-17 823.5256 763.9434)" class="st1 st2 st3"> T</text>
	<text transform="matrix(-6.123234e-17 -1 1 -6.123234e-17 823.5266 668.0938)" class="st1 st2 st3">ODO a </text>
</g>
<path class="st1" d="M821.2,287.6l2.4-0.2c3.1-0.3,5.3-3,5-6.1s-3-5.3-6.1-5l-2.4,0.2L821.2,287.6z"/>
<path class="st1" d="M818.1,287.9l-1.1-11.4c-1.6-0.2-3.3-0.9-5-1.6c-2.6-1-5.3-2.1-8.1-1.8c-7.6,0.7-10.7,5.1-10.4,9
	c0.2,2.7,3.5,9.3,15.2,8.2c2.6-0.2,4.3-0.8,5.9-1.4C815.7,288.6,816.7,288.2,818.1,287.9L818.1,287.9z"/>
<path class="st1" d="M799.7,268.6l2.4,0.2c3.1,0.3,5.8-1.9,6.1-5s-1.9-5.8-5-6.1l-2.4-0.2L799.7,268.6z"/>
<path class="st1" d="M791.4,270c-2.6,1-5.4,2-8.1,1.7c-7.6-0.8-10.7-5.3-10.3-9.1c0.3-2.6,3.6-9.3,15.3-8c2.6,0.3,4.2,0.9,5.9,1.5
	c1.1,0.4,2.2,0.8,3.5,1l-1.2,11.4C794.9,268.7,793.2,269.3,791.4,270L791.4,270z"/>
<path class="st1" d="M771.4,287.6l2.4-0.2c3.1-0.3,5.3-3,5-6.1s-3-5.3-6.1-5l-2.4,0.2L771.4,287.6z"/>
<path class="st1" d="M768.2,287.9l-1.1-11.4c-1.6-0.2-3.3-0.9-5-1.6c-2.6-1-5.3-2.1-8.1-1.8c-7.6,0.7-10.7,5.1-10.4,9
	c0.2,2.7,3.5,9.3,15.2,8.2c2.6-0.2,4.3-0.8,5.9-1.4C765.8,288.6,766.9,288.2,768.2,287.9L768.2,287.9z"/>
<path class="st1" d="M749.8,268.6l2.4,0.2c3.1,0.3,5.8-1.9,6.1-5s-1.9-5.8-5-6.1l-2.4-0.2L749.8,268.6z"/>
<path class="st1" d="M741.6,270c-2.6,1-5.4,2-8.1,1.7c-7.6-0.8-10.7-5.3-10.3-9.1c0.3-2.6,3.6-9.3,15.3-8c2.6,0.3,4.2,0.9,5.9,1.5
	c1.1,0.4,2.2,0.8,3.5,1l-1.2,11.4C745,268.7,743.3,269.3,741.6,270L741.6,270z"/>
<path class="st4" d="M85.4,160.3h559c2.5,0,4.6-2.1,4.6-4.6V62.8c0-2.5-2.1-4.6-4.6-4.6h-559c-2.5,0-4.6,2.1-4.6,4.6v92.8
	C80.7,158.2,82.8,160.3,85.4,160.3"/>
<g>
	<path class="st5" d="M128.3,109.9V99.2c0-1.2-1-2.1-2.1-2.1c-1.2,0-2.1,1-2.1,2.1v8.6h-6.4c-1.2,0-2.1,1-2.1,2.1
		c0,1.2,1,2.1,2.1,2.1h8.6C127.3,112,128.3,111.1,128.3,109.9z"/>
	<g>
		<path class="st5" d="M149.7,88.5c-1.2,0-2.1,1-2.1,2.1v5.1c-4.8-7.2-12.8-11.5-21.4-11.5c-14.2,0-25.7,11.5-25.7,25.7
			c0,10.6,6.5,20.1,16.3,23.9c0.2,0.1,0.5,0.1,0.8,0.1l0,0c1.2,0,2.1-1,2.1-2.1c0-0.9-0.5-1.7-1.4-2c-8.2-3.2-13.7-11.1-13.7-20
			c0-11.8,9.6-21.4,21.4-21.4c7.6,0,14.7,4.1,18.5,10.7h-5.6c-1.2,0-2.1,1-2.1,2.1c0,1.2,1,2.1,2.1,2.1h6.4c3.5,0,6.4-2.9,6.4-6.4
			v-6.4C151.8,89.5,150.8,88.5,149.7,88.5z"/>
		<text transform="matrix(1 0 0 1 125.5071 130.0071)" class="st5 st2 st6">3min</text>
	</g>
</g>
<text transform="matrix(1 0 0 1 190.6345 114.0486)" class="st2 st7">| Plaza 9 de febrero</text>
<path class="st4" d="M85.4,401h559c2.5,0,4.6-2.1,4.6-4.6v-92.8c0-2.5-2.1-4.6-4.6-4.6h-559c-2.5,0-4.6,2.1-4.6,4.6v92.8
	C80.7,398.9,82.8,401,85.4,401"/>
<g>
	<path class="st5" d="M128.3,350.7V340c0-1.2-1-2.1-2.1-2.1c-1.2,0-2.1,1-2.1,2.1v8.6h-6.4c-1.2,0-2.1,1-2.1,2.1
		c0,1.2,1,2.1,2.1,2.1h8.6C127.3,352.9,128.3,351.9,128.3,350.7z"/>
	<path class="st5" d="M149.7,329.3c-1.2,0-2.1,1-2.1,2.1v5.1c-4.8-7.2-12.8-11.5-21.4-11.5c-14.2,0-25.7,11.5-25.7,25.7
		c0,10.6,6.5,20.1,16.3,23.9c0.2,0.1,0.5,0.1,0.8,0.1l0,0c1.2,0,2.1-1,2.1-2.1c0-0.9-0.5-1.7-1.4-2c-8.2-3.2-13.7-11.1-13.7-20
		c0-11.8,9.6-21.4,21.4-21.4c7.6,0,14.7,4.1,18.5,10.7h-5.6c-1.2,0-2.1,1-2.1,2.1c0,1.2,1,2.1,2.1,2.1h6.4c3.5,0,6.4-2.9,6.4-6.4
		v-6.4C151.8,330.3,150.8,329.3,149.7,329.3z"/>
	<text transform="matrix(1 0 0 1 125.5071 370.7556)" class="st5 st2 st6">2min</text>
</g>
<path class="st4" d="M85.4,521.4h559c2.5,0,4.6-2.1,4.6-4.6V424c0-2.5-2.1-4.6-4.6-4.6h-559c-2.5,0-4.6,2.1-4.6,4.6v92.8
	C80.7,519.3,82.8,521.4,85.4,521.4"/>
<g>
	<path class="st5" d="M128.3,471.1v-10.7c0-1.2-1-2.1-2.1-2.1c-1.2,0-2.1,1-2.1,2.1v8.6h-6.4c-1.2,0-2.1,1-2.1,2.1
		c0,1.2,1,2.1,2.1,2.1h8.6C127.3,473.2,128.3,472.3,128.3,471.1z"/>
	<path class="st5" d="M149.7,449.7c-1.2,0-2.1,1-2.1,2.1v5.1c-4.8-7.2-12.8-11.5-21.4-11.5c-14.2,0-25.7,11.5-25.7,25.7
		c0,10.6,6.5,20.1,16.3,23.9c0.2,0.1,0.5,0.1,0.8,0.1l0,0c1.2,0,2.1-1,2.1-2.1c0-0.9-0.5-1.7-1.4-2c-8.2-3.2-13.7-11.1-13.7-20
		c0-11.8,9.6-21.4,21.4-21.4c7.6,0,14.7,4.1,18.5,10.7h-5.6c-1.2,0-2.1,1-2.1,2.1c0,1.2,1,2.1,2.1,2.1h6.4c3.5,0,6.4-2.9,6.4-6.4
		v-6.4C151.8,450.7,150.8,449.7,149.7,449.7L149.7,449.7z"/>
	<text transform="matrix(1 0 0 1 125.5071 491.1357)" class="st5 st2 st6">3min</text>
</g>
<path class="st4" d="M85.4,280.6h559c2.5,0,4.6-2.1,4.6-4.6v-92.8c0-2.5-2.1-4.6-4.6-4.6h-559c-2.5,0-4.6,2.1-4.6,4.6V276
	C80.7,278.6,82.8,280.6,85.4,280.6"/>
<g>
	<path class="st5" d="M128.3,230.3v-10.7c0-1.2-1-2.1-2.1-2.1c-1.2,0-2.1,1-2.1,2.1v8.6h-6.4c-1.2,0-2.1,1-2.1,2.1
		c0,1.2,1,2.1,2.1,2.1h8.6C127.3,232.4,128.3,231.4,128.3,230.3z"/>
	<path class="st5" d="M149.7,208.9c-1.2,0-2.1,1-2.1,2.1v5.1c-4.8-7.2-12.8-11.5-21.4-11.5c-14.2,0-25.7,11.5-25.7,25.7
		c0,10.6,6.5,20.1,16.3,23.9c0.2,0.1,0.5,0.1,0.8,0.1l0,0c1.2,0,2.1-1,2.1-2.1c0-0.9-0.5-1.7-1.4-2c-8.2-3.2-13.7-11.1-13.7-20
		c0-11.8,9.6-21.4,21.4-21.4c7.6,0,14.7,4.1,18.5,10.7h-5.6c-1.2,0-2.1,1-2.1,2.1c0,1.2,1,2.1,2.1,2.1h6.4c3.5,0,6.4-2.9,6.4-6.4
		v-6.4C151.8,209.8,150.8,208.9,149.7,208.9z"/>
	<text transform="matrix(1 0 0 1 125.5071 250.325)" class="st5 st2 st6">3min</text>
</g>
<text transform="matrix(1 0 0 1 190.6345 234.3862)" class="st2 st7">| Comisaria n°46</text>
<path class="st4" d="M85.4,641.7h559c2.5,0,4.6-2.1,4.6-4.6v-92.8c0-2.5-2.1-4.6-4.6-4.6h-559c-2.5,0-4.6,2.1-4.6,4.6v92.8
	C80.7,639.6,82.8,641.7,85.4,641.7"/>
<g>
	<path class="st5" d="M128.3,591.3v-10.7c0-1.2-1-2.1-2.1-2.1c-1.2,0-2.1,1-2.1,2.1v8.6h-6.4c-1.2,0-2.1,1-2.1,2.1
		c0,1.2,1,2.1,2.1,2.1h8.6C127.3,593.5,128.3,592.5,128.3,591.3z"/>
	<path class="st5" d="M149.7,570c-1.2,0-2.1,1-2.1,2.1v5.1c-4.8-7.2-12.8-11.5-21.4-11.5c-14.2,0-25.7,11.5-25.7,25.7
		c0,10.6,6.5,20.1,16.3,23.9c0.2,0.1,0.5,0.1,0.8,0.1l0,0c1.2,0,2.1-1,2.1-2.1c0-0.9-0.5-1.7-1.4-2c-8.2-3.2-13.7-11.1-13.7-20
		c0-11.8,9.6-21.4,21.4-21.4c7.6,0,14.7,4.1,18.5,10.7h-5.6c-1.2,0-2.1,1-2.1,2.1c0,1.2,1,2.1,2.1,2.1h6.4c3.5,0,6.4-2.9,6.4-6.4
		V572C151.8,570.9,150.8,570,149.7,570L149.7,570z"/>
	<text transform="matrix(1 0 0 1 125.5071 611.4165)" class="st5 st2 st6">3min</text>
</g>
<g>
	<text transform="matrix(1 0 0 1 190.6345 332.2368)" class="st2 st7">| Escuela Chóferes del Chaco</text>
	<text transform="matrix(1 0 0 1 190.6335 354.7856)" class="st2 st7">| Escuela Básica n°6746</text>
	<text transform="matrix(1 0 0 1 190.6331 377.3354)" class="st2 st7">| Colegio Nacional de Isla Bogado</text>
</g>
<path class="st4" d="M85.4,762.1h559c2.5,0,4.6-2.1,4.6-4.6v-92.8c0-2.5-2.1-4.6-4.6-4.6h-559c-2.5,0-4.6,2.1-4.6,4.6v92.8
	C80.7,760,82.8,762.1,85.4,762.1"/>
<text transform="matrix(1 0 0 1 190.6345 475.186)" class="st2 st7">| Supermercado Stock Cañle`i </text>
<text transform="matrix(1 0 0 1 190.6345 595.4861)" class="st2 st7">| Parroquia Virgen del Carmen</text>
<path class="st8" d="M756.8,6.8h166.4c14.6,0,26.6,12,26.6,26.6v119.8c0,11.3-7.1,20.9-17,24.8c5.2-1,9.9-3.5,13.6-7.2
	c4.7-4.7,7.6-11.2,7.6-18.3V29.7c0-7.1-2.9-13.6-7.6-18.3c-4.7-4.7-11.2-7.6-18.3-7.6H757.5c-7.1,0-13.6,2.9-18.3,7.6
	c-3,3-5.3,6.7-6.5,10.8C736.9,13.1,746.1,6.8,756.8,6.8 M757.5,1h170.6c7.9,0,15.1,3.2,20.2,8.4c5.2,5.2,8.4,12.4,8.4,20.2v122.8
	c0,7.9-3.2,15.1-8.4,20.2c-5.2,5.2-12.4,8.4-20.2,8.4H757.5c-7.9,0-15.1-3.2-20.2-8.4c-5.2-5.2-8.4-12.4-8.4-20.2V29.7
	c0-7.9,3.2-15.1,8.4-20.2C742.4,4.2,749.6,1,757.5,1z"/>
<path class="st5" d="M920.6,83.3V96h-37.9l9.5-12.6L920.6,83.3L920.6,83.3z M874.8,96h-30V76.4l21.5-12.9l20.1,16.9L874.8,96
	L874.8,96z M844.8,68.6V29.7c0-5.2,4.2-9.5,9.5-9.5h9.5v36.9L844.8,68.6z M886.5,20.8c-4.5,4.5-6.9,10.4-6.9,16.7s2.5,12.3,7.2,17
	l16.4,15.3l16.7-15.5c0.2-0.2,0.4-0.5,0.6-0.7V77h-28.7L870,58.3V20.2h17.1C886.9,20.4,886.7,20.6,886.5,20.8z M903.2,42.3
	c-2.6,0-4.7-2.1-4.7-4.7c0-2.6,2.1-4.7,4.7-4.7c2.6,0,4.7,2.1,4.7,4.7S905.8,42.3,903.2,42.3z M915.5,25.3
	c-3.3-3.3-7.6-5.1-12.3-5.1c-4.6,0-9,1.8-12.3,5.1s-5.1,7.6-5.1,12.3c0,4.6,1.8,9,5.2,12.4l12.2,11.3l12.3-11.4
	c3.3-3.3,5.1-7.6,5.1-12.3C920.6,32.9,918.8,28.6,915.5,25.3z"/>
<text transform="matrix(1 0 0 1 757.7102 106.7583)" class="st5 st2 st9">v</text>
<text transform="matrix(1 0 0 1 771.7893 106.7583)" class="st5 st2 st9">er en</text>
<text transform="matrix(1 0 0 1 832.6067 106.7583)" class="st5 st2 st10"> </text>
<text transform="matrix(1 0 0 1 757.7102 155.3984)" class="st5 st2 st11">MAPS</text>
<g>
	<path class="st5" d="M128.3,711.8v-10.7c0-1.2-1-2.1-2.1-2.1c-1.2,0-2.1,1-2.1,2.1v8.6h-6.4c-1.2,0-2.1,1-2.1,2.1
		c0,1.2,1,2.1,2.1,2.1h8.6C127.3,713.9,128.3,713,128.3,711.8z"/>
	<path class="st5" d="M149.7,690.4c-1.2,0-2.1,1-2.1,2.1v5.1c-4.8-7.2-12.8-11.5-21.4-11.5c-14.2,0-25.7,11.5-25.7,25.7
		c0,10.6,6.5,20.1,16.3,23.9c0.2,0.1,0.5,0.1,0.8,0.1l0,0c1.2,0,2.1-1,2.1-2.1c0-0.9-0.5-1.7-1.4-2c-8.2-3.2-13.7-11.1-13.7-20
		c0-11.8,9.6-21.4,21.4-21.4c7.6,0,14.7,4.1,18.5,10.7h-5.6c-1.2,0-2.1,1-2.1,2.1c0,1.2,1,2.1,2.1,2.1h6.4c3.5,0,6.4-2.9,6.4-6.4
		v-6.4C151.8,691.4,150.8,690.4,149.7,690.4L149.7,690.4z"/>
	<text transform="matrix(1 0 0 1 125.5071 731.8467)" class="st5 st2 st6">3min</text>
</g>
<path class="st12" d="M610.1,592.4l-9.9-7.2v46h5.1c6.5,0,11.8-5.3,11.8-11.8v-13.3C617.1,600.6,614.5,595.6,610.1,592.4z
	 M553.1,585.2l-9.9,7.2c-4.4,3.2-6.9,8.2-6.9,13.6v13.4c0,6.5,5.3,11.8,11.8,11.8h5.1L553.1,585.2L553.1,585.2z M569.9,563.8h3.4
	v6.7l-13.5,9.8v50.9h6.7v-16.8c0-5.6,4.5-10.1,10.1-10.1s10.1,4.5,10.1,10.1v16.8h6.7v-50.9l-13.5-9.8v-6.7h3.4
	c1.9,0,3.4-1.5,3.4-3.4s-1.5-3.4-3.4-3.4H580v-3.4c0-1.9-1.5-3.4-3.4-3.4s-3.4,1.5-3.4,3.4v3.4h-3.4c-1.9,0-3.4,1.5-3.4,3.4
	C566.4,562.3,568,563.8,569.9,563.8z M580,614.3v16.8h-6.7v-16.8c0-1.9,1.5-3.4,3.4-3.4C578.5,610.9,580,612.4,580,614.3L580,614.3z
	"/>
<path class="st12" d="M604.1,724h-15.9v15.9H565V724h-15.9v-23.2H565v-15.9h23.2v15.9h15.9L604.1,724L604.1,724z M576.6,671.8
	c-21.7,0-39.3,17.6-39.3,39.3s17.6,39.3,39.3,39.3s39.3-17.6,39.3-39.3C615.9,689.4,598.3,671.8,576.6,671.8z"/>
<text transform="matrix(1 0 0 1 190.6345 715.8862)" class="st2 st7">| Unidad de Salud familiar</text>
<g>
	<path class="st12" d="M573,495c-1.8,0-3.5,0.7-4.6,1.9c-1.2,1.2-1.9,2.8-1.9,4.6s0.7,3.4,1.9,4.6s2.8,1.9,4.6,1.9s3.4-0.7,4.6-1.9
		c1.2-1.2,1.9-2.8,1.9-4.6c0-1.7-0.6-3.2-1.8-4.5C576.4,495.8,574.8,495,573,495z"/>
	<path class="st12" d="M592.5,495c-1.8,0-3.5,0.7-4.6,1.9c-1.2,1.2-1.9,2.8-1.9,4.6s0.7,3.4,1.9,4.6s2.8,1.9,4.6,1.9
		s3.4-0.7,4.6-1.9c1.2-1.2,1.9-2.8,1.9-4.6s-0.7-3.4-1.9-4.6C595.9,495.8,594.3,495,592.5,495z"/>
	<path class="st12" d="M608.9,489.7l-5.6-5.6c-0.5-0.5-1.1-0.8-1.8-0.8h-30.2l-2.4-11.1l31.5,0.1c1.1,0,2.1-0.8,2.3-1.8l4.2-19.4
		c0.2-1.3-0.5-2.5-1.8-2.8l-0.5-0.1h-40.8l-2.9-13.5c-0.2-1.1-1.1-2-2.3-2h-12.5c-1.3,0-2.3,1-2.3,2.3s1,2.3,2.3,2.3h10.6l10.5,48.9
		c0.3,1,1.2,1.8,2.3,1.8h31.1l5,5c0.9,0.9,2.4,0.9,3.3,0C609.8,492.1,609.8,490.6,608.9,489.7z"/>
</g>
<path class="st12" d="M593.2,219c-0.2,8.9-7.5,16.1-16.5,16.1s-16.3-7.2-16.5-16.1c2.9,1,8.4,2.4,16.5,2.4
	C584.8,221.3,590.3,220,593.2,219z M598.7,262.6h-44c-0.8,0-1.5-0.3-2.1-0.9c-0.5-0.6-0.8-1.4-0.7-2.2c0.7-5.4,3.2-13.2,8.1-17.5
	c2.2-1.9,5.5-1.8,7.5,0.2l9.1,10.7l9-10.5c2.2-2.2,5.5-2.3,7.7-0.4c4.9,4.3,7.4,12.1,8.1,17.5c0.1,0.8-0.1,1.6-0.7,2.2
	C600.2,262.3,599.5,262.6,598.7,262.6L598.7,262.6z M594.3,200.9l-13-3.7c-3.1-0.8-6.3-0.8-9.3,0l-13,3.7c-2.6,0.7-4.4,3.1-4.4,5.8
	c0,2.3,1.3,4.4,3.3,5.4l2.2,1.1c0,0,5.5,2.7,16.5,2.7s16.5-2.7,16.5-2.7l2.2-1.1c2-1,3.3-3.1,3.3-5.4
	C598.7,204,596.9,201.6,594.3,200.9z M582.2,206.4c0,4.2-4.3,6.2-5.5,6.7c-1.2-0.6-5.5-3-5.5-6.7v-4c0-0.5,0.3-1,0.8-1.2l4.7-1.5
	l4.7,1.5c0.5,0.2,0.8,0.6,0.8,1.2V206.4z"/>
<g>
	<path class="st12" d="M622.7,332.9c-0.1,0-0.1-0.1-0.2-0.1l-45.4-15.7l0,0c-0.3-0.1-0.6-0.1-0.9,0l0,0l-45.4,15.7
		c-0.1,0-0.2,0.1-0.2,0.1c-0.5,0.3-0.8,0.8-0.8,1.4s0.3,1.1,0.8,1.4c0.1,0,0.1,0.1,0.2,0.1l11.5,4v14.4c-2.3,0.7-3.9,2.8-3.9,5.2
		c0,1.9,1,3.6,2.5,4.6c-0.2,1-0.4,2-0.7,3.2c-0.6,3.3-1.1,7.6-1.1,12.5c0,0.3,0.1,0.6,0.3,0.9c0.6,0.8,2.1,2.3,4.4,2.3
		c2.3,0,3.9-1.4,4.4-2.3c0.2-0.3,0.3-0.6,0.3-0.9c0-5-0.5-9.2-1.1-12.5c-0.2-1.2-0.4-2.3-0.7-3.2c1.5-1,2.5-2.7,2.5-4.6
		c0-2.5-1.7-4.6-3.9-5.2v-13.3l30.8,10.6l0,0c0.3,0.1,0.6,0.1,0.9,0l0,0l45.4-15.7c0.1,0,0.2-0.1,0.2-0.1c0.5-0.3,0.8-0.8,0.8-1.4
		C623.5,333.7,623.2,333.2,622.7,332.9L622.7,332.9z"/>
	<path class="st12" d="M576.5,354.8c-0.2,0-0.3,0-0.5-0.1l-24.5-8.5v22.5c0,0.9,0.7,1.6,1.6,1.6c0.2,0,15.2,0.1,22.5,5.9
		c0.3,0.2,0.6,0.3,1,0.3c0.3,0,0.7-0.1,1-0.3c7.3-5.8,22.4-5.9,22.5-5.9c0.9,0,1.6-0.7,1.6-1.6v-22.5l-24.5,8.5
		C576.9,354.8,576.7,354.8,576.5,354.8L576.5,354.8z"/>
</g>
<path class="st12" d="M584.9,113.4c0-5.3-4.3-9.6-9.6-9.6h-22c-5.3,0-9.6,4.3-9.6,9.6c0,3.8,2.3,7.1,5.5,8.7v6.5h-2.7
	c-1.5,0-2.8,1.2-2.8,2.7s1.2,2.7,2.8,2.7h2.7v5.5c0,1.5,1.2,2.7,2.8,2.7c1.5,0,2.7-1.2,2.7-2.7V134h19.2v5.5c0,1.5,1.2,2.7,2.8,2.7
	s2.7-1.2,2.7-2.7V134h2.8c1.5,0,2.7-1.2,2.7-2.7s-1.2-2.7-2.7-2.7h-2.8V122C582.6,120.5,584.9,117.2,584.9,113.4z M554.6,128.5V123
	h19.2v5.5H554.6z M608.4,104.2c1.3,2.6,1.6,5.4,0.8,8.2c-1.4,5.1-6.4,8.4-11.9,7.8c-0.7-0.1-0.9,0.1-1.1,0.2
	c-0.2,0.1-0.3,0.4-0.3,0.8v18.3c0,1.5-1.2,2.7-2.7,2.7s-2.8-1.2-2.8-2.7v-26.1c0-7-4.8-13.1-11.6-14.7c-1.4-0.3-2.3-1.6-2.1-3
	c0.3-2.3,1.8-4.4,4.7-6.4c0.7-0.5,0.8-1.4,0.8-1.8c0-1.5,0.3-3,0.8-4.4c1.3-3.2,4-5.6,7.3-6.4c1.9-0.5,4-0.5,5.9,0
	c3.2,0.9,5.9,3.3,7.2,6.4c0.6,1.5,0.9,3,0.8,4.5c0,0.4,0.1,1.3,0.8,1.8c2.9,2,4.7,5.4,4.7,9c0,1.6-0.4,3.2-1.1,4.8
	c-0.3,0.6-0.3,0.8-0.3,0.8C608.3,104,608.3,104.1,608.4,104.2L608.4,104.2z"/>
<rect x="728.9" class="mapsBtn" width="236.7" height="181"/>
<script>
	const goomaps = document.querySelector(".mapsBtn")
	goomaps.addEventListener("click", () => {
		window.open("https://maps.app.goo.gl/fsLoDBtk9d9niXpw9", '_blank');
	});
</script>
</svg>
