<?xml version="1.0" encoding="utf-8"?>
<!-- Generator: Adobe Illustrator 27.9.0, SVG Export Plug-In . SVG Version: 6.00 Build 0)  -->
<svg version="1.1" id="Layer_1" xmlns="http://www.w3.org/2000/svg" xmlns:xlink="http://www.w3.org/1999/xlink" x="0px" y="0px"
	 viewBox="0 0 533 134.7" style="enable-background:new 0 0 533 134.7;" xml:space="preserve">
<style type="text/css">
	.st0{fill:#CCCCCC;}
	.st1{fill:#FFFFFF;}
	.st2{font-family: "Exo", sans-serif;font-weight: bolder}
	.st3{font-size:63.688px;}
</style>
<path class="st0" d="M206,119.1c-0.5,1.4-3,2.7-4.2,2.9c-1.1,0.2-2.4,0.2-3.9-0.2c-0.9-0.3-2-0.7-3.5-1.3
	c-6.2-2.6-10.2-8.8-10.5-9.2c-0.3-0.4-2.5-3.3-2.5-6.3c0-3,1.6-4.5,2.2-5.1c0.6-0.6,1.2-0.8,1.6-0.8c0.4,0,0.8,0,1.2,0
	c0.4,0,0.9-0.1,1.4,1c0.5,1.2,1.7,4.2,1.9,4.5c0.2,0.3,0.3,0.7,0.1,1.1c-0.2,0.4-0.3,0.7-0.6,1c-0.3,0.4-0.6,0.8-0.9,1.1
	c-0.3,0.3-0.6,0.6-0.3,1.2c0.4,0.6,1.6,2.6,3.4,4.2c2.4,2.1,4.3,2.7,5,3c0.6,0.3,1,0.3,1.3-0.2c0.4-0.4,1.5-1.8,2-2.4
	c0.4-0.6,0.8-0.5,1.4-0.3c0.6,0.2,3.6,1.7,4.2,2c0.6,0.3,1,0.5,1.2,0.7C206.5,116.5,206.5,117.7,206,119.1 M193.9,86.7
	c-13.2,0-24,10.8-24,24c0,4.1,1.1,8.2,3.1,11.8l-3.1,10.9c-0.1,0.4,0,0.7,0.3,1c0.2,0.2,0.5,0.3,0.7,0.3c0.1,0,0.2,0,0.3,0l11.4-2.8
	c3.5,1.9,7.4,2.8,11.3,2.8c13.2,0,24-10.8,24-24S207.1,86.7,193.9,86.7z"/>
<path class="st0" d="M337.1,100.9c-5.4,0-9.8,4.4-9.8,9.8c0,5.4,4.4,9.8,9.8,9.8c5.4,0,9.8-4.4,9.8-9.8
	C346.9,105.3,342.5,100.9,337.1,100.9 M337.1,98.7c6.6,0,12,5.4,12,12s-5.4,12-12,12c-6.6,0-12-5.4-12-12S330.4,98.7,337.1,98.7z
	 M350.1,95.4c1.2,0,2.2,1,2.2,2.2c0,1.2-1,2.2-2.2,2.2c-1.2,0-2.2-1-2.2-2.2C348,96.4,348.9,95.4,350.1,95.4z M327.2,86.7
	c-7.8,0-14.2,6.4-14.2,14.2v19.6c0,7.8,6.4,14.2,14.2,14.2h19.6c7.8,0,14.2-6.4,14.2-14.2v-19.6c0-7.8-6.4-14.2-14.2-14.2H327.2z"/>
<text transform="matrix(1 0 0 1 -3.5029 49.7655)" class="st1 st2 st3">BARRIO CERRADO</text>
</svg>
