<?xml version="1.0" encoding="utf-8"?>
<!-- Generator: Adobe Illustrator 27.9.0, SVG Export Plug-In . SVG Version: 6.00 Build 0)  -->
<svg version="1.1" id="Layer_1" xmlns="http://www.w3.org/2000/svg" xmlns:xlink="http://www.w3.org/1999/xlink" x="0px" y="0px"
	 viewBox="0 0 304.4 136.4" style="enable-background:new 0 0 304.4 136.4;" xml:space="preserve">
<style type="text/css">
	.st0{fill-rule:evenodd;clip-rule:evenodd;fill:#243A71;}
	.st1{fill:#FFFFFF;}
	.st2{font-family: "Exo", sans-serif;font-weight: 400}
	.st3{font-size:48px;}
	.st4{fill:#9B853E;}
	.st5{font-family: "Exo", sans-serif;font-weight: bolder}
	.st6{font-size:29px;}
</style>
<path class="st0" d="M28.8,136.4c-4.1-0.5-7.8-2.3-9.9-5l-17-21.6c-2.5-3.2-2.5-7.1,0-10.3l17-21.6c2.1-2.7,5.8-4.5,9.9-5
	c81.6,0,163.2,0,244.7,0c4.1,0.5,7.8,2.3,9.9,5l17,21.6c2.5,3.2,2.5,7.1,0,10.3l-17,21.6c-2.1,2.7-5.8,4.5-9.9,5
	C192,136.4,110.4,136.4,28.8,136.4"/>
<text transform="matrix(1 0 0 1 51.5278 122.3174)" class="st1 st2 st3">20 AÑOS</text>
<text transform="matrix(1 0 0 1 54.8633 28.7905)" class="st4 st5 st6">FINANCIACIÓn</text>
<text transform="matrix(1 0 0 1 34.6704 62.8799)" class="st4 st2 st6">PROPIA DE HASTA</text>
</svg>
