<?xml version="1.0" encoding="utf-8"?>
<!-- Generator: Adobe Illustrator 27.9.0, SVG Export Plug-In . SVG Version: 6.00 Build 0)  -->
<svg version="1.1" id="Layer_1" xmlns="http://www.w3.org/2000/svg" xmlns:xlink="http://www.w3.org/1999/xlink" x="0px" y="0px"
	 viewBox="0 0 1101.2 129.7" style="enable-background:new 0 0 1101.2 129.7;" xml:space="preserve">
<style type="text/css">
	.st0{fill-rule:evenodd;clip-rule:evenodd;fill:#243A71;}
	.st1{fill:#FFFFFF;}
	.st2{font-family: "Exo", sans-serif;font-weight: 400}
	.st3{font-size:60px;}
</style>
<path class="st0" d="M1056.8,129.7c6-1,11.4-4.7,14.5-10.1l25-43.4c3.7-6.4,3.7-14.3,0-20.7l-25-43.4c-3.2-5.4-8.5-9-14.5-10.1
	C942.9,2,156.3,2,42.4,2c-6,1-11.4,4.7-14.5,10.1l-25,43.4c-3.7,6.4-3.7,14.3,0,20.7l25,43.4c3.2,5.4,8.5,9,14.5,10.1
	C156.3,129.7,942.9,129.7,1056.8,129.7"/>
<text transform="matrix(1 0 0 1 78.7607 89.6226)" class="st1 st2 st3">UN PROYECTO QUE REÚNE TODO</text>
</svg>
