<?xml version="1.0" encoding="utf-8"?>
<!-- Generator: Adobe Illustrator 27.9.0, SVG Export Plug-In . SVG Version: 6.00 Build 0)  -->
<svg version="1.1" id="Layer_1" xmlns="http://www.w3.org/2000/svg" xmlns:xlink="http://www.w3.org/1999/xlink" x="0px" y="0px"
	 viewBox="0 0 300 300" style="enable-background:new 0 0 300 300;" xml:space="preserve">
<style type="text/css">
	.st0{fill:#fff;}
	.st1{font-family: "Exo", sans-serif;font-weight: bolder;}
	.st2{font-size:50px;}
</style>
<text transform="matrix(1 0 0 1 3.5511 271.6616)" class="st0 st1 st2">COWORKING</text>
<path class="st0" d="M159,78.7c7,5.2,12.1,12.8,13.9,21.6h11.5c0.5,0,1,0.1,1.4,0.3c1.9-0.2,3.8-0.3,5.8-0.3c6.3,0,12.3,1,17.9,2.9
	c-0.4-13.6-11.5-24.5-25.1-24.5H159z M94.4,161.6v25.2H116v-25.2c0-2,1.6-3.6,3.6-3.6H134c0-7.6,1.5-14.9,4.2-21.6h-18.6
	C105.7,136.4,94.4,147.7,94.4,161.6z M202.4,158c0-6-4.8-10.8-10.8-10.8s-10.8,4.8-10.8,10.8c0,6,4.8,10.8,10.8,10.8
	S202.4,163.9,202.4,158z M223.5,163.9l11,6.3l-10.8,18.7l-11-6.3c-3,2.6-6.5,4.6-10.2,5.9v12.7h-21.6v-12.7
	c-3.8-1.3-7.3-3.4-10.2-5.9l-11,6.3l-10.8-18.7l11-6.3c-0.4-1.9-0.5-3.9-0.5-5.9c0-2,0.2-4,0.5-5.9l-11-6.3l10.8-18.7l11,6.3
	c3-2.6,6.5-4.6,10.2-5.9v-12.7h21.6v12.7c3.8,1.3,7.3,3.4,10.2,5.9l11-6.3l10.8,18.7l-11,6.3c0.4,1.9,0.5,3.9,0.5,5.9
	C224,160,223.8,162,223.5,163.9z M116.2,78.7H90.8c-13.9,0-25.2,11.3-25.2,25.2v25.2h21.6V104c0-2,1.6-3.6,3.6-3.6h11.5
	C104.1,91.5,109.2,83.9,116.2,78.7z M116,107.6c0,11.9,9.7,21.6,21.6,21.6c11.9,0,21.6-9.7,21.6-21.6c0-11.9-9.7-21.6-21.6-21.6
	C125.7,86,116,95.6,116,107.6z M173.6,71.5c11.9,0,21.6-9.7,21.6-21.6c0-11.9-9.7-21.6-21.6-21.6c-11.9,0-21.6,9.7-21.6,21.6
	C152,61.9,161.7,71.5,173.6,71.5z M80,49.9c0-11.9,9.7-21.6,21.6-21.6c11.9,0,21.6,9.7,21.6,21.6c0,11.9-9.7,21.6-21.6,21.6
	C89.7,71.5,80,61.9,80,49.9z"/>
</svg>
