<?xml version="1.0" encoding="utf-8"?>
<!-- Generator: Adobe Illustrator 27.9.0, SVG Export Plug-In . SVG Version: 6.00 Build 0)  -->
<svg version="1.1" id="Layer_1" xmlns="http://www.w3.org/2000/svg" xmlns:xlink="http://www.w3.org/1999/xlink" x="0px" y="0px"
	 viewBox="0 0 300 300" style="enable-background:new 0 0 300 300;" xml:space="preserve">
<style type="text/css">
	.st0{fill:#fff;}
	.st1{font-family: "Exo", sans-serif;font-weight: bolder;}
	.st2{font-size:50px;}
</style>
<text transform="matrix(1 0 0 1 30.5513 271.6616)" class="st0 st1 st2">GIMNASIO</text>
<path class="st0" d="M117.6,150c-6,0-10.8-4.8-10.8-10.8c0-6,4.8-10.8,10.8-10.8c6,0,10.8,4.8,10.8,10.8
	C128.4,145.2,123.6,150,117.6,150 M157.2,132h-15.6c-3.1-10.4-12.7-18-24-18c-13.9,0-25.2,11.3-25.2,25.2s11.3,25.2,25.2,25.2
	c11.4,0,20.9-7.6,24-18h15.6c4,0,7.2-3.2,7.2-7.2C164.4,135.3,161.2,132,157.2,132z M194.1,178.8h-76.5c-21.8,0-39.6-17.8-39.6-39.6
	s17.8-39.6,39.6-39.6c14.8,0,20.2,2.1,36.1,8.5c9.8,3.9,23.2,9.2,44,16.2c21.4,8.6,24.3,20.2,24.3,30.5
	C222,169.2,207.6,178.8,194.1,178.8z M202.7,110.8c-3.8-1.3-7.3-2.5-10.6-3.6c5-17,8-32.2,9.7-42.3c0.8-4.9,5-8.4,9.9-8.4
	c10,0,18.8-5.9,22.6-15.2l1.5-3.7c1.5-3.7-0.3-7.9-3.9-9.4c-3.7-1.5-7.9,0.2-9.4,3.9l-1.5,3.7c-1.5,3.8-5.2,6.2-9.3,6.2
	c-12,0-22.1,8.6-24.1,20.5c-1.6,9.5-4.4,23.8-9.1,39.8c-8-3-14.3-5.5-19.5-7.5c-16.4-6.6-23.9-9.5-41.5-9.5
	c-5.7,0-11.2,0.9-16.4,2.6l-6.6-24.2h12.2c4,0,7.2-3.2,7.2-7.2c0-4-3.2-7.2-7.2-7.2h-36c-4,0-7.2,3.2-7.2,7.2c0,4,3.2,7.2,7.2,7.2
	h8.9L88,94.1c-14.7,9.7-24.4,26.3-24.4,45.1c0,20.7,11.7,38.7,28.8,47.7v6.3c0,4,3.2,7.2,7.2,7.2c4,0,7.2-3.2,7.2-7.2v-1.1
	c3.5,0.7,7.1,1.1,10.8,1.1h75.6c0,4,3.2,7.2,7.2,7.2c4,0,7.2-3.2,7.2-7.2v-2c16.7-5.1,28.8-19.5,28.8-36.4
	C236.4,134.3,225.5,119.9,202.7,110.8L202.7,110.8z"/>
</svg>
