<?xml version="1.0" encoding="utf-8"?>
<!-- Generator: Adobe Illustrator 27.9.0, SVG Export Plug-In . SVG Version: 6.00 Build 0)  -->
<svg version="1.1" id="Layer_1" xmlns="http://www.w3.org/2000/svg" xmlns:xlink="http://www.w3.org/1999/xlink" x="0px" y="0px"
	 viewBox="0 0 300 300" style="enable-background:new 0 0 300 300;" xml:space="preserve">
<style type="text/css">
	.st0{fill:#fff;}
	.st1{font-family: "Exo", sans-serif;font-weight: bolder;}
	.st2{font-size:50px;}
</style>
<text transform="matrix(1 0 0 1 56.5762 271.6616)" class="st0 st1 st2">PISCINA</text>
<path class="st0" d="M236.5,193.1c-5.5,6.3-13.4,9.9-21.7,9.9c-8.6,0-16.3-3.8-21.6-9.8c-5.3,6-13,9.8-21.6,9.8
	c-8.6,0-16.3-3.8-21.6-9.8c-5.3,6-13,9.8-21.6,9.8c-8.6,0-16.3-3.8-21.6-9.8c-5.3,6-13,9.8-21.6,9.8c-8.3,0-16.2-3.6-21.7-9.9
	l10.9-9.5c2.7,3.1,6.7,4.9,10.8,4.9c7.9,0,14.4-6.5,14.4-14.4H114c0,7.9,6.5,14.4,14.4,14.4c7.9,0,14.4-6.5,14.4-14.4h14.4
	c0,7.9,6.5,14.4,14.4,14.4c7.9,0,14.4-6.5,14.4-14.4h14.4c0,7.9,6.5,14.4,14.4,14.4c4.1,0,8.1-1.8,10.8-4.9L236.5,193.1z M114,87.8
	h72v28.8h-72V87.8z M114,131h72v28.8h14.4V59c0-7.9,6.5-14.4,14.4-14.4h7.2V30.1h-7.2C198.9,30.1,186,43.1,186,59v14.4h-72V59
	c0-7.9,6.5-14.4,14.4-14.4h7.2V30.1h-7.2c-15.9,0-28.8,12.9-28.8,28.8v100.8H114V131z"/>
</svg>
