<?xml version="1.0" encoding="utf-8"?>
<!-- Generator: Adobe Illustrator 27.9.0, SVG Export Plug-In . SVG Version: 6.00 Build 0)  -->
<svg version="1.1" id="Layer_1" xmlns="http://www.w3.org/2000/svg" xmlns:xlink="http://www.w3.org/1999/xlink" x="0px" y="0px"
	 viewBox="0 0 300 300" style="enable-background:new 0 0 300 300;" xml:space="preserve">
<style type="text/css">
	.st0{fill:#fff;}
	/* font-family: "Exo", sans-serif;font-weight: bolder;font-size:15px;fill:#21376F; */
	.st1{font-family: "Exo", sans-serif;font-weight: bolder;}
	.st2{font-size:50px;}
	.st3{fill-rule:evenodd;clip-rule:evenodd;fill:#fff;}
</style>
<text transform="matrix(1 0 0 1 41.177 271.6616)" class="st0 st1 st2">QUINCHO</text>
<path class="st3" d="M107,40.4c-0.4,0.1-1.8,0.9-2.2,1.1c-10.8,5.7-18.4,16.4-19.9,29.2c-0.3,2.9-0.2,9.4,0.1,12.6
	c0.7,6.3,4.5,13.2,8.7,17.4c1.1,1.1,2.1,2.1,3.4,3.1c1.2,0.9,1.5,0.9,1.5,1.8c0,0.8,0.1,2.5-0.1,3.2c-3.4,0.7-13.6,2.3-13.8,6.7
	c-0.1,1.8,0.2,4.6,0.5,6.3c1.1,6.2,3.9,11.4,8.2,15.6c0.5,0.5,1.4,1.1,1.8,1.6c0.1,0.3-1.6,9.3-1.8,10.4c-0.6,3.4-1.2,6.8-1.8,10.2
	c-0.5,3.3-1.2,6.8-1.8,10.2c-0.6,3.4-1.2,6.9-1.8,10.2l-1.4,7.7c-0.2,1.5-0.1,1.9-0.8,2.2c-1.8,0.9-1.7,1.9-2,4.1
	c-0.7,5.9-2.2,7.1,3.4,7.1c2.3,0,3.7,0.2,4.6-1.4c0.6-1,0.7-3.6,1-5.1c0.1-0.8,0.3-1.9,0.4-2.7c0.1-1.5-0.5-1.7-1-2.1l1.3-7.3
	l57.1,0.1l1.2,7.2c-1.3,1.1-1,1.7-0.7,3.6c0.2,1.4,0.4,2.7,0.6,4.2c0.3,1.6,0.4,2.4,1.6,3.1c1,0.5,3.1,0.3,4.4,0.3
	c4.3,0,3.2-1.8,2.7-5.7c-0.3-2.3-0.2-4.4-1.8-5.3c-0.9-0.5-0.7-0.1-1-1.4c-0.9-5.3-1.9-10.7-2.8-16.1c-0.9-5.4-1.9-10.6-2.8-16.1
	c-0.8-5.3-1.8-10.9-2.8-16.1c-0.4-2-0.4-1.6,0.6-2.4c4.7-4.3,7.7-9.1,9-15.7c0.4-1.9,1.2-7,0.3-8.5c-1.5-2.5-6.6-3.9-9.6-4.6
	c-0.7-0.2-3.5-0.6-3.8-0.8l0-3.7c0.2-0.5,7.1-4.3,11.4-13.9c1.3-2.8,2.3-6.6,2.4-10.1c0-1.1,0-2.2,0-3.2c0.1-3.4,0.3-5.3-0.3-8.8
	c-1.2-7.4-4.1-12.8-7.7-17.5c-3-3.9-9.5-9.4-14.2-11c-0.5-4.6,1.2-8.7-2.6-10.9c-1.7-1-3.8-0.7-6.1-0.7h-13.5
	c-2.2,0-4.3-0.3-5.9,0.7C106,31.7,107.2,35.6,107,40.4 M111.4,35c0-1.3-0.2-1.8,1.2-1.8l16.2,0c0.6,0,4-0.1,4.3,0.2
	c0.2,0.3,0.1,4.5,0.1,5.2c-6.6-1.8-10.1-1.9-16.7-1.2c-1.8,0.2-3.4,0.9-5,1.1L111.4,35z M102.3,104c-1-0.8-2.1-1.3-3.8-2.7
	c-3.6-3-6.5-6.3-8.6-11c-9-20.3,8.4-41.1,32.2-41.2c23.8-0.1,41.6,20.4,32.7,41c-2,4.5-4.8,7.9-8.5,11c-1.6,1.4-2.6,1.8-3.7,2.7
	c-0.1,1.2,0,2.6-0.1,3.8c-0.1,1.2-0.5,2.3-0.6,3.4c3.1,0.3,14.4,2.2,15,4.5c-0.7,2.4-12.3,4.1-15.6,4.5c-11.3,1.5-26.6,1.4-37.9,0
	c-3.5-0.4-14.7-2.1-15.6-4.5c0.8-2.4,11.9-4.1,15.3-4.5c0-0.7-0.5-2.3-0.6-3.2C102.2,106.5,102.4,105.2,102.3,104z M99.5,150
	l1.3-7.6c0.8,0.2,2.7,1.2,4.2,1.7c1.4,0.5,3.1,0.8,4.5,1.3c-0.7,0.3-1.8,0.6-2.6,0.9c-0.8,0.3-1.8,0.7-2.6,1.1L99.5,150z
	 M135.2,145.3c1.4-0.5,3-0.8,4.4-1.3c1.5-0.5,2.7-1.2,4-1.6c0.1,0.1,0-0.1,0.2,0.3c0.2,0.6,1.2,7,1.2,7.2c-0.6-0.2-1.7-1-2.3-1.3
	c-1.5-0.9-3.3-1.7-4.9-2.3L135.2,145.3z M95.4,115.7l-0.6,0c0.3,0.1,0.1,0.1,0.2,0.2c0.9,0.2,2.1,0.5,3,0.8c1.1,0.3,2.2,0.5,3.2,0.7
	c2.2,0.4,4.5,0.7,6.8,0.9c12.2,1.4,31.6,0.9,42.5-2.7c-1.2,0.1-2.6,0.4-3.8,0.6c-1.4,0.2-2.6,0.3-4.1,0.5c-2.6,0.3-5.7,0.6-8.3,0.6
	c0.3-0.4,1.1-1,1.5-1.4c1.6-1.6,2.6-3.6,3.2-6c0.9-3.6,0.5-7.3-0.5-10.7c-1.2-4.3-3.9-10.6-3.4-15c0.4-2.7,1.9-3,2.5-3.7
	c-2.2,0.1-3.6,1.7-4.4,3.1c-1.1,2-1,3.7-1.6,6.1c-1.4,5.8-7.5,4.6-7.3,0c0.1-3.9,3.7-5.5,3.8-11.3c0-2.2-0.6-4.3-1.7-5.8
	c-0.9-1.2-2.6-2.7-4.3-3.2c-0.5,0-0.4-0.2-0.4,0.2c0.8,0.2,4.6,4.4,2.5,7.7c-0.6,0.9-2,2.2-3.7,2.1c-1.6-0.1-3-1.4-3.7-2.2
	c-4.2-4.8-4.1-12.7,0.6-16.5l0-0.2l-0.2,0c-1.7,0.4-4,2.9-5,4.6c-1.2,2-2,5.1-1.6,7.9c1,6.5,3.1,9.4,0.1,16.4
	c-2.1,4.9-4.6,8.1-5.5,14c-0.7,4.8,0.8,9.4,4,12.6c0.3,0.3,1,0.9,1.3,1.3c-2.5,0.1-8.6-0.6-11.5-0.9
	C98.1,116.1,96.2,115.7,95.4,115.7z M91,72.2c-0.1,0.8,0,0.2,0.2,0.5l0.3-0.4c0.6-1,0.9-2.3,2.1-4.2c10.4-16.1,34.5-19.1,50-7.9
	c2.4,1.7,4.8,4.1,6.5,6.5c1.6,2.2,2.4,3.6,3.4,6.3c0.3,0.7,0.5,1.9,0.8,2.5c0-2.9-2.3-7.7-3.7-9.8c-5.3-8.1-16.1-13.7-26.3-14.1
	c-12.6-0.5-25.6,5.3-31.3,15.9C92.5,68.1,91,71.3,91,72.2z M182.9,190.3c0.2,0.1,3,1,3.5,1.2l7.1,2.3c1.2,0.4,2.3,0.7,3.5,1.1
	c1.2,0.4,2.3,0.8,3.6,1.2c0.6,0.2,1.1,0.4,1.8,0.6c0.3,0.1,0.6,0.3,1,0.1c0.8-0.4,3.2-1.4,4.1-1.8c1.1-0.5,2.2-0.9,3.3-1.4
	c1.5-0.7,3.4-1.3,5-2.1c1-0.4,0.9-0.1,0.9-1.4c0-3.1-0.2-6.2-0.2-9.2c-0.1-3-0.3-6-0.4-9c-0.1-1.5-0.1-3-0.2-4.5
	c0-0.9-0.2-6.3-0.3-6.8c-0.2-1.6-0.1-4.9-0.4-6.6c-0.2-1.4-0.2-2.9-0.5-4.2c-0.1-0.5-0.2-1.3-0.3-2c-0.6-2.8-1.5-6.2-3.7-8
	c-2.5-2.1-5.1-1.5-7.4-2c-0.6-0.1-1.5-0.1-2.2-0.2l-2.1-0.2c-1.4-0.2-2.8-0.3-4.2-0.4c-1.2-0.1-3.1-0.3-4.2-0.5
	c-1.4-0.2-2.8-0.2-4.3-0.4c-1.7-0.2-2.6-0.3-3.6,0.7c-1.3,1.2-1.8,3.5-0.9,5.3c0.4,0.7,0.5,0.8,1.4,0.9c0.7,0.1,1.5,0.1,2.2,0.2
	c0.7,0,1.4,0.2,2.2,0.2c0.1,1.5-0.4,2.9-0.7,4.2l-2,6.2c-0.3,0.9-0.6,1.6-0.8,2.5c-0.5,1.3-0.5,1.2-0.7,2.5c-0.8,4.2-0.7,8-0.7,12.3
	c0,2.1,0.1,4.3,0.1,6.4c0,2.1,0,4.4,0.1,6.5c0,1,0,2.1,0.1,3.2C182.9,188.1,182.8,189.3,182.9,190.3z M197,182.7
	c0.5-1.2,0.4-8.6-0.1-9c-0.1-0.1-0.7-0.3-0.9-0.3c-0.1,0-0.3-0.1-0.5-0.2c-0.5-0.2-2.8-0.7-3.5-0.8c-0.5-0.1-3.1-0.4-3.4-0.2
	c-0.3,0.2-0.4,3.9-0.4,4.6c0,0.7,0.1,2.8,0.3,3.4c0.1,0.5-0.1,0.6,0.4,0.8c1.1,0.4,2.5,0.9,3.7,1.1
	C193.6,182.2,196.2,182.8,197,182.7z M194.4,159.6c0.1-0.1,0.4-0.4,0.4-0.5c-0.2,0-0.4,0.1-0.5,0.2c-0.5,0-1.4,0.7-1.8,1
	c-0.4,0.3-0.9,0.9-1.2,1.5c-0.7,1.4-0.6,3.1-0.4,4.8c0.6,3.8-1.5,3.2-2,2.7c-0.3-0.3-0.3-0.5-0.4-1c-0.1-0.7-0.4-1.3-0.8-1.9
	c-0.1-0.1-0.5-0.5-0.8-0.6c0.3,0.3,0.4,1,0.3,1.6c-0.1,1-0.5,2-0.9,2.9c-0.7,1.7-0.7,2.9-0.1,4.7c0.2,0.6,1,2.2,1.5,2.4
	c0-1-0.1-2.1,0-3c0.3-2.8,0-3,1.6-2.8c0.4,0,0.9,0.1,1.4,0.1c0.5,0,0.9,0.1,1.3,0.2c1.1,0.2,2.7,0.5,3.7,0.8
	c0.8,0.3,1.7,0.4,1.8,1.2c0.1,0.9,0.2,1.8,0.2,2.8l0.1,2.9c0.2-0.1,0.6-0.7,0.8-0.9c1.2-2.1,1.2-4.9,0.5-7.1
	c-0.1-0.5-0.3-0.8-0.5-1.2c-0.1-0.4-0.4-0.7-0.6-1c-0.2-0.3-0.4-0.5-0.7-0.7c0.1,0.2,0.2,0.4,0.2,0.5c0.1,0.3,0.1,0.4,0.2,0.6
	c-0.1,0.2,0.1,0.7,0,1.1c-0.2,0.9-1.4,1.3-2,0.2c-0.8-1.3-0.2-2.2-0.8-4l-0.7-1.7c-0.6-1.3-0.9-2.5-0.5-4.1
	C193.9,160.3,194.4,159.7,194.4,159.6z M183,137.9l0.5-0.5c0.1-0.1,0,0,0.1-0.1c0.2,0,0.5-0.3,1.1-0.3c0.6,0,8.3,0.9,9.1,1
	c1.7,0.2,3.5,0.4,5.2,0.6c0.9,0.1,1.7,0.2,2.6,0.3c0.9,0.1,1.7,0.2,2.6,0.3c-0.2,0.5-0.5,0.4-0.9,2.3c-0.3,1.5,0.2,2.4,0.2,2.8
	c-0.5,0-2.5-0.3-3.2-0.3c-1-0.1-2.1-0.3-3.1-0.4c-2.1-0.3-4.2-0.4-6.3-0.7c-2.1-0.3-4.2-0.5-6.2-0.8c-0.4,0-1.4-0.1-1.6-0.2
	c-0.3-0.1-0.5-0.9-0.5-1.2C182.2,139.1,182.9,138.2,183,137.9z M205.5,139.3c0.5-0.1,2,0.7,2.2,0.9c1.3,1.1,1.9,2.5,1.8,4.7
	c-0.1,1.9-1.3,5.9-2,7.7l-1.7,4.8c-1.4,3.9-2.9,8.8-3.2,13c-0.1,2.1-0.1,4.3-0.1,6.3l0,6.4c0,4,0,8.4,0,12.3c-0.5,0-1.3-0.4-1.8-0.6
	c-0.2-0.1-0.4-0.1-0.6-0.2l-4.6-1.5c-0.5-0.1-0.7-0.3-1.2-0.4c-0.4-0.1-0.8-0.3-1.1-0.4c-1.3-0.4-9-2.9-9.2-3
	c-0.1-7-0.3-14.2-0.3-21.2c0-2.7,0-5.4,0.4-8c0.2-1,0.3-2.1,0.6-3c0.1-0.4,0.3-0.9,0.5-1.3c0.2-0.5,0.3-0.9,0.5-1.4
	c1.1-3.3,2.9-7.8,3-11.4c0.4-0.1,2.2,0.3,2.8,0.3c0.9,0.1,1.9,0.3,2.7,0.4l4.2,0.5c1,0.1,6.4,0.9,6.9,0.9c0.8,0,1.6-0.5,2-1.2
	c0.4-0.6,0.5-1.9,0.1-2.6l-3.1-0.3C204.3,140.7,205,139.5,205.5,139.3z M183.3,95c0.7,0.8,1.2,0.4,0.6-0.4
	C183.2,93.7,182.7,94.2,183.3,95z M184.5,84.3C184,86,182,94,184.7,94.8c2.8,0.8,5.5-7.3,6.2-9.8C188.8,85.3,186.6,85,184.5,84.3z
	 M182.1,61c-0.1,0.5,1.6,0.7,1.6,0.2C183.8,60.7,182.2,60.5,182.1,61z M178.6,61.2c0.1,0.8,2.8,0.5,2.7-0.3
	C181.2,60.1,178.5,60.4,178.6,61.2z M179.8,65.2c0,0,7.8,3.5,5.9,3.9c-0.2,0-4,1.3-3.1,1.6c0.4,0.1,8.6-2.7,14.8-1
	c2.4,0.7,8.7,1.1,9.2-1.7c0.8-4.2-13.2-6.2-13-2.4c0.1,1.5-1.5,2-3.4,2.6C188.5,68.8,181.6,66,179.8,65.2z M175.1,65.2
	c-0.4-2-0.1-3.4,0.9-4.3c2.1-2,7.3-1.7,11.2-0.5c0.9,0.2,1.6,0.5,2.3,0.8c0.9,0.4,1.7,0.7,2.5,1c3,0.9,5.2,0.5,7.3,0.1
	c2.1-0.4,4.1-0.7,7.1,0.1c2.3,0.7,3.8,2.1,4.2,4c0.5,2.3-0.5,4.8-1.8,5.9C198.8,81.1,178.4,81.1,175.1,65.2z M197.4,66.4
	c0.3-1.6,5.7-0.7,5.4,1C202.5,69,197.1,68.1,197.4,66.4z M174.5,134.2c-0.4-0.1-1.4,1.8-2.1,4.3c-0.8,2.5-1,4.6-0.6,4.8
	c0.7,0.2,2-3.8,2.1-4.3C174.1,138.5,175.2,134.4,174.5,134.2z M168.7,153.5c-0.4-0.1-0.8,0-0.9,0.3c-0.1,0.3,0.2,0.7,0.6,0.8
	c0.3,0.1,0.8,0.1,0.9-0.3C169.4,153.9,169,153.6,168.7,153.5z M176.1,128.7c-0.4-0.1-0.8,0-0.9,0.3c-0.1,0.3,0.2,0.6,0.6,0.8
	c0.3,0.1,0.8,0.1,0.9-0.3C176.9,129.1,176.5,128.8,176.1,128.7z M183.1,96.7c-2.4-2.6-0.5-9.5,0.5-12.8c-9.9-3.9-13.1-11.7-10-21.3
	c-0.3,1-0.3,2.1,0,3.5c3.5,16.7,25,17.6,36,7.9c17.4-15.3-0.9,8.3-17.6,10.9c-1,3.7-3.2,11.4-7,12.3c-3,10.3-5.9,20.6-8.9,30.9
	c1,0.6,1.5,1.7,1.2,2.7c-0.2,0.6-0.7,1.1-1.4,1.3c-0.2,2.8-1,6.6-2.3,10.7c-1.3,4.3-2.8,8.1-4.2,10.5c0.5,0.5,0.7,1.2,0.5,1.8
	c-0.3,1.1-1.8,1.6-3.3,1.1c-1.1-0.3-2.6-1.4-2.2-2.8c0.2-0.6,0.7-1,1.4-1.2c0.2-2.8,1-6.8,2.3-11.1c1.2-4.1,2.7-7.7,4-10.2
	c-0.4-0.6-0.6-1.2-0.4-1.9c0.3-0.9,1.3-1.5,2.4-1.5C177.2,117.3,180.2,107,183.1,96.7z M149.7,176.8l-54.9,0c0-1,1.7-9.9,2-11.7
	c0.3-1.9,0.7-4,1-5.9c0.2-1.4,0.5-1.3,1.4-2c13.7-10.7,32.3-10.8,45.9-0.1c0.7,0.6,1.3,0.8,1.5,1.9l2,11.8
	C149,172,149.8,175.8,149.7,176.8z"/>
</svg>
