<?xml version="1.0" encoding="utf-8"?>
<!-- Generator: Adobe Illustrator 27.9.0, SVG Export Plug-In . SVG Version: 6.00 Build 0)  -->
<svg version="1.1" id="Layer_1" xmlns="http://www.w3.org/2000/svg" xmlns:xlink="http://www.w3.org/1999/xlink" x="0px" y="0px"
	 viewBox="0 0 320 80" style="enable-background:new 0 0 320 80;" xml:space="preserve">

<g>
	<rect x="100" y="15" class="newX" width="50" height="50"/>
	<rect x="170" y="15" class="instagram" width="50" height="50"/>
	<rect x="240" y="15" class="facebook" width="50" height="50"/>
	<rect x="30" y="15" class="whatsapp" width="50" height="50"/>
	<path class="iconWhatsapp" d="M66.32,47.94c-0.48,1.33-2.79,2.55-3.9,2.71c-1,0.15-2.26,0.21-3.64-0.22c-0.84-0.26-1.91-0.61-3.29-1.2 c-5.79-2.47-9.58-8.23-9.87-8.61c-0.29-0.38-2.36-3.09-2.36-5.9c0-2.81,1.49-4.18,2.02-4.76c0.53-0.57,1.15-0.71,1.54-0.71 c0.39,0,0.77,0.01,1.11,0.02c0.35,0.02,0.83-0.13,1.3,0.98c0.48,1.14,1.64,3.95,1.78,4.24c0.15,0.29,0.24,0.62,0.05,1 c-0.19,0.38-0.29,0.62-0.58,0.95c-0.29,0.33-0.61,0.74-0.87,1c-0.29,0.29-0.59,0.59-0.25,1.16c0.34,0.57,1.5,2.44,3.21,3.95 c2.2,1.94,4.07,2.55,4.65,2.83c0.58,0.29,0.92,0.24,1.25-0.14c0.34-0.38,1.45-1.67,1.83-2.24c0.38-0.57,0.77-0.48,1.3-0.29 c0.53,0.19,3.37,1.57,3.95,1.86c0.58,0.29,0.96,0.43,1.11,0.66C66.81,45.47,66.81,46.61,66.32,47.94 M55.01,17.5 c-12.41,0-22.5,10.09-22.5,22.5c0,3.88,1,7.68,2.9,11.04l-2.86,10.21c-0.1,0.34-0.01,0.7,0.24,0.95c0.19,0.19,0.45,0.3,0.7,0.3 c0.08,0,0.16-0.01,0.24-0.03l10.66-2.64c3.25,1.74,6.92,2.67,10.63,2.67c12.41,0,22.5-10.09,22.5-22.5S67.41,17.5,55.01,17.5z"/>
	<path class="iconFacebook" d="M280,17.5h-30c-4.14,0-7.5,3.36-7.5,7.5v30c0,4.15,3.36,7.5,7.5,7.5h15.94V46.57h-5.62V40h5.62v-4.69 c0-6.56,3.75-10.31,9.38-10.31c2.94,0,4.69,0.94,4.69,0.94v5.62h-3.75c-2.68,0-3.75,1.96-3.75,3.75V40h6.56l-0.94,6.56h-5.63V62.5 h7.5c4.15,0,7.5-3.36,7.5-7.5V25C287.5,20.86,284.14,17.5,280,17.5"/>
	<path class="iconInstagram" d="M195,30.8c-5.07,0-9.2,4.14-9.2,9.2c0,5.07,4.13,9.2,9.2,9.2c5.07,0,9.2-4.13,9.2-9.2S200.07,30.8,195,30.8 M195,28.75c6.21,0,11.25,5.04,11.25,11.25c0,6.21-5.04,11.25-11.25,11.25c-6.21,0-11.25-5.04-11.25-11.25 C183.75,33.79,188.79,28.75,195,28.75z M207.27,25.68c1.13,0,2.05,0.92,2.05,2.05c0,1.12-0.92,2.05-2.05,2.05 c-1.12,0-2.05-0.92-2.05-2.05C205.23,26.61,206.15,25.68,207.27,25.68z M185.8,17.5c-7.34,0-13.3,5.96-13.3,13.3v18.41 c0,7.33,5.96,13.29,13.3,13.29h18.41c7.33,0,13.29-5.96,13.29-13.3V30.8c0-7.33-5.96-13.3-13.3-13.3H185.8z"/>
	<path class="iconNewX" d="M116.34,29.28l15.11,21.43l3.29,0l-15.11-21.43L116.34,29.28z M112.24,27.14h8.51l6.04,8.58l7.33-8.58h2.68 l-8.8,10.3l10.85,15.41h-8.51l-7.01-9.96l-8.51,9.96h-2.68l9.97-11.68L112.24,27.14z M110,17.5c-4.14,0-7.5,3.36-7.5,7.5v30 c0,4.15,3.36,7.5,7.5,7.5h30c4.15,0,7.5-3.36,7.5-7.5V25c0-4.14-3.36-7.5-7.5-7.5H110z"/>
	
</g>
<style type="text/css">
	.whatsapp,.facebook,.instagram,.newX{fill:transparent;cursor: pointer;}
	.iconWhatsapp,.iconFacebook,.iconInstagram,.iconNewX{fill:gainsboro;transition: 0.5s;cursor: pointer;}
	.iconWhatsapp:hover,.iconFacebook:hover,.iconInstagram:hover,.iconNewX:hover{fill: #000;filter: drop-shadow(0px 0px 10px gainsboro);}
	.whatsapp:hover ~ .iconWhatsapp,
	.facebook:hover ~ .iconFacebook,
	.instagram:hover ~ .iconInstagram,
	.newX:hover ~ .iconNewX{
		fill: #000;filter: drop-shadow(0px 0px 10px gainsboro);
	}
	
</style>
<script>
	const w = document.querySelector(".whatsapp")
	const iW = document.querySelector(".iconWhatsapp")
	const f = document.querySelector(".facebook")
	const iF = document.querySelector(".iconFacebook")
	const i = document.querySelector(".instagram")
	const iI = document.querySelector(".iconInstagram")
	const x = document.querySelector(".newX")
	const iX = document.querySelector(".iconNewX")
	w.addEventListener("click", () => {
		
		window.open("https://wa.me/595994441044", '_blank');
	});
	iW.addEventListener("click", () => {
		window.open("https://wa.me/595994441044", '_blank');
	});
	f.addEventListener("click", () => {iF.style.fill= "gainsboro"});
	iF.addEventListener("click", () => {iF.style.fill= "gainsboro"});
	i.addEventListener("click", () => {
		window.open("https://www.instagram.com/torreboggiani/?igsh=MXI4eHh2Mng2MXVycw%3D%3D", '_blank');
	});
	iI.addEventListener("click", () => {
		window.open("https://www.instagram.com/torreboggiani/?igsh=MXI4eHh2Mng2MXVycw%3D%3D", '_blank');
	});
	x.addEventListener("click", () => {iX.style.fill= "gainsboro"});
	iX.addEventListener("click", () => {iX.style.fill= "gainsboro"});
</script>

</svg>
