<?xml version="1.0" encoding="utf-8"?>
<!-- Generator: Adobe Illustrator 27.9.0, SVG Export Plug-In . SVG Version: 6.00 Build 0)  -->
<svg version="1.1" id="Layer_1" xmlns="http://www.w3.org/2000/svg" xmlns:xlink="http://www.w3.org/1999/xlink" x="0px" y="0px"
	 viewBox="0 0 482 242" style="enable-background:new 0 0 482 242;" xml:space="preserve">
<style type="text/css">
	.st0{fill:#ebebeb;}
</style>
<g>
	<path class="st0" d="M72.2,22.9c-2.5,2.5-6,3.3-8.2,3.6c1.5-1.9,4.1-6,4.1-10.8c0-0.4,0-0.8-0.1-1.3c3.2-1.7,6.9-1.9,7.7-1.9
		c0.1,0,0.2,0,0.2,0S76.1,19,72.2,22.9 M61.9,26.5C61.9,26.5,61.9,26.5,61.9,26.5c-0.6-0.6-4.7-5.3-4.7-10.9c0-6,4.7-10.9,4.7-10.9
		s4.7,4.9,4.7,10.9C66.6,21.4,62.3,26.2,61.9,26.5z M51.5,22.9c-3.9-3.9-3.7-10.4-3.7-10.4s0.1,0,0.2,0c0.8,0,4.4,0.1,7.7,1.9
		c0,0.4-0.1,0.8-0.1,1.3c0,4.8,2.6,8.9,4.1,10.8C57.5,26.2,54,25.4,51.5,22.9z M54.1,7.7c0,0,1.3,0.6,2.9,1.7c-0.4,1-0.8,2.1-1,3.3
		c-0.9-0.5-1.9-0.8-2.8-1.1C53.5,9.4,54.1,7.7,54.1,7.7z M69.7,7.7c0,0,0.6,1.6,0.9,3.9c-0.9,0.3-1.8,0.6-2.8,1
		c-0.2-1.2-0.6-2.3-1-3.3C68.4,8.3,69.7,7.7,69.7,7.7z M77.4,12.5c0-0.8-0.7-1.5-1.5-1.5l-0.2,0c-0.5,0-1.9,0-3.6,0.4
		c-0.3-2.3-0.9-4-1-4.1c-0.2-0.4-0.5-0.7-0.9-0.9c-0.2-0.1-0.4-0.1-0.6-0.1c-0.2,0-0.4,0-0.6,0.1c-0.1,0.1-1.4,0.6-2.9,1.7
		c-1.4-2.6-3-4.3-3.1-4.4c-0.3-0.3-0.7-0.5-1.1-0.5c-0.4,0-0.8,0.2-1.1,0.5c-0.1,0.1-1.7,1.8-3.1,4.4c-1.6-1.1-2.8-1.7-2.9-1.7
		c-0.2-0.1-0.4-0.1-0.6-0.1c-0.2,0-0.4,0-0.6,0.1c-0.4,0.2-0.7,0.5-0.9,0.9c-0.1,0.1-0.7,1.8-1,4.1c-1.7-0.3-3.1-0.4-3.6-0.4l-0.2,0
		c-0.8,0-1.5,0.7-1.5,1.5c0,0.3-0.2,7.2,4.1,11.5c3.9,3.9,10.1,4.1,11.3,4.1l0.2,0c0,0,0,0,0,0c0,0,0,0,0,0l0.2,0
		c1.2,0,7.3-0.2,11.3-4.1C77.6,19.7,77.4,12.7,77.4,12.5z"/>
	<path class="st0" d="M68.7,81.4h-9.1c-2-1.4-3.4-3.8-3.4-6.5c0-3,2-6.3,3.3-9.4l9.3,0c1.3,3.4,3.4,7.1,3.4,9.4
		C72.1,77.6,70.7,79.9,68.7,81.4 M54.5,57.9c0.5-0.9,1.9-1,3.2-0.7c0.1,0.2,0.2,0.4,0.3,0.6c0,0,1,1.1,1,3.3c0,1.6-0.7,3.4-1.6,5.4
		C55,63.5,53.5,59.5,54.5,57.9z M67.8,55.2c0.9,0,1.8,0.4,2.9,1.5c-1.4,0.9-2.9,1.5-2.9,4.4c0,0.9,0.2,1.9,0.5,2.9H60
		c0.3-1,0.5-2,0.5-2.9c0-2.9-1.4-4.4-1.4-4.4C63.9,56.7,65.9,55.2,67.8,55.2z M71.4,68.2c-1.1-2.5-2.2-5.1-2.2-7.1
		c0-1.8,0.5-2.1,1.7-2.8c0.2-0.1,0.3-0.2,0.5-0.3c0.4-0.2,0.6-0.6,0.7-1.1c0-0.4-0.1-0.9-0.4-1.2c-1.3-1.3-2.5-1.9-3.9-1.9
		c-0.9,0-1.8,0.3-2.7,0.5c-1.4,0.4-3.2,0.9-6,0.9c-0.4,0-0.8,0.2-1,0.5c-2.9-0.5-4.2,0.4-4.8,1.4c-1.6,2.7,0.9,7.8,3.5,10.7
		c-1,2.3-2.1,4.6-2.1,7c0,3.1,1.5,5.9,4,7.7c0.2,0.2,0.5,0.3,0.8,0.3h9.1c0.3,0,0.6-0.1,0.8-0.3c2.5-1.8,4-4.7,4-7.7
		C73.5,72.9,72.5,70.6,71.4,68.2z"/>
	<path class="st0" d="M81.2,78.5l1.8-12.4l-7.6,0l2.3,12.2L81.2,78.5z M74.7,65.3h2.8l-0.4-3h-3.8v-0.7h4.4l0.5,3.7l5.8,0.1
		l-2.1,13.9l-5.2-0.1L74.7,65.3z"/>
	<path class="st0" d="M53,117.9h7.6l-2.8-2.7c-0.6-0.6-1.5-0.6-2,0L53,117.9z M51.4,119.5l-2.1,2.2c-0.2,0.2-0.4,0.2-0.6,0.2
		c-0.2,0-0.4-0.1-0.6-0.2c-0.3-0.3-0.3-0.8,0-1.1l2.4-2.4c0,0,0,0,0,0c0,0,0,0,0,0c0,0,0,0,0,0l4.2-4.1c1.2-1.2,3.1-1.2,4.3,0l4,3.9
		h1.7c1.7,0,3.4-0.7,4.5-2c0,0,0.1-0.2,0.7-0.9c0.3-0.4,0.8-0.4,1.1-0.2c0.4,0.3,0.4,0.8,0.2,1.1c-0.7,0.9-0.8,1-0.8,1.1
		c-1.5,1.6-3.5,2.6-5.7,2.6H51.4z M77.4,121.9h-6.8H53.6c-0.9,0-1.6,0.7-1.6,1.6c0,0.9,0.7,1.6,1.6,1.6h22.1c0.9,0,1.6-0.7,1.6-1.6
		V121.9z M71.4,120.3h5.9c-0.2-1.5-1.4-2.7-3-2.7C72.8,117.7,71.6,118.8,71.4,120.3z M79,120.7v0.5v2.4c0,1.8-1.4,3.2-3.2,3.2H53.6
		c-1.8,0-3.2-1.4-3.2-3.2c0-1.8,1.4-3.2,3.2-3.2h16.2c0.2-2.4,2.2-4.3,4.6-4.3C76.9,116.1,79,118.1,79,120.7z M72,111.3
		c0,0.9,0.8,1.7,1.7,1.7c0.9,0,1.7-0.8,1.7-1.7c0-0.9-0.8-1.7-1.7-1.7C72.7,109.6,72,110.4,72,111.3z M70.4,111.3
		c0-1.8,1.5-3.3,3.3-3.3c1.8,0,3.3,1.5,3.3,3.3c0,1.8-1.5,3.3-3.3,3.3C71.8,114.6,70.4,113.1,70.4,111.3z M76.2,129
		c-0.5-0.1-1-0.1-1.3-0.3c-1.8-0.6-5.2-0.5-7.1,0c-1.9,0.5-4.9,0.5-6.2,0c-1.8-0.6-5.2-0.5-7.1,0c-0.4,0.1-0.9,0.2-1.4,0.2
		c-0.4,0.1-0.8,0.5-0.7,0.9c0.1,0.4,0.4,0.8,0.9,0.7c0.6-0.1,1.1-0.2,1.6-0.3c1.8-0.5,4.8-0.5,6.2,0c0.9,0.3,2.1,0.4,3.3,0.4
		c1.4,0,2.8-0.2,3.8-0.4c1.8-0.5,4.8-0.5,6.2,0c0.4,0.1,1,0.3,1.7,0.3c0.4,0,0.8-0.3,0.9-0.7C77,129.4,76.7,129,76.2,129z M77,133.2
		c0,0.4-0.4,0.8-0.9,0.7c-0.6-0.1-1.2-0.2-1.7-0.3c-1.4-0.4-4.4-0.4-6.2,0c-1,0.3-2.4,0.4-3.8,0.4c-1.2,0-2.5-0.1-3.3-0.4
		c-1.4-0.4-4.4-0.4-6.2,0c-0.5,0.1-1,0.2-1.6,0.3c-0.4,0.1-0.8-0.3-0.9-0.7c-0.1-0.4,0.3-0.8,0.7-0.9c0.5-0.1,1-0.1,1.4-0.2
		c1.9-0.5,5.3-0.6,7.1,0c1.4,0.5,4.3,0.4,6.2,0c1.9-0.5,5.3-0.6,7.1,0c0.3,0.1,0.8,0.2,1.3,0.3C76.7,132.4,77,132.8,77,133.2z"/>
	<path class="st0" d="M74.1,180.5c-2.3,3.3-5.7,4.9-10.2,4.9c-3.7,0-7-1.4-9.2-3.8c2-1.7,4.2-2.9,6.3-3.7c0,0,0,0,0,0
		c0.1,0,0.3-0.1,0.4-0.2c3.4-1.2,6.4-1.4,7.4-1.1c0.4,0.1,0.8-0.2,0.9-0.6c0.1-0.4-0.2-0.8-0.6-0.9c-0.5-0.1-1.3-0.1-2.2-0.1
		c2.8-1.9,4.9-4.3,6.3-7.1c0.2-0.4,0-0.9-0.4-1c-0.4-0.2-0.9,0-1,0.4c-2,4.1-5.5,7.1-10.7,9c0.9-1.9,1.1-4.1,0-6.2
		c-0.2-0.4-0.7-0.5-1-0.3c-0.4,0.2-0.5,0.7-0.3,1c1.4,2.7,0,5.4-1.2,6.7c-1.6,0.8-3.2,1.8-4.7,3.1c-1.3-1.9-1.8-4.2-1.5-6.6
		c0.9-8.3,8.1-9.6,15-10.8c3.4-0.6,6.7-1.2,8.8-2.7C77.5,165.4,78.2,174.6,74.1,180.5 M77.1,158.6c-0.1-0.3-0.3-0.5-0.6-0.5
		c-0.3,0-0.6,0-0.7,0.3c-1.5,1.8-5.1,2.4-8.8,3.1c-6.8,1.2-15.2,2.7-16.3,12.2c-0.3,2.8,0.4,5.6,1.9,7.9c-1.8,1.8-3.3,4-4.2,6.8
		c-0.1,0.4,0.1,0.9,0.5,1c0.1,0,0.2,0,0.3,0c0.3,0,0.6-0.2,0.7-0.5c0.9-2.5,2.2-4.5,3.7-6.1c2.5,2.8,6.2,4.3,10.3,4.3
		c5.1,0,8.9-1.9,11.5-5.6C80.2,174.6,78.9,163.8,77.1,158.6z"/>
	<path class="st0" d="M77.8,223.5c-0.3-0.3-0.8-0.4-1.1-0.1l-7.6,6.1H50.8c-0.2,0-0.4,0.1-0.6,0.2l-3.1,3.1c-0.3,0.3-0.3,0.8,0,1.1
		c0.2,0.2,0.4,0.2,0.6,0.2c0.2,0,0.4-0.1,0.6-0.2l2.9-2.9h18L72,234c0.2,0.2,0.4,0.2,0.5,0.2c0.2,0,0.4-0.1,0.6-0.2
		c0.3-0.3,0.3-0.8,0-1.1l-2.5-2.5l7.1-5.7C78.1,224.4,78.1,223.9,77.8,223.5"/>
	<path class="st0" d="M70.2,224.8c-1.3,0-2.3-1.1-2.3-2.3c0-1.3,1-2.3,2.3-2.3c1.3,0,2.3,1.1,2.3,2.3
		C72.6,223.8,71.5,224.8,70.2,224.8 M70.2,218.6c-2.1,0-3.9,1.8-3.9,3.9c0,1.3,0.7,2.5,1.7,3.2l-4,1.4l-7.5-3
		c-0.2-0.1-0.4-0.1-0.6,0l-6.2,3.1c-0.4,0.2-0.5,0.7-0.3,1c0.1,0.3,0.4,0.4,0.7,0.4c0.1,0,0.2,0,0.3-0.1l5.9-3l7.5,3
		c0.2,0.1,0.4,0.1,0.5,0l7.2-2.5c0,0,0,0,0.1,0c1.5-0.5,2.6-2,2.6-3.7C74.1,220.3,72.4,218.6,70.2,218.6z"/>
	<path class="st0" d="M15.9,28.7H6.8c-2-1.4-3.4-3.8-3.4-6.5c0-3,2-6.3,3.3-9.4H16c1.3,3.4,3.4,7.1,3.4,9.4
		C19.3,24.9,18,27.3,15.9,28.7 M1.7,5.2c0.5-0.9,1.9-1,3.2-0.7C5,4.7,5.1,4.9,5.3,5.1c0,0,1,1.1,1,3.3c0,1.6-0.7,3.4-1.6,5.4
		C2.2,10.8,0.8,6.8,1.7,5.2z M15,2.5c0.9,0,1.8,0.4,2.9,1.5C16.4,5,15,5.5,15,8.4c0,0.9,0.2,1.9,0.5,2.9H7.2c0.3-1,0.5-2,0.5-2.9
		C7.8,5.5,6.3,4,6.3,4C11.1,4,13.2,2.5,15,2.5z M18.7,15.5c-1.1-2.5-2.2-5.1-2.2-7.1c0-1.8,0.5-2.1,1.7-2.8c0.2-0.1,0.3-0.2,0.5-0.3
		C19,5,19.3,4.6,19.3,4.2c0-0.4-0.1-0.9-0.4-1.2c-1.3-1.3-2.5-1.9-3.9-1.9c-0.9,0-1.8,0.3-2.7,0.5c-1.4,0.4-3.2,0.9-6,0.9
		c-0.4,0-0.8,0.2-1,0.5C2.4,2.5,1.1,3.5,0.5,4.5C-1.1,7.2,1.4,12.3,4,15.2c-1,2.3-2.1,4.6-2.1,7c0,3.1,1.5,5.9,4,7.7
		c0.2,0.2,0.5,0.3,0.8,0.3h9.1c0.3,0,0.6-0.1,0.8-0.3c2.5-1.8,4-4.7,4-7.7C20.8,20.3,19.8,17.9,18.7,15.5z"/>
	<path class="st0" d="M28.5,25.8l1.8-12.4l-7.6,0l2.3,12.2L28.5,25.8z M22,12.6h2.8l-0.4-3h-3.8V8.9h4.4l0.5,3.7l5.8,0.1L29,26.5
		l-5.2-0.1L22,12.6z"/>
	<path class="st0" d="M5.1,65.2h7.6L10,62.5c-0.6-0.6-1.5-0.6-2,0L5.1,65.2z M3.5,66.8L1.4,69c-0.2,0.2-0.4,0.2-0.6,0.2
		c-0.2,0-0.4-0.1-0.6-0.2c-0.3-0.3-0.3-0.8,0-1.1l2.4-2.4c0,0,0,0,0,0c0,0,0,0,0,0c0,0,0,0,0,0l4.2-4.1c1.2-1.2,3.1-1.2,4.3,0l4,3.9
		h1.7c1.7,0,3.4-0.7,4.5-2c0,0,0.1-0.2,0.7-0.9c0.3-0.4,0.8-0.4,1.1-0.2c0.4,0.3,0.4,0.8,0.2,1.1c-0.7,0.9-0.8,1-0.8,1.1
		c-1.5,1.6-3.5,2.6-5.7,2.6H3.5z M29.5,69.3h-6.8H5.8c-0.9,0-1.6,0.7-1.6,1.6c0,0.9,0.7,1.6,1.6,1.6h22.1c0.9,0,1.6-0.7,1.6-1.6
		L29.5,69.3z M23.6,67.7h5.9c-0.2-1.5-1.4-2.7-3-2.7C25,65,23.7,66.2,23.6,67.7z M31.1,68v0.5v2.4c0,1.8-1.4,3.2-3.2,3.2H5.8
		c-1.8,0-3.2-1.4-3.2-3.2c0-1.8,1.4-3.2,3.2-3.2h16.2c0.2-2.4,2.2-4.3,4.6-4.3C29.1,63.4,31.1,65.4,31.1,68z M24.1,58.6
		c0,0.9,0.8,1.7,1.7,1.7c0.9,0,1.7-0.8,1.7-1.7c0-0.9-0.8-1.7-1.7-1.7C24.9,56.9,24.1,57.7,24.1,58.6z M22.5,58.6
		c0-1.8,1.5-3.3,3.3-3.3c1.8,0,3.3,1.5,3.3,3.3c0,1.8-1.5,3.3-3.3,3.3C24,61.9,22.5,60.4,22.5,58.6z M28.4,76.3
		c-0.5-0.1-1-0.1-1.3-0.3c-1.8-0.6-5.2-0.5-7.1,0c-1.9,0.5-4.9,0.5-6.2,0c-1.8-0.6-5.2-0.5-7.1,0c-0.4,0.1-0.9,0.2-1.4,0.2
		c-0.4,0.1-0.8,0.5-0.7,0.9c0.1,0.4,0.4,0.8,0.9,0.7c0.6-0.1,1.1-0.2,1.6-0.3c1.8-0.5,4.8-0.5,6.2,0c0.9,0.3,2.1,0.4,3.3,0.4
		c1.4,0,2.8-0.2,3.8-0.4c1.8-0.5,4.8-0.5,6.2,0c0.4,0.1,1,0.3,1.7,0.3c0.4,0,0.8-0.3,0.9-0.7C29.2,76.7,28.8,76.3,28.4,76.3z
		 M29.1,80.5c0,0.4-0.4,0.8-0.9,0.7c-0.6-0.1-1.2-0.2-1.7-0.3c-1.4-0.4-4.4-0.4-6.2,0c-1,0.3-2.4,0.4-3.8,0.4
		c-1.2,0-2.5-0.1-3.3-0.4c-1.4-0.4-4.4-0.4-6.2,0c-0.5,0.1-1,0.2-1.6,0.3c-0.4,0.1-0.8-0.3-0.9-0.7c-0.1-0.4,0.3-0.8,0.7-0.9
		c0.5-0.1,1-0.1,1.4-0.2c1.9-0.5,5.3-0.6,7.1,0c1.4,0.5,4.3,0.4,6.2,0c1.9-0.5,5.3-0.6,7.1,0c0.3,0.1,0.8,0.2,1.3,0.3
		C28.8,79.7,29.2,80.1,29.1,80.5z"/>
	<path class="st0" d="M26.2,127.8c-2.3,3.3-5.7,4.9-10.2,4.9c-3.7,0-7-1.4-9.2-3.8c2-1.7,4.2-2.9,6.3-3.7c0,0,0,0,0,0
		c0.1,0,0.3-0.1,0.4-0.2c3.4-1.2,6.4-1.4,7.4-1.1c0.4,0.1,0.8-0.2,0.9-0.6c0.1-0.4-0.2-0.8-0.6-0.9c-0.5-0.1-1.3-0.1-2.2-0.1
		c2.8-1.9,4.9-4.3,6.3-7.1c0.2-0.4,0-0.9-0.4-1c-0.4-0.2-0.9,0-1,0.4c-2,4.1-5.5,7.1-10.7,9c0.9-1.9,1.1-4.1,0-6.2
		c-0.2-0.4-0.7-0.5-1-0.3c-0.4,0.2-0.5,0.7-0.3,1c1.4,2.7,0,5.4-1.2,6.7c-1.6,0.8-3.2,1.8-4.7,3.1c-1.3-1.9-1.8-4.2-1.5-6.6
		c0.9-8.3,8.1-9.6,15-10.8c3.4-0.6,6.7-1.2,8.8-2.7C29.6,112.8,30.3,121.9,26.2,127.8 M29.1,105.9c-0.1-0.3-0.3-0.5-0.6-0.5
		c-0.3,0-0.6,0-0.7,0.3c-1.5,1.8-5.1,2.4-8.8,3.1c-6.8,1.2-15.2,2.7-16.3,12.2c-0.3,2.8,0.4,5.6,1.9,7.9c-1.8,1.8-3.3,4-4.2,6.8
		c-0.1,0.4,0.1,0.9,0.5,1c0.1,0,0.2,0,0.3,0c0.3,0,0.6-0.2,0.7-0.5c0.9-2.5,2.2-4.5,3.7-6.1c2.5,2.8,6.2,4.3,10.3,4.3
		c5.1,0,8.9-1.9,11.5-5.6C32.2,121.9,31,111.1,29.1,105.9z"/>
	<path class="st0" d="M31,170.9c-0.3-0.3-0.8-0.4-1.1-0.1l-7.6,6.1H3.9c-0.2,0-0.4,0.1-0.6,0.2l-3.1,3.1c-0.3,0.3-0.3,0.8,0,1.1
		c0.2,0.2,0.4,0.2,0.6,0.2c0.2,0,0.4-0.1,0.6-0.2l2.9-2.9h18l2.9,2.9c0.2,0.2,0.4,0.2,0.5,0.2c0.2,0,0.4-0.1,0.6-0.2
		c0.3-0.3,0.3-0.8,0-1.1l-2.5-2.5l7.1-5.7C31.2,171.7,31.2,171.2,31,170.9"/>
	<path class="st0" d="M23.3,172.1c-1.3,0-2.3-1.1-2.3-2.3c0-1.3,1-2.3,2.3-2.3c1.3,0,2.3,1.1,2.3,2.3
		C25.7,171.1,24.6,172.1,23.3,172.1 M23.3,165.9c-2.1,0-3.9,1.8-3.9,3.9c0,1.3,0.7,2.5,1.7,3.2l-4,1.4l-7.5-3
		c-0.2-0.1-0.4-0.1-0.6,0l-6.2,3.1c-0.4,0.2-0.5,0.7-0.3,1c0.1,0.3,0.4,0.4,0.7,0.4c0.1,0,0.2,0,0.3-0.1l5.9-3l7.5,3
		c0.2,0.1,0.4,0.1,0.5,0l7.2-2.5c0,0,0,0,0.1,0c1.5-0.5,2.6-2,2.6-3.7C27.2,167.6,25.5,165.9,23.3,165.9z"/>
	<path class="st0" d="M25.9,233.6c-2.5,2.5-6,3.3-8.2,3.6c1.5-1.9,4.1-6,4.1-10.8c0-0.4,0-0.8-0.1-1.3c3.2-1.7,6.9-1.9,7.7-1.9
		c0.1,0,0.2,0,0.2,0S29.8,229.7,25.9,233.6 M15.6,237.3C15.6,237.3,15.5,237.3,15.6,237.3c-0.6-0.6-4.7-5.3-4.7-10.9
		c0-6,4.7-10.9,4.7-10.9s4.7,4.9,4.7,10.9C20.2,232.2,15.9,236.9,15.6,237.3z M5.2,233.6c-3.9-3.9-3.7-10.4-3.7-10.4s0.1,0,0.2,0
		c0.8,0,4.4,0.1,7.7,1.9c0,0.4-0.1,0.8-0.1,1.3c0,4.8,2.6,8.9,4.1,10.8C11.2,236.9,7.7,236.1,5.2,233.6z M7.8,218.5
		c0,0,1.3,0.6,2.9,1.7c-0.4,1-0.8,2.1-1,3.3c-0.9-0.5-1.9-0.8-2.8-1.1C7.2,220.1,7.8,218.5,7.8,218.5z M23.3,218.5
		c0,0,0.6,1.6,0.9,3.9c-0.9,0.3-1.8,0.6-2.8,1.1c-0.2-1.2-0.6-2.3-1-3.3C22,219.1,23.3,218.5,23.3,218.5z M31.1,223.2
		c0-0.8-0.7-1.5-1.5-1.5l-0.2,0c-0.5,0-1.9,0-3.6,0.4c-0.3-2.3-0.9-4-1-4.1c-0.2-0.4-0.5-0.7-0.9-0.9c-0.2-0.1-0.4-0.1-0.6-0.1
		c-0.2,0-0.4,0-0.6,0.1c-0.1,0.1-1.4,0.6-2.9,1.7c-1.4-2.6-3-4.3-3.1-4.4c-0.3-0.3-0.7-0.5-1.1-0.5c-0.4,0-0.8,0.2-1.1,0.5
		c-0.1,0.1-1.7,1.8-3.1,4.4c-1.6-1.1-2.8-1.7-2.9-1.7c-0.2-0.1-0.4-0.1-0.6-0.1c-0.2,0-0.4,0-0.6,0.1c-0.4,0.2-0.7,0.5-0.9,0.9
		c-0.1,0.1-0.7,1.8-1,4.1c-1.7-0.3-3.1-0.4-3.6-0.4l-0.2,0c-0.8,0-1.5,0.7-1.5,1.5c0,0.3-0.2,7.2,4.1,11.5
		c3.9,3.9,10.1,4.1,11.3,4.1l0.2,0c0,0,0,0,0,0s0,0,0,0l0.2,0c1.2,0,7.3-0.2,11.3-4.1C31.3,230.4,31.1,223.5,31.1,223.2z"/>
	<path class="st0" d="M126,12.8c-0.3-0.3-0.8-0.4-1.1-0.1l-7.6,6.1l-18.4,0c-0.2,0-0.4,0.1-0.6,0.2l-3.1,3.1c-0.3,0.3-0.3,0.8,0,1.1
		c0.2,0.2,0.4,0.2,0.6,0.2c0.2,0,0.4-0.1,0.6-0.2l2.9-2.9h18l2.9,2.9c0.2,0.2,0.4,0.2,0.5,0.2c0.2,0,0.4-0.1,0.6-0.2
		c0.3-0.3,0.3-0.8,0-1.1l-2.5-2.5l7.1-5.7C126.3,13.6,126.3,13.1,126,12.8"/>
	<path class="st0" d="M118.4,14.1c-1.3,0-2.3-1.1-2.3-2.3c0-1.3,1-2.3,2.3-2.3c1.3,0,2.3,1.1,2.3,2.3
		C120.8,13,119.7,14.1,118.4,14.1 M118.4,7.8c-2.1,0-3.9,1.8-3.9,3.9c0,1.3,0.7,2.5,1.7,3.2l-4,1.4l-7.5-3c-0.2-0.1-0.4-0.1-0.6,0
		l-6.2,3.1c-0.4,0.2-0.5,0.7-0.3,1c0.1,0.3,0.4,0.4,0.7,0.4c0.1,0,0.2,0,0.3-0.1l5.9-3l7.5,3c0.2,0.1,0.4,0.1,0.5,0l7.2-2.5
		c0,0,0,0,0.1,0c1.5-0.5,2.6-2,2.6-3.7C122.3,9.6,120.6,7.8,118.4,7.8z"/>
	<path class="st0" d="M127.4,75.6c-2.5,2.5-6,3.3-8.2,3.6c1.5-1.9,4.1-6,4.1-10.8c0-0.4,0-0.8-0.1-1.3c3.2-1.7,6.9-1.9,7.7-1.9
		c0.1,0,0.2,0,0.2,0S131.3,71.7,127.4,75.6 M117.1,79.2C117.1,79.2,117.1,79.2,117.1,79.2c-0.6-0.6-4.7-5.3-4.7-10.9
		c0-6,4.7-10.9,4.7-10.9s4.7,4.9,4.7,10.9C121.7,74.1,117.5,78.8,117.1,79.2z M106.7,75.6c-3.9-3.9-3.7-10.4-3.7-10.4s0.1,0,0.2,0
		c0.8,0,4.4,0.1,7.7,1.9c0,0.4-0.1,0.8-0.1,1.3c0,4.8,2.6,8.9,4.1,10.8C112.7,78.9,109.2,78,106.7,75.6z M109.3,60.4
		c0,0,1.3,0.6,2.9,1.7c-0.4,1-0.8,2.1-1,3.3c-0.9-0.5-1.9-0.8-2.8-1.1C108.7,62.1,109.3,60.4,109.3,60.4z M124.8,60.4
		c0,0,0.6,1.6,0.9,3.9c-0.9,0.3-1.8,0.6-2.8,1.1c-0.2-1.2-0.6-2.3-1-3.3C123.5,61,124.8,60.4,124.8,60.4z M132.6,65.1
		c0-0.8-0.7-1.5-1.5-1.5l-0.2,0c-0.5,0-1.9,0-3.6,0.4c-0.3-2.3-0.9-4-1-4.1c-0.2-0.4-0.5-0.7-0.9-0.9c-0.2-0.1-0.4-0.1-0.6-0.1
		c-0.2,0-0.4,0-0.6,0.1c-0.1,0.1-1.4,0.6-2.9,1.7c-1.4-2.6-3-4.3-3.1-4.4c-0.3-0.3-0.7-0.5-1.1-0.5c-0.4,0-0.8,0.2-1.1,0.5
		c-0.1,0.1-1.7,1.8-3.1,4.4c-1.6-1.1-2.8-1.7-2.9-1.7c-0.2-0.1-0.4-0.1-0.6-0.1c-0.2,0-0.4,0-0.6,0.1c-0.4,0.2-0.7,0.5-0.9,0.9
		c-0.1,0.1-0.7,1.8-1,4.1c-1.7-0.3-3.1-0.4-3.6-0.4l-0.2,0c-0.8,0-1.5,0.7-1.5,1.5c0,0.3-0.2,7.2,4.1,11.5
		c3.9,3.9,10.1,4.1,11.3,4.1l0.2,0c0,0,0,0,0,0s0,0,0,0l0.2,0c1.2,0,7.3-0.2,11.3-4.1C132.8,72.4,132.6,65.4,132.6,65.1z"/>
	<path class="st0" d="M119,134.1h-9.1c-2-1.4-3.4-3.8-3.4-6.5c0-3,2-6.3,3.3-9.4h9.3c1.3,3.4,3.4,7.1,3.4,9.4
		C122.4,130.3,121,132.6,119,134.1 M104.8,110.6c0.5-0.9,1.9-1,3.2-0.7c0.1,0.2,0.2,0.4,0.3,0.6c0,0,1,1.1,1,3.3
		c0,1.6-0.7,3.4-1.6,5.4C105.3,116.2,103.8,112.2,104.8,110.6z M118.1,107.9c0.9,0,1.8,0.4,2.9,1.5c-1.4,0.9-2.9,1.5-2.9,4.4
		c0,0.9,0.2,1.9,0.5,2.9h-8.3c0.3-1,0.5-2,0.5-2.9c0-2.9-1.4-4.4-1.4-4.4C114.2,109.4,116.2,107.9,118.1,107.9z M121.7,120.9
		c-1.1-2.5-2.2-5.1-2.2-7.1c0-1.8,0.5-2.1,1.7-2.8c0.2-0.1,0.3-0.2,0.5-0.3c0.4-0.2,0.6-0.6,0.7-1.1c0-0.4-0.1-0.9-0.4-1.2
		c-1.3-1.3-2.5-1.9-3.9-1.9c-0.9,0-1.8,0.3-2.7,0.5c-1.4,0.4-3.2,0.9-6,0.9c-0.4,0-0.8,0.2-1,0.5c-2.9-0.5-4.2,0.4-4.8,1.4
		c-1.6,2.7,0.9,7.8,3.5,10.7c-1,2.3-2.1,4.6-2.1,7c0,3.1,1.5,5.9,4,7.7c0.2,0.2,0.5,0.3,0.8,0.3h9.1c0.3,0,0.6-0.1,0.8-0.3
		c2.5-1.8,4-4.7,4-7.7C123.8,125.6,122.8,123.3,121.7,120.9z"/>
	<path class="st0" d="M131.5,131.2l1.8-12.4l-7.6,0l2.3,12.2L131.5,131.2z M125,118h2.8l-0.4-3h-3.8v-0.7h4.4l0.5,3.7l5.7,0.1
		l-2.1,13.9l-5.2-0.1L125,118z"/>
	<path class="st0" d="M103.4,170.6h7.6l-2.8-2.7c-0.6-0.6-1.5-0.6-2,0L103.4,170.6z M101.8,172.2l-2.1,2.2c-0.2,0.2-0.4,0.2-0.6,0.2
		c-0.2,0-0.4-0.1-0.6-0.2c-0.3-0.3-0.3-0.8,0-1.1l2.4-2.4c0,0,0,0,0,0c0,0,0,0,0,0c0,0,0,0,0,0l4.2-4.1c1.2-1.2,3.1-1.2,4.3,0l4,3.9
		h1.7c1.7,0,3.4-0.7,4.5-2c0,0,0.1-0.2,0.7-0.9c0.3-0.4,0.8-0.4,1.1-0.2c0.4,0.3,0.4,0.8,0.2,1.1c-0.7,0.9-0.8,1-0.8,1.1
		c-1.5,1.6-3.5,2.6-5.7,2.6H101.8L101.8,172.2z M127.8,174.6H121H104c-0.9,0-1.6,0.7-1.6,1.6c0,0.9,0.7,1.6,1.6,1.6h22.1
		c0.9,0,1.6-0.7,1.6-1.6V174.6z M121.8,173h5.9c-0.2-1.5-1.4-2.7-3-2.7C123.2,170.4,122,171.5,121.8,173z M129.4,173.4v0.5v2.4
		c0,1.8-1.4,3.2-3.2,3.2H104c-1.8,0-3.2-1.4-3.2-3.2c0-1.8,1.4-3.2,3.2-3.2h16.2c0.2-2.4,2.2-4.3,4.6-4.3
		C127.3,168.8,129.4,170.8,129.4,173.4z M122.4,164c0,0.9,0.8,1.7,1.7,1.7c0.9,0,1.7-0.8,1.7-1.7c0-0.9-0.8-1.7-1.7-1.7
		C123.1,162.3,122.4,163.1,122.4,164z M120.8,164c0-1.8,1.5-3.3,3.3-3.3c1.8,0,3.3,1.5,3.3,3.3c0,1.8-1.5,3.3-3.3,3.3
		C122.2,167.3,120.8,165.8,120.8,164z M126.6,181.7c-0.5-0.1-1-0.1-1.3-0.3c-1.8-0.6-5.2-0.5-7.1,0c-1.9,0.5-4.9,0.5-6.2,0
		c-1.8-0.6-5.2-0.5-7.1,0c-0.4,0.1-0.9,0.2-1.4,0.2c-0.4,0.1-0.8,0.5-0.7,0.9c0.1,0.4,0.5,0.8,0.9,0.7c0.6-0.1,1.1-0.2,1.6-0.3
		c1.8-0.5,4.8-0.5,6.2,0c0.9,0.3,2.1,0.4,3.3,0.4c1.4,0,2.8-0.2,3.8-0.4c1.8-0.5,4.8-0.5,6.2,0c0.4,0.1,1,0.3,1.7,0.3
		c0.4,0,0.8-0.3,0.9-0.7C127.4,182.1,127.1,181.7,126.6,181.7z M127.4,185.9c0,0.4-0.4,0.8-0.9,0.7c-0.6-0.1-1.2-0.2-1.7-0.3
		c-1.4-0.4-4.4-0.4-6.2,0c-1,0.3-2.4,0.4-3.8,0.4c-1.2,0-2.5-0.1-3.3-0.4c-1.4-0.4-4.4-0.4-6.2,0c-0.5,0.1-1,0.2-1.6,0.3
		c-0.4,0.1-0.8-0.3-0.9-0.7c-0.1-0.4,0.3-0.8,0.7-0.9c0.5-0.1,1-0.1,1.4-0.2c1.9-0.5,5.3-0.6,7.1,0c1.4,0.5,4.3,0.4,6.2,0
		c1.9-0.5,5.3-0.6,7.1,0c0.3,0.1,0.8,0.2,1.3,0.3C127.1,185.1,127.4,185.5,127.4,185.9z"/>
	<path class="st0" d="M123.5,233.2c-2.3,3.3-5.7,4.9-10.2,4.9c-3.7,0-7-1.4-9.2-3.8c2-1.7,4.2-2.9,6.3-3.7c0,0,0,0,0,0
		c0.1,0,0.3-0.1,0.4-0.2c3.4-1.2,6.4-1.4,7.4-1.1c0.4,0.1,0.8-0.2,0.9-0.6c0.1-0.4-0.2-0.8-0.6-0.9c-0.5-0.1-1.3-0.1-2.2-0.1
		c2.8-1.9,4.9-4.3,6.3-7.1c0.2-0.4,0-0.9-0.4-1c-0.4-0.2-0.9,0-1,0.4c-2,4.1-5.5,7.1-10.7,9c0.9-1.9,1.1-4.1,0-6.2
		c-0.2-0.4-0.7-0.5-1-0.3c-0.4,0.2-0.5,0.7-0.3,1c1.4,2.7,0,5.4-1.2,6.7c-1.6,0.8-3.2,1.8-4.7,3.1c-1.3-1.9-1.8-4.2-1.5-6.6
		c0.9-8.3,8.1-9.6,15-10.8c3.4-0.6,6.7-1.2,8.8-2.7C126.8,218.1,127.6,227.3,123.5,233.2 M126.4,211.3c-0.1-0.3-0.3-0.5-0.6-0.5
		c-0.3,0-0.6,0-0.7,0.3c-1.5,1.8-5.1,2.4-8.8,3.1c-6.8,1.2-15.2,2.7-16.3,12.2c-0.3,2.8,0.4,5.6,1.9,7.9c-1.8,1.8-3.3,4-4.2,6.8
		c-0.1,0.4,0.1,0.9,0.5,1c0.1,0,0.2,0,0.3,0c0.3,0,0.6-0.2,0.7-0.5c0.9-2.5,2.2-4.5,3.7-6.1c2.5,2.8,6.2,4.3,10.3,4.3
		c5.1,0,8.9-1.9,11.5-5.6C129.5,227.3,128.3,216.5,126.4,211.3z"/>
	<path class="st0" d="M169.8,22.4c-2.3,3.3-5.7,4.9-10.2,4.9c-3.7,0-7-1.4-9.2-3.8c2-1.7,4.2-2.9,6.3-3.7c0,0,0,0,0,0
		c0.1,0,0.3-0.1,0.4-0.2c3.4-1.2,6.4-1.4,7.4-1.1c0.4,0.1,0.8-0.2,0.9-0.6c0.1-0.4-0.2-0.8-0.6-0.9c-0.5-0.1-1.3-0.1-2.2-0.1
		c2.8-1.9,4.9-4.3,6.3-7.1c0.2-0.4,0-0.9-0.4-1c-0.4-0.2-0.9,0-1,0.4c-2,4.1-5.5,7.1-10.7,9c0.9-1.9,1.1-4.1,0-6.2
		c-0.2-0.4-0.7-0.5-1-0.3c-0.4,0.2-0.5,0.7-0.3,1c1.4,2.7,0,5.4-1.2,6.7c-1.6,0.8-3.2,1.8-4.7,3.1c-1.3-1.9-1.8-4.2-1.5-6.6
		c0.9-8.3,8.1-9.6,15-10.8c3.4-0.6,6.7-1.2,8.8-2.7C173.2,7.4,173.9,16.5,169.8,22.4 M172.7,0.5c-0.1-0.3-0.3-0.5-0.6-0.5
		c-0.3,0-0.6,0-0.7,0.3c-1.5,1.8-5.1,2.4-8.8,3.1c-6.8,1.2-15.2,2.7-16.3,12.2c-0.3,2.8,0.4,5.6,1.9,7.9c-1.8,1.8-3.3,4-4.2,6.8
		c-0.1,0.4,0.1,0.9,0.5,1c0.1,0,0.2,0,0.3,0c0.3,0,0.6-0.2,0.7-0.5c0.9-2.5,2.2-4.5,3.7-6.1c2.5,2.8,6.2,4.3,10.3,4.3
		c5.1,0,8.9-1.9,11.5-5.6C175.8,16.5,174.6,5.7,172.7,0.5z"/>
	<path class="st0" d="M181,65.5c-0.3-0.3-0.8-0.4-1.1-0.1l-7.6,6.1h-18.4c-0.2,0-0.4,0.1-0.6,0.2l-3.1,3.1c-0.3,0.3-0.3,0.8,0,1.1
		c0.2,0.2,0.4,0.2,0.6,0.2c0.2,0,0.4-0.1,0.6-0.2l2.9-2.9h18l2.9,2.9c0.2,0.2,0.4,0.2,0.5,0.2c0.2,0,0.4-0.1,0.6-0.2
		c0.3-0.3,0.3-0.8,0-1.1l-2.5-2.5l7.1-5.7C181.2,66.3,181.3,65.8,181,65.5"/>
	<path class="st0" d="M173.4,66.7c-1.3,0-2.3-1.1-2.3-2.3c0-1.3,1-2.3,2.3-2.3c1.3,0,2.3,1.1,2.3,2.3
		C175.7,65.7,174.7,66.7,173.4,66.7 M173.4,60.5c-2.1,0-3.9,1.8-3.9,3.9c0,1.3,0.7,2.5,1.7,3.2l-4,1.4l-7.5-3
		c-0.2-0.1-0.4-0.1-0.6,0l-6.2,3.1c-0.4,0.2-0.5,0.7-0.3,1c0.1,0.3,0.4,0.4,0.7,0.4c0.1,0,0.2,0,0.3-0.1l5.9-3l7.5,3
		c0.2,0.1,0.4,0.1,0.5,0l7.2-2.5c0,0,0,0,0.1,0c1.5-0.5,2.6-2,2.6-3.7C177.3,62.3,175.5,60.5,173.4,60.5z"/>
	<path class="st0" d="M177.5,128.3c-2.5,2.5-6,3.3-8.2,3.6c1.5-1.9,4.1-6,4.1-10.8c0-0.4,0-0.8-0.1-1.3c3.2-1.7,6.9-1.9,7.7-1.9
		c0.1,0,0.2,0,0.2,0S181.3,124.4,177.5,128.3 M167.2,131.9C167.1,131.9,167.1,131.9,167.2,131.9c-0.6-0.6-4.7-5.3-4.7-10.9
		c0-6,4.7-10.9,4.7-10.9s4.7,4.9,4.7,10.9C171.8,126.8,167.5,131.5,167.2,131.9z M156.8,128.3c-3.9-3.9-3.7-10.4-3.7-10.4
		s0.1,0,0.2,0c0.8,0,4.4,0.1,7.7,1.9c0,0.4-0.1,0.8-0.1,1.3c0,4.8,2.6,8.9,4.1,10.8C162.8,131.5,159.3,130.7,156.8,128.3z
		 M159.4,113.1c0,0,1.3,0.6,2.9,1.7c-0.4,1-0.8,2.1-1,3.3c-0.9-0.5-1.9-0.8-2.8-1.1C158.7,114.8,159.4,113.1,159.4,113.1z
		 M174.9,113.1c0,0,0.6,1.6,0.9,3.9c-0.9,0.3-1.8,0.6-2.8,1.1c-0.2-1.2-0.6-2.3-1-3.3C173.6,113.7,174.9,113.1,174.9,113.1z
		 M182.7,117.8c0-0.8-0.7-1.5-1.5-1.5l-0.2,0c-0.5,0-1.9,0-3.6,0.4c-0.3-2.3-0.9-4-1-4.1c-0.2-0.4-0.5-0.7-0.9-0.9
		c-0.2-0.1-0.4-0.1-0.6-0.1c-0.2,0-0.4,0-0.6,0.1c-0.1,0.1-1.4,0.6-2.9,1.7c-1.4-2.6-3-4.3-3.1-4.4c-0.3-0.3-0.7-0.5-1.1-0.5
		c-0.4,0-0.8,0.2-1.1,0.5c-0.1,0.1-1.7,1.8-3.1,4.4c-1.6-1.1-2.8-1.7-2.9-1.7c-0.2-0.1-0.4-0.1-0.6-0.1c-0.2,0-0.4,0-0.6,0.1
		c-0.4,0.2-0.7,0.5-0.9,0.9c-0.1,0.1-0.7,1.8-1,4.1c-1.7-0.3-3.1-0.4-3.6-0.4l-0.2,0c-0.8,0-1.5,0.7-1.5,1.5c0,0.3-0.2,7.2,4.1,11.5
		c3.9,3.9,10.1,4.1,11.3,4.1l0.2,0c0,0,0,0,0,0c0,0,0,0,0,0l0.2,0c1.2,0,7.3-0.2,11.3-4.1C182.9,125.1,182.7,118.1,182.7,117.8z"/>
	<path class="st0" d="M169.1,186.8H160c-2-1.4-3.4-3.8-3.4-6.5c0-3,2-6.3,3.3-9.4h9.3c1.3,3.4,3.4,7.1,3.4,9.4
		C172.5,182.9,171.2,185.3,169.1,186.8 M155,163.3c0.5-0.9,1.9-1,3.2-0.7c0.1,0.2,0.2,0.4,0.3,0.6c0,0,1,1.1,1,3.3
		c0,1.6-0.7,3.4-1.6,5.4C155.4,168.8,154,164.9,155,163.3z M168.2,160.6c0.9,0,1.8,0.4,2.9,1.5c-1.4,0.9-2.9,1.5-2.9,4.4
		c0,0.9,0.2,1.9,0.5,2.9h-8.3c0.3-1,0.5-2,0.5-2.9c0-2.9-1.4-4.4-1.4-4.4C164.3,162.1,166.4,160.6,168.2,160.6z M171.9,173.5
		c-1.1-2.5-2.2-5.1-2.2-7.1c0-1.8,0.5-2.1,1.7-2.8c0.2-0.1,0.3-0.2,0.5-0.3c0.4-0.2,0.6-0.6,0.7-1.1c0-0.4-0.1-0.9-0.4-1.2
		c-1.3-1.3-2.5-1.9-3.9-1.9c-0.9,0-1.8,0.3-2.7,0.5c-1.4,0.4-3.2,0.9-6,0.9c-0.4,0-0.8,0.2-1,0.5c-2.9-0.5-4.2,0.4-4.8,1.4
		c-1.6,2.7,0.9,7.8,3.5,10.7c-1,2.3-2.1,4.6-2.1,7c0,3.1,1.5,5.9,4,7.7c0.2,0.2,0.5,0.3,0.8,0.3h9.1c0.3,0,0.6-0.1,0.8-0.3
		c2.5-1.8,4-4.7,4-7.7C174,178.3,173,176,171.9,173.5z"/>
	<path class="st0" d="M181.7,183.9l1.8-12.4l-7.6,0l2.3,12.2L181.7,183.9z M175.2,170.7h2.8l-0.4-3h-3.8V167h4.4l0.5,3.7l5.7,0.1
		l-2.1,13.9l-5.2-0.1L175.2,170.7z"/>
	<path class="st0" d="M152.5,223.3h7.6l-2.8-2.7c-0.6-0.6-1.5-0.6-2,0L152.5,223.3z M150.9,224.9l-2.1,2.2c-0.2,0.2-0.4,0.2-0.6,0.2
		c-0.2,0-0.4-0.1-0.6-0.2c-0.3-0.3-0.3-0.8,0-1.1l2.4-2.4c0,0,0,0,0,0c0,0,0,0,0,0c0,0,0,0,0,0l4.2-4.1c1.2-1.2,3.1-1.2,4.3,0l4,3.9
		h1.7c1.7,0,3.4-0.7,4.5-2c0,0,0.1-0.2,0.7-0.9c0.3-0.4,0.8-0.4,1.1-0.2c0.4,0.3,0.4,0.8,0.2,1.1c-0.7,0.9-0.8,1-0.8,1.1
		c-1.5,1.6-3.5,2.6-5.7,2.6H150.9z M176.9,227.3h-6.8h-16.9c-0.9,0-1.6,0.7-1.6,1.6c0,0.9,0.7,1.6,1.6,1.6h22.1
		c0.9,0,1.6-0.7,1.6-1.6V227.3z M170.9,225.7h5.9c-0.2-1.5-1.4-2.7-3-2.7C172.4,223.1,171.1,224.2,170.9,225.7z M178.5,226.1v0.5
		v2.4c0,1.8-1.4,3.2-3.2,3.2h-22.1c-1.8,0-3.2-1.4-3.2-3.2c0-1.8,1.4-3.2,3.2-3.2h16.2c0.2-2.4,2.2-4.3,4.6-4.3
		C176.4,221.4,178.5,223.5,178.5,226.1z M171.5,216.7c0,0.9,0.8,1.7,1.7,1.7c0.9,0,1.7-0.8,1.7-1.7c0-0.9-0.8-1.7-1.7-1.7
		C172.2,215,171.5,215.7,171.5,216.7z M169.9,216.7c0-1.8,1.5-3.3,3.3-3.3c1.8,0,3.3,1.5,3.3,3.3c0,1.8-1.5,3.3-3.3,3.3
		C171.4,220,169.9,218.5,169.9,216.7z M175.8,234.3c-0.5-0.1-1-0.1-1.3-0.3c-1.8-0.6-5.2-0.5-7.1,0c-1.9,0.5-4.9,0.5-6.2,0
		c-1.8-0.6-5.2-0.5-7.1,0c-0.4,0.1-0.9,0.2-1.4,0.2c-0.4,0.1-0.8,0.5-0.7,0.9c0.1,0.4,0.4,0.8,0.9,0.7c0.6-0.1,1.1-0.2,1.6-0.3
		c1.8-0.5,4.8-0.5,6.2,0c0.9,0.3,2.1,0.4,3.3,0.4c1.4,0,2.8-0.2,3.8-0.4c1.8-0.5,4.8-0.5,6.2,0c0.4,0.1,1,0.3,1.7,0.3
		c0.4,0,0.8-0.3,0.9-0.7C176.5,234.8,176.2,234.4,175.8,234.3z M176.5,238.6c0,0.4-0.4,0.8-0.9,0.7c-0.6-0.1-1.2-0.2-1.7-0.3
		c-1.4-0.4-4.4-0.4-6.2,0c-1,0.3-2.4,0.4-3.8,0.4c-1.2,0-2.5-0.1-3.3-0.4c-1.4-0.4-4.4-0.4-6.2,0c-0.5,0.1-1,0.2-1.6,0.3
		c-0.4,0.1-0.8-0.3-0.9-0.7c-0.1-0.4,0.3-0.8,0.7-0.9c0.5-0.1,1-0.1,1.4-0.2c1.9-0.5,5.3-0.6,7.1,0c1.4,0.5,4.3,0.4,6.2,0
		c1.9-0.5,5.3-0.6,7.1,0c0.3,0.1,0.8,0.2,1.3,0.3C176.2,237.7,176.5,238.1,176.5,238.6z"/>
	<path class="st0" d="M198.2,12.5h7.6L203,9.8c-0.6-0.6-1.5-0.6-2,0L198.2,12.5z M196.6,14.1l-2.1,2.2c-0.2,0.2-0.4,0.2-0.6,0.2
		c-0.2,0-0.4-0.1-0.6-0.2c-0.3-0.3-0.3-0.8,0-1.1l2.4-2.4c0,0,0,0,0,0c0,0,0,0,0,0c0,0,0,0,0,0l4.2-4.1c1.2-1.2,3.1-1.2,4.3,0l4,3.9
		h1.7c1.7,0,3.4-0.7,4.5-2c0,0,0.1-0.2,0.7-0.9c0.3-0.4,0.8-0.4,1.1-0.2c0.4,0.3,0.4,0.8,0.2,1.1c-0.7,0.9-0.8,1-0.8,1.1
		c-1.5,1.6-3.5,2.6-5.7,2.6L196.6,14.1L196.6,14.1z M222.6,16.6h-6.8h-16.9c-0.9,0-1.6,0.7-1.6,1.6c0,0.9,0.7,1.6,1.6,1.6H221
		c0.9,0,1.6-0.7,1.6-1.6V16.6z M216.6,15h5.9c-0.2-1.5-1.4-2.7-3-2.7C218.1,12.3,216.8,13.5,216.6,15z M224.2,15.3v0.5v2.4
		c0,1.8-1.4,3.2-3.2,3.2h-22.1c-1.8,0-3.2-1.4-3.2-3.2s1.4-3.2,3.2-3.2H215c0.2-2.4,2.2-4.3,4.6-4.3
		C222.1,10.7,224.2,12.8,224.2,15.3z M217.2,5.9c0,0.9,0.8,1.7,1.7,1.7c0.9,0,1.7-0.8,1.7-1.7c0-0.9-0.8-1.7-1.7-1.7
		C217.9,4.2,217.2,5,217.2,5.9z M215.6,5.9c0-1.8,1.5-3.3,3.3-3.3c1.8,0,3.3,1.5,3.3,3.3s-1.5,3.3-3.3,3.3
		C217.1,9.2,215.6,7.8,215.6,5.9z M221.5,23.6c-0.5-0.1-1-0.1-1.3-0.3c-1.8-0.6-5.2-0.5-7.1,0c-1.9,0.5-4.9,0.5-6.2,0
		c-1.8-0.6-5.2-0.5-7.1,0c-0.4,0.1-0.9,0.2-1.4,0.2c-0.4,0.1-0.8,0.5-0.7,0.9c0.1,0.4,0.5,0.8,0.9,0.7c0.6-0.1,1.1-0.2,1.6-0.3
		c1.8-0.5,4.8-0.5,6.2,0c0.9,0.3,2.1,0.4,3.3,0.4c1.4,0,2.8-0.2,3.8-0.4c1.8-0.5,4.8-0.5,6.2,0c0.4,0.1,1,0.3,1.7,0.3
		c0.4,0,0.8-0.3,0.9-0.7C222.2,24,221.9,23.6,221.5,23.6z M222.2,27.8c0,0.4-0.4,0.8-0.9,0.7c-0.6-0.1-1.2-0.2-1.7-0.3
		c-1.4-0.4-4.4-0.4-6.2,0c-1,0.3-2.4,0.4-3.8,0.4c-1.2,0-2.5-0.1-3.3-0.4c-1.4-0.4-4.4-0.4-6.2,0c-0.5,0.1-1,0.2-1.6,0.3
		c-0.4,0.1-0.8-0.3-0.9-0.7c-0.1-0.4,0.3-0.8,0.7-0.9c0.5-0.1,1-0.1,1.4-0.2c1.9-0.5,5.3-0.6,7.1,0c1.4,0.5,4.3,0.4,6.2,0
		c1.9-0.5,5.3-0.6,7.1,0c0.3,0.1,0.8,0.2,1.3,0.3C221.9,27,222.2,27.4,222.2,27.8z"/>
	<path class="st0" d="M225.7,75.1c-2.3,3.3-5.7,4.9-10.2,4.9c-3.7,0-7-1.4-9.2-3.8c2-1.7,4.2-2.9,6.3-3.7c0,0,0,0,0,0
		c0.1,0,0.3-0.1,0.4-0.2c3.4-1.2,6.4-1.4,7.4-1.1c0.4,0.1,0.8-0.2,0.9-0.6c0.1-0.4-0.2-0.8-0.6-0.9c-0.5-0.1-1.3-0.1-2.2-0.1
		c2.8-1.9,4.9-4.3,6.3-7.1c0.2-0.4,0-0.9-0.4-1c-0.4-0.2-0.9,0-1,0.4c-2,4.1-5.5,7.1-10.7,9c0.9-1.9,1.1-4.1,0-6.2
		c-0.2-0.4-0.7-0.5-1-0.3c-0.4,0.2-0.5,0.7-0.3,1c1.4,2.7,0,5.4-1.2,6.7c-1.6,0.8-3.2,1.8-4.7,3.1c-1.3-1.9-1.8-4.2-1.5-6.6
		c0.9-8.3,8.1-9.6,15-10.8c3.4-0.6,6.7-1.2,8.8-2.7C229,60.1,229.8,69.2,225.7,75.1 M228.6,53.2c-0.1-0.3-0.3-0.5-0.6-0.5
		c-0.3,0-0.6,0-0.7,0.3c-1.5,1.8-5.1,2.4-8.8,3.1c-6.8,1.2-15.2,2.7-16.3,12.2c-0.3,2.8,0.4,5.6,1.9,7.9c-1.8,1.8-3.3,4-4.2,6.8
		c-0.1,0.4,0.1,0.9,0.5,1c0.1,0,0.2,0,0.3,0c0.3,0,0.6-0.2,0.7-0.5c0.9-2.5,2.2-4.5,3.7-6.1c2.5,2.8,6.2,4.3,10.3,4.3
		c5.1,0,8.9-1.9,11.5-5.6C231.7,69.2,230.5,58.4,228.6,53.2z"/>
	<path class="st0" d="M232,118.2c-0.3-0.3-0.8-0.4-1.1-0.1l-7.6,6.1h-18.4c-0.2,0-0.4,0.1-0.6,0.2l-3.1,3.1c-0.3,0.3-0.3,0.8,0,1.1
		c0.2,0.2,0.4,0.2,0.6,0.2s0.4-0.1,0.6-0.2l2.9-2.9h18l2.9,2.9c0.2,0.2,0.4,0.2,0.5,0.2c0.2,0,0.4-0.1,0.6-0.2
		c0.3-0.3,0.3-0.8,0-1.1l-2.5-2.5l7.1-5.7C232.2,119,232.2,118.5,232,118.2"/>
	<path class="st0" d="M224.4,119.4c-1.3,0-2.3-1.1-2.3-2.3c0-1.3,1-2.3,2.3-2.3c1.3,0,2.3,1.1,2.3,2.3
		C226.7,118.4,225.6,119.4,224.4,119.4 M224.4,113.2c-2.1,0-3.9,1.8-3.9,3.9c0,1.3,0.7,2.5,1.7,3.2l-4,1.4l-7.5-3
		c-0.2-0.1-0.4-0.1-0.6,0l-6.2,3.1c-0.4,0.2-0.5,0.7-0.3,1c0.1,0.3,0.4,0.4,0.7,0.4c0.1,0,0.2,0,0.3-0.1l5.9-3l7.5,3
		c0.2,0.1,0.4,0.1,0.5,0l7.2-2.5c0,0,0,0,0.1,0c1.5-0.5,2.6-2,2.6-3.7C228.2,114.9,226.5,113.2,224.4,113.2z"/>
	<path class="st0" d="M228.5,180.9c-2.5,2.5-6,3.3-8.2,3.6c1.5-1.9,4.1-6,4.1-10.8c0-0.4,0-0.8-0.1-1.3c3.2-1.7,6.9-1.9,7.7-1.9
		c0.1,0,0.2,0,0.2,0S232.4,177.1,228.5,180.9 M218.2,184.6C218.2,184.6,218.2,184.6,218.2,184.6c-0.6-0.6-4.7-5.3-4.7-10.9
		c0-6,4.7-10.9,4.7-10.9s4.7,4.9,4.7,10.9C222.9,179.5,218.6,184.2,218.2,184.6z M207.9,180.9c-3.9-3.9-3.7-10.4-3.7-10.4
		s0.1,0,0.2,0c0.8,0,4.4,0.1,7.7,1.9c0,0.4-0.1,0.8-0.1,1.3c0,4.8,2.6,8.9,4.1,10.8C213.8,184.2,210.3,183.4,207.9,180.9z
		 M210.4,165.8c0,0,1.3,0.6,2.9,1.7c-0.4,1-0.8,2.1-1,3.3c-0.9-0.5-1.9-0.8-2.8-1.1C209.8,167.5,210.4,165.8,210.4,165.8z
		 M226,165.8c0,0,0.6,1.6,0.9,3.9c-0.9,0.3-1.8,0.6-2.8,1c-0.2-1.2-0.6-2.3-1-3.2C224.7,166.4,226,165.8,226,165.8z M233.8,170.5
		c0-0.8-0.7-1.5-1.5-1.5l-0.2,0c-0.5,0-1.9,0-3.6,0.4c-0.3-2.3-0.9-4-1-4.1c-0.2-0.4-0.5-0.7-0.9-0.9c-0.2-0.1-0.4-0.1-0.6-0.1
		c-0.2,0-0.4,0-0.6,0.1c-0.1,0.1-1.4,0.6-2.9,1.7c-1.4-2.6-3-4.3-3.1-4.4c-0.3-0.3-0.7-0.5-1.1-0.5c-0.4,0-0.8,0.2-1.1,0.5
		c-0.1,0.1-1.7,1.8-3.1,4.4c-1.6-1.1-2.8-1.7-2.9-1.7c-0.2-0.1-0.4-0.1-0.6-0.1c-0.2,0-0.4,0-0.6,0.1c-0.4,0.2-0.7,0.5-0.9,0.9
		c-0.1,0.1-0.7,1.8-1,4.1c-1.7-0.3-3.1-0.4-3.6-0.4l-0.2,0c-0.8,0-1.5,0.7-1.5,1.5c0,0.3-0.2,7.2,4.1,11.5
		c3.9,3.9,10.1,4.1,11.3,4.1l0.2,0c0,0,0,0,0,0c0,0,0,0,0,0l0.2,0c1.2,0,7.3-0.2,11.3-4.1C233.9,177.7,233.8,170.8,233.8,170.5z"/>
	<path class="st0" d="M219.1,239.5H210c-2-1.4-3.4-3.8-3.4-6.5c0-3,2-6.3,3.3-9.4h9.3c1.3,3.4,3.4,7.1,3.4,9.4
		C222.5,235.6,221.2,238,219.1,239.5 M205,216c0.5-0.9,1.9-1,3.2-0.7c0.1,0.2,0.2,0.4,0.3,0.6c0,0,1,1.1,1,3.3
		c0,1.6-0.7,3.4-1.6,5.4C205.4,221.5,204,217.6,205,216z M218.2,213.3c0.9,0,1.8,0.4,2.9,1.5c-1.4,0.9-2.9,1.5-2.9,4.4
		c0,0.9,0.2,1.9,0.5,2.9h-8.3c0.3-1,0.5-2,0.5-2.9c0-2.9-1.4-4.4-1.4-4.4C214.3,214.8,216.4,213.3,218.2,213.3z M221.9,226.2
		c-1.1-2.5-2.2-5.1-2.2-7.1c0-1.8,0.5-2.1,1.7-2.8c0.2-0.1,0.3-0.2,0.5-0.3c0.4-0.2,0.6-0.6,0.7-1.1c0-0.4-0.1-0.9-0.4-1.2
		c-1.3-1.3-2.5-1.9-3.9-1.9c-0.9,0-1.8,0.3-2.7,0.5c-1.4,0.4-3.2,0.9-6,0.9c-0.4,0-0.8,0.2-1,0.5c-2.9-0.5-4.2,0.4-4.8,1.4
		c-1.6,2.7,0.9,7.8,3.5,10.7c-1,2.3-2.1,4.6-2.1,7c0,3.1,1.5,5.9,4,7.7c0.2,0.2,0.5,0.3,0.8,0.3h9.1c0.3,0,0.6-0.1,0.8-0.3
		c2.5-1.8,4-4.7,4-7.7C224,231,223,228.7,221.9,226.2z"/>
	<path class="st0" d="M231.7,236.6l1.8-12.4l-7.6,0l2.3,12.2L231.7,236.6z M225.2,223.4h2.8l-0.4-3l-3.8,0v-0.7h4.4l0.5,3.7l5.8,0.1
		l-2.1,13.9l-5.2-0.1L225.2,223.4z"/>
	<path class="st0" d="M319.9,22.9c-2.5,2.5-6,3.3-8.2,3.6c1.5-1.9,4.1-6,4.1-10.8c0-0.4,0-0.8-0.1-1.3c3.2-1.7,6.9-1.9,7.7-1.9
		c0.1,0,0.2,0,0.2,0S323.8,19,319.9,22.9 M309.6,26.5C309.6,26.5,309.5,26.5,309.6,26.5c-0.6-0.6-4.7-5.3-4.7-10.9
		c0-6,4.7-10.9,4.7-10.9s4.7,4.9,4.7,10.9C314.2,21.4,309.9,26.2,309.6,26.5z M299.2,22.9c-3.9-3.9-3.7-10.4-3.7-10.4s0.1,0,0.2,0
		c0.8,0,4.4,0.1,7.7,1.9c0,0.4-0.1,0.8-0.1,1.3c0,4.8,2.6,8.9,4.1,10.8C305.2,26.2,301.7,25.4,299.2,22.9z M301.8,7.7
		c0,0,1.3,0.6,2.9,1.7c-0.4,1-0.8,2.1-1,3.3c-0.9-0.5-1.9-0.8-2.8-1.1C301.2,9.4,301.8,7.7,301.8,7.7z M317.3,7.7
		c0,0,0.6,1.6,0.9,3.9c-0.9,0.3-1.8,0.6-2.8,1c-0.2-1.2-0.6-2.3-1-3.3C316,8.3,317.3,7.7,317.3,7.7z M325.1,12.5
		c0-0.8-0.7-1.5-1.5-1.5l-0.2,0c-0.5,0-1.9,0-3.6,0.4c-0.3-2.3-0.9-4-1-4.1c-0.2-0.4-0.5-0.7-0.9-0.9c-0.2-0.1-0.4-0.1-0.6-0.1
		c-0.2,0-0.4,0-0.6,0.1c-0.1,0.1-1.4,0.6-2.9,1.7c-1.4-2.6-3-4.3-3.1-4.4c-0.3-0.3-0.7-0.5-1.1-0.5c-0.4,0-0.8,0.2-1.1,0.5
		c-0.1,0.1-1.7,1.8-3.1,4.4c-1.6-1.1-2.8-1.7-2.9-1.7c-0.2-0.1-0.4-0.1-0.6-0.1c-0.2,0-0.4,0-0.6,0.1c-0.4,0.2-0.7,0.5-0.9,0.9
		c-0.1,0.1-0.7,1.8-1,4.1c-1.7-0.3-3.1-0.4-3.6-0.4l-0.2,0c-0.8,0-1.5,0.7-1.5,1.5c0,0.3-0.2,7.2,4.1,11.5
		c3.9,3.9,10.1,4.1,11.3,4.1l0.2,0c0,0,0,0,0,0c0,0,0,0,0,0l0.2,0c1.2,0,7.3-0.2,11.3-4.1C325.3,19.7,325.1,12.7,325.1,12.5z"/>
	<path class="st0" d="M316.4,81.4h-9.1c-2-1.4-3.4-3.8-3.4-6.5c0-3,2-6.3,3.3-9.4l9.3,0c1.3,3.4,3.4,7.1,3.4,9.4
		C319.7,77.6,318.4,79.9,316.4,81.4 M302.2,57.9c0.5-0.9,1.9-1,3.2-0.7c0.1,0.2,0.2,0.4,0.3,0.6c0,0,1,1.1,1,3.3
		c0,1.6-0.7,3.4-1.6,5.4C302.6,63.5,301.2,59.5,302.2,57.9z M315.4,55.2c0.9,0,1.8,0.4,2.9,1.5c-1.4,0.9-2.9,1.5-2.9,4.4
		c0,0.9,0.2,1.9,0.5,2.9h-8.3c0.3-1,0.5-2,0.5-2.9c0-2.9-1.4-4.4-1.4-4.4C311.5,56.7,313.6,55.2,315.4,55.2z M319.1,68.2
		c-1.1-2.5-2.2-5.1-2.2-7.1c0-1.8,0.5-2.1,1.7-2.8c0.2-0.1,0.3-0.2,0.5-0.3c0.4-0.2,0.6-0.6,0.7-1.1c0-0.4-0.1-0.9-0.4-1.2
		c-1.3-1.3-2.5-1.9-3.9-1.9c-0.9,0-1.8,0.3-2.7,0.5c-1.4,0.4-3.2,0.9-6,0.9c-0.4,0-0.8,0.2-1,0.5c-2.9-0.5-4.2,0.4-4.8,1.4
		c-1.6,2.7,0.9,7.8,3.5,10.7c-1,2.3-2.1,4.6-2.1,7c0,3.1,1.5,5.9,4,7.7c0.2,0.2,0.5,0.3,0.8,0.3h9.1c0.3,0,0.6-0.1,0.8-0.3
		c2.5-1.8,4-4.7,4-7.7C321.2,72.9,320.2,70.6,319.1,68.2z"/>
	<path class="st0" d="M328.9,78.5l1.8-12.4l-7.6,0l2.3,12.2L328.9,78.5z M322.4,65.3h2.8l-0.4-3h-3.8v-0.7h4.4l0.5,3.7l5.7,0.1
		l-2.1,13.9l-5.2-0.1L322.4,65.3z"/>
	<path class="st0" d="M300.7,117.9h7.6l-2.8-2.7c-0.6-0.6-1.5-0.6-2,0L300.7,117.9z M299,119.5l-2.1,2.2c-0.2,0.2-0.4,0.2-0.6,0.2
		c-0.2,0-0.4-0.1-0.6-0.2c-0.3-0.3-0.3-0.8,0-1.1l2.4-2.4c0,0,0,0,0,0c0,0,0,0,0,0c0,0,0,0,0,0l4.2-4.1c1.2-1.2,3.1-1.2,4.3,0l4,3.9
		h1.7c1.7,0,3.4-0.7,4.5-2c0,0,0.1-0.2,0.7-0.9c0.3-0.4,0.8-0.4,1.1-0.2c0.4,0.3,0.4,0.8,0.2,1.1c-0.7,0.9-0.8,1-0.8,1.1
		c-1.5,1.6-3.5,2.6-5.7,2.6H299z M325,121.9h-6.8h-16.9c-0.9,0-1.6,0.7-1.6,1.6c0,0.9,0.7,1.6,1.6,1.6h22.1c0.9,0,1.6-0.7,1.6-1.6
		V121.9z M319.1,120.3h5.9c-0.2-1.5-1.4-2.7-3-2.7C320.5,117.7,319.2,118.8,319.1,120.3z M326.6,120.7v0.5v2.4
		c0,1.8-1.4,3.2-3.2,3.2h-22.1c-1.8,0-3.2-1.4-3.2-3.2c0-1.8,1.4-3.2,3.2-3.2h16.2c0.2-2.4,2.2-4.3,4.6-4.3
		C324.6,116.1,326.6,118.1,326.6,120.7z M319.6,111.3c0,0.9,0.8,1.7,1.7,1.7c0.9,0,1.7-0.8,1.7-1.7c0-0.9-0.8-1.7-1.7-1.7
		C320.4,109.6,319.6,110.4,319.6,111.3z M318,111.3c0-1.8,1.5-3.3,3.3-3.3c1.8,0,3.3,1.5,3.3,3.3c0,1.8-1.5,3.3-3.3,3.3
		C319.5,114.6,318,113.1,318,111.3z M323.9,129c-0.5-0.1-1-0.1-1.3-0.3c-1.8-0.6-5.2-0.5-7.1,0c-1.9,0.5-4.9,0.5-6.2,0
		c-1.8-0.6-5.2-0.5-7.1,0c-0.4,0.1-0.9,0.2-1.4,0.2c-0.4,0.1-0.8,0.5-0.7,0.9c0.1,0.4,0.4,0.8,0.9,0.7c0.6-0.1,1.1-0.2,1.6-0.3
		c1.8-0.5,4.8-0.5,6.2,0c0.9,0.3,2.1,0.4,3.3,0.4c1.4,0,2.8-0.2,3.8-0.4c1.8-0.5,4.8-0.5,6.2,0c0.4,0.1,1,0.3,1.7,0.3
		c0.4,0,0.8-0.3,0.9-0.7C324.7,129.4,324.4,129,323.9,129z M324.6,133.2c0,0.4-0.4,0.8-0.9,0.7c-0.6-0.1-1.2-0.2-1.7-0.3
		c-1.4-0.4-4.4-0.4-6.2,0c-1,0.3-2.4,0.4-3.8,0.4c-1.2,0-2.5-0.1-3.3-0.4c-1.4-0.4-4.4-0.4-6.2,0c-0.5,0.1-1,0.2-1.6,0.3
		c-0.4,0.1-0.8-0.3-0.9-0.7c-0.1-0.4,0.3-0.8,0.7-0.9c0.5-0.1,1-0.1,1.4-0.2c1.9-0.5,5.3-0.6,7.1,0c1.4,0.5,4.3,0.4,6.2,0
		c1.9-0.5,5.3-0.6,7.1,0c0.3,0.1,0.8,0.2,1.3,0.3C324.4,132.4,324.7,132.8,324.6,133.2z"/>
	<path class="st0" d="M321.8,180.5c-2.3,3.3-5.7,4.9-10.2,4.9c-3.7,0-7-1.4-9.2-3.8c2-1.7,4.2-2.9,6.3-3.7c0,0,0,0,0,0
		c0.1,0,0.3-0.1,0.4-0.2c3.4-1.2,6.4-1.4,7.4-1.1c0.4,0.1,0.8-0.2,0.9-0.6c0.1-0.4-0.2-0.8-0.6-0.9c-0.5-0.1-1.3-0.1-2.2-0.1
		c2.8-1.9,4.9-4.3,6.3-7.1c0.2-0.4,0-0.9-0.4-1c-0.4-0.2-0.9,0-1,0.4c-2,4.1-5.5,7.1-10.7,9c0.9-1.9,1.1-4.1,0-6.2
		c-0.2-0.4-0.7-0.5-1-0.3c-0.4,0.2-0.5,0.7-0.3,1c1.4,2.7,0,5.4-1.2,6.7c-1.6,0.8-3.2,1.8-4.7,3.1c-1.3-1.9-1.8-4.2-1.5-6.6
		c0.9-8.3,8.1-9.6,15-10.8c3.4-0.6,6.7-1.2,8.8-2.7C325.2,165.4,325.9,174.6,321.8,180.5 M324.7,158.6c-0.1-0.3-0.3-0.5-0.6-0.5
		c-0.3,0-0.6,0-0.7,0.3c-1.5,1.8-5.1,2.4-8.8,3.1c-6.8,1.2-15.2,2.7-16.3,12.2c-0.3,2.8,0.4,5.6,1.9,7.9c-1.8,1.8-3.3,4-4.2,6.8
		c-0.1,0.4,0.1,0.9,0.5,1c0.1,0,0.2,0,0.3,0c0.3,0,0.6-0.2,0.7-0.5c0.9-2.5,2.2-4.5,3.7-6.1c2.5,2.8,6.2,4.3,10.3,4.3
		c5.1,0,8.9-1.9,11.5-5.6C327.8,174.6,326.6,163.8,324.7,158.6z"/>
	<path class="st0" d="M325.5,223.5c-0.3-0.3-0.8-0.4-1.1-0.1l-7.6,6.1h-18.4c-0.2,0-0.4,0.1-0.6,0.2l-3.1,3.1
		c-0.3,0.3-0.3,0.8,0,1.1c0.2,0.2,0.4,0.2,0.6,0.2c0.2,0,0.4-0.1,0.6-0.2l2.9-2.9h18l2.9,2.9c0.2,0.2,0.4,0.2,0.5,0.2
		c0.2,0,0.4-0.1,0.6-0.2c0.3-0.3,0.3-0.8,0-1.1l-2.5-2.5l7.1-5.7C325.7,224.4,325.8,223.9,325.5,223.5"/>
	<path class="st0" d="M317.9,224.8c-1.3,0-2.3-1.1-2.3-2.3c0-1.3,1-2.3,2.3-2.3c1.3,0,2.3,1.1,2.3,2.3
		C320.2,223.8,319.2,224.8,317.9,224.8 M317.9,218.6c-2.1,0-3.9,1.8-3.9,3.9c0,1.3,0.7,2.5,1.7,3.2l-4,1.4l-7.5-3
		c-0.2-0.1-0.4-0.1-0.6,0l-6.2,3.1c-0.4,0.2-0.5,0.7-0.3,1c0.1,0.3,0.4,0.4,0.7,0.4c0.1,0,0.2,0,0.3-0.1l5.9-3l7.5,3
		c0.2,0.1,0.4,0.1,0.5,0l7.2-2.5c0,0,0,0,0.1,0c1.5-0.5,2.6-2,2.6-3.7C321.8,220.3,320,218.6,317.9,218.6z"/>
	<path class="st0" d="M263.6,28.7h-9.1c-2-1.4-3.4-3.8-3.4-6.5c0-3,2-6.3,3.3-9.4h9.3c1.3,3.4,3.4,7.1,3.4,9.4
		C267,24.9,265.7,27.3,263.6,28.7 M249.4,5.2c0.5-0.9,1.9-1,3.2-0.7c0.1,0.2,0.2,0.4,0.3,0.6c0,0,1,1.1,1,3.3c0,1.6-0.7,3.4-1.6,5.4
		C249.9,10.8,248.5,6.8,249.4,5.2z M262.7,2.5c0.9,0,1.8,0.4,2.9,1.5c-1.4,0.9-2.9,1.5-2.9,4.4c0,0.9,0.2,1.9,0.5,2.9h-8.3
		c0.3-1,0.5-2,0.5-2.9c0-2.9-1.4-4.4-1.4-4.4C258.8,4,260.9,2.5,262.7,2.5z M266.3,15.5c-1.1-2.5-2.2-5.1-2.2-7.1
		c0-1.8,0.5-2.1,1.7-2.8c0.2-0.1,0.3-0.2,0.5-0.3c0.4-0.2,0.6-0.6,0.7-1.1c0-0.4-0.1-0.9-0.4-1.2c-1.3-1.3-2.5-1.9-3.9-1.9
		c-0.9,0-1.8,0.3-2.7,0.5c-1.4,0.4-3.2,0.9-6,0.9c-0.4,0-0.8,0.2-1,0.5c-2.9-0.5-4.2,0.4-4.8,1.4c-1.6,2.7,0.9,7.8,3.5,10.7
		c-1,2.3-2.1,4.6-2.1,7c0,3.1,1.5,5.9,4,7.7c0.2,0.2,0.5,0.3,0.8,0.3h9.1c0.3,0,0.6-0.1,0.8-0.3c2.5-1.8,4-4.7,4-7.7
		C268.4,20.3,267.4,17.9,266.3,15.5z"/>
	<path class="st0" d="M276.2,25.8l1.8-12.4l-7.6,0l2.3,12.2L276.2,25.8z M269.6,12.6h2.8l-0.4-3h-3.8V8.9h4.4l0.5,3.7l5.8,0.1
		l-2.1,13.9l-5.2-0.1L269.6,12.6z"/>
	<path class="st0" d="M252.8,65.2h7.6l-2.8-2.7c-0.6-0.6-1.5-0.6-2,0L252.8,65.2z M251.2,66.8L249,69c-0.2,0.2-0.4,0.2-0.6,0.2
		c-0.2,0-0.4-0.1-0.6-0.2c-0.3-0.3-0.3-0.8,0-1.1l2.4-2.4c0,0,0,0,0,0c0,0,0,0,0,0c0,0,0,0,0,0l4.2-4.1c1.2-1.2,3.1-1.2,4.3,0l4,3.9
		h1.7c1.7,0,3.4-0.7,4.5-2c0,0,0.1-0.2,0.7-0.9c0.3-0.4,0.8-0.4,1.1-0.2c0.4,0.3,0.4,0.8,0.2,1.1c-0.7,0.9-0.8,1-0.8,1.1
		c-1.5,1.6-3.5,2.6-5.7,2.6H251.2z M277.2,69.3h-6.8h-16.9c-0.9,0-1.6,0.7-1.6,1.6c0,0.9,0.7,1.6,1.6,1.6h22.1
		c0.9,0,1.6-0.7,1.6-1.6V69.3z M271.2,67.7h5.9c-0.2-1.5-1.4-2.7-3-2.7S271.4,66.2,271.2,67.7z M278.8,68v0.5v2.4
		c0,1.8-1.4,3.2-3.2,3.2h-22.1c-1.8,0-3.2-1.4-3.2-3.2c0-1.8,1.4-3.2,3.2-3.2h16.2c0.2-2.4,2.2-4.3,4.6-4.3
		C276.7,63.4,278.8,65.4,278.8,68z M271.8,58.6c0,0.9,0.8,1.7,1.7,1.7c0.9,0,1.7-0.8,1.7-1.7c0-0.9-0.8-1.7-1.7-1.7
		C272.5,56.9,271.8,57.7,271.8,58.6z M270.2,58.6c0-1.8,1.5-3.3,3.3-3.3c1.8,0,3.3,1.5,3.3,3.3c0,1.8-1.5,3.3-3.3,3.3
		C271.7,61.9,270.2,60.4,270.2,58.6z M276.1,76.3c-0.5-0.1-1-0.1-1.3-0.3c-1.8-0.6-5.2-0.5-7.1,0c-1.9,0.5-4.9,0.5-6.2,0
		c-1.8-0.6-5.2-0.5-7.1,0c-0.4,0.1-0.9,0.2-1.4,0.2c-0.4,0.1-0.8,0.5-0.7,0.9c0.1,0.4,0.4,0.8,0.9,0.7c0.6-0.1,1.1-0.2,1.6-0.3
		c1.8-0.5,4.8-0.5,6.2,0c0.9,0.3,2.1,0.4,3.3,0.4c1.4,0,2.8-0.2,3.8-0.4c1.8-0.5,4.8-0.5,6.2,0c0.4,0.1,1,0.3,1.7,0.3
		c0.4,0,0.8-0.3,0.9-0.7C276.8,76.7,276.5,76.3,276.1,76.3z M276.8,80.5c0,0.4-0.4,0.8-0.9,0.7c-0.6-0.1-1.2-0.2-1.7-0.3
		c-1.4-0.4-4.4-0.4-6.2,0c-1,0.3-2.4,0.4-3.8,0.4c-1.2,0-2.5-0.1-3.3-0.4c-1.4-0.4-4.4-0.4-6.2,0c-0.5,0.1-1,0.2-1.6,0.3
		c-0.4,0.1-0.8-0.3-0.9-0.7c-0.1-0.4,0.3-0.8,0.7-0.9c0.5-0.1,1-0.1,1.4-0.2c1.9-0.5,5.3-0.6,7.1,0c1.4,0.5,4.3,0.4,6.2,0
		c1.9-0.5,5.3-0.6,7.1,0c0.3,0.1,0.8,0.2,1.3,0.3C276.5,79.7,276.8,80.1,276.8,80.5z"/>
	<path class="st0" d="M273.8,127.8c-2.3,3.3-5.7,4.9-10.2,4.9c-3.7,0-7-1.4-9.2-3.8c2-1.7,4.2-2.9,6.3-3.7c0,0,0,0,0,0
		c0.1,0,0.3-0.1,0.4-0.2c3.4-1.2,6.4-1.4,7.4-1.1c0.4,0.1,0.8-0.2,0.9-0.6c0.1-0.4-0.2-0.8-0.6-0.9c-0.5-0.1-1.3-0.1-2.2-0.1
		c2.8-1.9,4.9-4.3,6.3-7.1c0.2-0.4,0-0.9-0.4-1c-0.4-0.2-0.9,0-1,0.4c-2,4.1-5.5,7.1-10.7,9c0.9-1.9,1.1-4.1,0-6.2
		c-0.2-0.4-0.7-0.5-1-0.3c-0.4,0.2-0.5,0.7-0.3,1c1.4,2.7,0,5.4-1.2,6.7c-1.6,0.8-3.2,1.8-4.7,3.1c-1.3-1.9-1.8-4.2-1.5-6.6
		c0.9-8.3,8.1-9.6,15-10.8c3.4-0.6,6.7-1.2,8.8-2.7C277.2,112.8,277.9,121.9,273.8,127.8 M276.8,105.9c-0.1-0.3-0.3-0.5-0.6-0.5
		c-0.3,0-0.6,0-0.7,0.3c-1.5,1.8-5.1,2.4-8.8,3.1c-6.8,1.2-15.2,2.7-16.3,12.2c-0.3,2.8,0.4,5.6,1.9,7.9c-1.8,1.8-3.3,4-4.2,6.8
		c-0.1,0.4,0.1,0.9,0.5,1c0.1,0,0.2,0,0.3,0c0.3,0,0.6-0.2,0.7-0.5c0.9-2.5,2.2-4.5,3.7-6.1c2.5,2.8,6.2,4.3,10.3,4.3
		c5.1,0,8.9-1.9,11.5-5.6C279.9,121.9,278.7,111.1,276.8,105.9z"/>
	<path class="st0" d="M278.6,170.9c-0.3-0.3-0.8-0.4-1.1-0.1l-7.6,6.1h-18.4c-0.2,0-0.4,0.1-0.6,0.2l-3.1,3.1
		c-0.3,0.3-0.3,0.8,0,1.1c0.2,0.2,0.4,0.2,0.6,0.2c0.2,0,0.4-0.1,0.6-0.2l2.9-2.9h18l2.9,2.9c0.2,0.2,0.4,0.2,0.5,0.2
		c0.2,0,0.4-0.1,0.6-0.2c0.3-0.3,0.3-0.8,0-1.1l-2.5-2.5l7.1-5.7C278.8,171.7,278.9,171.2,278.6,170.9"/>
	<path class="st0" d="M271,172.1c-1.3,0-2.3-1.1-2.3-2.3c0-1.3,1-2.3,2.3-2.3c1.3,0,2.3,1.1,2.3,2.3
		C273.3,171.1,272.3,172.1,271,172.1 M271,165.9c-2.1,0-3.9,1.8-3.9,3.9c0,1.3,0.7,2.5,1.7,3.2l-4,1.4l-7.5-3
		c-0.2-0.1-0.4-0.1-0.6,0l-6.2,3.1c-0.4,0.2-0.5,0.7-0.3,1c0.1,0.3,0.4,0.4,0.7,0.4c0.1,0,0.2,0,0.3-0.1l5.9-3l7.5,3
		c0.2,0.1,0.4,0.1,0.5,0l7.2-2.5c0,0,0,0,0.1,0c1.5-0.5,2.6-2,2.6-3.7C274.9,167.6,273.2,165.9,271,165.9z"/>
	<path class="st0" d="M273.6,233.6c-2.5,2.5-6,3.3-8.2,3.6c1.5-1.9,4.1-6,4.1-10.8c0-0.4,0-0.8-0.1-1.3c3.2-1.7,6.9-1.9,7.7-1.9
		c0.1,0,0.2,0,0.2,0S277.4,229.7,273.6,233.6 M263.3,237.3C263.2,237.3,263.2,237.3,263.3,237.3c-0.6-0.6-4.7-5.3-4.7-10.9
		c0-6,4.7-10.9,4.7-10.9s4.7,4.9,4.7,10.9C267.9,232.2,263.6,236.9,263.3,237.3z M252.9,233.6c-3.9-3.9-3.7-10.4-3.7-10.4
		s0.1,0,0.2,0c0.8,0,4.4,0.1,7.7,1.9c0,0.4-0.1,0.8-0.1,1.3c0,4.8,2.6,8.9,4.1,10.8C258.9,236.9,255.4,236.1,252.9,233.6z
		 M255.5,218.5c0,0,1.3,0.6,2.9,1.7c-0.4,1-0.8,2.1-1,3.3c-0.9-0.5-1.9-0.8-2.8-1.1C254.8,220.1,255.5,218.5,255.5,218.5z
		 M271,218.5c0,0,0.6,1.6,0.9,3.9c-0.9,0.3-1.8,0.6-2.8,1.1c-0.2-1.2-0.6-2.3-1-3.3C269.7,219.1,271,218.5,271,218.5z M278.8,223.2
		c0-0.8-0.7-1.5-1.5-1.5l-0.2,0c-0.5,0-1.9,0-3.6,0.4c-0.3-2.3-0.9-4-1-4.1c-0.2-0.4-0.5-0.7-0.9-0.9c-0.2-0.1-0.4-0.1-0.6-0.1
		c-0.2,0-0.4,0-0.6,0.1c-0.1,0.1-1.4,0.6-2.9,1.7c-1.4-2.6-3-4.3-3.1-4.4c-0.3-0.3-0.7-0.5-1.1-0.5c-0.4,0-0.8,0.2-1.1,0.5
		c-0.1,0.1-1.7,1.8-3.1,4.4c-1.6-1.1-2.8-1.7-2.9-1.7c-0.2-0.1-0.4-0.1-0.6-0.1c-0.2,0-0.4,0-0.6,0.1c-0.4,0.2-0.7,0.5-0.9,0.9
		c-0.1,0.1-0.7,1.8-1,4.1c-1.7-0.3-3.1-0.4-3.6-0.4l-0.2,0c-0.8,0-1.5,0.7-1.5,1.5c0,0.3-0.2,7.2,4.1,11.5
		c3.9,3.9,10.1,4.1,11.3,4.1l0.2,0c0,0,0,0,0,0s0,0,0,0l0.2,0c1.2,0,7.3-0.2,11.3-4.1C279,230.4,278.8,223.5,278.8,223.2z"/>
	<path class="st0" d="M373.7,12.8c-0.3-0.3-0.8-0.4-1.1-0.1l-7.6,6.1l-18.4,0c-0.2,0-0.4,0.1-0.6,0.2l-3.1,3.1
		c-0.3,0.3-0.3,0.8,0,1.1c0.2,0.2,0.4,0.2,0.6,0.2c0.2,0,0.4-0.1,0.6-0.2l2.9-2.9h18l2.9,2.9c0.2,0.2,0.4,0.2,0.5,0.2
		c0.2,0,0.4-0.1,0.6-0.2c0.3-0.3,0.3-0.8,0-1.1l-2.5-2.5l7.1-5.7C373.9,13.6,374,13.1,373.7,12.8"/>
	<path class="st0" d="M366.1,14.1c-1.3,0-2.3-1.1-2.3-2.3c0-1.3,1-2.3,2.3-2.3c1.3,0,2.3,1.1,2.3,2.3
		C368.4,13,367.4,14.1,366.1,14.1 M366.1,7.8c-2.1,0-3.9,1.8-3.9,3.9c0,1.3,0.7,2.5,1.7,3.2l-4,1.4l-7.5-3c-0.2-0.1-0.4-0.1-0.6,0
		l-6.2,3.1c-0.4,0.2-0.5,0.7-0.3,1c0.1,0.3,0.4,0.4,0.7,0.4c0.1,0,0.2,0,0.3-0.1l5.9-3l7.5,3c0.2,0.1,0.4,0.1,0.5,0l7.2-2.5
		c0,0,0,0,0.1,0c1.5-0.5,2.6-2,2.6-3.7C370,9.6,368.2,7.8,366.1,7.8z"/>
	<path class="st0" d="M375.1,75.6c-2.5,2.5-6,3.3-8.2,3.6c1.5-1.9,4.1-6,4.1-10.8c0-0.4,0-0.8-0.1-1.3c3.2-1.7,6.9-1.9,7.7-1.9
		c0.1,0,0.2,0,0.2,0S379,71.7,375.1,75.6 M364.8,79.2C364.8,79.2,364.7,79.2,364.8,79.2c-0.6-0.6-4.7-5.3-4.7-10.9
		c0-6,4.7-10.9,4.7-10.9s4.7,4.9,4.7,10.9C369.4,74.1,365.1,78.8,364.8,79.2z M354.4,75.6c-3.9-3.9-3.7-10.4-3.7-10.4s0.1,0,0.2,0
		c0.8,0,4.4,0.1,7.7,1.9c0,0.4-0.1,0.8-0.1,1.3c0,4.8,2.6,8.9,4.1,10.8C360.4,78.9,356.9,78,354.4,75.6z M357,60.4
		c0,0,1.3,0.6,2.9,1.7c-0.4,1-0.8,2.1-1,3.3c-0.9-0.5-1.9-0.8-2.8-1.1C356.4,62.1,357,60.4,357,60.4z M372.5,60.4
		c0,0,0.6,1.6,0.9,3.9c-0.9,0.3-1.8,0.6-2.8,1.1c-0.2-1.2-0.6-2.3-1-3.3C371.2,61,372.5,60.4,372.5,60.4z M380.3,65.1
		c0-0.8-0.7-1.5-1.5-1.5l-0.2,0c-0.5,0-1.9,0-3.6,0.4c-0.3-2.3-0.9-4-1-4.1c-0.2-0.4-0.5-0.7-0.9-0.9c-0.2-0.1-0.4-0.1-0.6-0.1
		c-0.2,0-0.4,0-0.6,0.1c-0.1,0.1-1.4,0.6-2.9,1.7c-1.4-2.6-3-4.3-3.1-4.4c-0.3-0.3-0.7-0.5-1.1-0.5c-0.4,0-0.8,0.2-1.1,0.5
		c-0.1,0.1-1.7,1.8-3.1,4.4c-1.6-1.1-2.8-1.7-2.9-1.7c-0.2-0.1-0.4-0.1-0.6-0.1c-0.2,0-0.4,0-0.6,0.1c-0.4,0.2-0.7,0.5-0.9,0.9
		c-0.1,0.1-0.7,1.8-1,4.1c-1.7-0.3-3.1-0.4-3.6-0.4l-0.2,0c-0.8,0-1.5,0.7-1.5,1.5c0,0.3-0.2,7.2,4.1,11.5
		c3.9,3.9,10.1,4.1,11.3,4.1l0.2,0c0,0,0,0,0,0s0,0,0,0l0.2,0c1.2,0,7.3-0.2,11.3-4.1C380.5,72.4,380.3,65.4,380.3,65.1z"/>
	<path class="st0" d="M366.6,134.1h-9.1c-2-1.4-3.4-3.8-3.4-6.5c0-3,2-6.3,3.3-9.4h9.3c1.3,3.4,3.4,7.1,3.4,9.4
		C370,130.3,368.7,132.6,366.6,134.1 M352.5,110.6c0.5-0.9,1.9-1,3.2-0.7c0.1,0.2,0.2,0.4,0.3,0.6c0,0,1,1.1,1,3.3
		c0,1.6-0.7,3.4-1.6,5.4C352.9,116.2,351.5,112.2,352.5,110.6z M365.7,107.9c0.9,0,1.8,0.4,2.9,1.5c-1.4,0.9-2.9,1.5-2.9,4.4
		c0,0.9,0.2,1.9,0.5,2.9h-8.3c0.3-1,0.5-2,0.5-2.9c0-2.9-1.4-4.4-1.4-4.4C361.8,109.4,363.9,107.9,365.7,107.9z M369.4,120.9
		c-1.1-2.5-2.2-5.1-2.2-7.1c0-1.8,0.5-2.1,1.7-2.8c0.2-0.1,0.3-0.2,0.5-0.3c0.4-0.2,0.6-0.6,0.7-1.1c0-0.4-0.1-0.9-0.4-1.2
		c-1.3-1.3-2.5-1.9-3.9-1.9c-0.9,0-1.8,0.3-2.7,0.5c-1.4,0.4-3.2,0.9-6,0.9c-0.4,0-0.8,0.2-1,0.5c-2.9-0.5-4.2,0.4-4.8,1.4
		c-1.6,2.7,0.9,7.8,3.5,10.7c-1,2.3-2.1,4.6-2.1,7c0,3.1,1.5,5.9,4,7.7c0.2,0.2,0.5,0.3,0.8,0.3h9.1c0.3,0,0.6-0.1,0.8-0.3
		c2.5-1.8,4-4.7,4-7.7C371.5,125.6,370.5,123.3,369.4,120.9z"/>
	<path class="st0" d="M379.2,131.2l1.8-12.4l-7.6,0l2.3,12.2L379.2,131.2z M372.7,118h2.8l-0.4-3h-3.8v-0.7h4.4l0.5,3.7l5.8,0.1
		l-2.1,13.9l-5.2-0.1L372.7,118z"/>
	<path class="st0" d="M351.1,170.6h7.6l-2.8-2.7c-0.6-0.6-1.5-0.6-2,0L351.1,170.6z M349.4,172.2l-2.1,2.2c-0.2,0.2-0.4,0.2-0.6,0.2
		c-0.2,0-0.4-0.1-0.6-0.2c-0.3-0.3-0.3-0.8,0-1.1l2.4-2.4c0,0,0,0,0,0c0,0,0,0,0,0c0,0,0,0,0,0l4.2-4.1c1.2-1.2,3.1-1.2,4.3,0l4,3.9
		h1.7c1.7,0,3.4-0.7,4.5-2c0,0,0.1-0.2,0.7-0.9c0.3-0.4,0.8-0.4,1.1-0.2c0.4,0.3,0.4,0.8,0.2,1.1c-0.7,0.9-0.8,1-0.8,1.1
		c-1.5,1.6-3.5,2.6-5.7,2.6H349.4L349.4,172.2z M375.4,174.6h-6.8h-16.9c-0.9,0-1.6,0.7-1.6,1.6c0,0.9,0.7,1.6,1.6,1.6h22.1
		c0.9,0,1.6-0.7,1.6-1.6V174.6z M369.5,173h5.9c-0.2-1.5-1.4-2.7-3-2.7C370.9,170.4,369.6,171.5,369.5,173z M377,173.4v0.5v2.4
		c0,1.8-1.4,3.2-3.2,3.2h-22.1c-1.8,0-3.2-1.4-3.2-3.2c0-1.8,1.4-3.2,3.2-3.2h16.2c0.2-2.4,2.2-4.3,4.6-4.3
		C375,168.8,377,170.8,377,173.4z M370,164c0,0.9,0.8,1.7,1.7,1.7c0.9,0,1.7-0.8,1.7-1.7c0-0.9-0.8-1.7-1.7-1.7
		C370.8,162.3,370,163.1,370,164z M368.4,164c0-1.8,1.5-3.3,3.3-3.3c1.8,0,3.3,1.5,3.3,3.3c0,1.8-1.5,3.3-3.3,3.3
		C369.9,167.3,368.4,165.8,368.4,164z M374.3,181.7c-0.5-0.1-1-0.1-1.3-0.3c-1.8-0.6-5.2-0.5-7.1,0c-1.9,0.5-4.9,0.5-6.2,0
		c-1.8-0.6-5.2-0.5-7.1,0c-0.4,0.1-0.9,0.2-1.4,0.2c-0.4,0.1-0.8,0.5-0.7,0.9c0.1,0.4,0.4,0.8,0.9,0.7c0.6-0.1,1.1-0.2,1.6-0.3
		c1.8-0.5,4.8-0.5,6.2,0c0.9,0.3,2.1,0.4,3.3,0.4c1.4,0,2.8-0.2,3.8-0.4c1.8-0.5,4.8-0.5,6.2,0c0.4,0.1,1,0.3,1.7,0.3
		c0.4,0,0.8-0.3,0.9-0.7C375.1,182.1,374.8,181.7,374.3,181.7z M375,185.9c0,0.4-0.4,0.8-0.9,0.7c-0.6-0.1-1.2-0.2-1.7-0.3
		c-1.4-0.4-4.4-0.4-6.2,0c-1,0.3-2.4,0.4-3.8,0.4c-1.2,0-2.5-0.1-3.3-0.4c-1.4-0.4-4.4-0.4-6.2,0c-0.5,0.1-1,0.2-1.6,0.3
		c-0.4,0.1-0.8-0.3-0.9-0.7c-0.1-0.4,0.3-0.8,0.7-0.9c0.5-0.1,1-0.1,1.4-0.2c1.9-0.5,5.3-0.6,7.1,0c1.4,0.5,4.3,0.4,6.2,0
		c1.9-0.5,5.3-0.6,7.1,0c0.3,0.1,0.8,0.2,1.3,0.3C374.8,185.1,375.1,185.5,375,185.9z"/>
	<path class="st0" d="M371.1,233.2c-2.3,3.3-5.7,4.9-10.2,4.9c-3.7,0-7-1.4-9.2-3.8c2-1.7,4.2-2.9,6.3-3.7c0,0,0,0,0,0
		c0.1,0,0.3-0.1,0.4-0.2c3.4-1.2,6.4-1.4,7.4-1.1c0.4,0.1,0.8-0.2,0.9-0.6c0.1-0.4-0.2-0.8-0.6-0.9c-0.5-0.1-1.3-0.1-2.2-0.1
		c2.8-1.9,4.9-4.3,6.3-7.1c0.2-0.4,0-0.9-0.4-1c-0.4-0.2-0.9,0-1,0.4c-2,4.1-5.5,7.1-10.7,9c0.9-1.9,1.1-4.1,0-6.2
		c-0.2-0.4-0.7-0.5-1-0.3c-0.4,0.2-0.5,0.7-0.3,1c1.4,2.7,0,5.4-1.2,6.7c-1.6,0.8-3.2,1.8-4.7,3.1c-1.3-1.9-1.8-4.2-1.5-6.6
		c0.9-8.3,8.1-9.6,15-10.8c3.4-0.6,6.7-1.2,8.8-2.7C374.5,218.1,375.2,227.3,371.1,233.2 M374.1,211.3c-0.1-0.3-0.3-0.5-0.6-0.5
		c-0.3,0-0.6,0-0.7,0.3c-1.5,1.8-5.1,2.4-8.8,3.1c-6.8,1.2-15.2,2.7-16.3,12.2c-0.3,2.8,0.4,5.6,1.9,7.9c-1.8,1.8-3.3,4-4.2,6.8
		c-0.1,0.4,0.1,0.9,0.5,1c0.1,0,0.2,0,0.3,0c0.3,0,0.6-0.2,0.7-0.5c0.9-2.5,2.2-4.5,3.7-6.1c2.5,2.8,6.2,4.3,10.3,4.3
		c5.1,0,8.9-1.9,11.5-5.6C377.2,227.3,375.9,216.5,374.1,211.3z"/>
	<path class="st0" d="M417.5,22.4c-2.3,3.3-5.7,4.9-10.2,4.9c-3.7,0-7-1.4-9.2-3.8c2-1.7,4.2-2.9,6.3-3.7c0,0,0,0,0,0
		c0.1,0,0.3-0.1,0.4-0.2c3.4-1.2,6.4-1.4,7.4-1.1c0.4,0.1,0.8-0.2,0.9-0.6c0.1-0.4-0.2-0.8-0.6-0.9c-0.5-0.1-1.3-0.1-2.2-0.1
		c2.8-1.9,4.9-4.3,6.3-7.1c0.2-0.4,0-0.9-0.4-1c-0.4-0.2-0.9,0-1,0.4c-2,4.1-5.5,7.1-10.7,9c0.9-1.9,1.1-4.1,0-6.2
		c-0.2-0.4-0.7-0.5-1-0.3c-0.4,0.2-0.5,0.7-0.3,1c1.4,2.7,0,5.4-1.2,6.7c-1.6,0.8-3.2,1.8-4.7,3.1c-1.3-1.9-1.8-4.2-1.5-6.6
		c0.9-8.3,8.1-9.6,15-10.8c3.4-0.6,6.7-1.2,8.8-2.7C420.9,7.4,421.6,16.5,417.5,22.4 M420.4,0.5c-0.1-0.3-0.3-0.5-0.6-0.5
		c-0.3,0-0.6,0-0.7,0.3c-1.5,1.8-5.1,2.4-8.8,3.1C403.5,4.6,395,6.1,394,15.5c-0.3,2.8,0.4,5.6,1.9,7.9c-1.8,1.8-3.3,4-4.2,6.8
		c-0.1,0.4,0.1,0.9,0.5,1c0.1,0,0.2,0,0.3,0c0.3,0,0.6-0.2,0.7-0.5c0.9-2.5,2.2-4.5,3.7-6.1c2.5,2.8,6.2,4.3,10.3,4.3
		c5.1,0,8.9-1.9,11.5-5.6C423.5,16.5,422.3,5.7,420.4,0.5z"/>
	<path class="st0" d="M428.7,65.5c-0.3-0.3-0.8-0.4-1.1-0.1l-7.6,6.1h-18.4c-0.2,0-0.4,0.1-0.6,0.2l-3.1,3.1c-0.3,0.3-0.3,0.8,0,1.1
		c0.2,0.2,0.4,0.2,0.6,0.2s0.4-0.1,0.6-0.2l2.9-2.9h18l2.9,2.9c0.2,0.2,0.4,0.2,0.5,0.2c0.2,0,0.4-0.1,0.6-0.2
		c0.3-0.3,0.3-0.8,0-1.1l-2.5-2.5l7.1-5.7C428.9,66.3,428.9,65.8,428.7,65.5"/>
	<path class="st0" d="M421.1,66.7c-1.3,0-2.3-1.1-2.3-2.3c0-1.3,1-2.3,2.3-2.3c1.3,0,2.3,1.1,2.3,2.3
		C423.4,65.7,422.4,66.7,421.1,66.7 M421.1,60.5c-2.1,0-3.9,1.8-3.9,3.9c0,1.3,0.7,2.5,1.7,3.2l-4,1.4l-7.5-3
		c-0.2-0.1-0.4-0.1-0.6,0l-6.2,3.1c-0.4,0.2-0.5,0.7-0.3,1c0.1,0.3,0.4,0.4,0.7,0.4c0.1,0,0.2,0,0.3-0.1l5.9-3l7.5,3
		c0.2,0.1,0.4,0.1,0.5,0l7.2-2.5c0,0,0,0,0.1,0c1.5-0.5,2.6-2,2.6-3.7C425,62.3,423.2,60.5,421.1,60.5z"/>
	<path class="st0" d="M425.2,128.3c-2.5,2.5-6,3.3-8.2,3.6c1.5-1.9,4.1-6,4.1-10.8c0-0.4,0-0.8-0.1-1.3c3.2-1.7,6.9-1.9,7.7-1.9
		c0.1,0,0.2,0,0.2,0S429,124.4,425.2,128.3 M414.8,131.9C414.8,131.9,414.8,131.9,414.8,131.9c-0.6-0.6-4.7-5.3-4.7-10.9
		c0-6,4.7-10.9,4.7-10.9s4.7,4.9,4.7,10.9C419.5,126.8,415.2,131.5,414.8,131.9z M404.5,128.3c-3.9-3.9-3.7-10.4-3.7-10.4
		s0.1,0,0.2,0c0.8,0,4.4,0.1,7.7,1.9c0,0.4-0.1,0.8-0.1,1.3c0,4.8,2.6,8.9,4.1,10.8C410.4,131.5,406.9,130.7,404.5,128.3z
		 M407,113.1c0,0,1.3,0.6,2.9,1.7c-0.4,1-0.8,2.1-1,3.3c-0.9-0.5-1.9-0.8-2.8-1.1C406.4,114.8,407,113.1,407,113.1z M422.6,113.1
		c0,0,0.6,1.6,0.9,3.9c-0.9,0.3-1.8,0.6-2.8,1.1c-0.2-1.2-0.6-2.3-1-3.3C421.3,113.7,422.6,113.1,422.6,113.1z M430.4,117.8
		c0-0.8-0.7-1.5-1.5-1.5l-0.2,0c-0.5,0-1.9,0-3.6,0.4c-0.3-2.3-0.9-4-1-4.1c-0.2-0.4-0.5-0.7-0.9-0.9c-0.2-0.1-0.4-0.1-0.6-0.1
		c-0.2,0-0.4,0-0.6,0.1c-0.1,0.1-1.4,0.6-2.9,1.7c-1.4-2.6-3-4.3-3.1-4.4c-0.3-0.3-0.7-0.5-1.1-0.5c-0.4,0-0.8,0.2-1.1,0.5
		c-0.1,0.1-1.7,1.8-3.1,4.4c-1.6-1.1-2.8-1.7-2.9-1.7c-0.2-0.1-0.4-0.1-0.6-0.1c-0.2,0-0.4,0-0.6,0.1c-0.4,0.2-0.7,0.5-0.9,0.9
		c-0.1,0.1-0.7,1.8-1,4.1c-1.7-0.3-3.1-0.4-3.6-0.4l-0.2,0c-0.8,0-1.5,0.7-1.5,1.5c0,0.3-0.2,7.2,4.1,11.5
		c3.9,3.9,10.1,4.1,11.3,4.1l0.2,0c0,0,0,0,0,0c0,0,0,0,0,0l0.2,0c1.2,0,7.3-0.2,11.3-4.1C430.5,125.1,430.4,118.1,430.4,117.8z"/>
	<path class="st0" d="M416.8,186.8h-9.1c-2-1.4-3.4-3.8-3.4-6.5c0-3,2-6.3,3.3-9.4h9.3c1.3,3.4,3.4,7.1,3.4,9.4
		C420.2,182.9,418.9,185.3,416.8,186.8 M402.6,163.3c0.5-0.9,1.9-1,3.2-0.7c0.1,0.2,0.2,0.4,0.3,0.6c0,0,1,1.1,1,3.3
		c0,1.6-0.7,3.4-1.6,5.4C403.1,168.8,401.7,164.9,402.6,163.3z M415.9,160.6c0.9,0,1.8,0.4,2.9,1.5c-1.4,0.9-2.9,1.5-2.9,4.4
		c0,0.9,0.2,1.9,0.5,2.9h-8.3c0.3-1,0.5-2,0.5-2.9c0-2.9-1.4-4.4-1.4-4.4C412,162.1,414.1,160.6,415.9,160.6z M419.6,173.5
		c-1.1-2.5-2.2-5.1-2.2-7.1c0-1.8,0.5-2.1,1.7-2.8c0.2-0.1,0.3-0.2,0.5-0.3c0.4-0.2,0.6-0.6,0.7-1.1c0-0.4-0.1-0.9-0.4-1.2
		c-1.3-1.3-2.5-1.9-3.9-1.9c-0.9,0-1.8,0.3-2.7,0.5c-1.4,0.4-3.2,0.9-6,0.9c-0.4,0-0.8,0.2-1,0.5c-2.9-0.5-4.2,0.4-4.8,1.4
		c-1.6,2.7,0.9,7.8,3.5,10.7c-1,2.3-2.1,4.6-2.1,7c0,3.1,1.5,5.9,4,7.7c0.2,0.2,0.5,0.3,0.8,0.3h9.1c0.3,0,0.6-0.1,0.8-0.3
		c2.5-1.8,4-4.7,4-7.7C421.7,178.3,420.6,176,419.6,173.5z"/>
	<path class="st0" d="M429.4,183.9l1.8-12.4l-7.6,0l2.3,12.2L429.4,183.9z M422.9,170.7h2.8l-0.4-3h-3.8V167h4.4l0.5,3.7l5.7,0.1
		l-2.1,13.9l-5.2-0.1L422.9,170.7z"/>
	<path class="st0" d="M400.2,223.3h7.6l-2.8-2.7c-0.6-0.6-1.5-0.6-2,0L400.2,223.3z M398.5,224.9l-2.1,2.2c-0.2,0.2-0.4,0.2-0.6,0.2
		c-0.2,0-0.4-0.1-0.6-0.2c-0.3-0.3-0.3-0.8,0-1.1l2.4-2.4c0,0,0,0,0,0c0,0,0,0,0,0c0,0,0,0,0,0l4.2-4.1c1.2-1.2,3.1-1.2,4.3,0l4,3.9
		h1.7c1.7,0,3.4-0.7,4.5-2c0,0,0.1-0.2,0.7-0.9c0.3-0.4,0.8-0.4,1.1-0.2c0.4,0.3,0.4,0.8,0.2,1.1c-0.7,0.9-0.8,1-0.8,1.1
		c-1.5,1.6-3.5,2.6-5.7,2.6H398.5z M424.5,227.3h-6.8h-16.9c-0.9,0-1.6,0.7-1.6,1.6c0,0.9,0.7,1.6,1.6,1.6h22.1
		c0.9,0,1.6-0.7,1.6-1.6V227.3z M418.6,225.7h5.9c-0.2-1.5-1.4-2.7-3-2.7C420,223.1,418.8,224.2,418.6,225.7z M426.1,226.1v0.5v2.4
		c0,1.8-1.4,3.2-3.2,3.2h-22.1c-1.8,0-3.2-1.4-3.2-3.2c0-1.8,1.4-3.2,3.2-3.2H417c0.2-2.4,2.2-4.3,4.6-4.3
		C424.1,221.4,426.1,223.5,426.1,226.1z M419.1,216.7c0,0.9,0.8,1.7,1.7,1.7c0.9,0,1.7-0.8,1.7-1.7c0-0.9-0.8-1.7-1.7-1.7
		C419.9,215,419.1,215.7,419.1,216.7z M417.5,216.7c0-1.8,1.5-3.3,3.3-3.3c1.8,0,3.3,1.5,3.3,3.3c0,1.8-1.5,3.3-3.3,3.3
		C419,220,417.5,218.5,417.5,216.7z M423.4,234.3c-0.5-0.1-1-0.1-1.3-0.3c-1.8-0.6-5.2-0.5-7.1,0c-1.9,0.5-4.9,0.5-6.2,0
		c-1.8-0.6-5.2-0.5-7.1,0c-0.4,0.1-0.9,0.2-1.4,0.2c-0.4,0.1-0.8,0.5-0.7,0.9c0.1,0.4,0.4,0.8,0.9,0.7c0.6-0.1,1.1-0.2,1.6-0.3
		c1.8-0.5,4.8-0.5,6.2,0c0.9,0.3,2.1,0.4,3.3,0.4c1.4,0,2.8-0.2,3.8-0.4c1.8-0.5,4.8-0.5,6.2,0c0.4,0.1,1,0.3,1.7,0.3
		c0.4,0,0.8-0.3,0.9-0.7C424.2,234.8,423.9,234.4,423.4,234.3z M424.1,238.6c0,0.4-0.4,0.8-0.9,0.7c-0.6-0.1-1.2-0.2-1.7-0.3
		c-1.4-0.4-4.4-0.4-6.2,0c-1,0.3-2.4,0.4-3.8,0.4c-1.2,0-2.5-0.1-3.3-0.4c-1.4-0.4-4.4-0.4-6.2,0c-0.5,0.1-1,0.2-1.6,0.3
		c-0.4,0.1-0.8-0.3-0.9-0.7c-0.1-0.4,0.3-0.8,0.7-0.9c0.5-0.1,1-0.1,1.4-0.2c1.9-0.5,5.3-0.6,7.1,0c1.4,0.5,4.3,0.4,6.2,0
		c1.9-0.5,5.3-0.6,7.1,0c0.3,0.1,0.8,0.2,1.3,0.3C423.9,237.7,424.2,238.1,424.1,238.6z"/>
	<path class="st0" d="M456,12.5h7.6l-2.8-2.7c-0.6-0.6-1.5-0.6-2,0L456,12.5z M454.4,14.1l-2.1,2.2c-0.2,0.2-0.4,0.2-0.6,0.2
		c-0.2,0-0.4-0.1-0.6-0.2c-0.3-0.3-0.3-0.8,0-1.1l2.4-2.4c0,0,0,0,0,0c0,0,0,0,0,0c0,0,0,0,0,0l4.2-4.1c1.2-1.2,3.1-1.2,4.3,0l4,3.9
		h1.7c1.7,0,3.4-0.7,4.5-2c0,0,0.1-0.2,0.7-0.9c0.3-0.4,0.8-0.4,1.1-0.2c0.4,0.3,0.4,0.8,0.2,1.1c-0.7,0.9-0.8,1-0.8,1.1
		c-1.5,1.6-3.5,2.6-5.7,2.6L454.4,14.1L454.4,14.1z M480.4,16.6h-6.8h-16.9c-0.9,0-1.6,0.7-1.6,1.6c0,0.9,0.7,1.6,1.6,1.6h22.1
		c0.9,0,1.6-0.7,1.6-1.6V16.6z M474.4,15h5.9c-0.2-1.5-1.4-2.7-3-2.7C475.9,12.3,474.6,13.5,474.4,15z M482,15.3v0.5v2.4
		c0,1.8-1.4,3.2-3.2,3.2h-22.1c-1.8,0-3.2-1.4-3.2-3.2s1.4-3.2,3.2-3.2h16.2c0.2-2.4,2.2-4.3,4.6-4.3C479.9,10.7,482,12.8,482,15.3z
		 M475,5.9c0,0.9,0.8,1.7,1.7,1.7c0.9,0,1.7-0.8,1.7-1.7c0-0.9-0.8-1.7-1.7-1.7C475.8,4.2,475,5,475,5.9z M473.4,5.9
		c0-1.8,1.5-3.3,3.3-3.3c1.8,0,3.3,1.5,3.3,3.3s-1.5,3.3-3.3,3.3C474.9,9.2,473.4,7.8,473.4,5.9z M479.3,23.6
		c-0.5-0.1-1-0.1-1.3-0.3c-1.8-0.6-5.2-0.5-7.1,0c-1.9,0.5-4.9,0.5-6.2,0c-1.8-0.6-5.2-0.5-7.1,0c-0.4,0.1-0.9,0.2-1.4,0.2
		c-0.4,0.1-0.8,0.5-0.7,0.9c0.1,0.4,0.4,0.8,0.9,0.7c0.6-0.1,1.1-0.2,1.6-0.3c1.8-0.5,4.8-0.5,6.2,0c0.9,0.3,2.1,0.4,3.3,0.4
		c1.4,0,2.8-0.2,3.8-0.4c1.8-0.5,4.8-0.5,6.2,0c0.4,0.1,1,0.3,1.7,0.3c0.4,0,0.8-0.3,0.9-0.7C480,24,479.7,23.6,479.3,23.6z
		 M480,27.8c0,0.4-0.4,0.8-0.9,0.7c-0.6-0.1-1.2-0.2-1.7-0.3c-1.4-0.4-4.4-0.4-6.2,0c-1,0.3-2.4,0.4-3.8,0.4c-1.2,0-2.5-0.1-3.3-0.4
		c-1.4-0.4-4.4-0.4-6.2,0c-0.5,0.1-1,0.2-1.6,0.3c-0.4,0.1-0.8-0.3-0.9-0.7c-0.1-0.4,0.3-0.8,0.7-0.9c0.5-0.1,1-0.1,1.4-0.2
		c1.9-0.5,5.3-0.6,7.1,0c1.4,0.5,4.3,0.4,6.2,0c1.9-0.5,5.3-0.6,7.1,0c0.3,0.1,0.8,0.2,1.3,0.3C479.7,27,480,27.4,480,27.8z"/>
	<path class="st0" d="M477.4,75.1c-2.3,3.3-5.7,4.9-10.2,4.9c-3.7,0-7-1.4-9.2-3.8c2-1.7,4.2-2.9,6.3-3.7c0,0,0,0,0,0
		c0.1,0,0.3-0.1,0.4-0.2c3.4-1.2,6.4-1.4,7.4-1.1c0.4,0.1,0.8-0.2,0.9-0.6c0.1-0.4-0.2-0.8-0.6-0.9c-0.5-0.1-1.3-0.1-2.2-0.1
		c2.8-1.9,4.9-4.3,6.3-7.1c0.2-0.4,0-0.9-0.4-1c-0.4-0.2-0.9,0-1,0.4c-2,4.1-5.5,7.1-10.7,9c0.9-1.9,1.1-4.1,0-6.2
		c-0.2-0.4-0.7-0.5-1-0.3c-0.4,0.2-0.5,0.7-0.3,1c1.4,2.7,0,5.4-1.2,6.7c-1.6,0.8-3.2,1.8-4.7,3.1c-1.3-1.9-1.8-4.2-1.5-6.6
		c0.9-8.3,8.1-9.6,15-10.8c3.4-0.6,6.7-1.2,8.8-2.7C480.8,60.1,481.5,69.2,477.4,75.1 M480.3,53.2c-0.1-0.3-0.3-0.5-0.6-0.5
		c-0.3,0-0.6,0-0.7,0.3c-1.5,1.8-5.1,2.4-8.8,3.1c-6.8,1.2-15.2,2.7-16.3,12.2c-0.3,2.8,0.4,5.6,1.9,7.9c-1.8,1.8-3.3,4-4.2,6.8
		c-0.1,0.4,0.1,0.9,0.5,1c0.1,0,0.2,0,0.3,0c0.3,0,0.6-0.2,0.7-0.5c0.9-2.5,2.2-4.5,3.7-6.1c2.5,2.8,6.2,4.3,10.3,4.3
		c5.1,0,8.9-1.9,11.5-5.6C483.4,69.2,482.2,58.4,480.3,53.2z"/>
	<path class="st0" d="M479.6,118.2c-0.3-0.3-0.8-0.4-1.1-0.1l-7.6,6.1h-18.4c-0.2,0-0.4,0.1-0.6,0.2l-3.1,3.1
		c-0.3,0.3-0.3,0.8,0,1.1c0.2,0.2,0.4,0.2,0.6,0.2c0.2,0,0.4-0.1,0.6-0.2l2.9-2.9h18l2.9,2.9c0.2,0.2,0.4,0.2,0.5,0.2
		c0.2,0,0.4-0.1,0.6-0.2c0.3-0.3,0.3-0.8,0-1.1l-2.5-2.5l7.1-5.7C479.8,119,479.9,118.5,479.6,118.2"/>
	<path class="st0" d="M472,119.4c-1.3,0-2.3-1.1-2.3-2.3c0-1.3,1-2.3,2.3-2.3c1.3,0,2.3,1.1,2.3,2.3
		C474.4,118.4,473.3,119.4,472,119.4 M472,113.2c-2.1,0-3.9,1.8-3.9,3.9c0,1.3,0.7,2.5,1.7,3.2l-4,1.4l-7.5-3
		c-0.2-0.1-0.4-0.1-0.6,0l-6.2,3.1c-0.4,0.2-0.5,0.7-0.3,1c0.1,0.3,0.4,0.4,0.7,0.4c0.1,0,0.2,0,0.3-0.1l5.9-3l7.5,3
		c0.2,0.1,0.4,0.1,0.5,0l7.2-2.5c0,0,0,0,0.1,0c1.5-0.5,2.6-2,2.6-3.7C475.9,114.9,474.2,113.2,472,113.2z"/>
	<path class="st0" d="M476.2,180.9c-2.5,2.5-6,3.3-8.2,3.6c1.5-1.9,4.1-6,4.1-10.8c0-0.4,0-0.8-0.1-1.3c3.2-1.7,6.9-1.9,7.7-1.9
		c0.1,0,0.2,0,0.2,0S480.1,177.1,476.2,180.9 M465.9,184.6C465.9,184.6,465.8,184.6,465.9,184.6c-0.6-0.6-4.7-5.3-4.7-10.9
		c0-6,4.7-10.9,4.7-10.9s4.7,4.9,4.7,10.9C470.5,179.5,466.3,184.2,465.9,184.6z M455.5,180.9c-3.9-3.9-3.7-10.4-3.7-10.4
		s0.1,0,0.2,0c0.8,0,4.4,0.1,7.7,1.9c0,0.4-0.1,0.8-0.1,1.3c0,4.8,2.6,8.9,4.1,10.8C461.5,184.2,458,183.4,455.5,180.9z
		 M458.1,165.8c0,0,1.3,0.6,2.9,1.7c-0.4,1-0.8,2.1-1,3.3c-0.9-0.5-1.9-0.8-2.8-1.1C457.5,167.5,458.1,165.8,458.1,165.8z
		 M473.6,165.8c0,0,0.6,1.6,0.9,3.9c-0.9,0.3-1.8,0.6-2.8,1c-0.2-1.2-0.6-2.3-1-3.2C472.3,166.4,473.6,165.8,473.6,165.8z
		 M481.4,170.5c0-0.8-0.7-1.5-1.5-1.5l-0.2,0c-0.5,0-1.9,0-3.6,0.4c-0.3-2.3-0.9-4-1-4.1c-0.2-0.4-0.5-0.7-0.9-0.9
		c-0.2-0.1-0.4-0.1-0.6-0.1c-0.2,0-0.4,0-0.6,0.1c-0.1,0.1-1.4,0.6-2.9,1.7c-1.4-2.6-3-4.3-3.1-4.4c-0.3-0.3-0.7-0.5-1.1-0.5
		c-0.4,0-0.8,0.2-1.1,0.5c-0.1,0.1-1.7,1.8-3.1,4.4c-1.6-1.1-2.8-1.7-2.9-1.7c-0.2-0.1-0.4-0.1-0.6-0.1c-0.2,0-0.4,0-0.6,0.1
		c-0.4,0.2-0.7,0.5-0.9,0.9c-0.1,0.1-0.7,1.8-1,4.1c-1.7-0.3-3.1-0.4-3.6-0.4l-0.2,0c-0.8,0-1.5,0.7-1.5,1.5c0,0.3-0.2,7.2,4.1,11.5
		c3.9,3.9,10.1,4.1,11.3,4.1l0.2,0c0,0,0,0,0,0c0,0,0,0,0,0l0.2,0c1.2,0,7.3-0.2,11.3-4.1C481.6,177.7,481.4,170.8,481.4,170.5z"/>
	<path class="st0" d="M466.8,239.5h-9.1c-2-1.4-3.4-3.8-3.4-6.5c0-3,2-6.3,3.3-9.4h9.3c1.3,3.4,3.4,7.1,3.4,9.4
		C470.2,235.6,468.9,238,466.8,239.5 M452.6,216c0.5-0.9,1.9-1,3.2-0.7c0.1,0.2,0.2,0.4,0.3,0.6c0,0,1,1.1,1,3.3
		c0,1.6-0.7,3.4-1.6,5.4C453.1,221.5,451.7,217.6,452.6,216z M465.9,213.3c0.9,0,1.8,0.4,2.9,1.5c-1.4,0.9-2.9,1.5-2.9,4.4
		c0,0.9,0.2,1.9,0.5,2.9h-8.3c0.3-1,0.5-2,0.5-2.9c0-2.9-1.4-4.4-1.4-4.4C462,214.8,464.1,213.3,465.9,213.3z M469.6,226.2
		c-1.1-2.5-2.2-5.1-2.2-7.1c0-1.8,0.5-2.1,1.7-2.8c0.2-0.1,0.3-0.2,0.5-0.3c0.4-0.2,0.6-0.6,0.7-1.1c0-0.4-0.1-0.9-0.4-1.2
		c-1.3-1.3-2.5-1.9-3.9-1.9c-0.9,0-1.8,0.3-2.7,0.5c-1.4,0.4-3.2,0.9-6,0.9c-0.4,0-0.8,0.2-1,0.5c-2.9-0.5-4.2,0.4-4.8,1.4
		c-1.6,2.7,0.9,7.8,3.5,10.7c-1,2.3-2.1,4.6-2.1,7c0,3.1,1.5,5.9,4,7.7c0.2,0.2,0.5,0.3,0.8,0.3h9.1c0.3,0,0.6-0.1,0.8-0.3
		c2.5-1.8,4-4.7,4-7.7C471.7,231,470.6,228.7,469.6,226.2z"/>
	<path class="st0" d="M479.4,236.6l1.8-12.4l-7.6,0l2.3,12.2L479.4,236.6z M472.9,223.4h2.8l-0.4-3l-3.8,0v-0.7h4.4l0.5,3.7l5.8,0.1
		l-2.1,13.9l-5.2-0.1L472.9,223.4z"/>
</g>
</svg>
