<?xml version="1.0" encoding="utf-8"?>
<!-- Generator: Adobe Illustrator 27.9.0, SVG Export Plug-In . SVG Version: 6.00 Build 0)  -->
<svg version="1.1" id="Layer_1" xmlns="http://www.w3.org/2000/svg" xmlns:xlink="http://www.w3.org/1999/xlink" x="0px" y="0px"
	 viewBox="0 0 97 310" style="enable-background:new 0 0 97 310;" xml:space="preserve">
<style type="text/css">
	.st0{fill:none;stroke:#999999;stroke-width:4.3435;stroke-linecap:round;stroke-linejoin:round;stroke-miterlimit:22.9256;}
	.st1{fill-rule:evenodd;clip-rule:evenodd;fill:#E6E6E6;}
	.st2{fill:none;stroke:#FFFFFF;stroke-width:1.3009;stroke-linecap:round;stroke-linejoin:round;stroke-miterlimit:22.9256;}
</style>
<g>
	
		<ellipse transform="matrix(0.9999 -0.0125 0.0125 0.9999 -0.6027 0.6078)" class="st0" cx="48.5" cy="48.69" rx="36.43" ry="36.43"/>
	<path class="st1" d="M48.5,12.26c20.12,0,36.43,16.31,36.43,36.43S68.62,85.12,48.5,85.12S12.07,68.81,12.07,48.69
		S28.38,12.26,48.5,12.26"/>
	<ellipse transform="matrix(0.9999 -0.0132 0.0132 0.9999 -2.0478 0.6557)" class="st0" cx="48.5" cy="155" rx="36.43" ry="36.43"/>
	<path class="st1" d="M48.5,118.57c20.12,0,36.43,16.31,36.43,36.43s-16.31,36.43-36.43,36.43S12.07,175.12,12.07,155
		S28.38,118.57,48.5,118.57"/>
	
		<ellipse transform="matrix(0.9999 -0.0121 0.0121 0.9999 -3.1575 0.6058)" class="st0" cx="48.5" cy="261.31" rx="36.43" ry="36.43"/>
	<path class="st1" d="M48.5,224.89c20.12,0,36.43,16.31,36.43,36.43s-16.31,36.43-36.43,36.43s-36.43-16.31-36.43-36.43
		S28.38,224.89,48.5,224.89"/>
	<path class="st2" d="M48.5,92.37c24.13,0,43.69-19.56,43.69-43.69C92.19,24.56,72.63,5,48.5,5"/>
	<path class="st2" d="M48.5,111.31c-24.13,0-43.69,19.56-43.69,43.69c0,24.13,19.56,43.69,43.69,43.69"/>
	<path class="st2" d="M48.5,305c24.13,0,43.69-19.56,43.69-43.69s-19.56-43.69-43.69-43.69"/>
</g>
</svg>
