<?xml version="1.0" encoding="utf-8"?>
<!-- Generator: Adobe Illustrator 27.9.0, SVG Export Plug-In . SVG Version: 6.00 Build 0)  -->
<svg version="1.1" id="Layer_1" xmlns="http://www.w3.org/2000/svg" xmlns:xlink="http://www.w3.org/1999/xlink" x="0px" y="0px"
	 viewBox="0 0 300 510" style="enable-background:new 0 0 300 510;" xml:space="preserve">
<style type="text/css">
	.st0{fill:#CCCCCC;}
	.st1{fill:#FFFFFF;}
</style>
<g>
	<path class="st0" d="M183.16,453.06v-3.83c0-0.11,0.08-0.2,0.19-0.2h3.76c0.11,0,0.19,0.08,0.19,0.2v3.83c0,0.11-0.08,0.2-0.19,0.2
		h-3.76C183.24,453.25,183.16,453.17,183.16,453.06 M183.16,469.28v-0.63c0.29-1.02,0.45-2.15,0.49-3.39h3.46
		c0.11,0,0.19,0.08,0.19,0.2v3.83c0,0.11-0.08,0.2-0.19,0.2h-3.76C183.24,469.48,183.16,469.4,183.16,469.28z M210.69,478.09h-35.43
		v-2.81c2.36-0.28,4.27-1.13,5.67-2.56l9.37,0c0.11,0,0.19-0.08,0.19-0.2v-10.32c0-0.11-0.08-0.2-0.19-0.2l-6.82,0
		c-0.29-1.91-0.88-3.8-1.67-5.51h8.49c0.11,0,0.19-0.08,0.19-0.2v-10.32c0-0.11-0.08-0.2-0.19-0.2h-10.14
		c-0.11,0-0.19,0.08-0.19,0.2v7.35c-1.26-1.77-2.74-3.13-4.24-3.82l0.01-59.32c0-0.11,0.09-0.21,0.21-0.21h34.54
		c0.11,0,0.21,0.09,0.21,0.21L210.69,478.09z M174.58,464.19c-0.12-0.89-0.92-1.51-1.8-1.38s-1.48,0.94-1.36,1.83l0.65,4.72v2.71
		c-3.52-0.53-5.24-2.97-5.24-7.4c0-6.4,4.7-12.38,6.84-12.38c2.45,0,6.84,6.25,6.84,12.38c0,4.43-1.72,6.86-5.24,7.4v-1.04l2.9-2.52
		c0.67-0.58,0.75-1.6,0.17-2.29c-0.57-0.68-1.58-0.76-2.25-0.18l-1.13,0.99L174.58,464.19z M164.28,469.07h-3.57
		c-0.09,0-0.17-0.08-0.17-0.18v-3.86c0-0.1,0.08-0.18,0.17-0.18h2.95C163.67,466.43,163.88,467.84,164.28,469.07z M164.69,448.8
		v4.04h-3.97c-0.09,0-0.17-0.08-0.17-0.18v-3.86c0-0.1,0.08-0.18,0.17-0.18h3.79C164.61,448.63,164.69,448.71,164.69,448.8z
		 M167.27,453.58c-0.03,0.05-0.06,0.09-0.09,0.15v-0.15H167.27z M172.07,478.09h-34.9v-7.95h-0.05c1.03-1.96,1.61-4.38,1.61-7.1
		c0-2.76-0.57-5.32-1.56-7.5v-49.8c0-0.1,0.08-0.18,0.17-0.18h35.2v43.63c-1.61,0.44-3.25,1.74-4.67,3.56v-7.19
		c0-0.09-0.08-0.18-0.17-0.18h-10.17c-0.09,0-0.17,0.08-0.17,0.18v10.35c0,0.09,0.08,0.18,0.17,0.18l8.26,0
		c-0.85,1.72-1.5,3.6-1.85,5.51h-6.41c-0.09,0-0.17,0.08-0.17,0.18v10.35c0,0.09,0.08,0.18,0.17,0.18h8.54
		c1.42,1.65,3.46,2.66,6.01,2.97v2.81L172.07,478.09z M130.3,471.96v-0.84l2.07-1.48c0.72-0.52,0.89-1.53,0.4-2.26
		c-0.51-0.73-1.5-0.91-2.22-0.41l-0.26,0.18v-2.74c0-0.89-0.72-1.62-1.59-1.62c-0.88,0-1.59,0.73-1.59,1.62v7.53
		c-3.19-0.84-5.24-4.2-5.24-8.92c0-5.82,3.14-10.76,6.84-10.76c3.7,0,6.84,4.93,6.84,10.76C135.54,467.76,133.5,471.11,130.3,471.96
		z M133.98,478.09h-3.68v-2.82c1.36-0.23,2.6-0.73,3.68-1.5V478.09z M119.3,467.6h-16c-0.09,0-0.19-0.08-0.19-0.2v-2.12
		c0-0.09,0.08-0.2,0.19-0.2h15.51C118.9,465.97,119.08,466.8,119.3,467.6L119.3,467.6z M120.48,451.55v2.31H103.3
		c-0.09,0-0.19-0.08-0.19-0.2v-2.12c0-0.09,0.08-0.2,0.19-0.2h17.01C120.4,451.37,120.48,451.45,120.48,451.55L120.48,451.55z
		 M127.11,478.09H97.42v-60.1c0-0.1,0.08-0.2,0.19-0.2h28c0.09,0,0.19,0.08,0.19,0.2l-0.01,31.66c-0.75,0.32-1.47,0.76-2.12,1.31
		v-2.64c0-0.09-0.08-0.2-0.19-0.2h-23.38c-0.09,0-0.19,0.08-0.19,0.2v8.61c0,0.09,0.08,0.2,0.19,0.2h19.52
		c-0.49,1.46-0.82,3.05-0.91,4.74l-18.61-0.01c-0.09,0-0.19,0.08-0.19,0.2v8.61c0,0.09,0.08,0.2,0.19,0.2l20.59,0
		c1.48,2.4,3.71,3.99,6.42,4.43L127.11,478.09z M95.49,414.55h-1.07c-0.09,0-0.19,0.08-0.19,0.2v2.03
		c-0.05-0.06-0.09-0.11-0.19-0.11h-2.47c-0.12,0-0.24-0.11-0.24-0.24v-3.73c0-0.13,0.11-0.24,0.24-0.24h3.67
		c0.12,0,0.24,0.11,0.24,0.24v1.86L95.49,414.55z M113.67,410.87v3.7h-10.34v-3.7c0-0.11,0.09-0.2,0.19-0.2h9.94
		C113.58,410.66,113.67,410.76,113.67,410.87z M94.23,425.43H88.4c-0.12,0-0.24,0.11-0.24,0.24v10.22c0,0.13,0.11,0.24,0.24,0.24
		h5.83v5.51H88.4c-0.12,0-0.24,0.11-0.24,0.24v10.22c0,0.13,0.11,0.24,0.24,0.24l5.83,0v5.51h-4.07c-1.53-4.66-4.35-8.63-7.45-8.83
		l0.01-60.88c0-0.09,0.08-0.18,0.17-0.18h36.18c0.09,0,0.17,0.08,0.17,0.18v26.4h-2.41l0.01-6.93c0-0.11-0.09-0.2-0.19-0.2h-16.32
		c-0.11,0-0.19,0.1-0.19,0.2v6.95h-1.45v-5.11c0-0.13-0.11-0.24-0.24-0.24H88.41c-0.12,0-0.24,0.11-0.24,0.24v10.22
		c0,0.13,0.11,0.24,0.24,0.24h5.66c0.08,0,0.14-0.05,0.19-0.11v5.62L94.23,425.43z M94.23,432.89h-2.65c-0.12,0-0.24-0.11-0.24-0.24
		v-3.73c0-0.13,0.11-0.24,0.24-0.24h2.65V432.89z M94.23,449.11h-2.65c-0.12,0-0.24-0.11-0.24-0.24v-3.73
		c0-0.13,0.11-0.24,0.24-0.24h2.65V449.11z M94.23,465.34h-2.9c0-0.2,0.02-0.37,0.02-0.57c0-1.19-0.12-2.41-0.35-3.65l3.24,0
		C94.23,461.12,94.23,465.34,94.23,465.34z M94.23,478.09H84.08v-2.79c2.91-0.39,5.86-2.05,6.89-6.72h3.27V478.09z M82.12,465.18
		c-0.38-0.81-1.34-1.15-2.12-0.76c-0.8,0.39-1.13,1.36-0.75,2.15l1.64,3.49v1.98c-2.22-0.41-4-1.96-4-7.21
		c0-6.62,3.79-12.57,5.6-12.57c1.82,0,5.67,5.92,5.67,12.51c0,5.27-1.88,6.85-4.08,7.25v-1.1l2.37-2.41c0.62-0.63,0.62-1.65,0-2.29
		c-0.62-0.63-1.62-0.63-2.25,0l-1.07,1.09L82.12,465.18z M93.42,380.85c0-0.1,0.08-0.18,0.17-0.18h14.12c0.09,0,0.17,0.08,0.17,0.18
		v3.88H93.41v-3.88H93.42z M172.23,392.67v2.08c0,0.11-0.09,0.21-0.21,0.21h-9.67c-0.11,0-0.21-0.1-0.21-0.21v-2.08
		c0-0.11,0.09-0.21,0.21-0.21h9.67C172.13,392.46,172.23,392.55,172.23,392.67z M154.81,365.54c0-0.26,0.24-0.44,0.48-0.35
		l23.68,6.95c0.19,0.06,0.34,0.24,0.34,0.46v14.18h-6.55c-0.11,0-0.21,0.1-0.21,0.21v2.26h-13.37c-0.11,0-0.21,0.09-0.21,0.21v8.57
		c0,0.11,0.09,0.21,0.21,0.21h13.37v4.14l-17.74-0.01L154.81,365.54z M194.8,381c0-0.15,0.11-0.26,0.26-0.26h9.2
		c0.14,0,0.26,0.11,0.26,0.26v5.74h-9.71V381z M215.53,478.09h-1.66v-91.13c0-0.11-0.09-0.21-0.21-0.21h-5.98v-8.99
		c0-0.15-0.11-0.26-0.26-0.26h-15.57c-0.14,0-0.26,0.11-0.26,0.26v8.99h-9.13v-16.62c0-0.21-0.14-0.39-0.34-0.46l-30.06-8.81
		c-0.24-0.06-0.48,0.11-0.48,0.36v41.1l-17.47,0.01c-0.09,0-0.17,0.08-0.17,0.18v48.64c-1.47-1.27-3.17-2.03-5.01-2.09v-34.3
		c0-0.1-0.08-0.2-0.19-0.2h-6.34l0.01-29.64c0-0.09-0.08-0.18-0.17-0.18h-11.19l-0.01-7.12c0-0.1-0.08-0.18-0.17-0.18H90.41
		c-0.09,0-0.17,0.08-0.17,0.18v7.12H79.71c-0.09,0-0.17,0.08-0.17,0.18v65.27c-3.35,2.58-5.83,9.1-5.83,14.67
		c0,7.59,3.6,9.96,7.19,10.46v2.79l-5.78,0.01c-0.11,0-0.21,0.1-0.21,0.21v2.81c0,0.11,0.09,0.21,0.21,0.21h140.41
		c0.11,0,0.21-0.09,0.21-0.21v-2.82C215.73,478.19,215.64,478.09,215.53,478.09L215.53,478.09z"/>
	<path class="st0" d="M187.3,404.38c0,0.11-0.08,0.2-0.19,0.2h-3.76c-0.11,0-0.19-0.08-0.19-0.2v-3.83c0-0.11,0.08-0.2,0.19-0.2
		h3.76c0.11,0,0.19,0.08,0.19,0.2V404.38z M190.3,397.11h-10.14c-0.11,0-0.19,0.08-0.19,0.2v10.32c0,0.11,0.08,0.2,0.19,0.2h10.14
		c0.11,0,0.19-0.08,0.19-0.2v-10.32C190.49,397.19,190.42,397.11,190.3,397.11z"/>
	<path class="st0" d="M187.3,420.6c0,0.11-0.08,0.2-0.19,0.2h-3.76c-0.11,0-0.19-0.08-0.19-0.2v-3.83c0-0.11,0.08-0.2,0.19-0.2h3.76
		c0.11,0,0.19,0.08,0.19,0.2V420.6z M190.3,413.34h-10.14c-0.11,0-0.19,0.08-0.19,0.2v10.32c0,0.11,0.08,0.2,0.19,0.2h10.14
		c0.11,0,0.19-0.08,0.19-0.2v-10.32C190.49,413.42,190.42,413.34,190.3,413.34z"/>
	<path class="st0" d="M187.3,436.83c0,0.11-0.08,0.2-0.19,0.2h-3.76c-0.11,0-0.19-0.08-0.19-0.2V433c0-0.11,0.08-0.2,0.19-0.2
		l3.76,0c0.11,0,0.19,0.08,0.19,0.2V436.83z M190.3,429.56h-10.14c-0.11,0-0.19,0.08-0.19,0.2v10.32c0,0.11,0.08,0.2,0.19,0.2h10.14
		c0.11,0,0.19-0.08,0.19-0.2v-10.32C190.49,429.64,190.42,429.56,190.3,429.56z"/>
	<path class="st0" d="M203.24,404.38c0,0.11-0.08,0.2-0.19,0.2h-3.76c-0.11,0-0.19-0.08-0.19-0.2v-3.83c0-0.11,0.08-0.2,0.19-0.2
		h3.76c0.11,0,0.19,0.08,0.19,0.2V404.38z M206.24,397.11h-10.14c-0.11,0-0.19,0.08-0.19,0.2v10.32c0,0.11,0.08,0.2,0.19,0.2h10.14
		c0.11,0,0.19-0.08,0.19-0.2v-10.32C206.43,397.19,206.35,397.11,206.24,397.11z"/>
	<path class="st0" d="M203.24,420.6c0,0.11-0.08,0.2-0.19,0.2h-3.76c-0.11,0-0.19-0.08-0.19-0.2v-3.83c0-0.11,0.08-0.2,0.19-0.2
		h3.76c0.11,0,0.19,0.08,0.19,0.2V420.6z M206.24,413.34h-10.14c-0.11,0-0.19,0.08-0.19,0.2v10.32c0,0.11,0.08,0.2,0.19,0.2h10.14
		c0.11,0,0.19-0.08,0.19-0.2v-10.32C206.43,413.42,206.35,413.34,206.24,413.34z"/>
	<path class="st0" d="M203.24,436.83c0,0.11-0.08,0.2-0.19,0.2h-3.76c-0.11,0-0.19-0.08-0.19-0.2V433c0-0.11,0.08-0.2,0.19-0.2
		l3.76,0c0.11,0,0.19,0.08,0.19,0.2V436.83z M206.24,429.56h-10.14c-0.11,0-0.19,0.08-0.19,0.2v10.32c0,0.11,0.08,0.2,0.19,0.2
		h10.14c0.11,0,0.19-0.08,0.19-0.2v-10.32C206.43,429.64,206.35,429.56,206.24,429.56z"/>
	<path class="st0" d="M203.24,453.06c0,0.11-0.08,0.2-0.19,0.2l-3.76,0c-0.11,0-0.19-0.08-0.19-0.2v-3.83c0-0.11,0.08-0.2,0.19-0.2
		h3.76c0.11,0,0.19,0.08,0.19,0.2V453.06z M206.24,445.79h-10.14c-0.11,0-0.19,0.08-0.19,0.2v10.32c0,0.11,0.08,0.2,0.19,0.2h10.14
		c0.11,0,0.19-0.08,0.19-0.2v-10.32C206.43,445.87,206.35,445.79,206.24,445.79z"/>
	<path class="st0" d="M203.24,469.28c0,0.11-0.08,0.2-0.19,0.2h-3.76c-0.11,0-0.19-0.08-0.19-0.2v-3.83c0-0.11,0.08-0.2,0.19-0.2
		h3.76c0.11,0,0.19,0.08,0.19,0.2V469.28z M206.24,462.01h-10.14c-0.11,0-0.19,0.08-0.19,0.2v10.32c0,0.11,0.08,0.2,0.19,0.2h10.14
		c0.11,0,0.19-0.08,0.19-0.2v-10.32C206.43,462.09,206.35,462.01,206.24,462.01L206.24,462.01z"/>
	<path class="st0" d="M148.74,420.22c0,0.09-0.08,0.18-0.17,0.18h-3.79c-0.09,0-0.17-0.08-0.17-0.18v-3.86
		c0-0.09,0.08-0.18,0.17-0.18l3.79,0c0.09,0,0.17,0.08,0.17,0.18V420.22z M151.77,412.93H141.6c-0.09,0-0.17,0.08-0.17,0.18v10.35
		c0,0.1,0.08,0.18,0.17,0.18h10.17c0.09,0,0.17-0.08,0.17-0.18v-10.35C151.92,413.01,151.86,412.93,151.77,412.93L151.77,412.93z"/>
	<path class="st0" d="M148.74,436.44c0,0.1-0.08,0.18-0.17,0.18h-3.79c-0.09,0-0.17-0.08-0.17-0.18v-3.86
		c0-0.09,0.08-0.18,0.17-0.18h3.79c0.09,0,0.17,0.08,0.17,0.18V436.44z M151.77,429.15H141.6c-0.09,0-0.17,0.08-0.17,0.18v10.35
		c0,0.1,0.08,0.18,0.17,0.18h10.17c0.09,0,0.17-0.08,0.17-0.18v-10.35C151.92,429.24,151.86,429.15,151.77,429.15z"/>
	<path class="st0" d="M148.74,452.67c0,0.1-0.08,0.18-0.17,0.18h-3.79c-0.09,0-0.17-0.08-0.17-0.18v-3.86
		c0-0.09,0.08-0.18,0.17-0.18h3.79c0.09,0,0.17,0.08,0.17,0.18V452.67z M151.77,445.38H141.6c-0.09,0-0.17,0.08-0.17,0.18v10.35
		c0,0.09,0.08,0.18,0.17,0.18h10.17c0.09,0,0.17-0.08,0.17-0.18v-10.35C151.92,445.46,151.86,445.38,151.77,445.38z"/>
	<path class="st0" d="M148.74,468.91c0,0.1-0.08,0.18-0.17,0.18h-3.79c-0.09,0-0.17-0.08-0.17-0.18v-3.86
		c0-0.09,0.08-0.18,0.17-0.18h3.79c0.09,0,0.17,0.08,0.17,0.18V468.91z M151.77,461.6H141.6c-0.09,0-0.17,0.08-0.17,0.18v10.35
		c0,0.09,0.08,0.18,0.17,0.18l10.17,0c0.09,0,0.17-0.08,0.17-0.18v-10.35C151.92,461.69,151.86,461.6,151.77,461.6z"/>
	<path class="st0" d="M160.54,416.35c0-0.09,0.08-0.18,0.17-0.18h3.79c0.09,0,0.17,0.08,0.17,0.18v3.86c0,0.1-0.08,0.18-0.17,0.18
		h-3.79c-0.09,0-0.17-0.08-0.17-0.18V416.35z M157.52,423.64h10.17c0.09,0,0.17-0.08,0.17-0.18v-10.35c0-0.09-0.08-0.18-0.17-0.18
		l-10.17,0c-0.09,0-0.17,0.08-0.17,0.18v10.35C157.36,423.56,157.42,423.64,157.52,423.64z"/>
	<path class="st0" d="M160.54,432.58c0-0.1,0.08-0.18,0.17-0.18h3.79c0.09,0,0.17,0.08,0.17,0.18v3.86c0,0.09-0.08,0.18-0.17,0.18
		h-3.79c-0.09,0-0.17-0.08-0.17-0.18V432.58z M157.52,439.86h10.17c0.09,0,0.17-0.08,0.17-0.18v-10.35c0-0.1-0.08-0.18-0.17-0.18
		h-10.17c-0.09,0-0.17,0.08-0.17,0.18v10.35C157.36,439.78,157.42,439.86,157.52,439.86z"/>
	<path class="st0" d="M103.11,424.1c0-0.1,0.08-0.2,0.19-0.2h17.01c0.09,0,0.19,0.08,0.19,0.2v2.12c0,0.1-0.08,0.2-0.19,0.2H103.3
		c-0.09,0-0.19-0.08-0.19-0.2L103.11,424.1z M100.12,429.66h23.38c0.09,0,0.19-0.08,0.19-0.2v-8.61c0-0.1-0.08-0.2-0.19-0.2h-23.38
		c-0.09,0-0.19,0.08-0.19,0.2v8.61C99.92,429.58,100,429.66,100.12,429.66z"/>
	<path class="st0" d="M103.11,437.82c0-0.1,0.08-0.2,0.19-0.2h17.01c0.09,0,0.19,0.08,0.19,0.2v2.12c0,0.09-0.08,0.2-0.19,0.2H103.3
		c-0.09,0-0.19-0.08-0.19-0.2L103.11,437.82z M100.12,443.38h23.38c0.09,0,0.19-0.08,0.19-0.2v-8.61c0-0.1-0.08-0.2-0.19-0.2
		l-23.38,0.01c-0.09,0-0.19,0.08-0.19,0.2v8.61C99.92,443.31,100,443.38,100.12,443.38z"/>
	<path class="st0" d="M162.14,378.94c0-0.11,0.09-0.21,0.21-0.21h9.67c0.11,0,0.21,0.1,0.21,0.21v2.08c0,0.11-0.09,0.21-0.21,0.21
		h-9.67c-0.11,0-0.21-0.1-0.21-0.21V378.94z M159.16,384.47h16.05c0.11,0,0.21-0.1,0.21-0.21v-8.57c0-0.11-0.09-0.21-0.21-0.21
		h-16.05c-0.11,0-0.21,0.09-0.21,0.21v8.57C158.95,384.38,159.05,384.47,159.16,384.47z"/>
	<path class="st0" d="M107.29,396.46c0-0.13,0.11-0.24,0.24-0.24h3.67c0.12,0,0.24,0.11,0.24,0.24v3.73c0,0.13-0.11,0.24-0.24,0.24
		h-3.67c-0.12,0-0.24-0.11-0.24-0.24V396.46z M104.34,403.68h10.04c0.12,0,0.24-0.11,0.24-0.24v-10.22c0-0.13-0.11-0.24-0.24-0.24
		h-10.04c-0.12,0-0.24,0.11-0.24,0.24v10.22C104.1,403.57,104.19,403.68,104.34,403.68z"/>
	<path class="st0" d="M91.35,396.46c0-0.13,0.11-0.24,0.24-0.24h3.67c0.12,0,0.24,0.11,0.24,0.24v3.73c0,0.13-0.11,0.24-0.24,0.24
		h-3.67c-0.12,0-0.24-0.11-0.24-0.24V396.46z M88.4,403.68h10.04c0.12,0,0.24-0.11,0.24-0.24v-10.22c0-0.13-0.11-0.24-0.24-0.24
		H88.4c-0.12,0-0.24,0.11-0.24,0.24v10.22C88.16,403.57,88.26,403.68,88.4,403.68z"/>
	<path class="st0" d="M219.19,458.28c7.66-12.62,12.08-27.47,12.08-43.36c0-2.03,1.62-3.67,3.61-3.67c1.99,0,3.61,1.64,3.61,3.67
		c0,21.19-7.22,40.68-19.29,56.08V458.28z M70.45,454.33c-5.72-11.91-8.93-25.29-8.93-39.41c0-49.67,39.69-90.08,88.48-90.08
		c1.99,0,3.61,1.64,3.61,3.67c0,2.03-1.62,3.67-3.61,3.67c-32.88,0-61.27,19.99-74.05,48.66c-1.06,1.02-1.72,2.46-1.72,4.06v0.11
		c-3.54,9.28-5.49,19.36-5.49,29.9c0,10.54,1.95,20.62,5.49,29.9v3.05C72.66,449.68,71.39,451.93,70.45,454.33z M150,505
		c-20.02,0-38.5-6.8-53.34-18.26h13.03c11.89,6.94,25.65,10.92,40.31,10.92c14.66,0,28.42-3.97,40.31-10.92h13.03
		C188.5,498.2,170.02,505,150,505z"/>
	<path class="st0" d="M169.06,353.96c-5.11,0-9.27-4.23-9.27-9.44c0-5.2,4.16-9.43,9.27-9.43s9.27,4.23,9.27,9.43
		C178.33,349.72,174.17,353.96,169.06,353.96 M169.06,332.51c-6.51,0-11.8,5.39-11.8,12.01c0,6.62,5.29,12.01,11.8,12.01
		c6.5,0,11.8-5.39,11.8-12.01C180.85,337.9,175.56,332.51,169.06,332.51z"/>
	<path class="st0" d="M203.61,353.96c-5.11,0-9.27-4.23-9.27-9.44c0-5.2,4.16-9.43,9.27-9.43c5.11,0,9.27,4.23,9.27,9.43
		C212.88,349.72,208.72,353.96,203.61,353.96 M203.61,332.51c-6.5,0-11.8,5.39-11.8,12.01c0,6.62,5.29,12.01,11.8,12.01
		c6.5,0,11.8-5.39,11.8-12.01C215.4,337.9,210.11,332.51,203.61,332.51z"/>
	<path class="st0" d="M190.96,325.42c0.48,0.44,1.09,0.66,1.69,0.66c0.69,0,1.38-0.29,1.88-0.85c0.93-1.06,0.85-2.68-0.19-3.64
		l-12.22-11.2c-0.21-0.25-0.45-0.49-0.73-0.69c-1.9-1.37-4.53-0.91-5.87,1.03l-8.63,12.44c-1.34,1.94-0.89,4.61,1.01,5.98
		c0.74,0.53,1.59,0.79,2.43,0.79c0.12,0,0.24-0.01,0.36-0.02c0.07,0,0.13,0.02,0.21,0.02c6.47,0,12.14,6.28,12.14,13.44
		c0,1.66,1.32,3,2.95,3c1.63,0,2.95-1.34,2.95-3c0-8.6-5.51-16.12-12.85-18.59l5.52-7.95L190.96,325.42z"/>
	<path class="st0" d="M188.65,304.42c0-2.72-2.17-4.93-4.85-4.93c-2.68,0-4.85,2.21-4.85,4.93s2.17,4.93,4.85,4.93
		C186.48,309.35,188.65,307.14,188.65,304.42"/>
	<path class="st0" d="M196.86,320.29c2.51,0,4.63,3.44,4.63,7.51c0,0.71,0.56,1.29,1.26,1.29c0.7,0,1.26-0.58,1.26-1.29
		c0-5.65-3.15-10.08-7.16-10.08c-0.7,0-1.26,0.58-1.26,1.29C195.6,319.71,196.16,320.29,196.86,320.29"/>
	<path class="st0" d="M258.63,209.83c0.67,0,1.27,0.28,1.74,0.76c0.43,0.47,0.68,1.06,0.68,1.71c0,0.68-0.27,1.29-0.71,1.74
		c-0.44,0.45-1.05,0.73-1.71,0.73c-0.67,0-1.27-0.28-1.71-0.72c-0.44-0.45-0.71-1.06-0.71-1.74c0-0.68,0.27-1.3,0.71-1.74
		C257.36,210.11,257.96,209.83,258.63,209.83z M265.84,209.83c0.67,0,1.27,0.28,1.71,0.72c0.44,0.45,0.71,1.06,0.71,1.74
		c0,0.68-0.27,1.3-0.71,1.74c-0.44,0.45-1.05,0.72-1.71,0.72c-0.66,0-1.27-0.28-1.71-0.72c-0.44-0.45-0.71-1.07-0.71-1.74
		c0-0.68,0.27-1.29,0.71-1.74C264.56,210.11,265.17,209.83,265.84,209.83L265.84,209.83z M234.24,209.52
		c0.96,2.9,2.34,5.49,4.03,7.63c3.47,5.01,6.25,8.01,8.82,10.79c4.19,4.53,7.85,8.48,12.89,19.17c0.5-1.05,0.98-2.04,1.46-2.98
		c4.32-8.51,7.66-12.12,11.44-16.19c2.57-2.77,5.35-5.78,8.81-10.77c1.69-2.12,3.08-4.72,4.04-7.64c0.91-2.75,1.43-5.8,1.43-8.97
		c0-7.64-3.04-14.55-7.96-19.56c-4.92-5-11.71-8.1-19.21-8.1c-7.5,0-14.3,3.1-19.21,8.1c-4.92,5-7.96,11.92-7.96,19.56
		C232.82,203.73,233.34,206.76,234.24,209.52z M259.99,177.98c6.12,0,11.67,2.53,15.68,6.61c4.02,4.09,6.5,9.73,6.5,15.96
		c0,6.23-2.48,11.88-6.5,15.96c-4.02,4.09-9.56,6.62-15.68,6.62c-6.12,0-11.67-2.53-15.68-6.61c-4.02-4.09-6.5-9.74-6.5-15.97
		c0-6.23,2.48-11.88,6.49-15.96C248.32,180.51,253.87,177.98,259.99,177.98L259.99,177.98z M257.26,245.42
		c-3.79,0.2-7.13,0.82-9.53,1.7c-2.2,0.81-3.54,1.75-3.54,2.69c0,1.04,1.63,2.09,4.28,2.93c2.93,0.94,7.01,1.52,11.53,1.52
		c4.52,0,8.59-0.58,11.53-1.52c2.64-0.85,4.28-1.89,4.28-2.93c0-0.93-1.34-1.88-3.54-2.69c-2.4-0.88-5.74-1.5-9.53-1.7
		c-0.63,1.25-1.28,2.61-1.95,4.09c-0.2,0.44-0.71,0.63-1.14,0.43c-0.19-0.09-0.34-0.24-0.42-0.43
		C258.53,248.03,257.89,246.67,257.26,245.42z M248.68,188.11c-0.47,0-0.86-0.39-0.86-0.88c0-0.48,0.39-0.88,0.86-0.88h4.62
		c0.43,0,0.79,0.32,0.85,0.75l1.07,5.08h15.11l0.18,0.02c0.46,0.1,0.76,0.57,0.66,1.04l-1.56,7.32c-0.09,0.39-0.43,0.69-0.84,0.69
		l-11.64-0.03l0.88,4.17h11.17c0.26,0,0.49,0.12,0.65,0.3l2.07,2.11c0.33,0.34,0.33,0.89,0,1.23c-0.33,0.34-0.88,0.34-1.21,0
		l-1.85-1.89h-11.51c-0.4,0-0.75-0.28-0.84-0.69l-3.87-18.34H248.68z"/>
	<path class="st0" d="M160.92,199.38c0.96,2.9,2.34,5.49,4.03,7.63c3.47,5.01,6.25,8.01,8.82,10.79c4.19,4.53,7.85,8.48,12.89,19.17
		c0.5-1.05,0.98-2.04,1.46-2.98c4.32-8.51,7.66-12.12,11.44-16.19c2.57-2.77,5.35-5.78,8.81-10.77c1.69-2.12,3.08-4.72,4.04-7.64
		c0.91-2.75,1.43-5.8,1.43-8.97c0-7.64-3.04-14.55-7.96-19.56c-4.92-5-11.71-8.1-19.21-8.1c-7.5,0-14.3,3.1-19.21,8.1
		c-4.92,5-7.96,11.92-7.96,19.56C159.49,193.59,160.01,196.63,160.92,199.38L160.92,199.38z M186.66,167.84
		c6.12,0,11.67,2.53,15.68,6.61c4.02,4.09,6.5,9.73,6.5,15.96c0,6.23-2.48,11.88-6.49,15.96c-4.02,4.09-9.56,6.62-15.68,6.62
		c-6.12,0-11.67-2.53-15.68-6.61c-4.02-4.09-6.5-9.74-6.5-15.97c0-6.23,2.48-11.88,6.5-15.96
		C175,170.37,180.54,167.84,186.66,167.84z M183.93,235.29c-3.79,0.2-7.13,0.82-9.53,1.7c-2.2,0.81-3.54,1.75-3.54,2.69
		c0,1.04,1.63,2.09,4.28,2.93c2.93,0.94,7.01,1.52,11.53,1.52c4.52,0,8.59-0.58,11.53-1.52c2.64-0.85,4.28-1.89,4.28-2.93
		c0-0.93-1.34-1.88-3.54-2.69c-2.4-0.88-5.74-1.5-9.53-1.7c-0.63,1.25-1.28,2.61-1.95,4.09c-0.2,0.44-0.71,0.63-1.14,0.43
		c-0.19-0.09-0.34-0.24-0.42-0.43C185.21,237.9,184.56,236.54,183.93,235.29z"/>
	<path class="st0" d="M197.49,195.61h-6.26v6.38h-9.13v-6.38h-6.26v-9.29h6.26v-6.38h9.13v6.38h6.26L197.49,195.61L197.49,195.61z
		 M186.66,174.67c-8.53,0-15.47,7.06-15.47,15.75c0,8.68,6.94,15.75,15.47,15.75c8.53,0,15.47-7.06,15.47-15.75
		C202.13,181.74,195.19,174.67,186.66,174.67z"/>
	<path class="st0" d="M87.59,199.38c0.96,2.9,2.34,5.49,4.03,7.63c3.47,5.01,6.25,8.01,8.82,10.79c4.2,4.53,7.85,8.48,12.89,19.17
		c0.5-1.05,0.98-2.04,1.46-2.98c4.32-8.51,7.66-12.12,11.44-16.19c2.57-2.77,5.35-5.78,8.81-10.77c1.69-2.12,3.08-4.72,4.04-7.64
		c0.91-2.75,1.43-5.8,1.43-8.97c0-7.64-3.04-14.55-7.96-19.56c-4.92-5-11.71-8.1-19.21-8.1c-7.5,0-14.3,3.1-19.21,8.1
		c-4.92,5-7.96,11.92-7.96,19.56C86.17,193.59,86.69,196.63,87.59,199.38z M113.34,167.84c6.12,0,11.67,2.53,15.68,6.61
		c4.02,4.09,6.5,9.73,6.5,15.96c0,6.23-2.48,11.88-6.5,15.96c-4.02,4.09-9.56,6.62-15.68,6.62c-6.12,0-11.67-2.53-15.68-6.61
		c-4.02-4.09-6.5-9.74-6.5-15.97c0-6.23,2.48-11.88,6.5-15.96C101.67,170.37,107.22,167.84,113.34,167.84L113.34,167.84z
		 M110.61,235.29c-3.79,0.2-7.13,0.82-9.53,1.7c-2.2,0.81-3.54,1.75-3.54,2.69c0,1.04,1.63,2.09,4.28,2.93
		c2.93,0.94,7.01,1.52,11.53,1.52s8.59-0.58,11.53-1.52c2.64-0.85,4.28-1.89,4.28-2.93c0-0.93-1.34-1.88-3.54-2.69
		c-2.4-0.88-5.74-1.5-9.53-1.7c-0.63,1.25-1.28,2.61-1.95,4.09c-0.2,0.44-0.71,0.63-1.14,0.43c-0.19-0.09-0.34-0.24-0.42-0.43
		C111.88,237.9,111.24,236.54,110.61,235.29z"/>
	<path class="st0" d="M129.05,189.06c0,0.79-0.67,1.48-1.45,1.48h-3.12c-0.78,0-1.45-0.68-1.45-1.48v-2.16
		c0-0.79,0.67-1.48,1.45-1.48h3.12c0.78,0,1.45,0.68,1.45,1.48V189.06z M121.47,190.76h-6.02v-5.11h6.02V190.76z M113.45,190.76
		h-6.02v-5.11h6.02V190.76z M105.2,190.88h-6.02v-5.11h6.02V190.88z M130.39,186.9c0-1.93-1.23-3.52-2.56-3.52H98.85
		c-1.45,0-2.56,1.59-2.56,3.52v7.6l4.01,0c0.22-1.59,1.56-2.72,3.12-2.72c1.56,0,2.9,1.25,3.12,2.72h13.49
		c0.22-1.59,1.56-2.72,3.12-2.72c1.56,0,2.9,1.25,3.12,2.72h4.12V186.9z"/>
	<path class="st0" d="M105.87,194.96c0-1.38-1.1-2.5-2.45-2.5s-2.45,1.12-2.45,2.5c0,1.38,1.1,2.5,2.45,2.5
		S105.87,196.34,105.87,194.96"/>
	<path class="st0" d="M125.6,194.96c0-1.38-1.1-2.5-2.45-2.5c-1.35,0-2.45,1.12-2.45,2.5c0,1.38,1.1,2.5,2.45,2.5
		C124.5,197.46,125.6,196.34,125.6,194.96"/>
	<rect x="96.28" y="195.07" class="st0" width="3.34" height="0.79"/>
	<path class="st0" d="M14.27,209.52c0.95,2.9,2.34,5.49,4.03,7.63c3.47,5.01,6.25,8.01,8.82,10.79c4.2,4.53,7.85,8.48,12.89,19.17
		c0.5-1.05,0.98-2.04,1.46-2.98c4.32-8.51,7.66-12.12,11.44-16.19c2.57-2.77,5.35-5.78,8.81-10.77c1.69-2.12,3.08-4.72,4.04-7.64
		c0.91-2.75,1.43-5.8,1.43-8.97c0-7.64-3.04-14.55-7.96-19.56c-4.92-5-11.71-8.1-19.21-8.1c-7.5,0-14.3,3.1-19.21,8.1
		c-4.92,5-7.96,11.92-7.96,19.56C12.84,203.73,13.36,206.76,14.27,209.52L14.27,209.52z M40.01,177.98c6.12,0,11.67,2.53,15.68,6.61
		c4.02,4.09,6.5,9.73,6.5,15.96c0,6.23-2.48,11.88-6.49,15.96c-4.02,4.09-9.56,6.62-15.68,6.62s-11.67-2.53-15.68-6.61
		c-4.02-4.09-6.5-9.74-6.5-15.97c0-6.23,2.48-11.88,6.5-15.96C28.35,180.51,33.89,177.98,40.01,177.98z M37.28,245.42
		c-3.79,0.2-7.13,0.82-9.53,1.7c-2.2,0.81-3.54,1.75-3.54,2.69c0,1.04,1.63,2.09,4.28,2.93c2.93,0.94,7.01,1.52,11.53,1.52
		s8.59-0.58,11.53-1.52c2.64-0.85,4.28-1.89,4.28-2.93c0-0.93-1.34-1.88-3.54-2.69c-2.4-0.88-5.74-1.5-9.53-1.7
		c-0.63,1.25-1.28,2.61-1.95,4.09c-0.2,0.44-0.71,0.63-1.14,0.43c-0.19-0.09-0.34-0.25-0.42-0.43
		C38.56,248.03,37.91,246.67,37.28,245.42z"/>
	<path class="st0" d="M55.13,194.87c-0.02-0.01-0.05-0.02-0.07-0.03l-14.88-5.22c-0.01,0-0.01,0-0.02,0c-0.1-0.03-0.21-0.03-0.31,0
		c-0.01,0-0.01,0-0.02,0l-14.88,5.22c-0.03,0.01-0.05,0.02-0.07,0.03c-0.16,0.09-0.27,0.27-0.27,0.46c0,0.2,0.11,0.37,0.27,0.46
		c0.02,0.01,0.05,0.02,0.07,0.03l3.76,1.32v4.79c-0.74,0.22-1.28,0.92-1.28,1.75c0,0.63,0.32,1.2,0.82,1.54
		c-0.07,0.32-0.14,0.67-0.22,1.07c-0.19,1.11-0.35,2.52-0.35,4.18c0,0.1,0.03,0.2,0.09,0.29c0.18,0.28,0.7,0.75,1.45,0.75
		c0.75,0,1.27-0.48,1.45-0.75c0.06-0.09,0.09-0.19,0.09-0.29c0-1.66-0.15-3.08-0.35-4.18c-0.07-0.4-0.14-0.75-0.22-1.07
		c0.5-0.33,0.82-0.91,0.82-1.54c0-0.83-0.54-1.52-1.28-1.75v-4.43l10.09,3.54c0.01,0,0.01,0.01,0.02,0.01c0.1,0.03,0.21,0.03,0.31,0
		c0.01,0,0.01-0.01,0.02-0.01l14.88-5.22c0.03-0.01,0.05-0.02,0.07-0.03c0.16-0.09,0.27-0.27,0.27-0.46
		C55.4,195.14,55.29,194.97,55.13,194.87L55.13,194.87z"/>
	<path class="st0" d="M40.01,202.19c-0.06,0-0.11-0.01-0.17-0.03l-8.04-2.82v7.49c0,0.29,0.23,0.52,0.51,0.52
		c0.05,0,4.98,0.02,7.38,1.97c0.09,0.08,0.21,0.11,0.32,0.11s0.23-0.04,0.32-0.11c2.4-1.95,7.32-1.97,7.38-1.97
		c0.28,0,0.51-0.24,0.51-0.52v-7.49l-8.04,2.82C40.13,202.18,40.07,202.19,40.01,202.19z"/>
	<path class="st1" d="M222.82,60.15c0.46,0,0.98-0.06,1.56-0.18c0.58-0.12,1.18-0.26,1.8-0.42c0.62-0.16,1.2-0.33,1.73-0.49
		c0.53-0.16,0.97-0.32,1.31-0.46c0.35-0.14,0.57-0.23,0.66-0.28v-8.81l-6.23,0.42c-1.8,0.14-3.13,0.61-3.98,1.41
		c-0.85,0.8-1.28,1.88-1.28,3.24v1.55c0,0.94,0.2,1.71,0.59,2.32c0.39,0.61,0.92,1.04,1.59,1.3
		C221.24,60.02,221.99,60.15,222.82,60.15 M217.63,67.4c-2.81,0-5.1-0.85-6.85-2.54c-1.75-1.69-2.63-4.04-2.63-7.04v-3.38
		c0-2.86,0.99-5.22,2.98-7.08c1.98-1.85,5.07-2.78,9.27-2.78h9.48v-2.61c0-1.17-0.21-2.15-0.62-2.92c-0.42-0.77-1.19-1.34-2.32-1.69
		c-1.13-0.35-2.85-0.53-5.15-0.53h-11.14v-6.06c1.8-0.56,3.89-1.06,6.26-1.48c2.38-0.42,5.25-0.63,8.61-0.63
		c3.09,0,5.73,0.38,7.92,1.13c2.19,0.75,3.85,2.04,4.98,3.87c1.13,1.83,1.7,4.37,1.7,7.61v25.71h-8.1l-1.66-4.02
		c-0.32,0.38-0.88,0.8-1.66,1.27c-0.78,0.47-1.74,0.95-2.87,1.44c-1.13,0.49-2.4,0.9-3.81,1.23
		C220.61,67.24,219.15,67.4,217.63,67.4z M163.8,58.03c2.08,0,3.81-0.23,5.19-0.7c1.38-0.47,2.48-1.3,3.29-2.5
		c0.81-1.2,1.4-2.91,1.76-5.14c0.37-2.23,0.55-5.13,0.55-8.7c0-3.76-0.18-6.76-0.55-9.02c-0.37-2.25-0.96-3.98-1.76-5.18
		c-0.81-1.2-1.9-2.01-3.29-2.43c-1.38-0.42-3.11-0.63-5.19-0.63c-1.98,0-3.67,0.21-5.05,0.63c-1.38,0.42-2.5,1.23-3.36,2.43
		c-0.85,1.2-1.48,2.92-1.87,5.18c-0.39,2.25-0.59,5.26-0.59,9.02c0,3.57,0.17,6.47,0.52,8.7c0.35,2.23,0.93,3.94,1.76,5.14
		c0.83,1.2,1.95,2.03,3.36,2.5C159.98,57.8,161.72,58.03,163.8,58.03z M163.8,67.4c-3.51,0-6.57-0.34-9.2-1.02
		c-2.63-0.68-4.83-1.95-6.61-3.8c-1.78-1.86-3.1-4.52-3.98-8c-0.88-3.48-1.31-8.01-1.31-13.6c0-5.59,0.45-10.13,1.35-13.63
		c0.9-3.5,2.23-6.19,3.98-8.07c1.75-1.88,3.94-3.17,6.57-3.87c2.63-0.7,5.7-1.06,9.2-1.06c3.51,0,6.57,0.35,9.2,1.06
		c2.63,0.7,4.82,2,6.57,3.87c1.75,1.88,3.07,4.57,3.94,8.07c0.88,3.5,1.31,8.04,1.31,13.63c0,5.59-0.44,10.12-1.31,13.6
		c-0.88,3.48-2.19,6.14-3.94,8c-1.75,1.85-3.94,3.12-6.57,3.8C170.37,67.06,167.3,67.4,163.8,67.4z M107.2,57.61h10.38
		c2.12,0,3.81-0.62,5.05-1.87c1.25-1.24,2.16-3.11,2.73-5.6c0.58-2.49,0.86-5.57,0.86-9.23c0-3.38-0.18-6.16-0.55-8.35
		c-0.37-2.18-0.91-3.89-1.63-5.11c-0.71-1.22-1.61-2.07-2.7-2.54c-1.08-0.47-2.34-0.7-3.77-0.7H107.2V57.61z M96.96,66.98V14.85
		h21.66c3.46,0,6.34,0.62,8.65,1.87c2.31,1.24,4.14,3.03,5.5,5.35c1.36,2.32,2.32,5.08,2.87,8.28c0.55,3.19,0.83,6.72,0.83,10.57
		c0,5.87-0.66,10.73-1.97,14.58s-3.29,6.73-5.92,8.63c-2.63,1.9-5.95,2.85-9.96,2.85H96.96z M68.38,58.03c2.08,0,3.81-0.23,5.19-0.7
		c1.38-0.47,2.48-1.3,3.29-2.5c0.81-1.2,1.4-2.91,1.76-5.14c0.37-2.23,0.55-5.13,0.55-8.7c0-3.76-0.18-6.76-0.55-9.02
		c-0.37-2.25-0.96-3.98-1.76-5.18c-0.81-1.2-1.9-2.01-3.29-2.43c-1.38-0.42-3.11-0.63-5.19-0.63c-1.98,0-3.67,0.21-5.05,0.63
		c-1.38,0.42-2.5,1.23-3.36,2.43c-0.85,1.2-1.48,2.92-1.87,5.18c-0.39,2.25-0.59,5.26-0.59,9.02c0,3.57,0.17,6.47,0.52,8.7
		c0.35,2.23,0.93,3.94,1.76,5.14c0.83,1.2,1.95,2.03,3.36,2.5C64.56,57.8,66.3,58.03,68.38,58.03z M68.38,67.4
		c-3.51,0-6.57-0.34-9.2-1.02c-2.63-0.68-4.83-1.95-6.61-3.8c-1.78-1.86-3.1-4.52-3.98-8c-0.88-3.48-1.31-8.01-1.31-13.6
		c0-5.59,0.45-10.13,1.35-13.63c0.9-3.5,2.23-6.19,3.98-8.07c1.75-1.88,3.94-3.17,6.57-3.87c2.63-0.7,5.7-1.06,9.2-1.06
		c3.51,0,6.57,0.35,9.2,1.06c2.63,0.7,4.82,2,6.57,3.87c1.75,1.88,3.07,4.57,3.94,8.07c0.88,3.5,1.31,8.04,1.31,13.63
		c0,5.59-0.44,10.12-1.31,13.6c-0.88,3.48-2.19,6.14-3.94,8c-1.75,1.85-3.94,3.12-6.57,3.8C74.95,67.06,71.89,67.4,68.38,67.4z
		 M19.05,66.98V24.22H5v-9.37h38.4v9.37H29.29v42.76H19.05z"/>
	<path class="st1" d="M274.9,65.57l0.13,1.47c0.17,1.89,1.82,3.29,3.68,3.12c1.86-0.17,3.23-1.86,3.06-3.75l-0.13-1.47L274.9,65.57z
		"/>
	<path class="st1" d="M274.68,63.61l6.91-0.65c0.13-0.97,0.53-2.02,0.95-3.11c0.62-1.62,1.26-3.3,1.11-5
		c-0.43-4.72-3.12-6.63-5.44-6.41c-1.61,0.15-5.64,2.13-4.98,9.37c0.14,1.59,0.5,2.63,0.84,3.62
		C274.3,62.12,274.52,62.77,274.68,63.61L274.68,63.61z"/>
	<path class="st1" d="M286.4,52.26l-0.15,1.47c-0.19,1.89,1.16,3.59,3.02,3.79c1.86,0.2,3.53-1.18,3.72-3.07l0.15-1.47L286.4,52.26z
		"/>
	<path class="st1" d="M285.57,47.16c-0.6-1.63-1.22-3.31-1.05-5.01c0.48-4.71,3.2-6.59,5.52-6.35c1.61,0.17,5.61,2.2,4.87,9.43
		c-0.16,1.59-0.53,2.62-0.89,3.61c-0.24,0.68-0.47,1.33-0.63,2.17l-6.9-0.73C286.36,49.31,285.98,48.26,285.57,47.16L285.57,47.16z"
		/>
	<path class="st1" d="M274.9,34.79l0.13,1.47c0.17,1.89,1.82,3.29,3.68,3.12c1.86-0.17,3.23-1.86,3.06-3.75l-0.13-1.47L274.9,34.79z
		"/>
	<path class="st1" d="M274.68,32.83l6.91-0.65c0.13-0.97,0.53-2.02,0.95-3.11c0.62-1.62,1.26-3.3,1.11-5
		c-0.43-4.72-3.12-6.63-5.44-6.41c-1.61,0.15-5.64,2.13-4.98,9.37c0.14,1.59,0.5,2.63,0.84,3.62
		C274.3,31.34,274.52,31.99,274.68,32.83L274.68,32.83z"/>
	<path class="st1" d="M286.4,21.48l-0.15,1.47c-0.19,1.89,1.16,3.59,3.02,3.79c1.86,0.2,3.53-1.18,3.72-3.07l0.15-1.47L286.4,21.48z
		"/>
	<path class="st1" d="M285.57,16.38c-0.6-1.63-1.22-3.31-1.05-5.01c0.48-4.71,3.2-6.59,5.52-6.35c1.61,0.17,5.61,2.2,4.87,9.43
		c-0.16,1.59-0.53,2.62-0.89,3.61c-0.24,0.68-0.47,1.33-0.63,2.17l-6.9-0.73C286.36,18.53,285.98,17.48,285.57,16.38L285.57,16.38z"
		/>
</g>
</svg>
