<?xml version="1.0" encoding="utf-8"?>
<!-- Generator: Adobe Illustrator 27.9.0, SVG Export Plug-In . SVG Version: 6.00 Build 0)  -->
<svg version="1.1" id="Layer_1" xmlns="http://www.w3.org/2000/svg" xmlns:xlink="http://www.w3.org/1999/xlink" x="0px" y="0px"
	 viewBox="0 0 660 800" style="enable-background:new 0 0 660 800;" xml:space="preserve">
<style type="text/css">
	.st0{fill:#21376F;}
	.st1{font-family:'Exo-Black';}
	.st2{font-size:25.2875px;}
	.st3{font-family:'Exo-Bold';}
	.st4{font-size:18.9994px;}
	.st5{font-size:16.1703px;}
	.st6{fill-rule:evenodd;clip-rule:evenodd;fill:#21376F;}
	.st7{fill-rule:evenodd;clip-rule:evenodd;}
	.st8{fill-rule:evenodd;clip-rule:evenodd;fill:#FFFFFF;}
	.st9{font-size:11.9955px;}
	.st10{fill:none;stroke:#000000;stroke-width:2;}
	.st11{fill:none;stroke:#FFFFFF;stroke-width:3;stroke-dasharray:130;stroke-dashoffset:130;}
	.st12{fill:none;stroke:#FFFFFF;stroke-width:3;stroke-dasharray:143;stroke-dashoffset:143;}
</style>
<g>
	<text transform="matrix(0.9886 0 0 1 40.7256 30.8359)" class="st0 st1 st2">2 DORMITORIOS / MONOAMBIENTE</text>
</g>
<g>
	<text transform="matrix(0.9886 0 0 1 526.2881 30.8364)" class="st0 st1 st2">79.38 </text>
	<text transform="matrix(0.9886 0 0 1 597.7881 30.8364)" class="st0 st3 st2">m²</text>
</g>
<text transform="matrix(0.9886 0 0 1 245.3794 660.8711)" class="st0 st3 st4">- Área Cubierta 73.38 m² </text>
<text transform="matrix(0.9886 0 0 1 245.3794 687.5488)" class="st0 st3 st4">- Área Semicubierta 6.00 m²</text>
<g>
	<text transform="matrix(0.9886 0 0 1 537.2939 141.9429)" class="st0 st1 st5">VENTANAS</text>
	<path class="st0" d="M567,83.9L580.7,70v-2.1L567,81.8V83.9 M607.5,61.9l-2,2V113h2V61.9z M606.1,60.5h-50.6v2h48.6L606.1,60.5z
		 M609.5,58.4V115l-4,4h-54.6l6-6.1h46.6V64.5h-48v47.1l-6,6.1V62.5l4-4L609.5,58.4L609.5,58.4z M558.3,101.9l22.4-22.7v-2
		l-22.4,22.6V101.9z M588.2,78.8v2.1L567,102.4v-2.1L588.2,78.8z"/>
</g>
<g>
	<text transform="matrix(0.9886 0 0 1 550.9463 219.8169)" class="st0 st1 st5">COCINA</text>
	<path class="st0" d="M586.9,184.3c-0.7,0-1.2,0.6-1.2,1.3l0,0v6.3l0,0c0,0.7,0.6,1.3,1.2,1.3c0.7,0,1.2-0.6,1.2-1.3l0,0v-6.3l0,0
		C588.2,184.8,587.6,184.3,586.9,184.3L586.9,184.3z M582.1,180.5H607v15.1h-24.9V180.5z M557,175.5h17.5v15.1H557V175.5z
		 M586.9,172.9L586.9,172.9c-0.7,0-1.3,0.6-1.3,1.3s0.6,1.3,1.2,1.3l0,0h15l0,0c0.7,0,1.2-0.6,1.2-1.3s-0.6-1.3-1.2-1.3l0,0H586.9z
		 M555.8,172.9c-0.7,0-1.2,0.6-1.2,1.3v17.7c0,0.7,0.6,1.3,1.2,1.3h19.9c0.7,0,1.2-0.6,1.2-1.3v-17.7c0-0.7-0.6-1.3-1.2-1.3H555.8z
		 M582.1,170.4H607v7.6h-24.9V170.4z M552,170.4h4.4h18.7h4.5v25.2H552V170.4z M556.4,166.6c-0.8,0-1.5,0.5-1.8,1.3h-3.9
		c-0.7,0-1.2,0.6-1.2,1.3v27.7c0,0.7,0.6,1.3,1.2,1.3h57.5c0.7,0,1.2-0.6,1.2-1.3v-27.7c0-0.7-0.6-1.3-1.2-1.3h-31.4
		c-0.3-0.7-0.9-1.3-1.8-1.3H556.4z"/>
</g>
<g>
	<text transform="matrix(0.9886 0 0 1 559.4512 317.9668)" class="st0 st1 st5">SALA</text>
	<path class="st0" d="M554.5,277.2L554.5,277.2z M559.5,277.2L559.5,277.2L559.5,277.2z M599.5,277.2L599.5,277.2L599.5,277.2z
		 M604.5,277.2L604.5,277.2z M562,289.9h37.5v0.1h5v-12.6v-0.1c0-0.1,0,0,0-0.1v-0.1c0,0,0,0.2,0,0c0-0.7-0.3-1.3-0.7-1.8
		c-0.5-0.5-1.1-0.7-1.8-0.7l0,0c-0.7,0-1.3,0.3-1.8,0.7c-0.5,0.5-0.7,1.1-0.7,1.8c0,0.2,0,0,0,0l0,0v0.1c0,0,0,0,0,0.1v0.1v4.9
		h-39.9v-4.9v-0.1c0-0.1,0,0,0-0.1v-0.1l0,0c0,0,0,0.2,0,0c0-0.7-0.3-1.3-0.7-1.8c-0.5-0.5-1.1-0.7-1.8-0.7l0,0
		c-0.7,0-1.3,0.3-1.8,0.7c-0.5,0.5-0.7,1.1-0.7,1.8c0,0.2,0,0,0,0v0.1c0,0,0,0,0,0.1v0.1V290h5v-0.1H562z M569.5,267.2h5v5.1h-5
		V267.2z M584.5,267.2h5v5.1h-5V267.2z M562,264.7L562,264.7v6.9c0.1,0.1,0.2,0.2,0.3,0.3c1.4,1.4,2.2,3.3,2.2,5.4
		c0,0.2,0-0.1,0,0.1h30c0-0.2,0,0.1,0-0.1c0-2.1,0.8-4,2.2-5.4c0.1-0.1,0.2-0.2,0.3-0.3v-6.9l0,0c0-1.4-0.6-2.7-1.5-3.6
		s-2.2-1.5-3.5-1.5h-25c-1.4,0-2.6,0.6-3.5,1.5S562,263.3,562,264.7z M557,269.6v-4.9l0,0c0-2.8,1.1-5.3,2.9-7.1
		c1.8-1.8,4.3-3,7.1-3h25c2.7,0,5.2,1.1,7.1,3c1.8,1.8,2.9,4.3,2.9,7.1l0,0v4.9c2.1,0,3.9,0.9,5.3,2.2c1.4,1.4,2.2,3.3,2.2,5.4
		c0,0.2,0-0.2,0,0.2v0.1l0,0v17.7h-15V295h-30v0.1h-15v-17.7l0,0v-0.1c0-0.3,0,0,0-0.2c0-2.1,0.8-4,2.2-5.4
		C553.1,270.5,554.9,269.6,557,269.6z"/>
</g>
<g>
	<text transform="matrix(0.9886 0 0 1 566.5166 416.3325)" class="st0 st1 st5">A.A</text>
	<path class="st6" d="M578.7,378.8c2.5,4,2.3,5.2,0.1,7.4c-2.8,2.8-3.1,5-0.1,9.7c0.3,0.4,0.9,0.6,1.3,0.3c0.4-0.3,0.6-0.9,0.3-1.3
		c-2.5-4-2.3-5.2-0.1-7.4c2.8-2.8,3.1-5,0.1-9.7c-0.3-0.4-0.9-0.6-1.3-0.3C578.6,377.8,578.4,378.4,578.7,378.8 M593.7,378.8
		c2.5,4,2.3,5.2,0.1,7.4c-2.8,2.8-3.1,5-0.1,9.7c0.3,0.4,0.9,0.6,1.3,0.3c0.4-0.3,0.6-0.9,0.3-1.3c-2.5-4-2.3-5.2-0.1-7.4
		c2.8-2.8,3.1-5,0.1-9.7c-0.3-0.4-0.9-0.6-1.3-0.3C593.5,377.8,593.4,378.4,593.7,378.8z M602,368.8h-45c-2.1,0-3.7-1.7-3.7-3.8
		v-15.1c0-2.1,1.7-3.8,3.7-3.8h45c2.1,0,3.7,1.7,3.7,3.8V365C605.7,367.1,604,368.8,602,368.8z M557,372.6h45c4.1,0,7.5-3.4,7.5-7.6
		v-15.1c0-4.2-3.4-7.6-7.5-7.6h-45c-4.1,0-7.5,3.4-7.5,7.6V365C549.5,369.2,552.9,372.6,557,372.6z M561.7,365h35.6v-1.9h-35.6V365z
		 M561.7,361.3h35.6v-1.9h-35.6V361.3z M580.4,353.7h-5.7c-0.5,0-0.9-0.4-0.9-0.9s0.4-0.9,0.9-0.9h5.7c0.5,0,0.9,0.4,0.9,0.9
		C581.4,353.2,581,353.7,580.4,353.7z M580.4,355.6c1.6,0,2.8-1.3,2.8-2.8s-1.2-2.8-2.8-2.8h-5.7c-1.6,0-2.8,1.3-2.8,2.8
		c0,1.6,1.2,2.8,2.8,2.8H580.4z M563.6,351.8c0.5,0,0.9,0.4,0.9,0.9s-0.4,0.9-0.9,0.9s-0.9-0.4-0.9-0.9
		C562.6,352.2,563.1,351.8,563.6,351.8z M566.4,352.7c0-1.6-1.3-2.8-2.8-2.8s-2.8,1.3-2.8,2.8c0,1.6,1.3,2.8,2.8,2.8
		C565.1,355.6,566.4,354.3,566.4,352.7z M565.2,387.5c2.8-2.8,3.1-5,0.1-9.7c-0.3-0.4-0.9-0.6-1.3-0.3c-0.4,0.3-0.6,0.9-0.3,1.3
		c2.5,4,2.3,5.2,0.1,7.4c-2.8,2.8-3.1,5-0.1,9.7c0.3,0.4,0.9,0.6,1.3,0.3c0.4-0.3,0.6-0.9,0.3-1.3
		C562.8,390.9,563,389.7,565.2,387.5z"/>
</g>
<g>
	<text transform="matrix(0.9886 0 0 1 557.5889 515.8843)" class="st0 st1 st5">BAÑO</text>
	<path class="st0" d="M562.6,461.1h33.7c0.5,0,1-0.2,1.3-0.6c0.3-0.3,0.6-0.8,0.6-1.3s-0.2-1-0.6-1.3c-0.3-0.3-0.8-0.6-1.3-0.6h-1.9
		h-30h-1.9c-0.5,0-1,0.2-1.3,0.6c-0.3,0.3-0.6,0.8-0.6,1.3s0.2,1,0.6,1.3C561.7,460.8,562.1,461.1,562.6,461.1 M570.1,479.4
		l-1.4,6.3h21.6l-1.4-6.3c-2.8,1.6-6,2.5-9.4,2.5C576,481.9,572.8,481,570.1,479.4z M592.6,453.5v-15.2l0,0c0-1.6-0.6-3-1.7-4
		c-1-1-2.4-1.7-4-1.7h-15c-1.5,0-2.9,0.6-4,1.7c-1,1-1.7,2.5-1.7,4v15.2H592.6z M562.6,453.5v-15.2c0-2.6,1.1-5,2.7-6.7
		c1.7-1.7,4-2.8,6.6-2.8h15c2.6,0,4.9,1.1,6.6,2.8c1.7,1.7,2.7,4.1,2.7,6.7l0,0v15.2l0,0c1.5,0,3,0.6,4,1.7c1,1,1.6,2.5,1.6,4
		c0,1.6-0.6,3-1.6,4c-0.6,0.6-1.3,1.1-2.2,1.4c-0.4,4.6-2.4,8.8-5.4,11.8c-0.2,0.2-0.3,0.3-0.5,0.5l2.2,10.3c0.2,1-0.4,2-1.4,2.3
		c-0.1,0-0.3,0-0.4,0l0,0h-26.2c-1,0-1.9-0.8-1.9-1.9c0-0.2,0-0.3,0.1-0.5l2.2-10.2c-0.2-0.2-0.4-0.3-0.5-0.5c-3-3.1-5-7.2-5.4-11.8
		c-0.8-0.3-1.6-0.8-2.2-1.4c-1-1-1.6-2.5-1.6-4c0-1.6,0.6-3,1.6-4C559.7,454.1,561.1,453.5,562.6,453.5z M572,440.2
		c-1,0-1.9-0.8-1.9-1.9c0-1,0.8-1.9,1.9-1.9h3.7c1,0,1.9,0.8,1.9,1.9c0,1-0.8,1.9-1.9,1.9H572z M594.4,464.8h-29.7
		c0.4,3.5,2,6.5,4.3,8.8c2.7,2.7,6.5,4.4,10.6,4.4c4.2,0,7.9-1.7,10.6-4.4C592.4,471.4,594,468.3,594.4,464.8z"/>
</g>
<g>
	<text transform="matrix(0.9886 0 0 1 530.4121 597.1895)" class="st0 st1 st5">DORMITORIO</text>
	<path class="st0" d="M605.4,567.7h-51.7v-12.5h51.7V567.7z M559.3,548.5c0.1,0,0.2,0,0.3,0h40l1.7,2.5h-43.7L559.3,548.5z
		 M560.2,539.9c0-1.2,1-2.1,2.2-2.1h34.2c1.2,0,2.2,0.9,2.2,2.1v4.5H597c0-0.1,0-0.2,0-0.3c0-1.1-0.9-2.1-2.1-2.1H564
		c-1.1,0-2.1,0.9-2.1,2.1c0,0.1,0,0.2,0,0.3h-1.8L560.2,539.9L560.2,539.9z M607.4,549.3c-0.7,0-1.3,0.4-1.7,0.9l-2.8-4.3v-6
		c0-3.5-2.9-6.3-6.3-6.3h-34.2c-3.5,0-6.3,2.8-6.3,6.3v6l-2.8,4.3c-0.4-0.6-1-0.9-1.7-0.9c-1.1,0-2,0.9-2,2.1v18.5c0,1.1,0.9,2,2,2
		h1.5v2.4c0,1.1,0.9,2.1,2.1,2.1c1.1,0,2.1-0.9,2.1-2.1v-2.4h44.6v2.4c0,1.1,0.9,2.1,2.1,2.1c1.1,0,2.1-0.9,2.1-2.1v-2.4h1.5
		c1.1,0,2-0.9,2-2v-18.5C609.5,550.2,608.6,549.3,607.4,549.3z"/>
</g>
<g>
	<text transform="matrix(0.9886 0 0 1 423.1021 789.9043)" class="st0 st1 st5">BALCÓN</text>
	<path class="st0" d="M475,713.6c-0.5-0.4-1.2-0.6-2-0.6s-1.5,0.2-2,0.6c-0.2-0.5-0.5-1-0.8-1.2h4.8V713.6z M471.2,714.7
		c0-0.5,0.8-1,1.8-1c1.1,0,1.8,0.5,1.8,1s-0.8,1-1.8,1C471.9,715.7,471.2,715.2,471.2,714.7z M475,717h-4.6c0.3-0.3,0.5-0.6,0.6-1
		c0.5,0.4,1.2,0.6,2,0.6s1.5-0.2,2-0.6V717z M475,750.3h-4.9v-31.6h4.9V750.3z M475,753.3h-33.6V752H475V753.3z M441.4,718.7h4.9
		v31.6h-4.9V718.7z M441.4,715.8c0.5,0.4,1.2,0.7,2.1,0.7c0.8,0,1.5-0.2,2-0.6c0.1,0.4,0.3,0.8,0.6,1h-4.7V715.8z M445.3,714.7
		c0,0.5-0.8,1-1.8,1s-1.8-0.5-1.8-1s0.8-1,1.8-1S445.3,714.3,445.3,714.7z M441.4,712.3h4.9c-0.4,0.3-0.6,0.7-0.8,1.2
		c-0.5-0.4-1.2-0.6-2-0.6c-0.9,0-1.6,0.3-2.1,0.7V712.3z M447.1,712.9c0.5,0,1,0.8,1,1.9c0,1.1-0.5,1.9-1,1.9s-1-0.8-1-1.9
		C446.2,713.7,446.7,712.9,447.1,712.9z M449.3,714.7c0-0.5,0.8-1,1.8-1c1.1,0,1.8,0.5,1.8,1s-0.8,1-1.8,1
		C450.1,715.7,449.3,715.2,449.3,714.7z M453.7,718.7v31.6H448v-31.6H453.7z M448.1,717c0.3-0.3,0.6-0.8,0.7-1.4
		c0.4,0.6,1.3,1,2.3,1c0.8,0,1.5-0.2,2-0.6c0.1,0.4,0.3,0.8,0.6,1H448.1z M454,712.3c-0.4,0.3-0.6,0.7-0.8,1.2
		c-0.5-0.4-1.2-0.6-2-0.6c-1,0-1.9,0.4-2.3,1c-0.1-0.7-0.5-1.2-0.9-1.6L454,712.3L454,712.3z M454.8,712.9c0.5,0,1,0.8,1,1.9
		c0,1.1-0.5,1.9-1,1.9s-1-0.8-1-1.9S454.3,712.9,454.8,712.9z M456.7,714.7c0-0.5,0.8-1,1.8-1c1.1,0,1.8,0.5,1.8,1s-0.8,1-1.8,1
		S456.7,715.2,456.7,714.7z M461.1,718.7v31.6h-5.7v-31.6H461.1z M455.8,717c0.3-0.3,0.5-0.7,0.6-1.1c0.5,0.4,1.2,0.7,2.1,0.7
		c0.8,0,1.5-0.2,2-0.6c0.1,0.4,0.3,0.8,0.6,1L455.8,717L455.8,717z M461.4,712.3c-0.4,0.3-0.6,0.7-0.8,1.2c-0.5-0.4-1.2-0.6-2-0.6
		c-0.9,0-1.7,0.3-2.1,0.7c-0.2-0.6-0.5-1.1-0.8-1.3L461.4,712.3L461.4,712.3z M462.2,712.9c0.5,0,1,0.8,1,1.9c0,1.1-0.5,1.9-1,1.9
		s-1-0.8-1-1.9S461.7,712.9,462.2,712.9z M468.6,712.3c-0.4,0.3-0.6,0.7-0.8,1.2c-0.5-0.4-1.2-0.6-2-0.6s-1.5,0.2-2,0.6
		c-0.2-0.5-0.5-1-0.8-1.2H468.6z M468.5,718.7v31.6h-5.7v-31.6H468.5z M463.9,714.7c0-0.5,0.8-1,1.8-1c1.1,0,1.8,0.5,1.8,1
		s-0.8,1-1.8,1C464.7,715.7,463.9,715.2,463.9,714.7z M465.8,716.5c0.8,0,1.5-0.2,2-0.6c0.1,0.4,0.3,0.8,0.6,1h-5.2
		c0.3-0.3,0.5-0.6,0.6-1C464.2,716.3,465,716.5,465.8,716.5z M469.4,712.9c0.5,0,1,0.8,1,1.9c0,1.1-0.5,1.9-1,1.9s-1-0.8-1-1.9
		S468.9,712.9,469.4,712.9z M455.6,710.6h-15.9h-4.9c-2.1,0-3.8,1.7-3.8,3.8s1.7,3.8,3.8,3.8c2.1,0,3.8-1.7,3.8-3.8h-1.7
		c0,1.2-0.9,2.1-2.1,2.1c-1.1,0-2.1-0.9-2.1-2.1c0-1.2,0.9-2.1,2.1-2.1h4.9v41.8c-1.7,0.4-2.9,1.9-2.9,3.7c0,2.1,1.7,3.8,3.8,3.8
		c1.6,0,3-1,3.5-2.5c2.4-4.3,21.4,0.9,25.5,9.9c0.7,1.5,1.9,2.1,3.4,2.1c2.1,0,3.8-1.7,3.8-3.8v-56.8L455.6,710.6L455.6,710.6z"/>
</g>
<g>
	<path class="st7" d="M219.8,644.8h3.9v140.9h-3.9V644.8z M212.6,772.7h1.4V783h-1.4V772.7z M212.6,758.8h1.4V769h-1.4V758.8z
		 M212.6,744.9h1.4v10.2h-1.4V744.9z M212.6,731h1.4v10.2h-1.4V731z M212.6,717.1h1.4v10.2h-1.4V717.1z M212.6,703.2h1.4v10.2h-1.4
		V703.2z M212.6,689.2h1.4v10.2h-1.4V689.2z M212.6,675.3h1.4v10.2h-1.4V675.3z M212.6,661.4h1.4v10.2h-1.4V661.4z M212.6,647.5h1.4
		v10.2h-1.4V647.5z M203.1,644.8h3.9v140.9h-3.9V644.8z"/>
	<polygon class="st8" points="147.4,754.2 147.4,676.6 136.5,676.6 136.3,704.8 129.6,704.8 129.6,690.7 95.4,690.7 95.4,704.8 
		88.7,704.8 88.7,676.6 77.8,676.6 77.8,754.2 88.6,754.2 88.6,739.9 136.2,739.9 136.5,754.2 	"/>
	<text transform="matrix(0.9886 0 0 1 81.0571 721.1885)" class="st0 st3 st9">ASCENSOR</text>
	<polygon class="st6" points="30.3,668.9 27.8,668.9 27.8,656.1 30.3,656.1 30.3,644.8 88.7,644.8 88.7,676.6 77.8,676.6 
		77.8,715.4 30.3,715.4 30.3,709.7 27.8,709.7 27.8,691.8 30.3,691.8 	"/>
	<polygon class="st10" points="30.3,668.9 27.8,668.9 27.8,656.1 30.3,656.1 30.3,644.8 88.7,644.8 88.7,676.6 77.8,676.6 
		77.8,715.4 30.3,715.4 30.3,709.7 27.8,709.7 27.8,691.8 30.3,691.8 	"/>
	<polygon class="st6" points="30.3,762 27.8,762 27.8,774.8 30.3,774.8 30.3,786.1 88.7,786.1 88.7,754.2 77.8,754.2 77.8,715.4 
		30.3,715.4 30.3,721.1 27.8,721.1 27.8,739.1 30.3,739.1 	"/>
	<polygon class="st6" points="195,668.9 197.4,668.9 197.4,656.1 195,656.1 195,644.8 136.5,644.8 136.5,676.6 147.4,676.6 
		147.4,715.4 195,715.4 195,709.7 197.4,709.7 197.4,691.8 195,691.8 	"/>
	<polygon class="st10" points="195,668.9 197.4,668.9 197.4,656.1 195,656.1 195,644.8 136.5,644.8 136.5,676.6 147.4,676.6 
		147.4,715.4 195,715.4 195,709.7 197.4,709.7 197.4,691.8 195,691.8 	"/>
	<polygon class="st6" points="195,762 197.4,762 197.4,774.8 195,774.8 195,786.1 136.5,786.1 136.5,754.2 147.4,754.2 147.4,715.4 
		195,715.4 195,721.1 197.4,721.1 197.4,739.1 195,739.1 	"/>
	<polygon class="st10" points="195,762 197.4,762 197.4,774.8 195,774.8 195,786.1 136.5,786.1 136.5,754.2 147.4,754.2 
		147.4,715.4 195,715.4 195,721.1 197.4,721.1 197.4,739.1 195,739.1 	"/>
	<polyline class="st11" points="30.2,787.2 30.3,774.8 27.8,774.8 27.8,762 30.3,762 30.3,739.1 27.8,739.1 27.8,721.1 30.3,721.1 
		30.3,715.4 77.8,715.4 	"/>
	<polyline class="st12" points="29,786.1 88.7,786.1 88.7,754.2 77.8,754.2 77.8,714.2 	"/>
</g>
<g>
	<path class="st0" d="M561.2,653.5h-9.1l0.2-2.1h8.7L561.2,653.5z M606.7,653.5h-9.1l0.3-2.1h8.7L606.7,653.5z M606.3,648.2
		L606.3,648.2h-8.1h-3.4v3.2v9.6h1.9l0.8-6.4h9.3l0.6,6.4h2.2v-9.6v-2.1v-1.1v-17h-2.2L606.3,648.2z M601.1,640.9v-3.4
		c0-0.5-0.4-0.9-0.9-0.9h-41.3c-0.5,0-0.9,0.4-0.9,0.9v3.4c0,0.5,0.4,0.9,0.9,0.9h11.7v2.1h4.2v15.8v0.1h-4.2v2.1h6.3h5.3h6.3v-2.1
		h-4.2v-0.1V644h4.2v-2.1h11.7C600.6,641.8,601.1,641.4,601.1,640.9z M552.5,648.2L552.5,648.2l-1.1-17h-1.9v17v1.1v2.1v9.6h1.9
		l0.6-6.4h9.3l0.8,6.4h1.1v-6.9v-2.7v-3.2h-2.7L552.5,648.2L552.5,648.2z"/>
	<text transform="matrix(0.9886 0 0 1 541.0029 685.7178)" class="st0 st1 st5">COMEDOR</text>
</g>
<g>
	<path class="st0" d="M597,773.7v-2.5h-15h-2.5H577h-15v2.5h-5v-2.5h-5v-58.1h25h5h25v58.1h-2.5H602v2.5H597z M572,740.9v5h-5v-5
		H572z M589.5,753.9c0.9,0.3,1.8,0.9,2.5,1.5c0.7-0.7,1.6-1.2,2.5-1.5v-23.6c-0.9-0.3-1.8-0.8-2.5-1.5c-0.7,0.7-1.6,1.2-2.5,1.5
		V753.9z M589.5,761.1L589.5,761.1L589.5,761.1c0-0.7-0.3-1.4-0.7-1.8c-0.5-0.5-1.1-0.7-1.8-0.7h-2.5v-32.8h2.5l0,0
		c0.7,0,1.3-0.3,1.7-0.7c0.4-0.5,0.7-1.1,0.7-1.8l0,0h2.3l2.5-0.9l0.2,0.5v0.5c0,0.7,0.3,1.3,0.7,1.8c0.5,0.5,1.1,0.7,1.8,0.7h2.5
		v32.8H597c-0.7,0-1.3,0.3-1.8,0.7c-0.5,0.5-0.7,1.1-0.7,1.8v1l-4,4H602v-48h-20v48h7.5V761.1z M557,766.2h20v-48h-20V766.2z"/>
	<text transform="matrix(0.9886 0 0 1 541.1943 789.9043)" class="st0 st1 st5">VESTIDOR</text>
</g>
<g>
	<path class="st0" d="M302.5,733c0.2,1.5,0.5,3,1,4.4c-1.8-0.4-3.1-1.1-3.1-2.1C300.3,734,300.6,733.4,302.5,733 M356.6,735.4
		c-0.1,1-1.6,1.7-3.7,2.1c0.5-1.4,0.8-2.8,1-4.4C355.9,733.4,356.7,734.1,356.6,735.4z M303.3,727.4c0-3.8,10-7.9,24.9-7.9
		s24.9,4.1,24.9,7.9l0,0c0,1-0.7,2-1.9,3c-0.1,0.1-0.2,0.2-0.3,0.2c-3.7,2.6-11.9,4.7-22.7,4.7C313.3,735.3,303.3,731.2,303.3,727.4
		L303.3,727.4z M312.7,724.7l-0.1,4.7c-2.8-0.8-4.3-1.7-4.3-2.3C308.2,726.4,309.8,725.5,312.7,724.7z M337.2,723.3
		c1.5,0.2,2.9,0.4,4.1,0.6l-0.1,6.2c-1.2,0.2-2.6,0.4-4.1,0.6L337.2,723.3z M334,730.9c-1.1,0.1-2.3,0.1-3.5,0.1l0.1-8.3
		c1.2,0,2.4,0.1,3.5,0.2L334,730.9z M323.2,723c1.4-0.1,2.9-0.2,4.4-0.2l-0.1,8.3c-1.6,0-3-0.1-4.4-0.2L323.2,723z M320,730.7
		c-1.6-0.2-3.1-0.4-4.4-0.6l0.1-6.1c1.3-0.3,2.8-0.5,4.4-0.7L320,730.7z M344.2,729.4l0.1-4.8c2.9,0.8,4.6,1.8,4.6,2.4
		C348.9,727.7,347.3,728.6,344.2,729.4z M328.6,733.1c7.7,0,22.3-1.3,22.3-6.1c0-0.7-0.4-1.4-1-2c-3.1-2.8-12.4-4.3-21.3-4.3
		c-8,0-16.4,1.2-20.2,3.5c-1.3,0.8-2.1,1.8-2.1,2.8C306.2,731.9,320.8,733.1,328.6,733.1z M304.5,739.9c2.1,4.5,5.7,8.1,10.1,10.5
		l-6.8,16c-0.3,0.8,0,1.7,0.8,2c0.2,0.1,0.4,0.1,0.6,0.1c0.6,0,1.2-0.3,1.4-0.9l6.7-15.9c3.3,1.3,7,2.1,10.9,2.1
		c4,0,7.8-0.8,11.1-2.2l6.8,16c0.2,0.6,0.8,0.9,1.4,0.9c0.2,0,0.4,0,0.6-0.1c0.8-0.3,1.1-1.2,0.8-2l-6.8-16.2
		c4.3-2.4,7.8-6,9.9-10.4c4.1-0.8,7.7-2.7,7.8-4.9c0.1-2.4-2-3.8-5.6-4.4c0-0.2,0-0.5,0-0.7s0-0.4-0.1-0.6c0.3-0.6,0.5-1.2,0.5-1.9
		c0-5.9-13.4-9.5-26.4-9.5s-26.4,3.5-26.4,9.5c0,0.7,0.2,1.3,0.5,1.9c0,0.2-0.1,0.4-0.1,0.6c0,0.2,0,0.4,0,0.7
		c-3.6,0.5-5.1,1.9-5,4.4C297.3,737.2,300.6,739.1,304.5,739.9z"/>
	<text transform="matrix(0.9886 0 0 1 291.4287 789.9951)" class="st0 st1 st5">PARRILLA</text>
</g>
<image style="overflow:visible;enable-background:new    ;" width="500" height="578" xlink:href="20831019.png"  transform="matrix(0.959 0 0 0.959 21.8365 58.4312)">
</image>
</svg>
