<?xml version="1.0" encoding="utf-8"?>
<!-- Generator: Adobe Illustrator 27.9.0, SVG Export Plug-In . SVG Version: 6.00 Build 0)  -->
<svg version="1.1" id="Layer_1" xmlns="http://www.w3.org/2000/svg" xmlns:xlink="http://www.w3.org/1999/xlink" x="0px" y="0px"
	 viewBox="0 0 866 866" style="enable-background:new 0 0 866 866;" xml:space="preserve">
<style type="text/css">
	.st0{opacity:0.5;fill:#212E4C;enable-background:new    ;}
	.st1{opacity:0.5;fill-rule:evenodd;clip-rule:evenodd;fill:#212E4C;enable-background:new    ;}
	.st2{fill:#fff;}
	.st3{font-family: "Exo", sans-serif;font-weight: bolder;font-size:15px;}
	.st4{font-size:15px;}
	.st5{fill:#212E4C;}
	.st6{fill:#AFB3B3;}
	.st7{fill:#D5D8D5;}
	.st8{fill:#D0D3D0;}
</style>
<g>
	<path class="st0" d="M717.1,422.6c0-0.7-0.1-1.5-0.3-2.3c-0.2-0.9-0.4-1.8-0.6-2.7c-0.2-0.9-0.5-1.8-0.7-2.6
		c-0.2-0.8-0.5-1.5-0.7-2s-0.3-0.9-0.4-1h-13l0.6,9.4c0.2,2.7,0.9,4.7,2.1,6c1.2,1.3,2.8,1.9,4.8,1.9h2.3c1.4,0,2.5-0.3,3.4-0.9
		s1.5-1.4,1.9-2.4C716.9,425,717.1,423.9,717.1,422.6 M727.9,430.4c0,4.2-1.3,7.7-3.8,10.3c-2.5,2.6-6,4-10.4,4h-5
		c-4.2,0-7.7-1.5-10.5-4.5c-2.7-3-4.1-7.7-4.1-14V412h-3.9c-1.7,0-3.2,0.3-4.3,0.9s-2,1.8-2.5,3.5s-0.8,4.3-0.8,7.8V441h-9
		c-0.8-2.7-1.6-5.9-2.2-9.4c-0.6-3.6-0.9-7.9-0.9-13c0-4.7,0.6-8.6,1.7-11.9s3-5.8,5.7-7.5s6.5-2.6,11.3-2.6h38.1v12.2l-5.9,2.5
		c0.6,0.5,1.2,1.3,1.9,2.5s1.4,2.6,2.1,4.3c0.7,1.7,1.3,3.6,1.8,5.7C727.6,425.9,727.9,428.1,727.9,430.4z M714,511.6
		c0-3.1-0.3-5.7-1-7.8c-0.7-2.1-1.9-3.7-3.7-5c-1.8-1.2-4.3-2.1-7.6-2.7s-7.6-0.8-12.9-0.8c-5.6,0-10,0.3-13.4,0.8
		c-3.3,0.6-5.9,1.4-7.7,2.7c-1.8,1.2-3,2.9-3.6,5s-0.9,4.7-0.9,7.8c0,3,0.3,5.5,0.9,7.6c0.6,2.1,1.8,3.8,3.6,5.1s4.3,2.2,7.7,2.8
		c3.3,0.6,7.8,0.9,13.4,0.9c5.3,0,9.6-0.3,12.9-0.8c3.3-0.5,5.8-1.4,7.6-2.7s3-2.9,3.7-5.1C713.6,517.4,714,514.7,714,511.6z
		 M727.9,511.6c0,5.3-0.5,9.9-1.5,13.9s-2.9,7.3-5.6,10c-2.7,2.7-6.7,4.7-11.8,6s-11.9,2-20.1,2c-8.3,0-15-0.7-20.2-2
		c-5.2-1.4-9.2-3.4-11.9-6c-2.8-2.6-4.7-5.9-5.7-9.9s-1.6-8.6-1.6-13.9c0-5.3,0.5-9.9,1.6-13.9c1-4,3-7.3,5.7-9.9
		c2.8-2.6,6.8-4.6,11.9-5.9c5.2-1.3,11.9-2,20.2-2s15,0.7,20.1,2s9.1,3.3,11.8,5.9s4.6,5.9,5.6,9.9
		C727.4,501.7,727.9,506.3,727.9,511.6z M713.4,596.9v-15.6c0-3.2-0.9-5.7-2.8-7.6c-1.8-1.9-4.6-3.3-8.3-4.1
		c-3.7-0.9-8.2-1.3-13.7-1.3c-5,0-9.1,0.3-12.4,0.8c-3.2,0.6-5.8,1.4-7.6,2.5s-3.1,2.4-3.8,4.1c-0.7,1.6-1,3.5-1,5.7V597
		L713.4,596.9L713.4,596.9z M727.2,612.4H650v-32.7c0-5.2,0.9-9.6,2.8-13c1.8-3.5,4.5-6.2,7.9-8.3s7.5-3.5,12.3-4.3
		c4.7-0.8,9.9-1.3,15.6-1.3c8.7,0,15.9,1,21.6,3c5.7,2,10,5,12.8,8.9c2.8,4,4.2,9,4.2,15L727.2,612.4L727.2,612.4z M714,655.5
		c0-3.1-0.3-5.7-1-7.8s-1.9-3.7-3.7-5c-1.8-1.2-4.3-2.1-7.6-2.7c-3.3-0.6-7.6-0.8-12.9-0.8c-5.6,0-10,0.3-13.4,0.8
		c-3.3,0.6-5.9,1.4-7.7,2.7c-1.8,1.2-3,2.9-3.6,5s-0.9,4.7-0.9,7.8c0,3,0.3,5.5,0.9,7.6c0.6,2.1,1.8,3.8,3.6,5.1s4.3,2.2,7.7,2.8
		c3.3,0.6,7.8,0.9,13.4,0.9c5.3,0,9.6-0.3,12.9-0.8c3.3-0.5,5.8-1.4,7.6-2.7s3-2.9,3.7-5.1C713.6,661.2,714,658.6,714,655.5z
		 M727.9,655.5c0,5.3-0.5,9.9-1.5,13.9s-2.9,7.3-5.6,10c-2.7,2.7-6.7,4.7-11.8,6s-11.9,2-20.1,2c-8.3,0-15-0.7-20.2-2
		c-5.2-1.4-9.2-3.4-11.9-6c-2.8-2.6-4.7-5.9-5.7-9.9s-1.6-8.6-1.6-13.9c0-5.3,0.5-9.9,1.6-13.9c1-4,3-7.3,5.7-9.9
		c2.8-2.6,6.8-4.6,11.9-5.9c5.2-1.3,11.9-2,20.2-2s15,0.7,20.1,2s9.1,3.3,11.8,5.9c2.7,2.6,4.6,5.9,5.6,9.9
		C727.4,645.6,727.9,650.2,727.9,655.5z M727.2,729.9h-63.3V751H650v-57.9h13.9v21.3h63.3V729.9z"/>
	<path class="st0" d="M725.1,344.1l2.2-0.2c2.8-0.3,4.9-2.8,4.6-5.6c-0.3-2.8-2.8-4.9-5.6-4.6l-2.2,0.2L725.1,344.1z"/>
	<path class="st0" d="M722.2,344.4l-1-10.4c-1.4-0.2-3-0.8-4.6-1.4c-2.4-0.9-4.9-1.9-7.4-1.7c-7,0.6-9.8,4.7-9.5,8.2
		c0.2,2.4,3.2,8.5,13.9,7.5c2.4-0.2,3.9-0.8,5.4-1.3C720,345,721,344.6,722.2,344.4L722.2,344.4z"/>
	<path class="st0" d="M705.4,326.7l2.2,0.2c2.8,0.3,5.3-1.7,5.6-4.5s-1.7-5.3-4.5-5.6l-2.2-0.2L705.4,326.7z"/>
	<path class="st0" d="M697.9,328c-2.4,0.9-4.9,1.8-7.4,1.6c-7-0.7-9.8-4.8-9.4-8.3c0.3-2.4,3.3-8.5,14-7.3c2.4,0.2,3.9,0.8,5.4,1.3
		c1,0.4,2,0.7,3.2,1l-1.1,10.4C701.1,326.8,699.5,327.4,697.9,328L697.9,328z"/>
	<path class="st0" d="M679.6,344.1l2.2-0.2c2.8-0.3,4.9-2.8,4.6-5.6c-0.3-2.8-2.8-4.9-5.6-4.6l-2.2,0.2L679.6,344.1z"/>
	<path class="st0" d="M676.7,344.4l-1-10.4c-1.4-0.2-3-0.8-4.6-1.4c-2.4-0.9-4.9-1.9-7.4-1.7c-7,0.6-9.8,4.7-9.5,8.2
		c0.2,2.4,3.2,8.5,13.9,7.5c2.4-0.2,3.9-0.8,5.4-1.3C674.4,345,675.4,344.6,676.7,344.4L676.7,344.4z"/>
	<path class="st0" d="M659.8,326.7l2.2,0.2c2.8,0.3,5.3-1.7,5.6-4.5s-1.7-5.3-4.5-5.6l-2.2-0.2L659.8,326.7z"/>
	<path class="st0" d="M652.3,328c-2.4,0.9-4.9,1.8-7.4,1.6c-7-0.7-9.8-4.8-9.4-8.3c0.3-2.4,3.3-8.5,14-7.3c2.4,0.2,3.9,0.8,5.4,1.3
		c1,0.4,2,0.7,3.2,1l-1.1,10.4C655.5,326.8,653.9,327.4,652.3,328L652.3,328z"/>
</g>
<g>
	<path class="st1 blanco" d="M765.2,253.7c-59.9,0-108.5-48.6-108.5-108.5c0-16.6,3.7-32.3,10.4-46.4H42.9c-17,0-30.9,13.9-30.9,30.9v652.9
		c0,17,13.9,30.9,30.9,30.9h737.7c17,0,30.9-13.9,30.9-30.9V243.3C797.5,250,781.8,253.7,765.2,253.7z"/>
</g>
<path class="st1" d="M52.3,227.7h511.1c2.3,0,4.2-1.9,4.2-4.2v-84.9c0-2.3-1.9-4.2-4.2-4.2H52.3c-2.3,0-4.2,1.9-4.2,4.2v84.9
	C48.1,225.8,50,227.7,52.3,227.7"/>
<g>
	<path class="st2" d="M91.5,175.9v-9.8c0-1.1-0.9-2-2-2s-2,0.9-2,2v7.8h-5.9c-1.1,0-2,0.9-2,2s0.9,2,2,2h7.8
		C90.7,177.8,91.5,176.9,91.5,175.9z"/>
	<path class="st2" d="M111.1,156.3c-1.1,0-2,0.9-2,2v4.6c-4.3-6.6-11.7-10.5-19.6-10.5c-13,0-23.5,10.5-23.5,23.5
		c0,9.7,5.9,18.4,14.9,21.9c0.2,0.1,0.5,0.1,0.7,0.1l0,0c1.1,0,2-0.9,2-2c0-0.8-0.5-1.5-1.2-1.8C75,191.2,70,183.9,70,175.9
		c0-10.8,8.8-19.6,19.6-19.6c7,0,13.5,3.7,16.9,9.8h-5.2c-1.1,0-2,0.9-2,2s0.9,2,2,2h5.9c3.2,0,5.9-2.6,5.9-5.9v-5.9
		C113.1,157.2,112.2,156.3,111.1,156.3z"/>
	<text transform="matrix(1 0 0 1 89.0205 194.207)" class="st2 st3 st4">1min</text>
</g>
<path class="st1" d="M52.3,447.8h511.1c2.3,0,4.2-1.9,4.2-4.2v-84.9c0-2.3-1.9-4.2-4.2-4.2H52.3c-2.3,0-4.2,1.9-4.2,4.2v84.9
	C48.1,445.9,50,447.8,52.3,447.8"/>
<g>
	<path class="st2" d="M91.5,396v-9.8c0-1.1-0.9-2-2-2s-2,0.9-2,2v7.8h-5.9c-1.1,0-2,0.9-2,2s0.9,2,2,2h7.8
		C90.7,397.9,91.5,397,91.5,396z"/>
	<path class="st2" d="M111.1,376.4c-1.1,0-2,0.9-2,2v4.6c-4.3-6.6-11.7-10.5-19.6-10.5C76.5,372.5,66,383,66,396
		c0,9.7,5.9,18.4,14.9,21.9c0.2,0.1,0.5,0.1,0.7,0.1l0,0c1.1,0,2-0.9,2-2c0-0.8-0.5-1.5-1.2-1.8C75,411.3,70,404,70,395.9
		c0-10.8,8.8-19.6,19.6-19.6c7,0,13.5,3.7,16.9,9.8h-5.2c-1.1,0-2,0.9-2,2s0.9,2,2,2h5.9c3.2,0,5.9-2.6,5.9-5.9v-5.9
		C113.1,377.3,112.2,376.4,111.1,376.4z"/>
	<text transform="matrix(1 0 0 1 89.0205 414.3037)" class="st2 st3 st4">30min</text>
</g>
<path class="st1" d="M52.3,557.8h511.1c2.3,0,4.2-1.9,4.2-4.2v-84.9c0-2.3-1.9-4.2-4.2-4.2H52.3c-2.3,0-4.2,1.9-4.2,4.2v84.9
	C48.1,555.9,50,557.8,52.3,557.8"/>
<g>
	<path class="st2" d="M91.5,506v-9.8c0-1.1-0.9-2-2-2s-2,0.9-2,2v7.8h-5.9c-1.1,0-2,0.9-2,2s0.9,2,2,2h7.8
		C90.7,508,91.5,507.1,91.5,506z"/>
	<path class="st2" d="M111.1,486.5c-1.1,0-2,0.9-2,2v4.6c-4.3-6.6-11.7-10.5-19.6-10.5c-13,0-23.5,10.5-23.5,23.5
		c0,9.7,5.9,18.4,14.9,21.9c0.2,0.1,0.5,0.1,0.7,0.1l0,0c1.1,0,2-0.9,2-2c0-0.8-0.5-1.5-1.2-1.8C75,521.3,70,514.1,70,506
		c0-10.8,8.8-19.6,19.6-19.6c7,0,13.5,3.7,16.9,9.8h-5.2c-1.1,0-2,0.9-2,2s0.9,2,2,2h5.9c3.2,0,5.9-2.6,5.9-5.9v-5.9
		C113.1,487.3,112.2,486.5,111.1,486.5z"/>
	<text transform="matrix(1 0 0 1 89.0205 524.3525)" class="st2 st3 st4">1min</text>
</g>
<path class="st1" d="M52.3,337.7h511.1c2.3,0,4.2-1.9,4.2-4.2v-84.9c0-2.3-1.9-4.2-4.2-4.2H52.3c-2.3,0-4.2,1.9-4.2,4.2v84.9
	C48.1,335.8,50,337.7,52.3,337.7"/>
<g>
	<path class="st2" d="M91.5,285.9v-9.8c0-1.1-0.9-2-2-2s-2,0.9-2,2v7.8h-5.9c-1.1,0-2,0.9-2,2s0.9,2,2,2h7.8
		C90.7,287.9,91.5,287,91.5,285.9z"/>
	<path class="st2" d="M111.1,266.4c-1.1,0-2,0.9-2,2v4.6c-4.3-6.6-11.7-10.5-19.6-10.5C76.5,262.5,66,273,66,286
		c0,9.7,5.9,18.4,14.9,21.9c0.2,0.1,0.5,0.1,0.7,0.1l0,0c1.1,0,2-0.9,2-2c0-0.8-0.5-1.5-1.2-1.8C75,301.2,70,294,70,285.9
		c0-10.8,8.8-19.6,19.6-19.6c7,0,13.5,3.7,16.9,9.8h-5.2c-1.1,0-2,0.9-2,2s0.9,2,2,2h5.9c3.2,0,5.9-2.6,5.9-5.9v-5.9
		C113.1,267.2,112.2,266.4,111.1,266.4z"/>
	<text transform="matrix(1 0 0 1 89.0205 304.2554)" class="st2 st3 st4">5min</text>
</g>
<path class="st1" d="M52.3,667.9h511.1c2.3,0,4.2-1.9,4.2-4.2v-84.9c0-2.3-1.9-4.2-4.2-4.2H52.3c-2.3,0-4.2,1.9-4.2,4.2v84.9
	C48.1,666,50,667.9,52.3,667.9"/>
<g>
	<path class="st2" d="M91.5,616.1v-9.8c0-1.1-0.9-2-2-2s-2,0.9-2,2v7.8h-5.9c-1.1,0-2,0.9-2,2s0.9,2,2,2h7.8
		C90.7,618,91.5,617.1,91.5,616.1z"/>
	<path class="st2" d="M111.1,596.5c-1.1,0-2,0.9-2,2v4.6c-4.3-6.6-11.7-10.5-19.6-10.5c-13,0-23.5,10.5-23.5,23.5
		c0,9.7,5.9,18.4,14.9,21.9c0.2,0.1,0.5,0.1,0.7,0.1l0,0c1.1,0,2-0.9,2-2c0-0.8-0.5-1.5-1.2-1.8C75,631.4,70,624.1,70,616
		c0-10.8,8.8-19.6,19.6-19.6c7,0,13.5,3.7,16.9,9.8h-5.2c-1.1,0-2,0.9-2,2s0.9,2,2,2h5.9c3.2,0,5.9-2.6,5.9-5.9v-5.9
		C113.1,597.4,112.2,596.5,111.1,596.5z"/>
	<text transform="matrix(1 0 0 1 89.0205 634.4004)" class="st2 st3 st4">1min</text>
</g>
<path class="st1" d="M52.3,777.9h511.1c2.3,0,4.2-1.9,4.2-4.2v-84.9c0-2.3-1.9-4.2-4.2-4.2H52.3c-2.3,0-4.2,1.9-4.2,4.2v84.9
	C48.1,776,50,777.9,52.3,777.9"/>
<g>
	<path class="st2" d="M91.5,726.1v-9.8c0-1.1-0.9-2-2-2s-2,0.9-2,2v7.8h-5.9c-1.1,0-2,0.9-2,2s0.9,2,2,2h7.8
		C90.7,728.1,91.5,727.2,91.5,726.1z"/>
	<path class="st2" d="M111.1,706.6c-1.1,0-2,0.9-2,2v4.6c-4.3-6.6-11.7-10.5-19.6-10.5c-13,0-23.5,10.5-23.5,23.5
		c0,9.7,5.9,18.4,14.9,21.9c0.2,0.1,0.5,0.1,0.7,0.1l0,0c1.1,0,2-0.9,2-2c0-0.8-0.5-1.5-1.2-1.8c-7.4-3-12.4-10.2-12.4-18.3
		c0-10.8,8.8-19.6,19.6-19.6c7,0,13.5,3.7,16.9,9.8h-5.2c-1.1,0-2,0.9-2,2s0.9,2,2,2h5.9c3.2,0,5.9-2.6,5.9-5.9v-5.9
		C113.1,707.4,112.2,706.6,111.1,706.6z"/>
	<text transform="matrix(1 0 0 1 89.0205 744.4482)" class="st2 st3 st4">1min</text>
</g>
<text transform="matrix(1 0 0 1 149.8147 188.7534)" class="st2 st3 st4">COLEGIO CRISTO REY</text>
<text transform="matrix(1 0 0 1 149.8147 286.4282)" class="st2 st3 st4">UNIVERSIDAD AUTÓNOMA DE</text>
<text transform="matrix(1 0 0 1 149.8147 304.4282)" class="st2 st3 st4">ASUNCIÓN</text>
<text transform="matrix(1 0 0 1 149.8147 405.4766)" class="st2 st3 st4">PARQUE ANTONIO LÓPEZ SAJONIA</text>
<text transform="matrix(1 0 0 1 149.8148 515.5244)" class="st2 st3 st4">CASCO HISTORICO</text>
<text transform="matrix(1 0 0 1 149.8151 625.5728)" class="st2 st3 st4">COSTANERA DE ASUNCIÓN</text>
<text transform="matrix(1 0 0 1 149.8152 735.6211)" class="st2 st3 st4">OFICINAS ESTATALES Y ADUANA</text>
<g>
	<path class="st2" d="M532.4,208.4c-0.6,0-1.1,0-1.7,0c-0.2,0-0.3,0-0.5,0c0-0.2,0-0.4,0-0.5c0-8.8,0-17.5,0-26.3
		c0-0.9-0.5-1.3-1.3-1.3c-3.7,0-7.3,0-11,0c-0.2,0-0.4,0-0.6,0c0-1.5,0-2.8,0-4.3c0.4,0.4,1,0.3,1.3,0.1c0.5-0.3,0.5-0.7,0.7-1
		c-0.1-0.3-0.1-0.7-0.2-0.8c-0.5-0.4-1-0.8-1.5-1.1s-1-0.6-1.5-0.9c-0.5-0.3-1-0.7-1.5-1c-0.3-0.2-0.7-0.3-0.9-0.6
		c-0.3-0.5-0.8-0.6-1.2-0.8c-0.5-0.3-1-0.7-1.5-1s-1-0.6-1.4-0.9c-0.4-0.2-0.8-0.4-1.1-0.6c-0.3-0.2-0.6-0.6-1-0.8
		c-0.6-0.4-1.2-0.7-1.7-1.1c-0.4-0.2-0.7-0.5-1.1-0.8c-0.4-0.2-0.8-0.4-1.1-0.7c-0.2-0.1-0.4-0.3-0.4-0.4c-0.1-0.4,0-0.9,0-1.3
		c0.2,0,0.4,0,0.6,0c2.1,0,4.2,0,6.3,0c0.9,0,1.9,0.2,2.8-0.2c0.4-0.2,0.7-0.5,0.8-0.9c0.1-0.8-0.5-1.2-0.7-1.9
		c-0.1-0.2-0.2-0.4-0.3-0.6c-0.2-0.3-0.4-0.5-0.5-0.7s-0.3-0.5-0.4-0.7c-0.1-0.1-0.1-0.4-0.1-0.5c0.5-0.5,0.6-1.2,1.1-1.7
		c0.3-0.4,0.6-0.8,0.8-1.3c0.1-0.4,0.1-0.9-0.1-1.3c-0.3-0.4-0.8-0.6-1.3-0.6c-3,0-5.9,0-8.9,0c-0.2,0-0.5-0.1-0.7-0.3
		c-0.2-0.1-0.3-0.3-0.5-0.4c-0.5-0.2-0.9,0.2-1.3,0.5c-0.3,0.2-0.3,0.6-0.3,0.9c0,3.5,0,7,0,10.5c0,0.3,0,0.5-0.4,0.6
		c-0.4,0.2-0.7,0.5-1,0.7c-0.5,0.3-1,0.6-1.5,0.9c-0.3,0.2-0.7,0.4-1,0.6c-0.4,0.3-0.7,0.6-1,0.8c-0.5,0.4-1,0.7-1.6,1.1
		c-0.1,0.1-0.3,0.2-0.5,0.3c-0.4,0.2-0.8,0.4-1.2,0.7c-0.4,0.3-0.9,0.6-1.3,0.9c-0.5,0.4-1.1,0.8-1.6,1.1c-0.3,0.2-0.7,0.4-1,0.6
		c-0.4,0.2-0.8,0.4-1.1,0.7c-0.4,0.3-0.8,0.7-1.3,0.9s-1,0.6-1.4,0.9c-0.4,0.2-0.7,1.3-0.4,1.7c0.5,0.7,1.2,0.9,1.9,0.3
		c0,1.4,0,2.8,0,4.2c-0.2,0-0.4,0-0.6,0c-3.7,0-7.4,0-11.1,0c-0.4,0-0.8,0.1-1,0.4c-0.2,0.3-0.4,0.6-0.4,1.1c0,8.7,0,17.4,0,26.2
		c0,0.2,0,0.4,0,0.6c-0.7,0-1.4,0-2,0c-0.4,0-0.9-0.1-1.2,0.4c-0.2,0.3-0.5,1.1-0.3,1.3c0.4,0.5,0.8,0.9,1.5,0.9
		c20.2,0,40.4,0,60.6,0c0.6,0,1.1,0.1,1.7-0.2c0.3-0.2,0.5-0.4,0.6-0.7C533.9,209,533.4,208.4,532.4,208.4z M503,154.2
		c2.3,0,4.7,0,7,0c-0.5,0.9-0.9,1.8-1.4,2.7c0.5,0.9,0.9,1.8,1.4,2.7c-2.4,0-4.7,0-7.1,0C503,157.8,503,156,503,154.2z M480.3,208.4
		c-1.6,0-3.1,0-4.7,0c0-4.6,0-9.1,0-13.7c1.6,0,3.1,0,4.7,0C480.3,199.2,480.3,203.8,480.3,208.4z M486,208.4c-1.1,0-2,0-3.1,0
		c0-4.6,0-9.1,0-13.7c1,0,2,0,3.1,0C486,199.2,486,203.8,486,208.4z M486,192c-3.5,0-7,0-10.5,0c0-3.1,0-6.1,0-9.2
		c3.5,0,6.9,0,10.5,0C486,185.9,486,188.9,486,192z M506.9,207.9c0,0.2,0,0.3,0,0.5c-0.2,0-0.4,0-0.6,0c-3.2,0-6.4,0-9.6,0
		c-0.6,0-0.6,0-0.6-0.6c0-3,0-5.9,0-8.9c0-0.7,0.2-1.3,0.5-2c0.1-0.3,0.2-0.6,0.3-0.8c0.5-0.5,0.8-1.3,1.6-1.6
		c0.5-0.2,0.8-0.6,1.3-0.7c0.7-0.2,1.4-0.3,2-0.3c0.7,0,1.4,0.2,2,0.5c0.8,0.4,1.7,0.9,2.1,1.7c0.3,0.5,0.5,1.1,0.7,1.6
		c0.3,1,0.2,2.1,0.2,3.1C507,203,506.9,205.5,506.9,207.9z M514.6,175.2c0,10.9,0,21.8,0,32.6c0,0.2,0,0.4,0,0.6c-1.7,0-3.3,0-5,0
		c0-0.2,0-0.4,0-0.6c0-3.1,0-6.2,0-9.3c0-0.7-0.3-1.4-0.5-2.1c-0.1-0.3-0.2-0.7-0.3-1c-0.2-0.4-0.4-0.7-0.7-1
		c-0.2-0.3-0.5-0.6-0.8-0.9c-0.3-0.3-0.6-0.6-0.9-0.9c-0.4-0.3-0.7-0.5-1.1-0.8c-0.3-0.1-0.6-0.2-0.9-0.3c-0.6-0.1-1.1-0.2-1.7-0.3
		c-0.3,0-0.5-0.1-0.8-0.1c-0.1,0-0.1,0-0.2,0c-0.3,0-0.6,0.1-0.9,0.1c-0.8,0-1.5,0.2-2.2,0.5c-0.5,0.3-1,0.4-1.5,0.7
		c-0.4,0.3-0.7,0.7-1,1s-0.6,0.6-0.9,1s-0.5,0.8-0.7,1.3c-0.2,0.3-0.3,0.7-0.5,1v0.1c-0.1,0.7-0.3,1.4-0.3,2.1c0,3,0,5.9,0,8.9
		c0,0.2,0,0.4,0,0.6c-1.7,0-3.4,0-5.1,0c0-0.2,0-0.4,0-0.5c0-11.1,0-22.2,0-33.2c0-0.3,0.4-0.8,0.8-1c0.2-0.1,0.4-0.2,0.5-0.3
		c0.6-0.4,1.2-0.9,1.9-1.3c0.5-0.3,1.1-0.5,1.6-0.9c0.3-0.3,0.8-0.3,1-0.8c0.2-0.3,0.6-0.4,1-0.6c0.5-0.3,1-0.6,1.5-0.9
		c0.4-0.2,0.7-0.5,1.1-0.7c0.5-0.3,1-0.6,1.5-0.9c0.2-0.1,0.5-0.3,0.7-0.5c0.6-0.4,1.1-0.8,1.6-1.1c0.5,0.3,0.9,0.5,1.2,0.8
		c0.6,0.5,1.2,1,1.8,1.4c0.5,0.2,0.9,0.6,1.4,0.9c0.5,0.3,1,0.7,1.5,1c0.4,0.3,0.8,0.5,1.3,0.7c0.2,0.1,0.3,0.3,0.4,0.4
		c0.7,0.5,1.4,0.9,2.1,1.4c0.8,0.5,1.5,1,2.2,1.6c0.1,0.1,0.3,0.2,0.4,0.2C514.6,174.1,514.6,174.6,514.6,175.2z M517.2,182.8
		c3.4,0,6.9,0,10.3,0c0,3.1,0,6.1,0,9.2c-3.5,0-6.9,0-10.3,0C517.2,189,517.2,185.9,517.2,182.8z M520.2,208.4c-1,0-2,0-3.1,0
		c0-4.6,0-9.1,0-13.7c1,0,2,0,3.1,0C520.2,199.3,520.2,203.8,520.2,208.4z M527.5,208.4c-1.6,0-3.1,0-4.7,0c0-4.6,0-9.1,0-13.8
		c1.6,0,3.1,0,4.7,0C527.5,199.2,527.5,203.8,527.5,208.4z"/>
	<path class="st2" d="M506.6,173.5c-1.4-1.2-3.1-1.8-5.5-1.8c-2.2,0.2-4.4,1.1-6,3.4c-0.9,1.4-1.4,2.9-1.4,4.5
		c0,2.6,1.2,4.8,3.3,6.4c1.3,1,2.9,1.3,4.6,1.5c1-0.4,2.1-0.3,3.1-0.7s1.7-1.1,2.4-1.7c0.7-0.7,1.4-1.5,1.7-2.4c0.4-1,0.7-2,0.7-3.1
		C509.5,177.1,508.4,175.1,506.6,173.5z M506.9,180.1c0,0.2-0.4,1.2-0.5,1.5c-0.1,0.5-0.3,0.9-0.6,1.2c-0.4,0.4-0.7,0.9-1.2,1.1
		c-0.5,0.2-0.9,0.6-1.3,0.7c-0.6,0.2-1.3,0.3-2,0.3c-0.4,0-0.8-0.1-1.2-0.2c-0.5-0.2-0.9-0.4-1.4-0.7c-0.4-0.3-0.8-0.6-1.1-0.9
		c-0.4-0.5-0.8-0.9-1-1.6c-0.2-0.7-0.6-1.4-0.4-2.2c0.1-0.6,0.1-1.2,0.4-1.7c0.2-0.2,0.2-0.6,0.4-0.8c0.2-0.3,0.5-0.6,0.7-0.8
		c0.4-0.4,0.8-0.7,1.3-1.1c0.3-0.2,0.6-0.2,1-0.3c0.1,0,0.2,0,0.2,0c0.3-0.5,0.9-0.2,1.2-0.3c0.4,0,0.6,0,0.8,0
		c0.2,0,0.3,0.1,0.5,0.2c0.1,0,0.2,0.1,0.3,0.1c0.6,0,1.1,0.4,1.5,0.8c0.5,0.4,0.9,0.8,1.3,1.2c0.1,0.1,0.2,0.3,0.3,0.5
		c0.1,0.3,0.2,0.7,0.4,1C507,178.7,506.9,179.4,506.9,180.1z"/>
	<path class="st2" d="M503.3,179.1c-0.1,0-0.3-0.2-0.4-0.4s0-0.5,0-0.7c0-0.5-0.2-0.9-0.5-1.3c-0.3-0.3-0.9-0.6-1.3-0.3
		s-0.9,0.5-0.8,1.1c0.1,0.5,0,0.9,0,1.4l0,0c0,0.5,0,1.1,0,1.6s0.4,0.9,0.8,0.9c0.7,0,1.5,0,2.2,0c0.3,0,0.9-0.5,0.9-0.8
		C504.5,179.7,504.1,179.2,503.3,179.1z"/>
</g>
<path class="st2" d="M517.8,306.5c-0.5,0.2-0.9,0.3-1.2,0.4c-4.5,2-9,4-13.5,6c-1,0.4-1.8,0.4-2.8,0c-7.9-3.6-15.9-7.1-23.8-10.6
	c-1.3-0.6-1.8-1.4-1.8-2.8c0.1-4.5,0-9,0-13.6c0-0.9-0.2-1.4-1.1-1.7c-2.7-1.2-5.4-2.4-8.1-3.6c-0.9-0.4-1.6-0.9-1.6-2
	c0-1.2,0.8-1.7,1.7-2.1c11.3-5,22.6-9.9,33.8-14.9c1.3-0.6,2.3-0.6,3.6,0c11.4,5.1,22.7,10.2,34.1,15.3c0.6,0.2,1.1,0.6,1.5,1
	c0.9,1,0.4,2.4-1.1,3.1c-2.7,1.2-5.5,2.5-8.3,3.6c-0.8,0.3-1.1,0.8-1.1,1.7c0,4.6,0,9.1,0,13.7c0,1.6-0.3,2.1-1.8,2.7
	c-1.3,0.6-2.6,1.2-3.9,1.7c-0.6,0.2-0.8,0.6-0.8,1.2c0,1.7,0,3.4,0,5.1c0,0.7,0.2,1.1,0.8,1.5c1.8,1.2,2.6,3.5,2,5.6
	c-0.7,2.2-2.6,3.5-5,3.5c-2.1,0-4-1.5-4.6-3.5c-0.6-2.1,0.2-4.3,2-5.5c0.6-0.4,0.9-0.9,0.8-1.6C517.8,309.2,517.8,307.9,517.8,306.5
	z M514.8,286.6c-0.6-0.3-0.8-0.5-1.1-0.6c-4.6-2.1-9.2-4.1-13.8-6.2c-0.5-0.2-1.1-0.5-1.6-0.7c-0.8-0.5-1.2-1.4-1-2.3s1-1.5,2.1-1.3
	c0.5,0.1,1.1,0.3,1.6,0.5c6,2.7,12,5.4,18.1,8c0.5,0.2,1.2,0.2,1.6,0c3.4-1.4,6.8-3,10.1-4.4c0.4-0.2,0.8-0.4,1.3-0.6
	c-0.4-0.2-0.6-0.4-0.8-0.5c-9.8-4.4-19.6-8.8-29.4-13.1c-0.4-0.2-1-0.1-1.3,0c-9.5,4.2-19,8.3-28.5,12.5c-0.3,0.1-0.6,0.3-1,0.6
	c0.3,0.2,0.4,0.3,0.5,0.3c9.9,4.4,19.7,8.8,29.6,13.2c0.4,0.2,1,0.1,1.5-0.1c2.7-1.1,5.4-2.3,8.1-3.5
	C511.9,287.9,513.2,287.3,514.8,286.6z M517.8,289.7c-0.5,0.2-0.8,0.3-1.1,0.4c-4.6,2-9.2,4-13.7,6.1c-0.9,0.4-1.7,0.4-2.7,0
	c-6.8-3.1-13.7-6.1-20.5-9.2c-0.3-0.1-0.7-0.3-1.1-0.4c-0.1,0.3-0.1,0.5-0.1,0.6c0,3.7,0,7.3,0,11c0,0.4,0.4,0.9,0.8,1.1
	c7.1,3.2,14.2,6.4,21.4,9.5c0.5,0.2,1.2,0.2,1.6,0c4.8-2.1,9.6-4.2,14.4-6.3c0.7-0.3,0.9-0.7,0.9-1.4c0-2.6,0-5.2,0-7.9
	C517.8,292.1,517.8,291,517.8,289.7z M521.8,300.2c0.5-0.2,0.7-0.3,1-0.3c1.2-0.3,1.6-1,1.5-2.3c-0.1-3.2,0-6.4,0-9.6
	c0-0.3-0.1-0.7-0.1-1.1c-0.4,0.1-0.6,0.2-0.8,0.3c-1.9,0.8-1.6,0.5-1.6,2.4c0,3.1,0,6.2,0,9.3C521.7,299.3,521.8,299.7,521.8,300.2z
	 M519.7,314.7c-0.5,0.7-0.9,1.1-0.9,1.4c0,0.4,0.5,0.9,0.9,1c0.6,0.1,1.1-0.3,1-1C520.6,315.7,520.2,315.4,519.7,314.7z"/>
<path class="st2" d="M481.9,406.4c-2.5,1.5-5,1.7-7.5,0.3c-2.5-1.4-3.5-3.6-3.4-6.4c-1.5-0.2-2.9-0.8-4-1.8c-1-0.9-1.6-2.2-1.8-3.5
	c-0.3-1.6,0.3-3,1.2-4.3c-0.7-0.7-1.5-1.4-2.1-2.2c-0.4-0.6-0.6-1.5-0.8-2.3c-0.2-1.3,0-2.6,0.7-3.8c0.3-0.5,0.8-1,1.3-1.4
	c0.4-0.3,0.8-0.6,1.2-0.9c0.1-0.1,0.1-0.4,0-0.6c-0.1-0.6-0.5-1.3-0.4-1.8c0.1-1.1,0.3-2.1,1-3.1c0.4-0.6,0.9-1.2,1.4-1.7
	c0.9-0.7,1.9-1.1,3-1.3c0.7-0.1,1.3-0.4,2-0.2c1.1,0.2,2.2,0.5,3.2,1c0.7,0.3,1.2,1,1.8,1.6c0.1,0.1,0.3,0.1,0.5,0.1
	c0.6-0.3,1.2-0.7,1.8-1c0.3-0.1,0.5-0.2,0.8-0.3c0.7-0.1,1.5-0.4,2.2-0.3c1.2,0.2,2.3,0.6,3.5,1c0.1,0,0.2,0.2,0.4,0.4
	c0.6,0.5,1.1,0.5,1.9,0.3c1-0.3,2.1-0.5,3.2-0.2c0.7,0.2,1.4,0.1,2.1,0.5c0.6,0.4,1.2,0.9,1.9,1.3c0.9,0.6,1.2,1.6,1.6,2.5
	c0.3,0.6,0.2,1.4,0.2,2.1c0,0.5-0.2,1.1-0.3,1.6c0,0.1-0.2,0.2-0.2,0.4c0,0.2,0,0.5,0.1,0.6c0.8,0.7,1.4,1.5,1.6,2.6
	c0.1,0.9,0.3,1.8,0.2,2.6c-0.1,0.8-0.1,1.6-0.9,2.1l-0.1,0.1c0,0.1,0,0.2,0,0.2c0.6,0.5,1.2,0.9,1.8,1.3c0.6,0.5,0.9,1.2,1.2,1.8
	c0.8,1.4,0.8,2.8,0.3,4.2c-0.3,0.7-0.6,1.4-1.2,2.1c-0.6,0.6-1.2,1-1.8,1.6c-0.3,0.3-0.8,0.4-1.2,0.5c-1.3,0.3-2.7,0.5-4,0.1
	c-0.3-0.1-0.6-0.1-0.8,0.4c-0.3,1-0.8,1.9-1.7,2.7c-1,0.9-2.1,1.6-3.5,1.8c-1.3,0.2-2.5,0.1-3.7-0.2c-0.1,0-0.2,0-0.3,0
	c0,0.2,0,0.4,0,0.5c0,7.1,0,14.2,0,21.3c0,0.5,0.1,0.6,0.6,0.6c3.5,0,7,0,10.6,0c0.4,0,0.5-0.1,0.5-0.5c0-1.3,0-2.7,0-4
	c0-0.4-0.1-0.5-0.5-0.5s-0.7,0-1.1,0c-0.5,0-0.9-0.4-0.9-0.9c0-0.7,0-1.3,0-2c0-1.1,1-2.3,2.1-2.5c0.7-0.2,1.4-0.3,2.2-0.5
	c0-0.1,0-0.3,0-0.5c0-3.8,0-7.6,0-11.5c0-1,0.5-1.4,1.3-1.3c1.1,0,2.1,0,3.2,0c0.7,0,1,0.4,1,1c0,0.7,0,1.4,0,2.2c0.3,0,0.5,0,0.7,0
	c7,0,13.9,0,20.9,0c0.7,0,0.7,0,0.7-0.7c0-0.5,0-1,0-1.5c0-0.6,0.4-1,1-1c1.1,0,2.3,0,3.4,0c0.8,0,1.1,0.4,1.1,1.1
	c0,3.9,0,7.8,0,11.6c0,0.2,0,0.4,0,0.6c0.2,0,0.3,0.1,0.4,0.1c1.2-0.2,2.2,0.5,3,1.1c0.5,0.3,0.7,1.1,0.8,1.8c0.1,0.6,0,1.3,0,2
	c0,0.6-0.4,0.9-1,0.9h-0.1c-1.4,0-1.4,0-1.4,1.4c0,1,0,2.1,0,3.1c0,0.4,0.1,0.5,0.5,0.5c1.7,0,3.4,0,5.1,0c0.4,0,1,0.6,1,1.1
	c0,0.4-0.5,0.9-0.8,1c-0.2,0-0.3,0-0.5,0c-20.4,0-40.8,0-61.2,0c-0.3,0-0.8-0.1-1-0.3c-0.2-0.2-0.3-0.7-0.2-1
	c0.1-0.3,0.3-0.7,0.9-0.7c1.6,0,3.2,0,4.8,0c0.4,0,0.6-0.1,0.6-0.6c0-7.2,0-14.5,0-21.7C482,406.7,481.9,406.6,481.9,406.4z
	 M484.2,389c0.3-0.1,0.4-0.2,0.6-0.3c0.5-0.3,0.9-0.7,1.4-1c0.2-0.2,0.5-0.2,0.8-0.4c0.6-0.4,1.1-0.9,1.7-1.3
	c0.4-0.3,0.9-0.5,1.3-0.8c0.3-0.1,0.7-0.3,0.8-0.2c0.3,0.2,0.8,0.3,0.9,0.9c0,0.7-0.4,1.2-1.2,1.6c-0.8,0.4-1.6,1-2.4,1.5
	c-0.6,0.4-1.1,0.9-1.7,1.3c-0.7,0.5-1.4,0.9-2.1,1.3c-0.1,0-0.1,0.2-0.1,0.3c0,1.2,0,2.3,0,3.5l0.1,0.1c0.2-0.2,0.4-0.4,0.7-0.6
	c0.9-0.6,1.9-1.3,2.9-1.9c0.4-0.3,0.8-0.5,1.1-0.8c0.5-0.5,1.1-0.8,1.9-0.6c0.3,0.1,0.6,0.4,0.7,0.7c0.1,0.4,0.1,0.9-0.4,1.2
	c-0.7,0.4-1.4,1-2.1,1.5c-0.8,0.5-1.5,1.1-2.3,1.7c-0.7,0.5-1.5,1-2.2,1.5c-0.3,0.2-0.3,0.3-0.3,0.6c0,1.6,0,3.1,0,4.7
	c0,0.5,0.4,1.1,0.9,1.2c1.4,0.4,2.9,0.5,4.2-0.4c0.5-0.4,1-0.8,1.4-1.2c0.6-0.8,0.9-1.7,0.8-2.7c-0.1-0.8,0.5-1.3,1.2-1.1
	c0.3,0.1,0.6,0.2,0.9,0.4c1.4,0.7,2.9,0.8,4.4,0.2c0.8-0.3,1.5-0.8,1.8-1.7c0.2-0.4,0.4-0.8,0.5-1.2c0.1-0.4,0.3-0.9,0.2-1.2
	c-0.3-0.9-0.5-1.8-1.3-2.4c-0.5-0.4-1.1-0.7-1.7-1c-0.4-0.2-0.8-0.3-1.1-0.5c-0.4-0.2-0.5-0.6-0.3-1c0.2-0.3,0.4-0.5,0.7-0.8
	c0.7-0.8,1.2-1.7,1.2-2.8c0-0.9-0.3-1.8-1-2.4c-0.2-0.3-0.4-0.6-0.7-0.7c-0.7-0.3-1-1.1-0.5-1.8c0.3-0.4,0.7-0.9,0.7-1.4
	c0.1-0.7,0.1-1.4-0.2-2.2c-0.5-1.1-1.1-1.9-2.1-2.3c-1.5-0.6-3.1-0.7-4.6,0.3c-0.2,0.2-0.6,0.2-0.9,0.3c-0.7,0.2-1-0.4-1.3-0.8
	c-0.9-0.9-1.9-1.5-3.1-1.5c-0.7,0-1.4,0-2,0.2c-0.9,0.3-1.8,0.9-2.2,1.8c-0.3,0.5-0.8,0.7-1.2,0.9c-0.3,0.1-1.1-0.6-1.2-1.1
	c-0.1-0.6-0.5-1-0.9-1.5c-0.5-0.7-1.2-1.2-2.1-1.3c-1.2-0.2-2.4-0.2-3.5,0.3c-0.7,0.3-1.2,1-1.7,1.6c-0.8,1-0.5,2.1-0.5,3.2
	c0,0.2,0.2,0.4,0.3,0.6c0.4,0.4,0.6,1,0.4,1.4s-0.7,0.8-1.1,0.9c-1,0.3-1.7,1.1-2.1,1.9s-0.5,1.7-0.3,2.7c0.3,1.3,1.2,2,2.1,2.7
	c0.4,0.3,0.8,0.4,1.2,0.6c0.5,0.2,0.4,1.1,0.1,1.4s-0.6,0.6-0.8,0.8c-0.7,0.6-0.9,1.5-0.9,2.3c0,0.7,0.2,1.4,0.7,2.1
	c0.4,0.6,0.8,1,1.4,1.4c0.9,0.5,1.9,0.7,3,0.7s1.5,0.7,1.1,1.7c-0.2,0.5-0.3,1.1-0.2,1.7c0.1,0.9,0.3,1.7,1,2.4c0.5,0.5,1,1,1.7,1.1
	c1,0.1,2,0.2,3,0.2c0.5,0,1-0.4,1.5-0.7c0.3-0.2,0.5-0.5,0.8-0.7c0.2-0.2,0.4-0.3,0.4-0.7c0-2.6,0-5.2,0-7.8c0-0.1,0-0.3-0.1-0.4
	c-0.5-0.4-1-0.8-1.6-1.2c-0.7-0.5-1.4-0.9-2.1-1.4c-0.6-0.4-1.2-0.9-1.8-1.3c-0.5-0.4-1-0.7-1.4-1.1c-0.5-0.4-0.2-1.6,0.5-1.6
	c0.1,0,0.3-0.1,0.5-0.3c1.9,1.3,4,2.7,6.1,4.1c0-0.3,0-0.5,0-0.7c0-2.1,0-4.2,0-6.3c0-0.6,0.5-1.1,1-1.2c0.7-0.1,1.2,0.4,1.3,1.2
	C484.2,386.4,484.2,387.6,484.2,389z M514.4,424c-4,0-7.9,0-11.9,0c-0.5,0-0.7,0.1-0.7,0.7c0,1.2,0,2.5,0,3.7c0,0.5,0.2,0.7,0.7,0.7
	c7.9,0,15.9,0,23.8,0c0.5,0,0.7-0.2,0.7-0.7c0-1.2,0-2.4,0-3.6c0-0.7,0-0.7-0.7-0.7C522.3,424,518.3,424,514.4,424z M514.4,422
	c4.3,0,8.6,0,12.9,0c1.7,0,3.4,0,5.2,0c0.6,0,0.8-0.3,0.5-0.9s-0.8-0.6-1.3-0.6c-11.5,0-23.1,0-34.6,0c-0.2,0-0.5,0-0.7,0.1
	c-0.4,0.1-0.7,0.6-0.7,1c0.1,0.5,0.5,0.4,0.8,0.4C502.4,422,508.4,422,514.4,422z M503.2,411.4c7.5,0,14.9,0,22.3,0
	c0.1-1.3,0.1-1.3-1.1-1.3c-6.7,0-13.3,0-20,0C503.1,410.1,503.1,410.1,503.2,411.4z M525.5,413.7c-7.5,0-14.9,0-22.3,0
	c0,0.4,0,0.8,0,1.2c7.4,0,14.9,0,22.3,0C525.5,414.5,525.5,414.1,525.5,413.7z M525.5,417.2c-7.5,0-14.9,0-22.3,0c0,0.4,0,0.7,0,1
	c7.4,0,14.8,0,22.3,0C525.5,417.8,525.5,417.5,525.5,417.2z M500.9,418.1c0-0.2,0-0.2,0-0.3c0-3.5,0-7,0-10.4c0-0.4-0.2-0.5-0.5-0.5
	c-0.4,0-0.5,0.2-0.5,0.5c0,3.4,0,6.9,0,10.3c0,0.1,0,0.3,0,0.4C500.3,418.1,500.6,418.1,500.9,418.1z M528.8,418.1
	c0-0.1,0-0.2,0-0.3c0-3.5,0-7,0-10.5c0-0.4-0.2-0.5-0.5-0.5c-0.4,0-0.5,0.2-0.5,0.5c0,3.4,0,6.9,0,10.3c0,0.1,0,0.3,0,0.4
	C528.2,418.1,528.5,418.1,528.8,418.1z M499.5,429c0-1.7,0-3.3,0-5c-0.5,0-0.9,0-1.3,0c0,1.7,0,3.3,0,5C498.6,429,499,429,499.5,429
	z M529.3,429.1c0.3,0,0.5,0,0.7,0c0.5,0.1,0.7-0.1,0.7-0.7c0-1.3,0-2.5,0-3.8c0-0.2,0-0.4,0-0.5c-0.5,0-0.9,0-1.3,0
	C529.3,425.7,529.3,427.4,529.3,429.1z"/>
<path class="st2" d="M493.8,490.1c0.7-3.1,3-5.3,6-6c0-1,0-2,0-3c1.2,0,2.3,0,3.5,0c0,1,0,2,0,3c1.3,0.4,2.6,0.9,3.6,1.8
	c1.1,1,1.9,2.3,2.2,3.7c0.1,0.4,0.2,0.5,0.6,0.5c0.5,0,1.1,0,1.6,0s0.7,0.2,0.6,0.7c0,0.7,0,1.5,0,2.2c0,0.5-0.2,0.6-0.6,0.6
	c-0.5,0-0.9,0-1.4,0c-0.4,0-0.6,0.2-0.6,0.6c0,2.3,0,4.6,0,7c0,0.4,0.2,0.5,0.6,0.5c2.4-0.1,1.9-0.1,2,1.8c0,1.6,0,3.1,0,4.7
	c0,0.5,0.1,0.7,0.7,0.7c5.9,0,11.9,0,17.8,0c1,0,1,0,1,1c0,10.2,0,20.4,0,30.6c0,0.2,0,0.5,0,0.8c-20,0-39.9,0-59.9,0
	c0-0.2,0-0.4,0-0.7c0-10.4,0-20.7,0-31.1c0-0.5,0.1-0.8,0.7-0.6c0.2,0,0.4,0,0.6,0c5.8,0,11.6,0,17.5,0c0.9,0,0.9,0,0.9-0.9
	c0-1.9,0-3.7,0-5.6c0-0.6,0.2-0.8,0.8-0.8c0.4,0,0.7,0,1.1,0s0.5-0.1,0.5-0.5c0-2.3,0-4.6,0-6.9c0-0.5-0.2-0.6-0.6-0.6
	c-0.5,0-0.9,0-1.4,0c-0.3,0-0.4-0.1-0.4-0.4c0-0.8,0-1.6,0-2.4c0-0.5,0.2-0.7,0.7-0.7C492.4,490.1,493.1,490.1,493.8,490.1z
	 M508.2,537.6c0-0.1,0.1-0.2,0.1-0.2c0-3.4,0-6.8,0-10.2c0-0.5-0.2-0.5-0.6-0.5c-4.2,0-8.3,0-12.5,0c-0.5,0-0.6,0.2-0.6,0.6
	c0,3.3,0,6.5,0,9.8c0,0.2,0,0.3,0,0.5c1.7,0,3.3,0,5.1,0c0-1.9,0-3.7,0-5.5c1.2,0,2.3,0,3.5,0c0,1.9,0,3.7,0,5.6
	C504.9,537.6,506.6,537.6,508.2,537.6z M508.2,523.1c0-0.1,0-0.2,0-0.2c0-3.4,0-6.8,0-10.1c0-0.5-0.2-0.6-0.7-0.6
	c-4.1,0-8.2,0-12.4,0c-0.5,0-0.6,0.2-0.6,0.7c0,3.3,0,6.5,0,9.8c0,0.2,0,0.3,0,0.5c1.7,0,3.3,0,5.1,0c0-1.9,0-3.7,0-5.6
	c1.2,0,2.3,0,3.5,0c0,1.9,0,3.7,0,5.6C504.9,523.1,506.6,523.1,508.2,523.1z M478.2,537.6c0-0.2,0-0.3,0-0.4c0-1.3-0.1-2.7,0.4-4
	c1.1-2.9,4.8-3.9,7.3-2.1c1.3,1,1.9,2.3,2,3.9c0.1,0.8,0,1.7,0,2.5c1.1,0,2.1,0,3.1,0c0-3.6,0-7.3,0-10.9c-5.4,0-10.7,0-16,0
	c0,3.6,0,7.2,0,10.9C476,537.6,477.1,537.6,478.2,537.6z M491,523.1c0-0.1,0-0.2,0-0.3c0-3.4,0-6.8,0-10.1c0-0.5-0.3-0.5-0.7-0.5
	c-4.9,0-9.8,0-14.7,0c-0.6,0-0.7,0.2-0.7,0.7c0,3.2,0,6.4,0,9.6c0,0.2,0,0.4,0,0.6c1.1,0,2.1,0,3.2,0c0-0.2,0-0.3,0-0.4
	c0.1-1.2-0.1-2.5,0.3-3.6c0.5-1.6,1.6-2.9,3.5-3.3c1.6-0.4,3-0.1,4.1,0.9c1.3,1.1,2,2.6,1.8,4.4c0,0.7,0,1.3,0,2
	C489,523.1,490,523.1,491,523.1z M514.9,537.6c0-0.9-0.1-1.7,0-2.5c0.1-1,0.3-2,0.9-2.8c1.5-1.8,3.7-2.5,5.8-1.7
	c0.9,0.3,1.7,0.9,2.3,1.7c0.8,1.2,0.9,2.5,0.9,3.9c0,0.5,0,0.9,0,1.4c1,0,2,0,3,0c0-3.6,0-7.3,0-10.9c-5.3,0-10.6,0-15.9,0
	c0,3.6,0,7.2,0,10.9C512.9,537.6,513.9,537.6,514.9,537.6z M527.8,523.1c0-3.5,0-7,0-10.4c0-0.5-0.3-0.5-0.7-0.5
	c-4.9,0-9.8,0-14.7,0c-0.6,0-0.7,0.2-0.7,0.7c0,3.2,0,6.4,0,9.6c0,0.2,0,0.4,0,0.6c1,0,2,0,3,0c0-0.7-0.1-1.4,0-2
	c0.1-0.8,0.2-1.7,0.5-2.4c0.2-0.7,0.8-1.2,1.3-1.7c0.8-0.7,1.7-1.2,2.7-1.2c1.6-0.1,3,0.3,4.1,1.6c0.7,0.8,1.2,1.6,1.2,2.7
	c0,1,0.1,2,0.2,3.1C525.8,523.1,526.8,523.1,527.8,523.1z M501.5,508.8c2,0,4,0,6,0c0.5,0,0.8-0.1,0.8-0.8c-0.1-0.8,0-1.5,0-2.3
	c0-0.6-0.2-0.7-0.7-0.7c-1.3,0-2.6-0.4-3.7-1.2c-0.7-0.5-1.4-0.8-2.2-0.9c-1,0-1.9,0.3-2.7,0.8c-1.1,0.8-2.4,1.2-3.8,1.2
	c-0.5,0-0.6,0.2-0.6,0.7c0,0.7,0,1.5,0,2.2c0,0.8,0,0.9,0.9,0.9C497.5,508.8,499.5,508.8,501.5,508.8z M505.9,500.9
	c0.1-0.1,0.1-0.2,0.1-0.2c0-2.2,0-4.4,0-6.5c0-0.5-0.3-0.6-0.7-0.6c-2.6,0-5.1,0-7.7,0c-0.5,0-0.7,0.2-0.7,0.7c0,2.1,0,4.1,0,6.2
	c0,0.1,0,0.2,0.1,0.4c0.9-0.4,1.8-0.9,2.8-1.3c0-1,0-2.1,0-3.1c1.2,0,2.3,0,3.4,0c0,1.1,0,2.2,0,3.2
	C504.1,500.1,505,500.5,505.9,500.9z M505.6,490.1c-2.6-3.9-6.6-3.2-8.2,0C500.1,490.1,502.8,490.1,505.6,490.1z M481.6,523.1
	c1,0,1.9,0,2.8,0c0-0.1,0-0.1,0-0.2c0-0.7,0-1.5,0-2.2c0-0.8-0.6-1.4-1.3-1.4c-0.9,0-1.5,0.6-1.6,1.4
	C481.6,521.5,481.6,522.2,481.6,523.1z M484.4,537.6c0-0.8,0-1.6,0-2.4c0-0.5-0.6-1.3-1-1.4c-0.6-0.2-1.5,0.2-1.6,0.8
	c-0.2,1-0.2,2-0.3,3C482.5,537.6,483.4,537.6,484.4,537.6z M521.2,523.1c0-0.9,0-1.7,0-2.6c0-0.7-0.6-1.3-1.2-1.3
	c-0.6,0-1.4,0.4-1.5,1c-0.1,0.9,0,1.9,0,2.8C519.4,523.1,520.3,523.1,521.2,523.1z M518.5,537.5c0.9,0,1.8,0,2.7,0
	c0-0.8,0-1.6,0-2.3c0-0.5-0.6-1.4-0.9-1.5c-0.9-0.3-1.7,0.5-1.7,1.3C518.5,535.8,518.5,536.7,518.5,537.5z"/>
<g>
	<path class="st2" d="M534.7,620.5c-0.3-11.4-5.3-20.2-15.1-26c-4.5-2.7-9.5-3.9-14.8-4c-16.4-0.1-30,13.5-30,30
		c0,16.6,13.6,29.9,31.8,30c10.3-0.6,19.3-6,25-16.7C533.8,629.6,534.8,625.1,534.7,620.5z M492.9,642.5c-1.3-0.1-2.6-0.3-3.9-0.5
		c-0.3-0.1-0.6-0.4-0.9-0.6c-0.8-0.7-1.6-1.3-2.4-2c-0.4-0.4-0.6-0.8-1-1.2c-1-1.1-1.9-2.2-2.7-3.5c-0.1-0.3-0.3-0.5-0.5-0.9
		c0.3,0,0.6,0,0.8,0c6.5,0,12.9,0,19.4,0c1.1,0,1.8-0.7,1.7-1.6c0-1-0.6-1.5-1.6-1.6s-2,0-2.9,0c-6.2,0-12.3,0-18.5,0
		c-0.7,0-0.9-0.1-0.8-0.8c15.5,0,30.9,0,46.4,0c-0.2,0.7-0.7,0.8-1.2,0.8c-3.5,0-7,0-10.4,0c-1.2,0-2.4,0-3.6,0
		c-0.4,0-0.8,0.2-1.2,0.4c-0.5,0.3-0.7,1.2-0.5,1.8s0.7,1,1.5,1c3,0,6,0,9,0c0.2,0,0.5,0,0.7,0c0,0.1,0.1,0.2,0.1,0.2
		c-0.5,0.2-1.1,0.6-1.6,0.6c-1.9,0.1-3.8,0.1-5.7,0c-1.1,0-1.9,1.2-1.4,2.3c0.3,0.7,0.8,0.8,1.6,0.8c-0.2,0.2-0.2,0.4-0.4,0.4
		c-0.8,0.3-1.6,0.7-2.4,1s-1.7,0.6-2.6,0.9c-1,0.4-2,0.7-3.1,1c-0.3,0.1-0.7,0.1-1,0.2c-1.1,0.3-2.2,0.6-3.3,0.8
		C498.2,642.5,495.5,642.6,492.9,642.5z M528.2,633.3c-0.8,1.8-2,3.3-3.3,4.7c-1.4,1.4-2.9,2.8-4.4,4c-1.1,0.9-2.5,1.6-3.8,2.3
		c-1.2,0.6-2.4,0.9-3.6,1.4c-1.6,0.7-3.2,1-4.9,1.1c-2,0.1-4.1,0.3-6.1,0.2c-1.6-0.1-3.2-0.6-4.8-0.9c-0.2,0-0.4,0-0.6-0.1
		c-0.1-0.1-0.2-0.2-0.4-0.3c0.1-0.1,0.2-0.2,0.3-0.2c1.9-0.2,3.9-0.3,5.8-0.6c0.6-0.1,1.3-0.4,1.9-0.5c0.8-0.2,1.6-0.3,2.3-0.6
		c1-0.3,2.1-0.7,3.1-1.1c0.8-0.3,1.6-0.5,2.3-0.8c1.3-0.5,2.5-1,3.8-1.7s2.6-1.5,3.9-2.2c1.2-0.7,2.3-1.4,3.5-2.1
		c0.8-0.5,1.4-1.1,2.2-1.7c0.5-0.3,1-0.6,1.4-0.9c0.5-0.4,1.1-0.9,1.6-1.3c0.1,0,0.1,0.1,0.2,0.1
		C528.5,632.6,528.4,632.9,528.2,633.3z M530.6,625.5c0,0.5-0.2,0.6-0.7,0.6c-2.8,0-5.7,0-8.5,0s-5.6,0-8.4,0
		c-0.5,0-0.7-0.2-0.7-0.6c0-0.5,0.2-0.7,0.7-0.7c5.6,0,11.2,0,16.8,0C530.4,624.8,530.7,624.9,530.6,625.5z M516.2,620.9
		c0-3.8,0-7.6,0-11.4c0.3,0,0.6,0,0.9-0.1c0,3.9,0,7.6,0,11.5C516.8,620.9,516.5,620.9,516.2,620.9z M524.9,620.9c0-2.5,0-5,0-7.6
		c0.3,0,0.7,0,1,0c0,2.5,0,5.1,0,7.6C525.6,620.9,525.3,620.9,524.9,620.9z M531.3,621.7c-0.7,0-1.3,0-2,0c0-0.3-0.1-0.6-0.1-0.9
		c0-3,0-6.1,0-9.1c0-1-0.8-1.8-1.8-1.8c-1.3,0-2.6,0-3.9,0c-0.7,0-1.2,0.4-1.6,0.9c-0.2,0.3-0.3,0.9-0.3,1.3c0,2.8,0,5.7,0,8.5
		c0,0.4,0,0.7,0,1.1c-0.4,0-0.8,0-1.1,0c0-0.3,0-0.6-0.1-0.8c0-4.2-0.1-8.5,0-12.7c0-1.3-0.9-2.1-2.1-2c-1.3,0.1-2.5,0-3.8,0
		c-0.9,0-1.3,0.4-1.6,1.3c-0.2,0.6,0,1,0,1.5c0,4,0,7.9,0,11.9c0,0.8-0.2,1-1,1c-0.5,0-1,0-1.6,0c-0.8,0-1.3,0.6-1.3,1.3
		c0,0.9,0,1.8,0,2.7c0,0.6-0.2,0.8-0.8,0.8c-6.2,0-12.4,0-18.7,0c-3.4,0-6.8,0-10.2,0c-0.6,0-0.8-0.1-1-0.8
		c-0.8-2.6-0.5-5.2-0.5-7.8c0-0.8,0.1-1.5,0.3-2.3c0.5-1.9,1-3.7,1.6-5.5c0.3-1,0.8-2,1.4-2.9c0.5-0.9,1.2-1.7,1.9-2.6
		c0.8-1.1,1.6-2.1,2.5-3.2c0.3-0.3,0.6-0.5,1-0.8c1-0.8,1.9-1.6,2.9-2.4c0.5-0.4,1.2-0.7,1.8-1c1-0.6,2-1.2,3-1.6
		c0.8-0.4,1.8-0.6,2.7-0.9c0.5-0.2,1-0.4,1.6-0.5c0.5-0.1,0.9-0.2,1.4-0.3c2.5-0.4,5.1-0.4,7.6-0.2c1,0.1,2.1,0.2,3,0.5
		c1.5,0.4,2.9,0.8,4.3,1.4c1,0.4,1.9,0.8,2.8,1.4c1.2,0.7,2.3,1.4,3.3,2.3c1.1,0.9,2.1,1.8,3.1,2.8c1.1,1.1,2,2.3,2.9,3.7
		c0.6,0.9,1,2,1.6,2.9c0.7,1.1,0.9,2.3,1.4,3.4c0.7,1.5,1,3.1,1.1,4.8c0.1,1.5,0.2,2.9,0.2,4.4C531.4,621.4,531.4,621.5,531.3,621.7
		z"/>
	<path class="st2" d="M493.9,602.5c-3.1-0.2-6.1,3-6,6c0.1,2,0.9,3.5,2.4,4.7c1,0.9,2.4,1.4,3.6,1.3c3.2-0.2,5.9-2.2,6-6.1
		C500,605.4,497.2,602.3,493.9,602.5z M496.7,608.5c0.1,1.7-1.2,2.8-2.8,2.8c-1.5,0-2.7-1.3-2.8-2.7c-0.1-1.4,1.3-2.8,2.8-2.8
		C495.5,605.9,496.8,606.9,496.7,608.5z"/>
</g>
<g>
	<path class="st2" d="M530.5,759c-0.3,0-0.7,0-1,0c-0.4,0-0.5-0.1-0.5-0.5c0-6.6,0-13.3,0-19.9c0-0.2,0-0.3,0-0.5
		c0.7-0.2,1.3,0.1,1.9-0.3c0.4-0.2,0.8-1.1,0.5-1.5s-0.8-0.7-1.3-0.7c-4.6,0-9.2,0-13.8,0c-0.2,0-0.3,0-0.5,0c0-1,0-1.8,0-2.8
		c0.2,0,0.3,0,0.4,0.1c0.6,0.4,1.3,0.6,2,0.5c0.1,0,0.2-0.1,0.3-0.1c0.4-0.3,0.5-0.8,0.4-1.3c-0.1-0.4-0.5-0.8-0.9-0.8
		c-0.3-0.1-0.7-0.1-1-0.2c-0.6-0.2-1.2-0.5-1.7-0.7c-0.2-0.1-0.3-0.2-0.5-0.2c-0.4-0.1-0.8-0.2-1.2-0.3c-0.3-0.1-0.6-0.2-0.5-0.7
		c0-1.8,0-3.5,0-5.3c0-1.2,0-2.3-0.5-3.5c-0.2-0.6-0.5-1.2-0.7-1.8c0-0.1,0-0.3-0.1-0.4c-0.4-0.6-0.8-1.1-1.2-1.6
		c-0.4-0.5-0.9-1.1-1.4-1.5c-0.4-0.4-1-0.7-1.5-1c-0.5-0.4-1.1-0.8-1.8-1c-0.2-0.1-0.4-0.1-0.6-0.2c-0.4-0.1-0.8-0.3-1.2-0.4
		c-0.5-0.1-1.1-0.2-1.6-0.3c0-1,0-1.9,0-2.8c0.4-0.2,0.8-0.5,1.2-0.7c0.3-0.2,0.6-0.3,0.9-0.5c0.4-0.2,0.7-0.4,1.1-0.6
		c0.5-0.3,1-0.6,1.6-0.9c0.5-0.2,1-1.3,0.6-1.6c-0.4-0.4-0.9-0.7-1.4-1c-0.2-0.1-0.5-0.2-0.7-0.3c-0.5-0.3-1-0.6-1.5-0.8
		c-0.4-0.2-0.8-0.4-1.2-0.6c-0.4-0.3-0.9-0.6-1.3-0.8s-1.1,0-1.3,0.4c-0.1,0.3-0.3,0.7-0.3,1.1c0,2.9,0,5.8,0,8.6c0,0.2,0,0.4,0,0.5
		c-0.4,0.1-0.7,0.2-1,0.3c-0.5,0.1-1,0.2-1.5,0.3h-0.1c-0.6,0.3-1.2,0.5-1.8,0.9c-0.5,0.3-1,0.5-1.4,0.9c-0.5,0.4-1,0.9-1.4,1.3
		c-0.3,0.3-0.7,0.7-1,1.1c-0.3,0.4-0.5,0.8-0.7,1.2s-0.4,0.8-0.6,1.2c-0.2,0.6-0.3,1.2-0.5,1.7c-0.3,0.8-0.4,1.6-0.4,2.4
		c-0.1,2,0,3.9,0,5.9c0,0.4-0.2,0.6-0.6,0.7c-0.1,0-0.2,0-0.3,0c-0.4,0.2-0.9,0.3-1.3,0.5c-0.3,0.1-0.6,0.2-1,0.3s-0.8,0.3-1.2,0.4
		c-0.6,0.2-1.2,0.2-1.5,0.9c-0.2,0.5,0.1,1.3,0.6,1.4c0.7,0.2,1.4-0.2,2-0.3c0.2-0.1,0.5-0.2,0.7-0.2c0,1,0,1.9,0,2.8
		c-0.2,0-0.4,0-0.6,0c-4.3,0-8.6,0-12.9,0c-0.5,0-1.1-0.1-1.6,0.2c-0.4,0.2-0.8,0.6-0.8,1.1c0,0.4,0.7,1.1,1.2,1.1
		c0.4,0,0.9,0,1.3,0c0,7,0,14,0,21c-0.4,0-0.8,0-1.2,0c-0.3,0-0.7,0-0.9,0.3c-0.1,0.1-0.1,0.3-0.2,0.5c-0.3,0.4-0.2,0.9,0.2,1.2
		c0.4,0.2,0.7,0.3,1.1,0.3c10.6,0,21.3,0,31.9,0c8.4,0,16.8,0,25.2,0c0.3,0,0.7,0,1-0.3s0.5-0.8,0.4-1.3
		C531.4,759.4,530.9,759.1,530.5,759z M502.7,704.5c0.5,0.2,1,0.4,1.4,0.7c0.2,0.1,0.5,0.3,0,0.6c-0.4,0.2-0.7,0.4-1.1,0.7
		c-0.1,0-0.2,0-0.3,0C502.7,705.8,502.7,705.2,502.7,704.5z M476.3,738.1c3,0,6,0,9,0c0,1,0,1.9,0,2.8c0,0.2,0.1,0.4,0.1,0.5
		c0.1,0.2,0.2,0.3,0.3,0.4c0.2,0.1,0.4,0.1,0.6,0.1s0.4,0,0.6,0c0,0.8,0,1.6,0,2.4c-3.6,0-7.1,0-10.7,0
		C476.3,742.3,476.3,740.2,476.3,738.1z M486.5,755.2c-0.8,0.1-1.1,0.4-1.1,1.2s0,1.5,0,2.3c0,0.3-0.1,0.4-0.4,0.4
		c-2.9,0-5.8,0-8.7,0c0-4,0-8.1,0-12.1c3.6,0,7.1,0,10.7,0c0,2.1,0,4.1,0,6.1c0,0.5,0,1,0,1.5C487.1,755,486.9,755.1,486.5,755.2z
		 M512,731.6c0.4,0.2,0.9,0.4,1.4,0.6c0,1.1,0,2.3,0,3.6c-1.4,0-2.8,0-4.2,0c0-1.6,0-3.2,0-5c0.3,0.1,0.5,0.2,0.8,0.3s0.7,0.1,1,0.2
		C511.4,731.3,511.7,731.4,512,731.6z M510.3,721.2c0.2,0,0.4,0,0.4,0.3c0.4,2.3,0.2,4.6,0.2,6.9v0.1c-0.3,0-0.6,0.1-0.9-0.2
		c-0.2-0.2-0.5-0.2-0.8-0.3c-0.6-0.2-1.1-0.3-1.7-0.5c-0.4-0.1-0.8-0.3-1.2-0.5c-0.1,0-0.2-0.2-0.2-0.3c0-1.7,0-3.4,0-5.1
		c0-0.3,0.1-0.4,0.4-0.4C507.8,721.2,509,721.2,510.3,721.2z M500.3,734.8c0,0.2,0.1,0.5,0.1,0.8c-0.3,0.1-3.5,0.2-4.3,0.1
		c0-1.9,0-3.9,0-5.9c0.6-0.2,1.2-0.3,1.8-0.5c0.6-0.2,1.1-0.5,1.7-0.7c0.3-0.1,0.6,0,0.8,0c0,0.3-0.1,0.6-0.1,0.8
		C500.3,731.2,500.3,733,500.3,734.8z M499.2,726.2c0-1.6,0-3.3,0-5c1.6,0,3.1,0,4.6,0c0,1.7,0,3.3,0,4.9c-0.8-0.1-1.5-0.2-2.3-0.2
		C500.8,726,500.1,726.1,499.2,726.2z M502.7,728.4c1.4,0.5,2.8,0.9,4.1,1.4c0,1.9,0,3.9,0,5.9c-1.4,0-2.8,0-4.1,0
		C502.7,733.3,502.7,730.9,502.7,728.4z M493.7,718.4c0.6-0.7,1.2-1.4,1.8-2c0.3-0.3,0.8-0.5,1.2-0.7c0.4-0.2,0.8-0.5,1.1-0.7
		c0.2-0.1,0.5-0.2,0.7-0.3c0.4-0.1,0.8-0.1,1.2-0.2c0.6-0.1,1.3-0.2,1.9-0.2c0.7,0,1.5,0.2,2.2,0.3c0.5,0.1,0.9,0.2,1.3,0.3
		c0.5,0.2,0.9,0.4,1.3,0.7c0.6,0.4,1.1,0.9,1.7,1.4c0.5,0.5,0.9,1,1.3,1.5c0.1,0.1,0,0.3,0,0.4c-5.3,0-10.7,0-16.1,0
		C493.5,718.8,493.6,718.6,493.7,718.4z M492.4,721.3c1.5,0,2.9,0,4.4,0c0,1.9,0,3.8,0,5.6c0,0.2-0.3,0.4-0.5,0.5
		c-0.7,0.3-1.4,0.5-2.1,0.7c-0.4,0.1-0.7,0.2-1.1,0.3c-0.3,0.1-0.6,0.2-0.9,0.4C492.1,728.2,492.2,722.3,492.4,721.3z M489.9,732
		c0.4-0.1,0.8-0.3,1.1-0.5c0.3-0.1,0.7-0.2,1.1-0.3c0.3-0.1,0.7-0.2,1-0.2c0.2-0.1,0.5-0.1,0.7-0.2c0,0,0,0,0.1,0c0,1.6,0,3.1,0,4.8
		c-1.4,0-2.9,0-4.4,0c0-1.1,0-2.1,0-3.2C489.5,732.2,489.6,732.1,489.9,732z M492.6,759c-0.2,0-0.3,0-0.5,0c-1.2,0-2.5,0-3.7,0
		c-1,0-0.9-0.1-0.9-0.9c0-0.2,0-0.5,0-0.8c1.7,0,3.4,0,5.1,0C492.6,757.9,492.6,758.4,492.6,759z M489.2,742.5
		c0-0.4,0.1-0.5,0.5-0.5s0.8,0,1.2,0c0,0.2,0,0.4,0,0.6c0,4,0,8,0,12c0,0.6,0,0.6-0.6,0.6c-0.2,0-0.4,0-0.6,0
		c-0.3-0.1-0.6-0.2-0.6-0.6C489.3,750.6,489.3,746.5,489.2,742.5z M492.6,739.5c0,0.1-0.2,0.2-0.3,0.2c-1.4,0-2.9,0-4.3,0
		c-0.2,0-0.4-0.3-0.5-0.4c-0.1-0.4,0-0.8,0-1.2c1.7,0,3.4,0,5.1,0C492.6,738.6,492.7,739.1,492.6,739.5z M497.8,755.2
		c-0.7,0-1.1,0.5-1.1,1.2c0,0.8,0,1.5,0,2.3c0,0.3-0.1,0.5-0.4,0.4c-0.2,0-0.5,0-0.7,0c-0.4,0-0.4-0.1-0.4-0.4c0-0.6,0-1.3,0-1.9
		c0-0.5-0.1-1-0.5-1.3c-0.2-0.1-0.5-0.2-0.7-0.2c-0.4,0-0.5-0.2-0.5-0.5c0-4.1,0-8.2,0-12.3c0-0.1,0-0.2,0-0.4c0.5,0,1,0,1.3-0.5
		c0.1-0.3,0.3-0.6,0.4-0.9c0.1-0.8,0-1.6,0-2.5c0.5,0,1,0,1.5,0c0,0.8,0,1.5,0,2.3c0,0.5,0.1,0.9,0.5,1.3c0.2,0.3,0.4,0.4,0.8,0.4
		c0.1,0,0.3,0,0.5,0c0,0.2,0,0.3,0,0.5c0,4,0,8,0,12.1C498.3,755,498.2,755.2,497.8,755.2z M504.1,757.8c0,0.3,0,0.5,0,0.8
		s-0.2,0.4-0.4,0.4c-1.5,0-3.1,0-4.7,0c0-0.6,0-1.1,0-1.7c0.2,0,0.3,0,0.5,0c1.4,0,2.7,0,4.1,0C504,757.3,504.1,757.4,504.1,757.8z
		 M502.4,742.9c0,3.9,0,7.8,0,11.7c0,0.5-0.2,0.6-0.7,0.6c-1.1,0-1,0.2-1-1c0-3.8,0-7.7,0-11.5c0-0.2,0-0.4,0-0.6c0.5,0,0.9,0,1.4,0
		c0.2,0,0.3,0.1,0.3,0.3C502.4,742.5,502.4,742.7,502.4,742.9z M504.1,739.3c0,0.2-0.3,0.4-0.5,0.4c-1.4,0-2.8,0-4.3,0
		c-0.1,0-0.3-0.2-0.3-0.3c0-0.4,0-0.9,0-1.4c1.7,0,3.4,0,5.1,0C504.1,738.6,504.1,739,504.1,739.3z M509.8,742.6c0,4,0,7.9,0,11.9
		c0,0.4-0.2,0.6-0.6,0.6c-0.7,0-1.1,0.4-1.1,1.2s0,1.5,0,2.3c0,0.3-0.1,0.4-0.4,0.4c-1.3,0.1-1.3,0.1-1.3-1.2c0-0.5,0-1,0-1.5
		c0-0.6-0.4-1-1.1-1.1c-0.6-0.1-0.7-0.2-0.7-0.7c0-3.9,0-7.9,0-11.8c0-0.2,0-0.4,0-0.6c0.2,0,0.4,0,0.5,0c0.8,0,1.2-0.5,1.2-1.2
		c0-0.9,0-1.8,0-2.7c0.6,0,1.1,0,1.7,0c0,0.9,0,1.7,0,2.6c0,0.6,0.2,1,0.6,1.3c0.1,0.1,0.3,0.1,0.4,0.1c0.2,0,0.4,0,0.6,0
		C509.8,742.3,509.8,742.4,509.8,742.6z M515.3,758.8c0,0.1-0.2,0.2-0.2,0.2c-1.5,0-3,0-4.4,0c-0.1,0-0.3-0.2-0.3-0.3
		c0-0.4,0-0.8,0-1.3c1.7,0,3.3,0,5,0C515.3,757.9,515.3,758.3,515.3,758.8z M512,742.2L512,742.2c0.5-0.1,1-0.1,1.5-0.1
		c0,0.2,0,0.3,0,0.5c0,4,0,8,0,12c0,0.5-0.1,0.6-0.6,0.6c-0.2,0-0.4,0.1-0.5,0c-0.2-0.1-0.5-0.3-0.5-0.4
		C512,750.6,512,746.4,512,742.2z M515.3,739.5c0,0.1-0.2,0.3-0.3,0.3c-1.4,0-2.8,0-4.2,0c-0.3,0-0.4-0.2-0.5-0.4c0-0.4,0-0.8,0-1.2
		c1.7,0,3.3,0,5,0C515.3,738.6,515.3,739,515.3,739.5z M526.2,759c-2.7,0-5.4,0-8,0c-0.3,0-0.5-0.1-0.4-0.4c0-0.7,0-1.3,0-2
		c0-0.5-0.1-1-0.5-1.3c-0.2-0.1-0.5-0.2-0.8-0.2s-0.4-0.2-0.4-0.4c0-2.5,0-5.1,0-7.6c0-0.1,0-0.1,0-0.2c3.6,0,7.1,0,10.7,0
		c0,0.2,0,0.4,0,0.5c0,3.7,0,7.4,0,11C526.8,758.9,526.7,759,526.2,759z M526.3,744.5c-3.3,0-6.6,0-10,0c-0.1,0-0.2,0-0.3,0
		c0-0.8,0-1.6,0-2.4c0.1,0,0.3,0,0.4,0c0.6,0,0.9-0.3,1.1-0.8c0.3-0.7,0.1-1.5,0.2-2.3c0-0.3,0-0.5,0-0.8c3,0,6,0,9,0
		c0,0.2,0,0.3,0,0.4c0,1.8,0,3.6,0,5.5C526.8,744.3,526.7,744.5,526.3,744.5z"/>
	<path class="st2" d="M484.3,751.8c0-0.5,0.1-1.1-0.2-1.6c-0.2-0.4-0.4-0.6-0.8-0.6c-0.8,0-1.7,0-2.5,0l0,0c-0.8,0-1.7,0-2.5,0
		c-0.6,0-1,0.3-1,1c0,1.6,0,3.2,0,4.9c0,0.6,0.5,1,1,1c1.7,0,3.3,0,5,0c0.1,0,0.3-0.1,0.4-0.2c0.5-0.3,0.7-0.8,0.7-1.4
		C484.3,753.8,484.3,752.8,484.3,751.8z M482,753.8c0,0.1-0.2,0.3-0.3,0.3c-0.6,0-1.1,0-1.7,0c-0.3,0-0.5-0.2-0.5-0.5
		c0-0.4,0-0.8,0-1.2s0.2-0.6,0.6-0.6c0.6,0,1.2,0,1.9,0C482,752.5,482,753.2,482,753.8z"/>
	<path class="st2" d="M524.7,749.5c-1.6,0-3.3,0-4.9,0c-0.6,0-1,0.4-1,1c0,1.6,0,3.2,0,4.8c0,0.6,0.5,1,1,1c1.6,0,3.3,0,4.9,0
		c0.4,0,0.9-0.5,0.9-0.9c0-0.9,0-1.7,0-2.6l0,0c0-0.8,0-1.7,0-2.5C525.6,750,525.1,749.5,524.7,749.5z M523.4,754
		c-0.8,0.2-1.6,0.2-2.4,0c0-0.7,0-1.3,0-1.9c0-0.2,0.1-0.4,0.3-0.3c0.7,0,1.4,0,2.1,0C523.4,752.6,523.4,753.3,523.4,754z"/>
</g>
<g>
	<path d="M720.5,179.3c-2.7,0-5.5,0-8.2,0s-5.5,0-8.2,0c-5.1,0-8.7,3.7-8.7,8.7c0,5.4,0,10.8,0,16.2c0,5.1,3.5,8.7,8.5,8.8
		c5.6,0.1,11.2,0.1,16.7,0c5-0.1,8.4-3.7,8.5-8.7c0-5.5,0-10.9,0-16.4C729,182.9,725.4,179.4,720.5,179.3z M724.2,202.1
		c-0.1,3.5-2.2,5.9-5.7,6c-4.2,0.2-8.4,0.2-12.5,0c-3.6-0.2-5.8-2.6-5.8-6.2c-0.1-3.8,0-7.6,0-11.5c0-3.8,2.5-6.3,6.3-6.3
		c1.9,0,3.8,0,5.7,0s3.8,0,5.7,0c3.7,0.1,6.2,2.4,6.2,6.1C724.3,194.2,724.3,198.2,724.2,202.1z"/>
	<path d="M703.8,107c5.7,0.1,11.3,0.1,17,0c5-0.1,8.3-3.7,8.3-8.7c0-2.7,0-5.4,0-8.1s0-5.5,0-8.2c-0.1-5.1-3.7-8.7-8.8-8.7
		c-5.4,0-10.8,0-16.2,0c-5.1,0-8.8,3.6-8.8,8.8c0,5.4,0,10.8,0,16.2C695.4,103.2,698.7,106.9,703.8,107z M700.2,84.4
		c0.1-3.8,2.6-6.3,6.4-6.3c3.8,0,7.6,0,11.4,0c3.8,0,6.3,2.5,6.3,6.3c0,1.9,0,3.9,0,5.9c0,1.8,0,3.7,0,5.5c0,3.9-2.5,6.4-6.4,6.4
		c-3.8,0-7.6,0-11.3,0c-3.8,0-6.3-2.5-6.3-6.3C700.1,92.1,700.1,88.2,700.2,84.4z"/>
	<path d="M835.1,82c0-5.1-3.7-8.7-8.7-8.7c-5.4,0-10.9,0-16.3,0c-5.1,0-8.7,3.7-8.7,8.7c0,2.7,0,5.4,0,8.1c0,2.8,0,5.5,0,8.3
		c0.1,4.7,3.3,8.4,8,8.5c5.9,0.2,11.8,0.2,17.7,0c4.7-0.2,8-3.8,8-8.5C835.2,92.9,835.2,87.5,835.1,82z M830.3,95.8
		c0,3.9-2.5,6.4-6.4,6.4c-3.8,0-7.6,0-11.3,0c-3.8,0-6.3-2.5-6.4-6.3c0-1.9,0-3.8,0-5.7c0-1.9,0-3.7,0-5.6c0.1-4,2.5-6.4,6.5-6.4
		c3.7,0,7.4,0,11.1,0c3.9,0,6.4,2.5,6.5,6.4C830.3,88.3,830.3,92,830.3,95.8z"/>
	<path d="M741.2,112.1c-1.2,0-2.2,1-2.2,2.1c0,1.2,1,2.1,2.2,2.2c1.2,0,2.2-1,2.2-2.1C743.3,113.1,742.3,112.1,741.2,112.1z"/>
	<path d="M765.3,102.5c-1.2,0-2.2,1-2.2,2.1c0,1.2,1,2.1,2.2,2.2c1.2,0,2.2-0.9,2.2-2.1C767.4,103.5,766.4,102.5,765.3,102.5z"/>
	<path d="M765.2,150.7c-1.2,0-2.2,1-2.1,2.2c0,1.2,1,2.1,2.2,2.1s2.1-1,2.1-2.2S766.4,150.6,765.2,150.7z"/>
	<path d="M827.9,189.2c-1.2,0-2.2,1-2.1,2.2c0,1.2,1,2.1,2.2,2.1s2.1-1,2.1-2.2C830,190.2,829,189.2,827.9,189.2z"/>
	<path d="M770,92.3c1.2,0,2.1-0.9,2.2-2.1c0-1.2-0.9-2.2-2.1-2.2c-1.2,0-2.2,1-2.2,2.1C767.9,91.3,768.8,92.3,770,92.3z"/>
	<path d="M770,189.2c-1.2,0-2.1,1-2.1,2.2s1,2.1,2.2,2.1s2.1-1,2.1-2.2C772.2,190.2,771.2,189.2,770,189.2z"/>
	<path d="M763.1,196.2c0,1.2,1,2.1,2.1,2.1c1.2,0,2.2-0.9,2.2-2.1c0-1.2-1-2.1-2.1-2.2C764.1,194,763.1,195,763.1,196.2z"/>
	<path d="M741.2,77.8c1.2,0,2.1-1,2.1-2.2s-1-2.1-2.2-2.1s-2.2,1-2.1,2.2C739,76.9,740,77.9,741.2,77.8z"/>
	<path d="M774.8,194.1c-1.2,0-2.2,1-2.1,2.2c0,1.2,1,2.1,2.2,2.1s2.1-1,2.1-2.2C777,195,776,194,774.8,194.1z"/>
	<path d="M774.8,97.1c1.2,0,2.2-0.9,2.2-2.1s-0.9-2.2-2.1-2.2c-1.2,0-2.2,0.9-2.2,2.1C772.7,96.2,773.6,97.1,774.8,97.1z"/>
	<path d="M794.2,193.5c1.2,0,2.1-1,2.1-2.2s-1-2.1-2.2-2.1s-2.1,1-2.1,2.2C792,192.6,793,193.5,794.2,193.5z"/>
	<path d="M827.8,198.8c-1.2,0-2.1,1-2.1,2.2s1,2.1,2.2,2.1s2.1-1,2.1-2.2C830,199.8,829,198.8,827.8,198.8z"/>
	<path d="M739,172c0,1.2,0.9,2.2,2.1,2.2c1.2,0,2.2-0.8,2.3-2s-0.9-2.2-2.1-2.2C740.1,169.9,739,170.8,739,172z"/>
	<path d="M741.1,155.5c-1.1,0-2.1,1-2.1,2.1c0,1.2,1,2.2,2.2,2.2s2.1-1,2.1-2.2C743.3,156.4,742.3,155.5,741.1,155.5z"/>
	<path d="M731.5,126.6c-1.2,0-2.2,0.9-2.2,2.1s0.9,2.2,2.1,2.2c1.2,0,2.2-0.9,2.2-2.1C733.7,127.6,732.7,126.6,731.5,126.6z"/>
	<path d="M832.8,203.7c-1.1,0-2.1,0.8-2.2,2c-0.1,1.2,0.8,2.2,2,2.3s2.3-0.8,2.3-2.1C834.9,204.7,833.9,203.7,832.8,203.7z"/>
	<path d="M750.8,88c-1.2,0-2.2,1-2.2,2.1c0,1.2,0.9,2.2,2.1,2.2c1.2,0,2.2-0.9,2.2-2.1C753,89.1,752,88,750.8,88z"/>
	<path d="M750.8,169.4c1.2,0,2.1-0.9,2.2-2.1c0-1.2-1-2.2-2.1-2.2c-1.2,0-2.2,1-2.2,2.1C748.6,168.4,749.6,169.4,750.8,169.4z"/>
	<path d="M789.4,193.5c1.2,0,2.1-1,2.1-2.2s-1-2.1-2.2-2.1s-2.2,1-2.1,2.2C787.2,192.6,788.2,193.5,789.4,193.5z"/>
	<path d="M777,162.5c0-1.2-0.9-2.1-2.1-2.2c-1.2,0-2.2,0.9-2.2,2.1c0,1.2,0.9,2.1,2.1,2.2C776,164.6,777,163.7,777,162.5z"/>
	<path d="M741.1,194c-1.2,0-2.1,1-2.1,2.2c0.1,1.2,1,2.1,2.2,2.1s2.1-1,2.1-2.2C743.3,195,742.3,194,741.1,194z"/>
	<path d="M765.2,155.5c-1.2,0-2.2,1-2.2,2.1c0,1.2,1,2.1,2.2,2.2c1.2,0,2.1-0.9,2.2-2.1C767.4,156.5,766.4,155.5,765.2,155.5z"/>
	<path d="M794.1,88c-1.2,0-2.1,1-2.1,2.2s1,2.1,2.2,2.1s2.1-1,2.1-2.2C796.3,89,795.3,88,794.1,88z"/>
	<path d="M779.7,198.8c-1.2,0-2.2,0.9-2.2,2.1c0,1.2,0.9,2.2,2.1,2.2c1.2,0,2.2-0.9,2.2-2.1C781.9,199.9,780.9,198.9,779.7,198.8z"
		/>
	<path d="M755.6,150.7c-1.2,0-2.2,1-2.2,2.1c0,1.2,1,2.1,2.1,2.1c1.2,0,2.2-1,2.2-2.1C757.8,151.7,756.8,150.7,755.6,150.7z"/>
	<path d="M750.8,77.8c1.2,0,2.2-0.9,2.2-2.1s-1-2.2-2.1-2.2c-1.2,0-2.2,1-2.2,2.1C748.6,76.9,749.6,77.8,750.8,77.8z"/>
	<path d="M813.4,189.2c-1.2,0-2.1,1-2.1,2.2s1,2.1,2.2,2.1s2.1-1,2.1-2.2C815.5,190.1,814.6,189.2,813.4,189.2z"/>
	<path d="M770,203.1c1.2,0,2.2-0.9,2.2-2.1c0-1.2-0.9-2.2-2.1-2.2c-1.2,0-2.2,0.9-2.2,2.1C767.9,202.2,768.8,203.1,770,203.1z"/>
	<path d="M760.5,198.8c-1.2,0-2.2,0.9-2.2,2.1c0,1.2,0.9,2.1,2.1,2.2c1.2,0,2.2-0.9,2.2-2.1C762.6,199.9,761.6,198.9,760.5,198.8z"
		/>
	<path d="M750.8,154.9c1.2,0,2.2-0.9,2.2-2.1c0-1.2-1-2.2-2.1-2.2c-1.2,0-2.2,1-2.2,2.1C748.6,154,749.6,154.9,750.8,154.9z"/>
	<path d="M820.4,167.2c0-1.2-1-2.1-2.2-2.1s-2.1,1-2.1,2.2s1,2.1,2.2,2.1C819.5,169.4,820.4,168.4,820.4,167.2z"/>
	<path d="M750.7,198.8c-1.2,0-2.2,1.1-2.1,2.2c0,1.2,1,2.1,2.2,2.1s2.1-1,2.1-2.2C752.9,199.8,751.9,198.8,750.7,198.8z"/>
	<path d="M697.8,150.7c-1.2,0-2.2,1-2.2,2.1c0,1.2,1,2.1,2.2,2.1s2.1-0.9,2.1-2.1C699.9,151.6,699,150.7,697.8,150.7z"/>
	<path d="M803.8,189.2c-1.2,0-2.2,1-2.2,2.1c0,1.2,0.9,2.2,2.1,2.2c1.2,0,2.2-0.9,2.2-2.1C806,190.2,805,189.2,803.8,189.2z"/>
	<path d="M775,130.8c1.2,0,2.1-1,2.1-2.2s-1.1-2.1-2.2-2.1c-1.2,0-2.1,1.1-2.1,2.2C772.8,130,773.8,130.9,775,130.8z"/>
	<path d="M755.6,189.2c-1.2,0-2.2,1-2.1,2.2c0,1.2,1,2.1,2.2,2.1s2.2-1,2.2-2.2C757.8,190.2,756.8,189.2,755.6,189.2z"/>
	<path d="M750.8,193.5c1.2,0,2.1-1,2.1-2.2s-1-2.2-2.2-2.1c-1.2,0-2.2,1-2.2,2.2C748.6,192.6,749.6,193.5,750.8,193.5z"/>
	<path d="M736.3,189.2c-1.2,0-2.1,1-2.1,2.2s1,2.1,2.2,2.1s2.1-1,2.1-2.2C738.5,190.2,737.5,189.2,736.3,189.2z"/>
	<path d="M832.7,130.8c1.2,0,2.2-0.9,2.2-2.1c0-1.1-1-2.1-2.1-2.2c-1.2,0-2.2,1-2.2,2.1C830.6,129.9,831.5,130.8,832.7,130.8z"/>
	<path d="M741.1,188.7c1.2,0,2.2-0.9,2.2-2.1c0-1.2-1-2.1-2.2-2.1s-2.2,1-2.2,2.1C739,187.7,740,188.7,741.1,188.7z"/>
	<path d="M779.7,88c-1.2,0-2.2,1-2.2,2.1c0,1.2,1,2.2,2.1,2.2c1.2,0,2.2-0.9,2.2-2.1C781.9,89,780.9,88,779.7,88z"/>
	<path d="M813.4,169.4c1.2,0,2.2-0.9,2.2-2.1c0-1.2-0.9-2.2-2.1-2.2c-1.2,0-2.2,0.9-2.2,2.1C811.2,168.4,812.2,169.4,813.4,169.4z"
		/>
	<path d="M755.6,92.8c-1.2,0-2.2,1-2.1,2.1c0,1.2,1,2.1,2.2,2.1s2.1-1,2.2-2.1C757.8,93.8,756.8,92.9,755.6,92.8z"/>
	<path d="M741.2,101.9c1.2,0,2.1-1,2.1-2.2c0-1.1-1.1-2.1-2.2-2.1c-1.2,0-2.2,1.1-2.1,2.2C739,101,740,102,741.2,101.9z"/>
	<path d="M731.6,150.7c-1.2,0-2.2,0.9-2.2,2.1c0,1.2,0.9,2.2,2.1,2.2c1.2,0,2.2-0.9,2.2-2.1C733.7,151.7,732.7,150.7,731.6,150.7z"
		/>
	<path d="M755.5,106.8c1.2,0,2.2-0.8,2.3-2c0.1-1.1-0.9-2.2-2-2.3c-1.2-0.1-2.2,0.9-2.3,2C753.4,105.7,754.3,106.7,755.5,106.8z"/>
	<path d="M760.4,169.4c1.2,0,2.1-0.9,2.2-2.1c0-1.2-1-2.1-2.1-2.2c-1.2,0-2.2,1-2.2,2.1C758.3,168.5,759.2,169.4,760.4,169.4z"/>
	<path d="M832.7,164.6c1.2,0,2.2-1,2.2-2.1c0-1.2-1-2.1-2.2-2.1s-2.2,1-2.1,2.1C830.6,163.7,831.5,164.6,832.7,164.6z"/>
	<path d="M707.4,150.7c-1.2,0-2.2,0.9-2.2,2.1c0,1.2,0.9,2.2,2.1,2.2c1.2,0,2.2-0.9,2.2-2.1C709.6,151.7,708.6,150.7,707.4,150.7z"
		/>
	<path d="M755.6,164.6c1.2,0,2.2-0.9,2.2-2.1c0-1.2-1-2.1-2.2-2.1s-2.2,0.9-2.2,2.1C753.5,163.6,754.4,164.6,755.6,164.6z"/>
	<path d="M755.5,112.1c-1.2,0-2.1,1-2.1,2.2s1,2.1,2.2,2.1s2.1-1,2.1-2.2S756.7,112.1,755.5,112.1z"/>
	<path d="M707.4,121.2c1.2,0,2.1-0.9,2.2-2.1c0-1.2-1-2.1-2.2-2.1s-2.2,0.9-2.1,2.1C705.3,120.3,706.2,121.2,707.4,121.2z"/>
	<path d="M770,155.5c-1.1,0-2.1,0.9-2.1,2.1c0,1.3,0.9,2.2,2.2,2.2c1.2,0,2.1-1,2.1-2.2C772.2,156.4,771.2,155.5,770,155.5z"/>
	<path d="M765.3,174.7c-1.2,0-2.2,1-2.2,2.1c0,1.2,1,2.1,2.1,2.2c1.2,0,2.2-0.9,2.2-2.1C767.4,175.8,766.4,174.8,765.3,174.7z"/>
	<path d="M770.1,77.8c1.2,0,2.1-0.9,2.1-2.1s-1-2.1-2.2-2.1s-2.1,1-2.1,2.2C767.9,76.9,768.9,77.9,770.1,77.8z"/>
	<path d="M741.2,174.8c-1.2,0-2.2,1-2.2,2.1c0,1.2,0.9,2.2,2.1,2.2c1.2,0,2.2-0.9,2.2-2.1C743.3,175.8,742.3,174.8,741.2,174.8z"/>
	<path d="M765.3,82.7c1.2,0,2.1-1,2.1-2.2c0-1.1-1-2.1-2.2-2.1s-2.2,1-2.1,2.2C763.1,81.8,764.1,82.7,765.3,82.7z"/>
	<path d="M736.3,179c1.2,0,2.2-0.9,2.2-2.1c0-1.2-0.9-2.2-2.1-2.2c-1.2,0-2.2,0.9-2.2,2.1C734.2,178.1,735.1,179,736.3,179z"/>
	<path d="M741,87.5c1.2,0.1,2.2-0.8,2.3-2s-0.9-2.2-2-2.2c-1.2-0.1-2.2,0.8-2.3,2C738.9,86.4,739.8,87.4,741,87.5z"/>
	<path d="M748.6,85.3c0,1.2,0.9,2.2,2.1,2.2c1.2,0.1,2.2-0.8,2.2-2c0.1-1.2-0.9-2.2-2.1-2.2C749.7,83.2,748.7,84.1,748.6,85.3z"/>
	<path d="M808.6,136.2c-1.2,0-2.1,1-2.1,2.2s1,2.1,2.2,2.1s2.1-1,2.1-2.2S809.8,136.2,808.6,136.2z"/>
	<path d="M731.5,169.9c-1.2,0-2.2,0.9-2.2,2.1c0,1.2,0.9,2.1,2.1,2.2c1.2,0,2.2-0.9,2.2-2.1C733.7,171,732.7,170,731.5,169.9z"/>
	<path d="M823,169.4c1.2,0,2.1-0.9,2.2-2.1c0-1.2-0.9-2.2-2.1-2.2c-1.2,0-2.2,0.9-2.2,2.1C820.9,168.4,821.8,169.4,823,169.4z"/>
	<path d="M745.9,88c-1.2,0-2.1,1-2.1,2.2s1,2.1,2.2,2.1s2.1-1,2.1-2.2C748.1,88.9,747.1,88,745.9,88z"/>
	<path d="M760.4,88c-1.2,0-2.2,0.9-2.2,2.1s0.9,2.2,2.1,2.2c1.2,0,2.1-0.9,2.2-2.1C762.6,89,761.6,88,760.4,88z"/>
	<path d="M798.9,155.5c-1.1,0-2.1,1-2.1,2.1c0,1.2,1,2.2,2.2,2.2s2.1-1,2.1-2.2C801.1,156.4,800.1,155.5,798.9,155.5z"/>
	<path d="M755.6,198.8c-1.2,0-2.1,1-2.1,2.2s1,2.1,2.2,2.1s2.1-1,2.1-2.2C757.8,199.8,756.7,198.8,755.6,198.8z"/>
	<path d="M834.9,114.3c0-1.1-1-2.2-2.1-2.2c-1.2,0-2.2,0.9-2.2,2.1s0.9,2.2,2.1,2.2C833.9,116.4,834.8,115.5,834.9,114.3z"/>
	<path d="M697.7,165.1c-1.2,0-2.2,1-2.2,2.2s1,2.1,2.2,2.1s2.1-0.9,2.1-2.2C699.9,166.1,698.9,165.1,697.7,165.1z"/>
	<path d="M748.1,200.9c0-1.2-1-2.1-2.2-2.1s-2.1,1-2.1,2.2s1,2.1,2.2,2.1C747.2,203.1,748.1,202.2,748.1,200.9z"/>
	<path d="M832.7,141c-1.1,0-2.1,1-2.1,2.1c0,1.2,1,2.2,2.2,2.2s2.1-1,2.1-2.2C834.9,142,833.8,141,832.7,141z"/>
	<path d="M832.6,198.3c1.2,0,2.2-0.8,2.3-2s-0.9-2.2-2.1-2.2c-1.2-0.1-2.2,0.9-2.2,2C830.5,197.3,831.4,198.3,832.6,198.3z"/>
	<path d="M789.4,194.1c-1.2,0-2.2,0.9-2.2,2.1c0,1.2,0.9,2.1,2.1,2.2c1.2,0,2.2-0.9,2.2-2.1C791.5,195,790.5,194.1,789.4,194.1z"/>
	<path d="M808.5,203.7c-1.2,0-2.1,1-2.1,2.2c0.1,1.2,1,2.1,2.2,2c1.2,0,2.1-1,2.1-2.2C810.7,204.6,809.7,203.6,808.5,203.7z"/>
	<path d="M702.6,165.1c-1.2,0-2.2,1-2.1,2.2c0,1.2,1,2.1,2.2,2.1s2.1-1,2.1-2.2C704.7,166.1,703.7,165.1,702.6,165.1z"/>
	<path d="M705.3,167.2c0,1.2,0.9,2.2,2.1,2.2c1.2,0,2.2-0.9,2.2-2.1c0-1.1-0.9-2.2-2.1-2.2C706.3,165.1,705.3,166.1,705.3,167.2z"/>
	<path d="M746,165.1c-1.2,0-2.2,1-2.2,2.1c0,1.2,0.9,2.2,2.1,2.2c1.2,0,2.1-0.9,2.1-2.1C748.1,166.1,747.2,165.1,746,165.1z"/>
	<path d="M707.4,141c-1.2,0-2.1,0.9-2.1,2c0,1.3,0.9,2.3,2.1,2.3c1.2,0,2.1-1,2.2-2.1C709.6,142,708.6,141,707.4,141z"/>
	<path d="M818.2,189.2c-1.2,0-2.1,1-2.1,2.2s1,2.1,2.2,2.1s2.1-1,2.1-2.2C820.4,190.2,819.4,189.2,818.2,189.2z"/>
	<path d="M808.6,189.2c-1.2,0-2.1,1-2.1,2.2s1,2.1,2.2,2.1s2.1-1,2.2-2.2C810.8,190.2,809.8,189.2,808.6,189.2z"/>
	<path d="M774.8,102.5c-1.2,0-2.2,1-2.1,2.2c0,1.2,1,2.1,2.2,2.1s2.1-1,2.1-2.2S776,102.5,774.8,102.5z"/>
	<path d="M765.2,116.4c1.2,0,2.2-0.9,2.2-2.1s-1-2.2-2.1-2.2c-1.2,0-2.2,1-2.2,2.1C763.1,115.4,764,116.4,765.2,116.4z"/>
	<path d="M738.5,157.7c0-1.2-0.9-2.2-2.1-2.2c-1.2,0-2.2,0.9-2.2,2.1c0,1.2,0.9,2.2,2.1,2.2C737.5,159.8,738.4,158.9,738.5,157.7z"
		/>
	<path d="M770,169.4c1.2,0,2.1-0.9,2.2-2.1c0-1.2-0.9-2.1-2.1-2.2c-1.2,0-2.2,1-2.2,2.1C767.9,168.5,768.9,169.4,770,169.4z"/>
	<path d="M765.1,101.9c1.2,0.1,2.2-0.8,2.3-1.9s-0.8-2.2-2-2.3c-1.1-0.1-2.2,0.8-2.3,2C763,100.8,763.9,101.8,765.1,101.9z"/>
	<path d="M750.8,97.6c-1.2,0-2.2,1-2.1,2.2c0,1.2,1,2.1,2.2,2.1s2.1-1,2.1-2.2C752.9,98.6,751.9,97.6,750.8,97.6z"/>
	<path d="M789.2,97.1c1.2,0.1,2.2-0.8,2.3-2s-0.8-2.2-2-2.3c-1.2-0.1-2.2,0.8-2.3,2C787.1,96,788,97,789.2,97.1z"/>
	<path d="M827.9,159.8c1.2,0,2.1-1,2.1-2.2s-1-2.1-2.2-2.1s-2.2,1-2.1,2.2C825.8,158.8,826.7,159.8,827.9,159.8z"/>
	<path d="M760.4,189.2c-1.2,0-2.1,1-2.1,2.2s1,2.1,2.2,2.1s2.1-1,2.1-2.2C762.5,190.1,761.5,189.2,760.4,189.2z"/>
	<path d="M789.3,160.3c-1.2,0-2.2,1-2.1,2.2c0,1.2,1,2.1,2.2,2.1s2.1-1,2.1-2.2C791.5,161.3,790.5,160.3,789.3,160.3z"/>
	<path d="M789.4,130.9c1.2,0,2.1-1,2.1-2.2s-1-2.1-2.2-2.1s-2.2,1-2.1,2.2C787.2,129.9,788.2,130.9,789.4,130.9z"/>
	<path d="M813.4,198.8c-1.2,0-2.1,1-2.1,2.2s0.9,2.1,2.2,2.1c1.2,0,2.1-0.9,2.1-2.1C815.6,199.8,814.6,198.8,813.4,198.8z"/>
	<path d="M717,155.5c-1.2,0-2.1,1-2.1,2.2c0.1,1.2,1,2.1,2.2,2.1s2.1-1,2.1-2.2C719.2,156.4,718.2,155.5,717,155.5z"/>
	<path d="M794.1,198.8c-1.2,0-2.1,1-2.1,2.2s1,2.1,2.2,2.1s2.1-1,2.1-2.2C796.3,199.8,795.3,198.8,794.1,198.8z"/>
	<path d="M832.6,140.5c1.2,0,2.2-0.9,2.2-2.1c0-1.1-0.9-2.2-2.1-2.2c-1.2,0-2.2,0.9-2.2,2.1C830.5,139.5,831.4,140.5,832.6,140.5z"
		/>
	<path d="M798.9,145.3c1.2,0,2.1-0.9,2.2-2.1c0-1.2-0.9-2.2-2.1-2.2c-1.2,0-2.2,0.9-2.2,2.1C796.8,144.3,797.7,145.3,798.9,145.3z"
		/>
	<path d="M830.6,186.5c0,1.2,0.9,2.2,2.1,2.2c1.2,0,2.2-0.9,2.2-2.1c0.1-1.2-0.9-2.2-2.1-2.2C831.6,184.4,830.6,185.3,830.6,186.5z"
		/>
	<path d="M707.4,135.7c1.2,0,2.1-1,2.2-2.1c0-1.2-1-2.1-2.2-2.1s-2.2,0.9-2.1,2.1C705.3,134.8,706.2,135.7,707.4,135.7z"/>
	<path d="M750.8,97.1c1.2,0,2.1-1,2.1-2.2s-1-2.1-2.2-2.1s-2.2,1-2.1,2.2S749.6,97.1,750.8,97.1z"/>
	<path d="M717,135.7c1.2,0,2.2-0.9,2.2-2.1c0-1.2-0.9-2.2-2.1-2.2c-1.2,0-2.2,0.9-2.2,2.1C714.9,134.7,715.8,135.7,717,135.7z"/>
	<path d="M755.6,184.4c-1.2,0-2.2,1-2.1,2.1c0,1.2,1,2.1,2.2,2.1s2.1-1,2.2-2.2C757.8,185.4,756.8,184.4,755.6,184.4z"/>
	<path d="M726.7,131.4c-1.2,0-2.2,1-2.1,2.2c0,1.2,1,2.1,2.2,2.1s2.1-1,2.1-2.2C728.8,132.3,727.9,131.4,726.7,131.4z"/>
	<path d="M731.5,131.4c-1.2,0-2.2,1-2.1,2.1c0,1.2,1,2.1,2.2,2.1s2.1-1,2.2-2.2C733.7,132.4,732.7,131.4,731.5,131.4z"/>
	<path d="M748.6,186.5c0,1.2,0.9,2.1,2.1,2.2c1.2,0,2.2-0.9,2.2-2.1c0-1.2-0.9-2.1-2.1-2.1C749.6,184.4,748.6,185.4,748.6,186.5z"/>
	<path d="M755.6,145.8c-1.2,0-2.2,1-2.1,2.2c0,1.2,1,2.1,2.2,2.1s2.1-0.9,2.1-2.1C757.8,146.8,756.8,145.8,755.6,145.8z"/>
	<path d="M823.1,203.7c-1.2,0-2.2,1-2.2,2.1c0,1.2,1,2.1,2.1,2.1c1.2,0,2.1-0.9,2.2-2.1C825.2,204.6,824.3,203.7,823.1,203.7z"/>
	<path d="M784.5,88c-1.2,0-2.1,1-2.1,2.2s0.9,2.1,2.2,2.1c1.2,0,2.1-1,2.1-2.2C786.7,89,785.7,88,784.5,88z"/>
	<path d="M774.9,140.5c1.2,0,2.1-1,2.1-2.2s-1-2.1-2.2-2.1s-2.2,1-2.1,2.2C772.7,139.6,773.7,140.5,774.9,140.5z"/>
	<path d="M774.8,135.7c1.2,0,2.1-0.9,2.2-2.1c0-1.2-0.9-2.1-2.1-2.2s-2.2,0.9-2.2,2.1C772.7,134.7,773.7,135.7,774.8,135.7z"/>
	<path d="M818.2,179c1.2,0,2.2-0.9,2.2-2.1c0-1.2-0.9-2.2-2.1-2.2c-1.2,0-2.2,0.9-2.2,2.1C816.1,178.1,817,179,818.2,179z"/>
	<path d="M770.1,174.8c-1.2,0-2.1,1-2.1,2.2s0.9,2.1,2.2,2.1c1.2,0,2.1-0.9,2.1-2.1C772.2,175.7,771.2,174.8,770.1,174.8z"/>
	<path d="M834.9,133.5c0-1.2-1-2.1-2.2-2.1s-2.1,1-2.1,2.2s1,2.1,2.2,2.1C833.9,135.6,834.9,134.7,834.9,133.5z"/>
	<path d="M736.3,77.8c1.2,0,2.1-1,2.1-2.2s-1-2.1-2.2-2.1s-2.1,1-2.1,2.2C734.2,76.9,735.1,77.8,736.3,77.8z"/>
	<path d="M745.9,77.8c1.2,0,2.1-0.9,2.2-2.1c0-1.2-0.9-2.2-2.1-2.2c-1.2,0-2.2,0.9-2.2,2.1C743.8,76.9,744.7,77.8,745.9,77.8z"/>
	<path d="M760.4,77.8c1.2,0,2.1-0.9,2.2-2.1c0-1.2-1-2.2-2.2-2.1c-1.2,0-2.1,1-2.1,2.2C758.3,76.9,759.2,77.8,760.4,77.8z"/>
	<path d="M784.5,77.8c1.2,0,2.2-0.9,2.2-2.1s-1-2.2-2.1-2.2c-1.2,0-2.2,1-2.2,2.1C782.4,76.9,783.3,77.8,784.5,77.8z"/>
	<path d="M750.8,78.4c-1.2,0-2.2,1-2.2,2.1c0,1.2,1,2.1,2.2,2.1s2.1-0.9,2.2-2.1C752.9,79.4,752,78.4,750.8,78.4z"/>
	<path d="M700.4,172c0,1.2,0.9,2.2,2.1,2.2c1.2,0,2.2-0.8,2.2-2c0.1-1.2-0.9-2.2-2.1-2.2C701.5,169.9,700.5,170.8,700.4,172z"/>
	<path d="M717.1,174.2c1.2,0,2.1-1,2.1-2.2s-1-2.1-2.2-2.1s-2.2,1-2.1,2.2C714.9,173.3,715.9,174.2,717.1,174.2z"/>
	<path d="M752.9,172.1c0-1.2-0.9-2.2-2.1-2.2c-1.2,0-2.2,0.9-2.2,2.1c0,1.2,0.9,2.1,2.1,2.2C751.9,174.2,752.9,173.4,752.9,172.1z"
		/>
	<path d="M789.3,169.9c-1.2,0-2.1,1-2.1,2.2s1,2.1,2.2,2.1s2.1-1,2.1-2.2C791.5,170.9,790.5,169.9,789.3,169.9z"/>
	<path d="M798.9,174.2c1.2,0,2.2-0.8,2.2-2.1c0-1.2-0.9-2.2-2.1-2.2c-1.2,0-2.2,0.9-2.2,2.1C796.8,173.2,797.7,174.2,798.9,174.2z"
		/>
	<path d="M801.6,172.1c0,1.2,0.9,2.1,2.2,2.1c1.2,0,2.1-0.9,2.2-2.1c0-1.2-1-2.1-2.2-2.1C802.6,169.9,801.6,170.9,801.6,172.1z"/>
	<path d="M806.5,172c0,1.2,0.8,2.2,2.1,2.2c1.2,0,2.2-0.9,2.2-2.1c0-1.2-0.9-2.2-2.1-2.2C807.5,169.9,806.5,170.8,806.5,172z"/>
	<path d="M774.7,92.3c1.2,0.1,2.2-0.8,2.3-2s-0.8-2.2-2-2.3c-1.2-0.1-2.2,0.8-2.3,2C772.6,91.2,773.5,92.2,774.7,92.3z"/>
	<path d="M755.7,174.8c-1.2-0.1-2.2,0.8-2.3,2s0.8,2.2,2,2.3s2.2-0.8,2.3-2C757.9,175.9,756.9,174.8,755.7,174.8z"/>
	<path d="M779.6,174.8c-1.2,0-2.1,1.1-2.1,2.2c0,1.2,1,2.1,2.2,2.1s2.1-1,2.1-2.2C781.8,175.7,780.8,174.7,779.6,174.8z"/>
	<path d="M794.1,174.8c-1.2,0-2.1,1-2.1,2.2s1,2.1,2.2,2.1s2.1-1,2.1-2.2C796.3,175.7,795.3,174.7,794.1,174.8z"/>
	<path d="M767.9,181.7c0,1.2,0.9,2.1,2.1,2.2c1.2,0,2.1-0.9,2.2-2.1c0-1.2-0.9-2.1-2.1-2.2C768.9,179.6,767.9,180.5,767.9,181.7z"/>
	<path d="M803.8,179.6c-1.1,0-2.1,0.9-2.2,2c0,1.2,0.9,2.3,2.2,2.3c1.2,0,2.1-0.9,2.2-2.1C806,180.6,805,179.6,803.8,179.6z"/>
	<path d="M813.5,183.9c1.2,0,2.1-0.9,2.1-2.2c0-1.2-1-2.1-2.2-2.1c-1.1,0-2.1,0.9-2.1,2.1C811.2,182.9,812.2,183.9,813.5,183.9z"/>
	<path d="M798.9,193.5c1.2,0,2.2-0.9,2.2-2.1c0-1.2-0.9-2.2-2.1-2.2c-1.2,0-2.2,1-2.2,2.1C796.8,192.5,797.7,193.5,798.9,193.5z"/>
	<path d="M741.1,107.3c-1.2,0-2.2,1-2.1,2.2c0,1.2,1,2.1,2.2,2.1s2.1-1,2.1-2.2C743.3,108.2,742.3,107.3,741.1,107.3z"/>
	<path d="M798.9,198.3c1.2,0,2.1-0.9,2.2-2.1c0-1.2-0.9-2.1-2.1-2.2c-1.2,0-2.2,1-2.2,2.1C796.8,197.4,797.7,198.3,798.9,198.3z"/>
	<path d="M832.8,198.8c-1.2,0-2.2,0.9-2.2,2.1c0,1.2,0.9,2.2,2.1,2.2c1.2,0,2.2-0.9,2.2-2.1C834.9,199.9,833.9,198.9,832.8,198.8z"
		/>
	<path d="M772.7,109.4c0,1.2,0.9,2.2,2.1,2.2c1.2,0,2.2-0.9,2.2-2.1s-0.9-2.2-2.1-2.2C773.7,107.3,772.7,108.2,772.7,109.4z"/>
	<path d="M697.7,112.1c-1.2,0-2.1,1-2.1,2.2s1,2.1,2.2,2.1s2.1-1,2.1-2.2S698.9,112.1,697.7,112.1z"/>
	<path d="M750.8,203.7c-1.2,0-2.2,1-2.1,2.2c0,1.2,1,2.1,2.2,2.1s2.1-1,2.1-2.2C752.9,204.6,751.9,203.7,750.8,203.7z"/>
	<path d="M765.2,208.5c-1.2,0-2.2,1-2.1,2.1c0,1.2,1,2.1,2.2,2.1s2.1-1,2.1-2.2C767.4,209.4,766.4,208.5,765.2,208.5z"/>
	<path d="M774.9,208.5c-1.2,0-2.2,1-2.2,2.1c0,1.2,1,2.1,2.2,2.1s2.1-0.9,2.2-2.1C777,209.5,776.1,208.5,774.9,208.5z"/>
	<path d="M799,208.5c-1.2,0-2.2,1-2.2,2.1c0,1.2,1,2.1,2.2,2.1s2.1-0.9,2.1-2.2C801.1,209.4,800.2,208.5,799,208.5z"/>
	<path d="M774.9,116.4c1.2,0,2.1-1,2.1-2.2s-1-2.1-2.2-2.1s-2.2,1-2.1,2.2C772.7,115.5,773.7,116.4,774.9,116.4z"/>
	<path d="M803.7,112.1c-1.2,0-2.1,1-2.1,2.2s1,2.1,2.2,2.1s2.1-1,2.1-2.2S804.9,112.1,803.7,112.1z"/>
	<path d="M717.1,121.2c1.2,0,2.1-1,2.2-2.1c0-1.2-1-2.1-2.2-2.1s-2.2,1-2.2,2.1C714.9,120.3,715.9,121.2,717.1,121.2z"/>
	<path d="M697.9,121.7c-1.2-0.1-2.2,0.9-2.3,2c-0.1,1.2,0.8,2.2,2,2.2c1.3,0.1,2.2-0.8,2.3-2C700,122.8,699.1,121.8,697.9,121.7z"/>
	<path d="M726.7,121.7c-1.2,0-2.2,1-2.2,2.1c0,1.2,0.9,2.1,2.1,2.2c1.2,0,2.2-0.9,2.2-2.1C728.9,122.8,727.9,121.8,726.7,121.7z"/>
	<path d="M741.1,121.7c-1.2,0-2.2,1-2.1,2.2c0,1.2,1,2.1,2.2,2.1s2.2-1,2.1-2.1C743.3,122.7,742.3,121.7,741.1,121.7z"/>
	<path d="M697.7,130.9c1.2,0,2.1-0.9,2.2-2.1c0-1.2-0.9-2.2-2.1-2.2c-1.2,0-2.2,1-2.2,2.1C695.6,129.9,696.5,130.8,697.7,130.9z"/>
	<path d="M707.4,126.6c-1.2,0-2.1,1-2.1,2.2c0,1.2,1,2.1,2.2,2.1s2.1-1,2.1-2.2C709.6,127.5,708.5,126.6,707.4,126.6z"/>
	<path d="M808.6,126.6c-1.2,0-2.1,1-2.1,2.2c0,1.2,1,2.1,2.2,2.1s2.1-1,2.1-2.2C810.8,127.5,809.8,126.6,808.6,126.6z"/>
	<path d="M712.2,135.7c1.2,0,2.2-0.9,2.2-2.1c0-1.2-0.9-2.2-2.1-2.2c-1.2,0-2.2,0.9-2.2,2.1C710.1,134.7,711,135.6,712.2,135.7z"/>
	<path d="M741.1,131.4c-1.2,0-2.1,1-2.1,2.2c0.1,1.2,1,2.1,2.2,2.1s2.1-1,2.1-2.2S742.3,131.4,741.1,131.4z"/>
	<path d="M717,136.2c-1.2,0-2.1,1-2.1,2.2s1,2.1,2.2,2.1s2.1-1,2.1-2.2S718.2,136.2,717,136.2z"/>
	<path d="M755.6,140.5c1.2,0,2.2-1,2.1-2.2c0-1.2-1-2.1-2.2-2.1s-2.2,1-2.1,2.2C753.5,139.6,754.4,140.5,755.6,140.5z"/>
	<path d="M697.7,145.3c1.2,0,2.2-1,2.2-2.2c0-1.1-0.9-2-2.1-2.1c-1.2,0-2.2,0.9-2.2,2.1C695.6,144.3,696.5,145.3,697.7,145.3z"/>
	<path d="M774.9,141c-1.1,0-2.1,0.9-2.2,2c0,1.2,0.9,2.2,2.2,2.3c1.2,0,2.1-0.9,2.2-2.1C777,142,776.1,141,774.9,141z"/>
	<path d="M709.6,147.9c0-1.2-1-2.1-2.2-2.1s-2.1,1-2.1,2.2s0.9,2.1,2.2,2.1C708.7,150.1,709.6,149.1,709.6,147.9z"/>
	<path d="M801.6,147.9c0,1.2,0.8,2.2,2.1,2.2c1.2,0,2.2-0.8,2.2-2c0.1-1.2-0.9-2.2-2.1-2.2C802.7,145.8,801.7,146.7,801.6,147.9z"/>
	<path d="M815.6,148c0-1.2-1-2.2-2.1-2.1c-1.2,0-2.2,1-2.2,2.1c0,1.2,0.9,2.1,2.2,2.1C814.6,150.1,815.6,149.2,815.6,148z"/>
	<path d="M758.3,176.9c0,1.2,0.9,2.1,2.1,2.2c1.2,0,2.2-0.9,2.2-2.1c0-1.2-0.9-2.2-2.1-2.2C759.2,174.7,758.3,175.7,758.3,176.9z"/>
	<path d="M789.4,154.9c1.2,0,2.1-1,2.1-2.2s-1-2.1-2.2-2.1s-2.1,1-2.1,2.2C787.2,154,788.2,155,789.4,154.9z"/>
	<path d="M697.7,155.5c-1.2,0-2.2,1-2.1,2.2c0,1.2,1,2.1,2.2,2.1s2.1-0.9,2.1-2.2C699.9,156.4,698.9,155.5,697.7,155.5z"/>
	<path d="M707.4,155.5c-1.2,0-2.1,0.9-2.1,2.1c0,1.3,1,2.2,2.2,2.2s2.1-1,2.1-2.2C709.6,156.4,708.5,155.5,707.4,155.5z"/>
	<path d="M745.9,155.5c-1.1,0-2.1,1-2.1,2.1c0,1.3,1,2.2,2.2,2.2s2.1-1,2.1-2.2C748.1,156.4,747.1,155.5,745.9,155.5z"/>
	<path d="M750.8,159.8c1.2,0,2.1-1,2.1-2.2s-1-2.1-2.2-2.1s-2.2,1-2.1,2.2C748.6,158.8,749.6,159.8,750.8,159.8z"/>
	<path d="M779.8,155.5c-1.2-0.1-2.2,0.9-2.3,2c0,1.2,0.9,2.2,2,2.3c1.2,0.1,2.2-0.8,2.3-2C781.9,156.6,781,155.6,779.8,155.5z"/>
	<path d="M789.3,159.8c1.2,0,2.2-0.9,2.2-2.1c0-1.2-0.9-2.2-2.1-2.2c-1.2,0-2.2,0.9-2.2,2.1C787.2,158.8,788.1,159.7,789.3,159.8z"
		/>
	<path d="M813.4,159.8c1.2,0,2.1-0.9,2.2-2.1c0-1.2-0.9-2.2-2.1-2.2c-1.2,0-2.2,0.9-2.2,2.1C811.3,158.8,812.2,159.8,813.4,159.8z"
		/>
	<path d="M697.8,164.6c1.2,0,2.1-0.9,2.1-2.2c0-1.2-0.9-2.1-2.2-2.1c-1.2,0-2.2,1-2.1,2.2C695.6,163.7,696.6,164.6,697.8,164.6z"/>
	<path d="M801.1,162.4c0-1.2-1-2.1-2.2-2.1s-2.2,1-2.1,2.2c0,1.2,1,2.1,2.2,2.1C800.2,164.6,801.1,163.6,801.1,162.4z"/>
	<path d="M755.6,82.7c1.2,0,2.1-1,2.2-2.1c0-1.1-1-2.1-2.2-2.1s-2.2,1-2.1,2.2C753.5,81.7,754.4,82.7,755.6,82.7z"/>
	<path d="M794.2,179.6c-1.2,0-2.2,0.9-2.2,2.1c0,1.2,0.9,2.1,2.1,2.2c1.2,0,2.1-0.9,2.2-2.1C796.3,180.6,795.4,179.6,794.2,179.6z"
		/>
	<path d="M774.9,82.7c1.2,0,2.1-0.9,2.2-2.1c0-1.2-1-2.1-2.2-2.1s-2.2,1-2.2,2.1S773.7,82.7,774.9,82.7z"/>
	<path d="M712.2,126c1.2,0,2.2-0.9,2.2-2.1s-0.9-2.2-2.1-2.2c-1.2,0-2.2,1-2.2,2.1C710.1,125.1,711,126,712.2,126z"/>
	<path d="M731.4,126c1.2,0,2.2-0.8,2.2-2c0-1.1-0.9-2.2-2.1-2.2c-1.2,0-2.2,0.9-2.2,2.1C729.3,125,730.2,126,731.4,126z"/>
	<path d="M782.4,85.4c0,1.2,0.9,2.1,2.2,2.1c1.2,0,2.1-1,2.1-2.2s-1-2.1-2.2-2.1C783.3,83.2,782.4,84.1,782.4,85.4z"/>
	<path d="M757.8,124c0-1.1-0.9-2.2-2.1-2.2c-1.2,0-2.2,0.9-2.2,2.1s0.9,2.2,2.1,2.2C756.8,126,757.7,125.1,757.8,124z"/>
	<path d="M774.8,183.9c1.2,0,2.1-0.9,2.2-2.1c0-1.2-1-2.2-2.1-2.2c-1.2,0-2.2,1-2.2,2.1C772.7,182.9,773.7,183.9,774.8,183.9z"/>
	<path d="M784.6,97.1c1.2,0,2.1-1,2.1-2.2s-1-2.1-2.2-2.1s-2.1,1-2.1,2.2C782.4,96.3,783.3,97.1,784.6,97.1z"/>
	<path d="M736.3,174.2c1.2,0,2.1-0.9,2.1-2.1c0-1.2-1-2.1-2.2-2.1s-2.1,1-2.1,2.2C734.2,173.3,735.1,174.2,736.3,174.2z"/>
	<path d="M770,126c1.3,0,2.1-0.9,2.2-2.1c0-1.2-0.9-2.2-2.1-2.2c-1.2,0-2.2,1-2.2,2.1C767.9,125.1,768.8,126,770,126z"/>
	<path d="M794.1,131.4c-1.2,0-2.2,1-2.1,2.1c0,1.2,1,2.1,2.2,2.1s2.1-1,2.1-2.2C796.3,132.3,795.4,131.4,794.1,131.4z"/>
	<path d="M746,169.9c-1.2,0-2.2,0.9-2.2,2.1c0,1.2,0.9,2.1,2.1,2.2c1.2,0,2.1-0.8,2.2-2.1C748.1,170.9,747.2,170,746,169.9z"/>
	<path d="M789.3,179.6c-1.2,0-2.2,1-2.1,2.2c0,1.2,1,2.1,2.2,2.1s2.1-0.9,2.1-2.2C791.5,180.5,790.5,179.6,789.3,179.6z"/>
	<path d="M755.6,111.6c1.2,0,2.2-0.9,2.2-2.1s-0.9-2.1-2.2-2.1c-1.2,0-2.2,0.9-2.2,2.1C753.4,110.6,754.4,111.6,755.6,111.6z"/>
	<path d="M760.4,169.9c-1.2,0-2.2,0.9-2.2,2.1c0,1.2,0.9,2.1,2.1,2.1c1.2,0,2.1-0.9,2.2-2.1C762.6,170.9,761.6,170,760.4,169.9z"/>
	<path d="M702.5,112.1c-1.2,0-2.1,1.1-2.1,2.2c0,1.2,1,2.1,2.2,2.1s2.1-1,2.1-2.2S703.7,112.1,702.5,112.1z"/>
	<path d="M714.4,114.2c0-1.2-1-2.1-2.2-2.1s-2.1,1-2.1,2.2s1,2.1,2.2,2.1C713.4,116.4,714.4,115.4,714.4,114.2z"/>
	<path d="M774.9,126c1.2,0,2.2-0.9,2.2-2.1s-1-2.2-2.1-2.2c-1.2,0-2.2,1-2.2,2.1C772.7,125.1,773.6,126,774.9,126z"/>
	<path d="M726.7,112.1c-1.2,0-2.2,1-2.1,2.2c0,1.2,1,2.1,2.2,2.1s2.1-1,2.1-2.2C728.8,113.1,727.8,112.1,726.7,112.1z"/>
	<path d="M813.4,179c1.2,0,2.1-0.9,2.2-2.1c0-1.2-0.9-2.2-2.1-2.2c-1.2,0-2.2,1-2.2,2.1C811.3,178.1,812.2,179,813.4,179z"/>
	<path d="M750.8,179.6c-1.1,0-2.1,0.9-2.2,2c-0.1,1.2,0.9,2.3,2.2,2.3c1.2,0,2.1-0.9,2.2-2.1C753,180.6,752,179.6,750.8,179.6z"/>
	<path d="M834.9,148c0-1.1-0.9-2.2-2.1-2.2c-1.2,0-2.2,0.9-2.2,2.1c0,1.2,0.9,2.2,2.1,2.2C833.9,150.1,834.8,149.2,834.9,148z"/>
	<path d="M707.4,160.3c-1.2,0-2.1,0.9-2.1,2.1c0,1.2,0.9,2.1,2.2,2.1c1.2,0,2.1-1,2.1-2.2C709.6,161.3,708.6,160.3,707.4,160.3z"/>
	<path d="M721.8,126.6c-1.2,0-2.2,1-2.1,2.2c0,1.2,1,2.1,2.2,2.1s2.1-0.9,2.1-2.2C724,127.5,723,126.6,721.8,126.6z"/>
	<path d="M717,160.3c-1.2,0-2.1,1-2.1,2.2s1,2.1,2.2,2.1s2.1-1,2.1-2.2C719.2,161.2,718.2,160.3,717,160.3z"/>
	<path d="M721.8,160.3c-1.2,0-2.1,1-2.1,2.2s1,2.1,2.2,2.1s2.1-0.9,2.1-2.2C724,161.2,723.1,160.3,721.8,160.3z"/>
	<path d="M779.7,179.6c-1.2,0-2.2,1-2.1,2.2c0,1.2,1,2.1,2.2,2.1s2.1-1,2.1-2.2C781.9,180.6,780.9,179.6,779.7,179.6z"/>
	<path d="M803.8,131.4c-1.2,0-2.2,1-2.1,2.1c0,1.2,1,2.1,2.2,2.1s2.1-1,2.1-2.2C806,132.4,805,131.4,803.8,131.4z"/>
	<path d="M767.9,133.5c0,1.2,0.9,2.2,2.1,2.2c1.2,0,2.1-0.9,2.2-2.1c0-1.2-0.9-2.1-2.1-2.1C768.9,131.4,767.9,132.3,767.9,133.5z"/>
	<path d="M781.9,128.7c0-1.2-1-2.1-2.2-2.1s-2.2,1-2.1,2.1c0,1.2,1,2.1,2.2,2.1C780.9,130.8,781.8,129.9,781.9,128.7z"/>
	<path d="M784.5,126.6c-1.2,0-2.1,1-2.1,2.2c0,1.2,1,2.1,2.2,2.1s2.1-1,2.1-2.2C786.7,127.5,785.7,126.6,784.5,126.6z"/>
	<path d="M779.7,160.3c-1.2,0-2.2,0.9-2.2,2.1c0,1.2,0.9,2.2,2.1,2.2c1.2,0,2.2-0.9,2.2-2.1C781.9,161.3,780.9,160.3,779.7,160.3z"
		/>
	<path d="M784.5,160.3c-1.2,0-2.1,0.9-2.1,2.1c0,1.2,0.9,2.1,2.1,2.1c1.2,0,2.1-0.9,2.2-2.1C786.7,161.3,785.7,160.3,784.5,160.3z"
		/>
	<path d="M770.1,145.3c1.2,0,2.1-0.9,2.1-2.1c0-1.2-0.9-2.1-2.1-2.1c-1.2,0-2.2,1-2.1,2.1C767.9,144.4,768.9,145.3,770.1,145.3z"/>
	<path d="M736.3,145.8c-1.2,0-2.1,1-2.1,2.2s0.9,2.1,2.2,2.1c1.2,0,2.1-0.9,2.1-2.1C738.5,146.8,737.5,145.8,736.3,145.8z"/>
	<path d="M818.2,126.6c-1.2,0-2.1,1-2.1,2.2c0,1.2,1,2.1,2.2,2.1s2.1-1,2.1-2.2C820.4,127.5,819.4,126.6,818.2,126.6z"/>
	<path d="M700.4,133.5c0,1.2,0.9,2.2,2.1,2.2c1.2,0,2.1-0.9,2.2-2.1c0-1.2-0.9-2.1-2.1-2.2C701.4,131.4,700.4,132.3,700.4,133.5z"/>
	<path d="M818.3,160.3c-1.2,0-2.2,0.9-2.2,2.1c0,1.2,0.9,2.2,2.1,2.2c1.2,0,2.2-0.9,2.2-2.1C820.4,161.3,819.5,160.3,818.3,160.3z"
		/>
	<path d="M760.4,145.3c1.2,0,2.1-0.9,2.2-2.1c0-1.2-1-2.1-2.1-2.1c-1.2,0-2.2,0.9-2.1,2.1C758.3,144.4,759.2,145.3,760.4,145.3z"/>
	<path d="M813.4,188.7c1.2,0,2.2-0.9,2.2-2.1c0-1.2-0.9-2.1-2.1-2.2c-1.2,0-2.2,0.9-2.2,2.1C811.3,187.7,812.2,188.7,813.4,188.7z"
		/>
	<path d="M741.2,145.3c1.2,0,2.1-1,2.1-2.2s-1-2.1-2.2-2.1s-2.2,1-2.1,2.2C739,144.4,740,145.3,741.2,145.3z"/>
	<path d="M736.3,145.3c1.2,0,2.1-0.9,2.2-2.1c0-1.2-0.9-2.2-2.1-2.2c-1.2,0-2.2,0.9-2.2,2.1C734.2,144.3,735.1,145.3,736.3,145.3z"
		/>
	<path d="M721.9,155.5c-1.2,0-2.2,1-2.2,2.1c0,1.2,1,2.1,2.1,2.2c1.2,0,2.1-0.9,2.2-2.1C724,156.4,723.1,155.5,721.9,155.5z"/>
	<path d="M738.5,133.6c0-1.2-0.9-2.2-2.1-2.2c-1.2,0-2.2,0.9-2.2,2.1c0,1.2,0.9,2.2,2.1,2.2C737.5,135.7,738.4,134.8,738.5,133.6z"
		/>
	<path d="M721.9,145.8c-1.2,0-2.2,1-2.2,2.1c0,1.2,0.9,2.1,2.1,2.1c1.3,0,2.1-0.9,2.2-2.1C724,146.8,723.1,145.9,721.9,145.8z"/>
	<path d="M702.6,141c-1.1,0-2.1,0.9-2.2,2c-0.1,1.2,0.9,2.3,2.1,2.3c1.2,0,2.1-0.9,2.2-2.1C704.8,142,703.8,141.1,702.6,141z"/>
	<path d="M745.9,131.4c-1.2,0-2.1,1-2.1,2.2s1,2.1,2.2,2.1s2.1-1,2.1-2.2C748.1,132.3,747.1,131.4,745.9,131.4z"/>
	<path d="M714.4,148c0-1.2-1-2.1-2.2-2.1s-2.1,1-2.1,2.2s0.9,2.1,2.2,2.1C713.5,150.1,714.4,149.2,714.4,148z"/>
	<path d="M760.4,135.7c1.2,0,2.1-0.9,2.1-2.2c0-1.2-1-2.1-2.2-2.1s-2.1,0.9-2.1,2.1C758.3,134.8,759.2,135.7,760.4,135.7z"/>
	<path d="M695.6,172c0,1.2,0.9,2.1,2.1,2.2c1.2,0,2.1-0.8,2.2-2.1c0-1.2-0.9-2.2-2.1-2.2C696.6,169.9,695.6,170.9,695.6,172z"/>
	<path d="M823.1,145.3c1.2,0,2.1-0.9,2.2-2.1c0-1.2-0.9-2.1-2.1-2.1c-1.2,0-2.2,1-2.2,2.1C820.9,144.4,821.9,145.3,823.1,145.3z"/>
	<path d="M789.3,145.8c-1.2,0-2.2,1-2.1,2.2c0,1.2,0.9,2.1,2.2,2.1c1.2,0,2.1-0.9,2.1-2.1C791.5,146.8,790.5,145.8,789.3,145.8z"/>
	<path d="M827.9,121.2c1.2,0,2.1-1,2.1-2.2s-1-2.1-2.2-2.1s-2.2,1-2.1,2.1C825.8,120.3,826.7,121.2,827.9,121.2z"/>
	<path d="M813.4,117c-1.2,0-2.2,1-2.1,2.2c0,1.2,1,2.1,2.2,2.1s2.1-1,2.1-2.2C815.6,117.9,814.6,116.9,813.4,117z"/>
	<path d="M789.4,121.2c1.2,0,2.1-1,2.1-2.2s-1-2.1-2.2-2.1s-2.2,1-2.1,2.2C787.2,120.3,788.2,121.2,789.4,121.2z"/>
	<path d="M808.6,203.1c1.2,0,2.2-0.9,2.2-2.1c0-1.2-1-2.2-2.1-2.2c-1.2,0-2.2,1-2.2,2.1C806.5,202.2,807.4,203.1,808.6,203.1z"/>
	<path d="M784.5,145.8c-1.2,0-2.1,1-2.1,2.2s0.9,2.1,2.1,2.1c1.2,0,2.1-0.9,2.1-2.1C786.7,146.8,785.7,145.8,784.5,145.8z"/>
	<path d="M746,203.7c-1.2,0-2.2,0.9-2.2,2.1c0,1.2,0.9,2.2,2.1,2.2c1.2,0,2.1-0.8,2.2-2.1C748.1,204.7,747.2,203.7,746,203.7z"/>
	<path d="M794.2,155.5c-1.2,0-2.2,0.9-2.2,2.1c0,1.2,0.9,2.2,2.1,2.2c1.2,0,2.1-0.9,2.2-2.1C796.3,156.5,795.4,155.5,794.2,155.5z"
		/>
	<path d="M803.8,203.7c-1.2,0-2.2,1-2.2,2.1c0,1.2,0.9,2.1,2.1,2.2c1.2,0,2.2-0.9,2.2-2.1C806,204.7,805,203.7,803.8,203.7z"/>
	<path d="M772.2,114.3c0-1.2-0.9-2.1-2.1-2.2c-1.2,0-2.2,0.9-2.2,2.1s0.9,2.1,2.1,2.2C771.3,116.4,772.2,115.5,772.2,114.3z"/>
	<path d="M736.4,208.5c-1.2,0-2.2,0.9-2.2,2.1c0,1.2,0.9,2.2,2.1,2.2c1.2,0,2.2-0.9,2.2-2.1C738.5,209.5,737.6,208.5,736.4,208.5z"
		/>
	<path d="M803.9,141c-1.2,0-2.2,0.9-2.2,2c0,1.2,0.9,2.2,2.1,2.2c1.2,0,2.2-0.9,2.2-2.1C806,142.1,805.1,141.1,803.9,141z"/>
	<path d="M770.1,208.5c-1.2,0-2.2,0.9-2.2,2.1c0,1.2,0.9,2.2,2.1,2.2c1.2,0,2.1-0.9,2.2-2.1C772.2,209.4,771.3,208.5,770.1,208.5z"
		/>
	<path d="M774.8,145.8c-1.2,0-2.2,1-2.1,2.2c0,1.2,1,2.1,2.2,2.1s2.1-0.9,2.1-2.1C777,146.8,776,145.8,774.8,145.8z"/>
	<path d="M794.1,208.5c-1.2,0-2.2,0.9-2.1,2.1c0,1.2,1,2.1,2.2,2.1s2.1-0.9,2.1-2.2C796.3,209.4,795.4,208.5,794.1,208.5z"/>
	<path d="M823,136.2c-1.2,0-2.1,1-2.1,2.2s1,2.1,2.2,2.1s2.1-1,2.1-2.2S824.2,136.2,823,136.2z"/>
	<path d="M811.3,138.3c0,1.2,0.9,2.2,2.1,2.2c1.2,0,2.2-0.9,2.2-2.1c0-1.2-0.9-2.2-2.1-2.2C812.3,136.2,811.3,137.1,811.3,138.3z"/>
	<path d="M803.8,140.5c1.2,0,2.2-0.9,2.2-2.1c0-1.2-0.9-2.2-2.1-2.2c-1.2,0-2.2,0.9-2.2,2.1C801.6,139.5,802.6,140.5,803.8,140.5z"
		/>
	<path d="M782.4,172c0,1.3,0.8,2.2,2.1,2.2c1.2,0,2.2-0.9,2.2-2.1c0-1.2-0.9-2.2-2.1-2.2C783.4,169.9,782.4,170.8,782.4,172z"/>
	<path d="M792,172.1c0,1.2,0.9,2.1,2.1,2.1c1.2,0,2.2-0.9,2.2-2.1c0-1.2-0.9-2.1-2.1-2.2C793,169.9,792,170.9,792,172.1z"/>
	<path d="M796.8,148c0,1.2,0.9,2.1,2.1,2.1c1.2,0,2.1-0.9,2.2-2.1c0-1.2-0.9-2.2-2.1-2.2C797.8,145.8,796.8,146.8,796.8,148z"/>
	<path d="M717,150.7c-1.2,0-2.1,1-2.1,2.2s1,2.1,2.2,2.1s2.1-1,2.1-2.2S718.2,150.7,717,150.7z"/>
	<path d="M811.3,172.1c0,1.2,0.9,2.1,2.1,2.1c1.2,0,2.1-0.9,2.2-2.1c0-1.2-0.9-2.2-2.1-2.2C812.2,169.9,811.3,170.9,811.3,172.1z"/>
	<path d="M823.1,174.2c1.2,0,2.1-0.9,2.1-2.1c0-1.2-0.9-2.1-2.1-2.1c-1.2,0-2.2,1-2.2,2.1C820.9,173.3,821.9,174.2,823.1,174.2z"/>
	<path d="M784.6,136.2c-1.2,0-2.2,0.9-2.2,2.1c0,1.2,0.9,2.2,2.1,2.2c1.2,0,2.2-0.9,2.2-2.1C786.7,137.2,785.8,136.2,784.6,136.2z"
		/>
	<path d="M719.7,138.3c0,1.2,0.9,2.2,2.1,2.2c1.2,0,2.2-0.8,2.2-2.1c0-1.2-0.9-2.2-2.1-2.2C720.7,136.2,719.7,137.1,719.7,138.3z"/>
	<path d="M717,145.8c-1.2,0-2.1,1-2.1,2.2s0.9,2.1,2.2,2.1c1.2,0,2.1-0.9,2.1-2.1C719.2,146.8,718.2,145.8,717,145.8z"/>
	<path d="M777.5,172.1c0,1.2,0.9,2.1,2.1,2.1c1.2,0,2.2-0.9,2.2-2.1c0-1.2-0.9-2.2-2.1-2.2C778.5,169.9,777.5,170.9,777.5,172.1z"/>
	<path d="M760.5,183.9c1.2,0,2.1-1,2.1-2.2s-1-2.1-2.2-2.1s-2.1,1-2.1,2.2C758.3,183,759.2,183.9,760.5,183.9z"/>
	<path d="M784.5,179.6c-1.2,0-2.1,0.9-2.1,2.1c0,1.2,0.9,2.1,2.1,2.1c1.2,0,2.1-0.9,2.2-2.1C786.7,180.6,785.7,179.6,784.5,179.6z"
		/>
	<path d="M743.8,186.5c0,1.2,0.9,2.2,2.1,2.2c1.2,0,2.2-0.8,2.2-2.1c0-1.2-0.8-2.2-2-2.2C744.8,184.4,743.8,185.3,743.8,186.5z"/>
	<path d="M721.9,131.4c-1.2,0-2.2,1-2.1,2.1c0,1.2,1,2.1,2.2,2.1s2.1-0.9,2.1-2.2C724,132.3,723.1,131.4,721.9,131.4z"/>
	<path d="M760.4,184.4c-1.2,0-2.1,0.9-2.1,2.1c0,1.2,0.9,2.1,2.1,2.1c1.2,0,2.1-0.9,2.2-2.1C762.6,185.4,761.6,184.4,760.4,184.4z"
		/>
	<path d="M779.7,188.7c1.2,0,2.1-0.9,2.2-2.1c0-1.2-0.9-2.1-2.2-2.1c-1.2,0-2.2,0.9-2.2,2.1C777.5,187.7,778.5,188.7,779.7,188.7z"
		/>
	<path d="M787.2,186.5c0,1.2,1,2.1,2.2,2.1s2.1-0.9,2.2-2.1c0-1.2-0.9-2.1-2.1-2.1C788.1,184.4,787.2,185.4,787.2,186.5z"/>
	<path d="M827.9,188.7c1.2,0,2.2-0.9,2.2-2.1c0-1.2-0.9-2.1-2.1-2.1c-1.2,0-2.2,0.9-2.2,2.1C825.7,187.7,826.7,188.7,827.9,188.7z"
		/>
	<path d="M813.5,126.6c-1.2,0-2.2,0.9-2.2,2c0,1.2,0.9,2.2,2.1,2.2c1.2,0.1,2.2-0.8,2.2-2C815.6,127.6,814.7,126.6,813.5,126.6z"/>
	<path d="M803.8,121.7c-1.2,0-2.2,1-2.1,2.2c0,1.2,0.9,2.1,2.2,2.1c1.2,0,2.1-0.9,2.1-2.1C805.9,122.7,804.9,121.7,803.8,121.7z"/>
	<path d="M745.9,194.1c-1.2,0-2.1,1-2.1,2.2s1,2.1,2.2,2.1s2.1-0.9,2.1-2.2C748.1,195,747.1,194,745.9,194.1z"/>
	<path d="M760.4,126c1.2,0,2.1-0.9,2.1-2.1s-1-2.1-2.2-2.1s-2.1,1-2.1,2.2C758.3,125.1,759.2,126,760.4,126z"/>
	<path d="M779.7,194c-1.2,0-2.1,1-2.1,2.2s1,2.1,2.2,2.1s2.1-1,2.1-2.2C781.8,195,780.9,194,779.7,194z"/>
	<path d="M784.5,194.1c-1.2,0-2.1,1-2.1,2.2s0.9,2.1,2.2,2.1c1.2,0,2.1-1,2.1-2.2C786.7,195,785.7,194,784.5,194.1z"/>
	<path d="M734.2,123.8c0,1.2,0.8,2.2,2,2.2s2.2-0.8,2.2-2c0.1-1.2-0.9-2.2-2-2.2C735.2,121.7,734.2,122.6,734.2,123.8z"/>
	<path d="M736.3,150.7c-1.2,0-2.1,1-2.1,2.2s1,2.1,2.2,2.1s2.1-1,2.1-2.2S737.5,150.7,736.3,150.7z"/>
	<path d="M760.5,82.7c1.2,0,2.1-1,2.1-2.2s-1-2.1-2.2-2.1s-2.1,1-2.1,2.2C758.3,81.8,759.2,82.7,760.5,82.7z"/>
	<path d="M823.1,117c-1.2,0-2.2,0.9-2.2,2.1s0.9,2.1,2.1,2.2c1.2,0,2.1-0.9,2.2-2.1C825.2,117.9,824.3,117,823.1,117z"/>
	<path d="M745.9,92.9c-1.2,0-2.1,1-2.1,2.2c0.1,1.2,1,2.1,2.2,2.1s2.1-1,2.1-2.2C748.1,93.7,747.1,92.8,745.9,92.9z"/>
	<path d="M736.3,102.5c-1.2,0-2.2,1-2.1,2.1c0,1.2,0.9,2.1,2.2,2.1c1.2,0,2.1-0.9,2.1-2.1S737.5,102.5,736.3,102.5z"/>
	<path d="M784.5,121.2c1.2,0,2.1-0.9,2.2-2.1c0-1.2-0.9-2.1-2.1-2.1c-1.2,0-2.1,0.9-2.1,2C782.3,120.2,783.3,121.2,784.5,121.2z"/>
	<path d="M784.5,102.5c-1.2,0-2.2,0.9-2.1,2.1c0,1.2,0.9,2.1,2.1,2.1c1.2,0,2.1-0.9,2.2-2.1C786.7,103.5,785.7,102.5,784.5,102.5z"
		/>
	<path d="M823,155.5c-1.2,0-2.2,1-2.1,2.2c0,1.2,1,2.1,2.2,2.1s2.1-0.9,2.1-2.2C825.2,156.4,824.3,155.5,823,155.5z"/>
	<path d="M823.1,203.1c1.2,0,2.1-0.9,2.1-2.2c0-1.2-1-2.1-2.2-2.1s-2.1,1-2.1,2.2C820.9,202.2,821.9,203.1,823.1,203.1z"/>
	<path d="M794.2,102.5c-1.2,0-2.2,1-2.2,2.1c0,1.2,0.9,2.1,2.1,2.1c1.2,0,2.1-0.9,2.2-2.1C796.3,103.5,795.4,102.5,794.2,102.5z"/>
	<path d="M736.4,203.7c-1.2,0-2.2,0.9-2.2,2c0,1.2,0.8,2.2,2.1,2.2c1.2,0,2.2-0.8,2.2-2S737.6,203.7,736.4,203.7z"/>
	<path d="M736.3,107.3c-1.2,0-2.1,0.9-2.1,2.1s1,2.1,2.2,2.1s2.1-0.9,2.1-2.2C738.5,108.2,737.5,107.3,736.3,107.3z"/>
	<path d="M760.5,111.6c1.2,0,2.1-1,2.1-2.2s-1-2.1-2.2-2.1s-2.1,1-2.1,2.2S759.3,111.6,760.5,111.6z"/>
	<path d="M770,203.7c-1.2,0-2.2,1-2.1,2.2c0,1.2,1,2.1,2.2,2.1s2.1-0.9,2.1-2.2C772.2,204.6,771.2,203.7,770,203.7z"/>
	<path d="M792,143.2c0,1.2,0.9,2.2,2.1,2.2c1.2,0,2.1-0.9,2.2-2.1c0-1.2-0.9-2.1-2.1-2.2C793,141,792,142,792,143.2z"/>
	<path d="M702.6,121.2c1.2,0,2.1-1,2.1-2.2s-1-2.1-2.2-2.1s-2.1,1-2.1,2.2C700.5,120.3,701.4,121.2,702.6,121.2z"/>
	<path d="M760.4,150.7c-1.2,0-2.1,1-2.1,2.2s1,2.1,2.2,2.1s2.1-1,2.1-2.2C762.5,151.6,761.5,150.6,760.4,150.7z"/>
	<path d="M726.6,160.3c-1.2,0-2.1,1-2.1,2.2s1,2.1,2.2,2.1s2.1-1,2.1-2.2C728.8,161.2,727.8,160.3,726.6,160.3z"/>
	<path d="M745.9,160.3c-1.2,0-2.1,1-2.1,2.2s1,2.1,2.2,2.1s2.1-1,2.1-2.2C748.1,161.2,747.1,160.3,745.9,160.3z"/>
	<path d="M789.3,145.3c1.2,0,2.1-0.9,2.2-2.1c0-1.2-0.9-2.1-2.1-2.1c-1.1,0-2.1,0.9-2.2,2C787.1,144.3,788.1,145.3,789.3,145.3z"/>
	<path d="M724.5,143c-0.1,1.2,0.9,2.3,2.1,2.3c1.2,0,2.1-0.9,2.2-2.1c0-1.2-0.9-2.2-2.1-2.2C725.6,141,724.6,141.9,724.5,143z"/>
	<path d="M712.1,141c-1.2,0-2.1,1-2.1,2.2c0.1,1.2,1,2.1,2.2,2.1s2.1-1,2.1-2.2C714.3,141.9,713.3,141,712.1,141z"/>
	<path d="M724.5,172c0,1.2,0.9,2.2,2.1,2.2c1.2,0,2.2-0.8,2.3-2s-0.9-2.2-2-2.2C725.6,169.9,724.6,170.8,724.5,172z"/>
	<path d="M746,121.2c1.2,0,2.1-0.9,2.1-2.2c0-1.2-0.9-2.1-2.2-2.1c-1.2,0-2.2,1-2.1,2.1C743.8,120.3,744.8,121.2,746,121.2z"/>
	<path d="M813.4,141c-1.2,0-2.2,1-2.2,2.1c0,1.2,1,2.1,2.2,2.1s2.1-0.9,2.2-2.1C815.6,142,814.6,141,813.4,141z"/>
	<path d="M746,102.5c-1.2,0-2.2,0.9-2.2,2.1s0.9,2.2,2.1,2.2c1.2,0,2.1-0.9,2.2-2.1C748.1,103.5,747.2,102.5,746,102.5z"/>
	<path d="M823.1,145.8c-1.2,0-2.2,1-2.2,2.1c0,1.2,0.9,2.1,2.1,2.1c1.3,0,2.1-0.8,2.2-2.1C825.2,146.8,824.3,145.9,823.1,145.8z"/>
	<path d="M760.4,198.3c1.2,0,2.1-0.9,2.1-2.2c0-1.2-1-2.1-2.2-2.1s-2.1,1-2.1,2.2C758.3,197.4,759.2,198.3,760.4,198.3z"/>
	<path d="M702.6,130.9c1.2,0,2.2-0.9,2.2-2.1c0-1.2-1-2.1-2.1-2.2c-1.2,0-2.2,1-2.2,2.1C700.4,129.9,701.4,130.8,702.6,130.9z"/>
	<path d="M700.4,162.4c0,1.2,0.9,2.1,2.1,2.2c1.2,0,2.2-0.9,2.2-2.1c0-1.2-0.9-2.1-2.1-2.2C701.4,160.3,700.4,161.2,700.4,162.4z"/>
	<path d="M794.2,87.5c1.2,0,2.1-1,2.1-2.2s-1-2.1-2.2-2.1s-2.1,1-2.1,2.2C792.1,86.6,793,87.5,794.2,87.5z"/>
	<path d="M818.3,183.9c1.2,0,2.1-0.9,2.1-2.1c0-1.2-1-2.1-2.2-2.1s-2.2,1-2.1,2.1C816.1,183,817.1,183.9,818.3,183.9z"/>
	<path d="M820.4,138.4c0-1.2-0.9-2.1-2.1-2.2c-1.2,0-2.2,0.9-2.2,2.1c0,1.2,0.9,2.2,2.1,2.2C819.4,140.5,820.4,139.6,820.4,138.4z"
		/>
	<path d="M827.9,140.5c1.2,0,2.1-1,2.1-2.2s-1-2.1-2.2-2.1s-2.1,1-2.1,2.2C825.8,139.6,826.7,140.5,827.9,140.5z"/>
	<path d="M825.7,172.1c0,1.2,0.9,2.1,2.1,2.2c1.2,0,2.2-0.9,2.2-2.1c0-1.2-0.9-2.2-2.1-2.2C826.7,169.9,825.7,170.9,825.7,172.1z"/>
	<path d="M760.4,87.5c1.2,0,2.2-0.9,2.2-2.1s-0.9-2.1-2.1-2.2c-1.2,0-2.2,0.9-2.2,2.1C758.3,86.5,759.2,87.5,760.4,87.5z"/>
	<path d="M789.3,78.4c-1.2,0-2.2,1-2.2,2.1c0,1.2,1,2.1,2.2,2.1s2.1-0.9,2.2-2.1C791.5,79.4,790.5,78.4,789.3,78.4z"/>
	<path d="M721.8,145.3c1.2,0,2.1-0.9,2.1-2.1c0-1.2-0.9-2.1-2.1-2.1c-1.2,0-2.2,1-2.2,2.1C719.7,144.4,720.7,145.3,721.8,145.3z"/>
	<path d="M702.6,140.5c1.2,0,2.1-0.9,2.2-2.1c0-1.2-1-2.1-2.2-2.1s-2.2,1-2.2,2.1C700.4,139.5,701.4,140.5,702.6,140.5z"/>
	<path d="M726.6,150.7c-1.2,0-2.1,1-2.1,2.2s1,2.1,2.2,2.1s2.1-1,2.1-2.2S727.8,150.6,726.6,150.7z"/>
	<path d="M794.1,117c-1.2,0-2.1,0.9-2.1,2.1c0,1.3,0.9,2.2,2.2,2.2c1.2,0,2.1-1,2.1-2.2S795.3,116.9,794.1,117z"/>
	<path d="M818.2,174.2c1.2,0,2.2-0.8,2.2-2c0.1-1.2-0.9-2.2-2.1-2.2c-1.2,0-2.2,0.9-2.2,2.1C816.1,173.2,817,174.2,818.2,174.2z"/>
	<path d="M818.2,150.7c-1.2,0-2.2,1-2.1,2.2c0,1.2,1,2.1,2.2,2.1s2.1-1,2.1-2.2S819.4,150.7,818.2,150.7z"/>
	<path d="M794.1,188.7c1.2,0,2.1-0.9,2.2-2.1c0-1.2-0.9-2.1-2.1-2.1c-1.2,0-2.2,0.9-2.2,2.1C792,187.7,792.9,188.7,794.1,188.7z"/>
	<path d="M745.9,145.3c1.2,0,2.1-0.9,2.2-2.1c0-1.2-0.9-2.1-2.1-2.2c-1.2,0-2.2,0.9-2.2,2.1C743.8,144.4,744.7,145.3,745.9,145.3z"
		/>
	<path d="M746,140.5c1.2,0,2.1-1,2.1-2.2s-1-2.1-2.2-2.1s-2.1,1-2.1,2.2C743.8,139.6,744.8,140.5,746,140.5z"/>
	<path d="M811.3,162.5c0,1.2,1,2.1,2.2,2.1s2.1-1,2.1-2.2s-1-2.1-2.2-2.1C812.2,160.3,811.2,161.3,811.3,162.5z"/>
	<path d="M803.8,160.3c-1.2,0-2.2,0.9-2.2,2.1c0,1.2,0.9,2.2,2.1,2.2c1.2,0,2.2-0.9,2.2-2.1C806,161.3,805,160.3,803.8,160.3z"/>
	<path d="M794.1,150.7c-1.2,0-2.1,1-2.1,2.2s1,2.1,2.2,2.1s2.1-0.9,2.1-2.1C796.3,151.6,795.3,150.7,794.1,150.7z"/>
	<path d="M794.2,126.6c-1.2,0-2.2,0.9-2.2,2.1s0.9,2.2,2.1,2.2c1.2,0,2.2-0.9,2.2-2.1C796.3,127.6,795.4,126.6,794.2,126.6z"/>
	<path d="M770.1,140.5c1.2,0,2.1-0.9,2.1-2.1c0-1.2-0.9-2.1-2.1-2.1c-1.2,0-2.2,0.9-2.1,2.1C767.9,139.6,768.8,140.5,770.1,140.5z"
		/>
	<path d="M770,130.8c1.2,0,2.1-0.9,2.2-2.1c0-1.2-0.9-2.2-2.1-2.2c-1.2,0-2.2,0.9-2.2,2.1C767.9,129.9,768.8,130.8,770,130.8z"/>
	<path d="M813.4,203.7c-1.2,0-2.1,1-2.1,2.2s1,2.1,2.2,2.1s2.1-1,2.1-2.2C815.5,204.6,814.5,203.6,813.4,203.7z"/>
	<path d="M818.4,203.7c-1.2-0.1-2.2,0.8-2.3,2s0.8,2.2,2,2.3s2.2-0.8,2.3-2S819.6,203.8,818.4,203.7z"/>
	<path d="M779.7,112.1c-1.2,0-2.2,1-2.2,2.1c0,1.2,0.9,2.1,2.1,2.2c1.2,0,2.2-0.9,2.2-2.1C781.9,113.1,780.9,112.1,779.7,112.1z"/>
	<path d="M736.3,126.6c-1.2,0-2.1,1-2.1,2.2c0,1.2,1,2.1,2.2,2.1s2.1-1,2.1-2.2C738.4,127.5,737.5,126.5,736.3,126.6z"/>
	<path d="M716.9,116.4c1.2,0.1,2.2-0.8,2.3-2c0.1-1.1-0.8-2.2-2-2.3c-1.2-0.1-2.2,0.8-2.3,2C714.8,115.3,715.7,116.3,716.9,116.4z"
		/>
	<path d="M738.5,196.2c0-1.2-0.9-2.2-2.1-2.2c-1.2,0-2.2,0.9-2.2,2.1c0,1.2,0.9,2.1,2.1,2.2C737.5,198.3,738.4,197.5,738.5,196.2z"
		/>
	<path d="M779.7,150.7c-1.2,0-2.2,1-2.2,2.1c0,1.2,1,2.1,2.1,2.1c1.2,0,2.2-0.9,2.2-2.1C781.9,151.7,780.9,150.7,779.7,150.7z"/>
	<path d="M770.1,198.3c1.2,0,2.1-1,2.1-2.2s-1-2.1-2.2-2.1s-2.1,1-2.1,2.2C768,197.5,768.9,198.3,770.1,198.3z"/>
	<path d="M770,160.3c-1.2,0-2.1,1-2.1,2.2s1,2.1,2.2,2.1s2.1-0.9,2.1-2.2C772.2,161.2,771.3,160.3,770,160.3z"/>
	<path d="M823.1,121.7c-1.2,0-2.2,1-2.2,2.1c0,1.2,0.9,2.1,2.1,2.1c1.2,0,2.1-0.9,2.2-2.1C825.2,122.7,824.3,121.8,823.1,121.7z"/>
	<path d="M736.3,121.2c1.2,0,2.1-0.9,2.2-2.1c0-1.2-0.9-2.2-2.1-2.2c-1.2,0-2.2,0.9-2.2,2.1C734.2,120.3,735.1,121.2,736.3,121.2z"
		/>
	<path d="M712.2,164.6c1.2,0,2.1-0.9,2.2-2.1c0-1.2-0.9-2.1-2.1-2.2c-1.2,0-2.2,0.9-2.2,2.1C710.1,163.6,711,164.6,712.2,164.6z"/>
	<path d="M719.4,192.7c-0.1-2.1-1.5-3.6-3.6-3.7c-2.4-0.1-4.8-0.1-7.3,0c-2,0.1-3.5,1.5-3.5,3.5c-0.1,2.5-0.1,4.9,0,7.4
		c0.1,2.1,1.5,3.5,3.6,3.6c2.4,0.1,4.8,0.1,7.3,0c2.1-0.1,3.5-1.6,3.6-3.7c0-1.1,0-2.3,0-3.4C719.5,195.1,719.5,193.9,719.4,192.7z"
		/>
	<path d="M708.6,97.4c1.2,0,2.4,0,3.6,0c1.2,0,2.3,0,3.5,0c2.2,0,3.7-1.5,3.7-3.7c0-2.4,0-4.8,0-7.1c0-2.1-1.5-3.5-3.6-3.6
		c-2.5-0.1-4.9-0.1-7.4,0c-1.9,0.1-3.4,1.4-3.4,3.3c-0.1,2.6-0.1,5.2,0,7.7C705.1,96,706.6,97.3,708.6,97.4z"/>
	<path d="M821.9,83c-2.4-0.1-4.8-0.1-7.3,0c-2.1,0.1-3.5,1.5-3.6,3.6c0,2.4,0,4.8,0,7.1c0,2.2,1.5,3.6,3.7,3.7c1.2,0,2.3,0,3.5,0
		c1.1,0,2.3,0,3.4,0c2.3,0,3.7-1.4,3.8-3.6c0.1-2.4,0.1-4.8,0-7.3C825.4,84.4,824,83,821.9,83z"/>
</g>
<g>
	<path class="st5" d="M765.5,47.3c52.6,0,95.3,43,95.3,95.8c-0.1,52.7-43.1,95.9-96,95.4c-53.3-0.5-95.3-42.9-95-96.1
		C670,88.3,713.7,47.4,765.5,47.3z"/>
	<path class="st6" d="M714.1,164.7c-3.2,7.7-9.6,10.3-17.4,10.5c-2.6,0-5.1,0.1-7.7-0.2c-1.3-0.2-2-0.6-2-2.2c0.1-3.5,0.1-7,0-10.5
		c0-1.8,0.6-2.4,2.4-2.2c1.1,0.2,2.3,0.1,3.5,0.1c4.3-0.1,5.9-1.6,5.9-5.9c0-10.6,0-21.1,0-31.7c0-5.3-0.4-4.7,4.7-4.7
		c3.7,0,7.5,0.1,11.2,0.1c0.9,0.5,0.7,1.4,0.7,2.2c0,12.3,0.1,24.6,0,36.9C715.4,159.7,715,162.3,714.1,164.7z"/>
	<path class="st6" d="M791.7,118.6c-1.3,0-2.7,0-4,0c-0.5,0.4-1,0.6-1.5,0.6c-0.7,0.1-1.4,0-2.1,0.1c-0.9,0.1-1.7,0-2.6,0.1
		c-2.2,0.2-1.9,1.9-1.9,3.4c0,9.8,0,19.6,0,29.4c0,1.8,0,3.7-0.7,5.4c-1,1.8-0.9,4-2,5.7c-1.2,5.8-5.8,9.8-12.2,10.8
		c-3.5,0.6-6.9,0.6-10.4,0.5c-3.7-0.5-3.7-0.5-3.7-4.4c0-2.7,0-5.3,0-8c0-1.8,0.7-2.5,2.6-2.4c1.9,0.1,3.8,0.8,5.6-0.2
		c2.2-0.9,3.2-2.5,3.2-4.8c0-5.8,0.1-11.6,0.1-17.5c0-5.7,0-11.3,0-17c0-1.4,0.1-2.5,1.9-2.4c8.7,0,17.5,0,26.2,0
		C790.8,118,791.4,118,791.7,118.6z"/>
	<path class="st6" d="M821.7,165.6c0.4-1,0.5-2.1,0.5-3.2c0-13.7-0.1-27.5,0-41.2c0-2.3-0.7-2.8-2.8-2.7c-3.1,0.2-6.2,0-9.2,0
		c0.6-0.9,1.5-0.6,2.3-0.6c7.8,0,15.7,0,23.5-0.1c2.2,0,2.8,0.7,2.8,2.9c-0.1,17-0.1,34,0,50.9c0,2-0.5,2.9-2.7,2.8
		c-3.8-0.1-7.7-0.1-11.5,0c-1.7,0-2.3-0.7-2.4-2.4C822.1,170,822.9,167.7,821.7,165.6z"/>
	<path class="st6" d="M840.8,102.3c-0.5,2.7-1.6,5.9-4,8.4c-2.4,2.7-6,3-9.1,1.1c-2.9-1.7-4.3-5.1-3.4-8.4c0.6-2.2,1.5-4.2,2.8-6.1
		c1.8-2.7,5.2-3.9,8.3-3.1C838.6,95.2,840.8,98.1,840.8,102.3z"/>
	<path class="st7" d="M823,161.2c0-13,0-26.1,0-39.1c0-0.9,0-1.8-0.2-2.7c-0.2-0.8-0.5-1.4-1.5-1.4c-3.7,0.1-7.5-0.3-11.2,0.2
		c-0.7,0.8-0.4,1.7-0.4,2.6c0,9.1,0,18.2,0,27.4c0,2.7-0.3,5.3-1.4,7.8c-1,2.1-2.6,3.5-4.8,3.9c-6.3,1.3-10-1.2-11.1-7.5
		c-0.2-1.4-0.3-2.8-0.3-4.2c0-9.1,0-18.2,0-27.4c0-0.9,0.3-1.8-0.4-2.6c-1.4-0.4-2.8-0.4-4.1,0l0,0c-0.4,0-0.9,0-1.3,0l0,0
		c-0.7,0-1.3,0-2,0l0,0c-0.8,0-1.7,0-2.5,0l0,0c-2.4-0.5-3,0.5-3.1,2.9c-0.2,12.3,0.7,24.5-0.5,36.8c-0.8,1.4-0.2,2.8-0.1,4.1
		c0.5,1.3,0.9,2.6,2,3.5c0.6,1.2,1.4,2.3,2.5,3c1.1,1.3,2.3,2.4,4,3.1c7.1,4.5,14.8,4.6,22.6,2.7c5.2-1.3,9.4-4.2,12.4-8.7
		C823.3,164.5,823,162.8,823,161.2z"/>
	<path class="st8" d="M732.9,132.9c6.8,0.2,13.6,0,20.5,0.1c1.8,0,2.5-0.6,2.5-2.5c-0.1-3.6-0.1-7.2,0-10.7c0-1.4-0.5-1.9-1.9-1.9
		c-12.7,0.1-25.5,0.1-38.2,0.1l0,0c-0.3,0-0.7,0-1,0c0.2,0.4,0.3,0.7,0.4,1.1c-0.1,0.5-0.1,1.1-0.1,1.7c0,12.4,0.1,24.8-0.2,37.2
		c-0.2,2.2-0.4,4.4-0.7,6.6c0.4,3.1-0.5,6.3,0.5,9.4c8,0,15.9-0.1,23.9-0.1c0.4,0,0.7,0,1.1,0c0.4,0,0.8,0,1.1,0l0,0l0,0
		c1.5,0,3,0,4.5,0l0,0c0.7,0,1.3-0.1,2,0c2.3,0.3,3.3-0.5,3.1-2.9c-0.2-2.9-0.2-5.8,0-8.7c0.1-1.9-0.6-2.4-2.4-2.4
		c-2.6,0-5.2,0.1-7.7,0.1c-0.6-0.2-1.3,0-2-0.1c-2.4-0.1-4.7,0.2-7.1-0.2c-1.2-2.2-0.4-4.5-0.5-6.8l0,0h0.1c6.8,0,13.7,0,20.5-0.1
		c0.9,0,2,0.4,2.6-0.8l0,0c0.7-3.4,0.1-6.9,0.3-10.4c0.2-2-0.6-2.8-2.7-2.7c-6.2,0.1-12.3-0.1-18.5,0.1c-2.6,0.1-2.5-1.3-2.5-3
		C730.5,134.4,730.1,132.8,732.9,132.9z"/>
</g>
</svg>
