<?xml version="1.0" encoding="utf-8"?>
<!-- Generator: Adobe Illustrator 27.9.0, SVG Export Plug-In . SVG Version: 6.00 Build 0)  -->
<svg version="1.1" id="Layer_1" xmlns="http://www.w3.org/2000/svg" xmlns:xlink="http://www.w3.org/1999/xlink" x="0px" y="0px"
	 viewBox="0 0 300 35" style="enable-background:new 0 0 300 35;" xml:space="preserve">
<style type="text/css">
	.st0{fill-rule:evenodd;clip-rule:evenodd;fill:#21376F;}
	.st1{fill:none;stroke:#FFFFFF;stroke-width:1.1988;stroke-linecap:round;stroke-linejoin:round;stroke-miterlimit:22.9256;}
	.st2{fill:#FFFFFF;}
</style>
<g>
	<path class="st0" d="M11.22,0h277.55C294.95,0,300,4.97,300,11.04v12.92c0,6.07-5.05,11.04-11.22,11.04H11.22
		C5.05,35,0,30.03,0,23.96V11.04C0,4.97,5.05,0,11.22,0"/>
	<line class="st1" x1="102.92" y1="6.6" x2="102.92" y2="28.4"/>
	<line class="st1" x1="214.6" y1="6.6" x2="214.6" y2="28.4"/>
	<path class="st2" d="M280.48,22.66c-0.1,0-0.21,0-0.35-0.01c-0.14-0.01-0.27-0.02-0.42-0.03c-0.14-0.01-0.28-0.02-0.4-0.04
		c-0.13-0.01-0.23-0.03-0.32-0.05v-0.4c0.11,0.01,0.25,0.02,0.41,0.03c0.16,0.01,0.33,0.02,0.52,0.02c0.18,0,0.36,0.01,0.54,0.01
		c0.2,0,0.38-0.02,0.54-0.06c0.16-0.04,0.29-0.11,0.38-0.22c0.1-0.1,0.14-0.25,0.14-0.45v-0.33c0-0.22-0.06-0.39-0.17-0.51
		c-0.12-0.12-0.3-0.17-0.56-0.17h-0.53c-0.4,0-0.72-0.09-0.95-0.26c-0.23-0.17-0.34-0.48-0.34-0.9v-0.27c0-0.45,0.12-0.78,0.37-0.97
		c0.25-0.19,0.6-0.29,1.05-0.29c0.14,0,0.3,0.01,0.48,0.02c0.18,0.02,0.35,0.03,0.52,0.05c0.17,0.02,0.3,0.04,0.42,0.06v0.4
		c-0.19-0.02-0.42-0.03-0.66-0.05c-0.25-0.01-0.48-0.02-0.69-0.02c-0.2,0-0.37,0.02-0.52,0.07c-0.15,0.05-0.26,0.13-0.34,0.24
		c-0.08,0.12-0.12,0.28-0.12,0.49v0.22c0,0.27,0.07,0.45,0.21,0.55c0.14,0.1,0.34,0.15,0.59,0.15h0.56c0.27,0,0.49,0.05,0.66,0.14
		c0.17,0.1,0.3,0.23,0.39,0.4c0.08,0.17,0.13,0.36,0.13,0.58v0.37c0,0.32-0.07,0.57-0.21,0.75c-0.14,0.17-0.33,0.29-0.56,0.36
		C281.02,22.63,280.76,22.66,280.48,22.66 M276.29,22.2c0.25,0,0.46-0.02,0.63-0.07c0.17-0.05,0.31-0.14,0.42-0.28
		c0.11-0.14,0.19-0.33,0.24-0.59c0.05-0.26,0.07-0.6,0.07-1.02c0-0.44-0.03-0.79-0.08-1.06c-0.05-0.27-0.13-0.47-0.24-0.6
		c-0.11-0.14-0.25-0.22-0.42-0.27c-0.17-0.04-0.38-0.07-0.63-0.07c-0.23,0-0.43,0.02-0.6,0.07c-0.17,0.04-0.31,0.13-0.43,0.27
		c-0.11,0.14-0.2,0.34-0.25,0.6c-0.06,0.27-0.08,0.62-0.08,1.06c0,0.42,0.02,0.76,0.07,1.02c0.05,0.26,0.12,0.45,0.23,0.59
		c0.11,0.14,0.25,0.23,0.42,0.28C275.83,22.17,276.04,22.2,276.29,22.2z M276.29,22.66c-0.31,0-0.59-0.03-0.83-0.09
		c-0.24-0.06-0.43-0.17-0.59-0.34c-0.16-0.17-0.27-0.41-0.35-0.73c-0.08-0.32-0.12-0.75-0.12-1.27c0-0.52,0.04-0.95,0.12-1.27
		c0.08-0.32,0.2-0.57,0.36-0.75c0.16-0.17,0.36-0.29,0.59-0.35c0.23-0.06,0.51-0.09,0.82-0.09c0.32,0,0.6,0.03,0.83,0.09
		c0.24,0.06,0.43,0.18,0.59,0.35c0.16,0.17,0.27,0.42,0.35,0.75c0.08,0.32,0.11,0.75,0.11,1.27c0,0.52-0.04,0.95-0.12,1.27
		c-0.08,0.32-0.19,0.57-0.35,0.73c-0.16,0.17-0.35,0.28-0.59,0.34C276.89,22.63,276.61,22.66,276.29,22.66z M270.59,17.35
		c0-0.17,0.04-0.31,0.1-0.41c0.06-0.1,0.14-0.17,0.24-0.22c0.1-0.05,0.2-0.07,0.3-0.07c0.11,0,0.2,0.02,0.29,0.06
		c0.09,0.04,0.17,0.09,0.26,0.14c0.08,0.05,0.16,0.1,0.24,0.14c0.08,0.04,0.16,0.06,0.24,0.06c0.12,0,0.21-0.03,0.29-0.1
		c0.08-0.07,0.12-0.17,0.12-0.31h0.27c0,0.22-0.06,0.4-0.17,0.52c-0.11,0.13-0.27,0.19-0.47,0.19c-0.1,0-0.2-0.02-0.29-0.06
		c-0.09-0.04-0.17-0.09-0.26-0.14c-0.08-0.05-0.17-0.1-0.25-0.14c-0.08-0.04-0.16-0.06-0.25-0.06c-0.11,0-0.2,0.03-0.28,0.1
		c-0.08,0.07-0.12,0.17-0.12,0.31H270.59z M270.08,22.62v-4.81h0.43l2.55,3.92v-3.92h0.53v4.81h-0.43l-2.55-3.92v3.92H270.08z
		 M266.38,20.78h1.7l-0.84-2.51L266.38,20.78z M265.22,22.62l1.67-4.81h0.68l1.67,4.81h-0.54l-0.49-1.37h-1.97l-0.48,1.37H265.22z
		 M260.67,22.17h0.73c0.27,0,0.47-0.07,0.58-0.2c0.12-0.13,0.18-0.31,0.18-0.55v-2.45c0-0.25-0.06-0.43-0.19-0.56
		c-0.13-0.12-0.31-0.18-0.55-0.18h-0.76c-0.24,0-0.43,0.06-0.57,0.19c-0.14,0.13-0.21,0.31-0.21,0.55v2.45
		c0,0.25,0.07,0.43,0.21,0.56C260.23,22.11,260.42,22.17,260.67,22.17z M260.57,22.64c-0.23,0-0.44-0.04-0.63-0.12
		c-0.18-0.08-0.33-0.2-0.43-0.37c-0.1-0.17-0.16-0.38-0.16-0.65v-2.55c0-0.26,0.05-0.47,0.16-0.64c0.1-0.17,0.25-0.3,0.43-0.39
		c0.18-0.09,0.39-0.13,0.63-0.13h0.95c0.27,0,0.5,0.05,0.67,0.15c0.17,0.1,0.3,0.23,0.38,0.41c0.08,0.17,0.12,0.38,0.12,0.61v2.55
		c0,0.4-0.11,0.69-0.32,0.87c-0.21,0.18-0.5,0.27-0.85,0.27H260.57z M255.26,22.62V22.2l1.81-1.71c0.19-0.17,0.33-0.33,0.44-0.48
		c0.11-0.15,0.19-0.3,0.24-0.45c0.05-0.15,0.07-0.31,0.07-0.49c0-0.16-0.03-0.3-0.09-0.42c-0.06-0.12-0.17-0.22-0.32-0.29
		c-0.15-0.07-0.37-0.1-0.65-0.1h-1.33v-0.4c0.2-0.02,0.43-0.04,0.67-0.06c0.25-0.02,0.5-0.03,0.77-0.03c0.37,0,0.67,0.05,0.88,0.16
		c0.21,0.1,0.37,0.25,0.46,0.43c0.09,0.19,0.13,0.4,0.13,0.65c0,0.22-0.03,0.43-0.09,0.61c-0.06,0.19-0.15,0.37-0.28,0.55
		c-0.13,0.18-0.29,0.36-0.5,0.56l-1.5,1.41h2.55v0.48H255.26z M249.18,22.62v-4.81h0.43l2.55,3.92v-3.92h0.53v4.81h-0.43l-2.55-3.92
		v3.92H249.18z M246.22,22.65c-0.11,0-0.22-0.01-0.34-0.03c-0.12-0.02-0.23-0.06-0.34-0.12c-0.11-0.06-0.19-0.15-0.26-0.28
		c-0.07-0.12-0.1-0.29-0.1-0.51v-2.94c0-0.19,0.03-0.34,0.08-0.47c0.06-0.12,0.13-0.22,0.22-0.29c0.09-0.07,0.2-0.12,0.31-0.16
		c0.12-0.03,0.23-0.05,0.35-0.05c0.27,0,0.53,0.01,0.76,0.02c0.23,0.01,0.46,0.01,0.67,0.02c0.21,0.01,0.42,0.01,0.61,0.02v0.42
		h-1.91c-0.17,0-0.31,0.05-0.41,0.14c-0.1,0.09-0.15,0.24-0.15,0.44V20l2.19,0.03v0.4l-2.19,0.03v1.13c0,0.16,0.03,0.28,0.08,0.37
		c0.06,0.08,0.13,0.14,0.22,0.16c0.09,0.03,0.19,0.04,0.29,0.04h1.89v0.42c-0.2,0.01-0.42,0.02-0.64,0.03
		c-0.22,0.01-0.45,0.02-0.67,0.02C246.66,22.64,246.44,22.64,246.22,22.65z M239.78,20.78h1.7l-0.84-2.51L239.78,20.78z
		 M238.62,22.62l1.67-4.81h0.68l1.67,4.81h-0.54l-0.49-1.37h-1.97l-0.48,1.37H238.62z M236.58,22.62v-4.34h-1.51v-0.47h3.55v0.47
		h-1.51v4.34H236.58z M233.02,22.66c-0.1,0-0.21,0-0.35-0.01c-0.14-0.01-0.27-0.02-0.42-0.03c-0.14-0.01-0.28-0.02-0.4-0.04
		c-0.13-0.01-0.23-0.03-0.32-0.05v-0.4c0.11,0.01,0.25,0.02,0.41,0.03c0.16,0.01,0.33,0.02,0.52,0.02c0.18,0,0.36,0.01,0.54,0.01
		c0.2,0,0.38-0.02,0.54-0.06c0.16-0.04,0.29-0.11,0.38-0.22c0.1-0.1,0.14-0.25,0.14-0.45v-0.33c0-0.22-0.06-0.39-0.17-0.51
		c-0.12-0.12-0.3-0.17-0.56-0.17h-0.53c-0.4,0-0.72-0.09-0.95-0.26c-0.23-0.17-0.34-0.48-0.34-0.9v-0.27c0-0.45,0.12-0.78,0.37-0.97
		c0.25-0.19,0.6-0.29,1.05-0.29c0.14,0,0.3,0.01,0.48,0.02c0.18,0.02,0.35,0.03,0.52,0.05c0.17,0.02,0.3,0.04,0.42,0.06v0.4
		c-0.19-0.02-0.42-0.03-0.66-0.05c-0.25-0.01-0.48-0.02-0.69-0.02c-0.2,0-0.37,0.02-0.52,0.07c-0.15,0.05-0.26,0.13-0.34,0.24
		c-0.08,0.12-0.12,0.28-0.12,0.49v0.22c0,0.27,0.07,0.45,0.21,0.55c0.14,0.1,0.34,0.15,0.59,0.15h0.57c0.27,0,0.49,0.05,0.66,0.14
		c0.17,0.1,0.3,0.23,0.39,0.4c0.08,0.17,0.13,0.36,0.13,0.58v0.37c0,0.32-0.07,0.57-0.21,0.75c-0.14,0.17-0.33,0.29-0.56,0.36
		C233.57,22.63,233.31,22.66,233.02,22.66z M228.03,20.78h1.7l-0.84-2.51L228.03,20.78z M226.87,22.62l1.67-4.81h0.68l1.67,4.81
		h-0.54l-0.49-1.37h-1.97l-0.48,1.37H226.87z M222.62,22.62v-4.81h0.53v2.23h2.45v-2.23h0.53v4.81h-0.53v-2.11h-2.45v2.11H222.62z
		 M289.28,14.05h1.21l-0.6-2.12L289.28,14.05z M287.73,15.93l1.54-4.84h1.24l1.54,4.84h-1.02l-0.31-1.01h-1.67l-0.31,1.01H287.73z
		 M286.21,15.93V11.1h0.98v4.84H286.21z M283.07,13.59h0.98c0.12,0,0.21-0.03,0.3-0.08c0.08-0.05,0.14-0.14,0.18-0.26
		c0.04-0.12,0.06-0.28,0.06-0.48c0-0.2-0.02-0.35-0.06-0.47c-0.04-0.12-0.1-0.2-0.18-0.25c-0.08-0.05-0.17-0.08-0.28-0.08h-1V13.59z
		 M282.08,15.93V11.1h2.07c0.16,0,0.32,0.02,0.49,0.06c0.17,0.04,0.32,0.11,0.46,0.22c0.14,0.11,0.25,0.28,0.34,0.5
		c0.09,0.22,0.13,0.52,0.13,0.88c0,0.37-0.04,0.66-0.13,0.89c-0.09,0.23-0.2,0.4-0.34,0.52c-0.14,0.12-0.29,0.2-0.45,0.24
		c-0.16,0.04-0.31,0.06-0.47,0.06c-0.08,0-0.17,0-0.28-0.01c-0.11-0.01-0.21-0.02-0.32-0.03c-0.11-0.01-0.21-0.03-0.3-0.04
		c-0.09-0.01-0.17-0.02-0.23-0.03v1.58H282.08z M279.34,15.1c0.2,0,0.37-0.02,0.5-0.07c0.13-0.04,0.24-0.12,0.32-0.23
		s0.13-0.27,0.17-0.48c0.04-0.21,0.05-0.48,0.05-0.81c0-0.35-0.02-0.63-0.05-0.84c-0.04-0.21-0.09-0.37-0.17-0.48
		c-0.08-0.11-0.18-0.19-0.32-0.23c-0.13-0.04-0.3-0.06-0.5-0.06c-0.19,0-0.35,0.02-0.49,0.06c-0.13,0.04-0.24,0.11-0.32,0.23
		c-0.08,0.11-0.14,0.27-0.18,0.48c-0.04,0.21-0.06,0.49-0.06,0.84c0,0.33,0.02,0.6,0.05,0.81c0.03,0.21,0.09,0.37,0.17,0.48
		c0.08,0.11,0.19,0.19,0.32,0.23C278.97,15.08,279.14,15.1,279.34,15.1z M279.34,15.97c-0.34,0-0.63-0.03-0.88-0.09
		c-0.25-0.06-0.46-0.18-0.63-0.35c-0.17-0.17-0.3-0.42-0.38-0.74s-0.13-0.74-0.13-1.26c0-0.52,0.04-0.94,0.13-1.27
		c0.09-0.32,0.21-0.57,0.38-0.75c0.17-0.17,0.38-0.29,0.63-0.36c0.25-0.07,0.55-0.1,0.88-0.1c0.34,0,0.63,0.03,0.88,0.1
		c0.25,0.07,0.46,0.19,0.63,0.36c0.17,0.17,0.29,0.42,0.38,0.75c0.08,0.32,0.13,0.75,0.13,1.27c0,0.52-0.04,0.94-0.13,1.26
		c-0.08,0.32-0.21,0.57-0.38,0.74c-0.17,0.17-0.38,0.29-0.63,0.35C279.97,15.94,279.68,15.97,279.34,15.97z M274.25,13.36h0.88
		c0.09,0,0.17-0.01,0.24-0.03c0.07-0.02,0.13-0.06,0.19-0.11c0.05-0.05,0.09-0.13,0.12-0.22c0.03-0.09,0.04-0.21,0.04-0.35
		c0-0.14-0.01-0.25-0.04-0.34c-0.03-0.09-0.07-0.16-0.12-0.21c-0.05-0.05-0.12-0.09-0.19-0.1c-0.07-0.02-0.15-0.03-0.24-0.03h-0.88
		V13.36z M273.27,15.93V11.1h2.03c0.19,0,0.38,0.02,0.54,0.07c0.17,0.05,0.32,0.13,0.45,0.24c0.13,0.11,0.23,0.27,0.3,0.47
		c0.07,0.2,0.11,0.46,0.11,0.77c0,0.22-0.02,0.41-0.07,0.57c-0.04,0.16-0.1,0.29-0.18,0.39c-0.07,0.1-0.16,0.18-0.25,0.24
		c-0.09,0.06-0.19,0.11-0.29,0.15l0.92,1.94h-1l-0.79-1.79c-0.05,0-0.11,0-0.18,0c-0.07,0-0.14,0-0.21,0c-0.07,0-0.14,0-0.21,0
		c-0.07,0-0.14,0-0.19-0.01v1.8H273.27z M270.13,13.59h0.98c0.12,0,0.21-0.03,0.3-0.08c0.08-0.05,0.14-0.14,0.18-0.26
		c0.04-0.12,0.06-0.28,0.06-0.48c0-0.2-0.02-0.35-0.06-0.47c-0.04-0.12-0.1-0.2-0.18-0.25c-0.08-0.05-0.17-0.08-0.28-0.08h-1V13.59z
		 M269.14,15.93V11.1h2.07c0.16,0,0.32,0.02,0.49,0.06c0.17,0.04,0.32,0.11,0.46,0.22c0.14,0.11,0.25,0.28,0.34,0.5
		c0.09,0.22,0.13,0.52,0.13,0.88c0,0.37-0.04,0.66-0.13,0.89c-0.09,0.23-0.2,0.4-0.34,0.52c-0.14,0.12-0.29,0.2-0.45,0.24
		c-0.16,0.04-0.31,0.06-0.47,0.06c-0.08,0-0.17,0-0.28-0.01c-0.11-0.01-0.21-0.02-0.32-0.03c-0.11-0.01-0.21-0.03-0.3-0.04
		c-0.09-0.01-0.17-0.02-0.23-0.03v1.58H269.14z M262.78,15.93V11.1h0.79l2.06,3.19V11.1h0.98v4.84h-0.79l-2.05-3.19v3.19H262.78z
		 M259.75,10.76l0.55-0.92h0.79l-0.76,0.92H259.75z M260,15.1c0.2,0,0.37-0.02,0.5-0.07c0.13-0.04,0.24-0.12,0.32-0.23
		c0.08-0.11,0.13-0.27,0.17-0.48c0.04-0.21,0.05-0.48,0.05-0.81c0-0.35-0.02-0.63-0.05-0.84c-0.04-0.21-0.09-0.37-0.17-0.48
		c-0.08-0.11-0.18-0.19-0.32-0.23c-0.13-0.04-0.3-0.06-0.5-0.06c-0.19,0-0.35,0.02-0.49,0.06c-0.13,0.04-0.24,0.11-0.32,0.23
		c-0.08,0.11-0.14,0.27-0.18,0.48c-0.04,0.21-0.06,0.49-0.06,0.84c0,0.33,0.02,0.6,0.05,0.81c0.03,0.21,0.09,0.37,0.17,0.48
		s0.19,0.19,0.32,0.23C259.64,15.08,259.8,15.1,260,15.1z M260,15.97c-0.34,0-0.63-0.03-0.88-0.09c-0.25-0.06-0.46-0.18-0.63-0.35
		c-0.17-0.17-0.3-0.42-0.38-0.74c-0.08-0.32-0.13-0.74-0.13-1.26c0-0.52,0.04-0.94,0.13-1.27c0.09-0.32,0.21-0.57,0.38-0.75
		c0.17-0.17,0.38-0.29,0.63-0.36c0.25-0.07,0.55-0.1,0.88-0.1c0.34,0,0.63,0.03,0.88,0.1c0.25,0.07,0.46,0.19,0.63,0.36
		c0.17,0.17,0.29,0.42,0.38,0.75c0.08,0.32,0.13,0.75,0.13,1.27c0,0.52-0.04,0.94-0.13,1.26c-0.08,0.32-0.21,0.57-0.38,0.74
		c-0.17,0.17-0.38,0.29-0.63,0.35C260.64,15.94,260.34,15.97,260,15.97z M256.27,15.93V11.1h0.98v4.84H256.27z M254.03,15.97
		c-0.29,0-0.54-0.03-0.76-0.1c-0.22-0.07-0.41-0.19-0.56-0.36c-0.15-0.17-0.27-0.42-0.35-0.75c-0.08-0.32-0.12-0.75-0.12-1.27
		c0-0.5,0.04-0.91,0.12-1.23c0.08-0.32,0.2-0.57,0.36-0.75c0.16-0.18,0.34-0.3,0.56-0.37c0.22-0.07,0.47-0.1,0.75-0.1
		c0.22,0,0.43,0.01,0.62,0.04c0.19,0.02,0.37,0.05,0.52,0.08c0.16,0.03,0.29,0.07,0.39,0.11v0.75c-0.08-0.02-0.19-0.03-0.32-0.05
		c-0.14-0.02-0.29-0.03-0.46-0.04c-0.17-0.01-0.35-0.02-0.54-0.02c-0.19,0-0.34,0.02-0.48,0.06c-0.13,0.04-0.23,0.12-0.31,0.23
		c-0.08,0.11-0.14,0.27-0.17,0.48c-0.04,0.21-0.06,0.48-0.06,0.82c0,0.32,0.02,0.59,0.05,0.8c0.03,0.21,0.09,0.37,0.16,0.49
		c0.08,0.12,0.18,0.2,0.31,0.24c0.13,0.05,0.3,0.07,0.5,0.07c0.34,0,0.61-0.01,0.82-0.02c0.21-0.01,0.38-0.03,0.51-0.05v0.75
		c-0.12,0.04-0.26,0.07-0.41,0.1c-0.16,0.03-0.33,0.05-0.51,0.07C254.47,15.97,254.26,15.97,254.03,15.97z M249.12,14.05h1.21
		l-0.6-2.12L249.12,14.05z M247.57,15.93l1.54-4.84h1.24l1.54,4.84h-1.02l-0.31-1.01h-1.67l-0.31,1.01H247.57z M246.05,15.93V11.1
		h0.98v4.84H246.05z M243.81,15.97c-0.29,0-0.54-0.03-0.76-0.1c-0.22-0.07-0.41-0.19-0.56-0.36c-0.15-0.17-0.27-0.42-0.35-0.75
		c-0.08-0.32-0.12-0.75-0.12-1.27c0-0.5,0.04-0.91,0.12-1.23c0.08-0.32,0.2-0.57,0.36-0.75c0.16-0.18,0.34-0.3,0.56-0.37
		c0.22-0.07,0.47-0.1,0.75-0.1c0.22,0,0.43,0.01,0.62,0.04c0.19,0.02,0.37,0.05,0.52,0.08c0.16,0.03,0.29,0.07,0.39,0.11v0.75
		c-0.08-0.02-0.19-0.03-0.32-0.05c-0.14-0.02-0.29-0.03-0.46-0.04c-0.17-0.01-0.35-0.02-0.55-0.02c-0.19,0-0.34,0.02-0.48,0.06
		c-0.13,0.04-0.23,0.12-0.31,0.23c-0.08,0.11-0.14,0.27-0.17,0.48c-0.04,0.21-0.06,0.48-0.06,0.82c0,0.32,0.02,0.59,0.05,0.8
		c0.03,0.21,0.09,0.37,0.16,0.49c0.08,0.12,0.18,0.2,0.31,0.24c0.13,0.05,0.3,0.07,0.5,0.07c0.34,0,0.61-0.01,0.82-0.02
		c0.21-0.01,0.38-0.03,0.51-0.05v0.75c-0.12,0.04-0.26,0.07-0.41,0.1c-0.16,0.03-0.33,0.05-0.51,0.07
		C244.25,15.97,244.04,15.97,243.81,15.97z M237.51,15.93V11.1h0.79l2.06,3.19V11.1h0.98v4.84h-0.79l-2.05-3.19v3.19H237.51z
		 M234.16,14.05h1.21l-0.6-2.12L234.16,14.05z M232.61,15.93l1.54-4.84h1.24l1.54,4.84h-1.02l-0.31-1.01h-1.67l-0.31,1.01H232.61z
		 M228.28,15.93V11.1h0.79l2.06,3.19V11.1h0.98v4.84h-0.79l-2.05-3.19v3.19H228.28z M226.41,15.93V11.1h0.98v4.84H226.41z
		 M222.54,15.93V12.2c0-0.21,0.03-0.39,0.1-0.54c0.07-0.14,0.16-0.26,0.27-0.34c0.11-0.08,0.23-0.14,0.37-0.18
		c0.13-0.03,0.26-0.05,0.39-0.05c0.16,0,0.36,0,0.59,0c0.24,0,0.49,0.01,0.76,0.02c0.27,0.01,0.53,0.03,0.77,0.06v0.81h-1.85
		c-0.14,0-0.24,0.04-0.31,0.11c-0.07,0.07-0.1,0.17-0.1,0.28v0.82l1.95,0.05v0.76l-1.95,0.05v1.86H222.54z"/>
	<path class="st2" d="M127.7,17.05v-2.74l-0.6,0.08v-0.43l0.68-0.29h0.61v3.39H127.7z M124.47,17.05v-0.54l1.14-1.11
		c0.09-0.09,0.17-0.17,0.23-0.24c0.06-0.08,0.1-0.15,0.13-0.22c0.03-0.07,0.04-0.15,0.04-0.24c0-0.08-0.02-0.15-0.05-0.21
		c-0.03-0.06-0.08-0.1-0.16-0.13c-0.07-0.03-0.17-0.05-0.3-0.05h-0.96v-0.53c0.15-0.03,0.31-0.05,0.49-0.07
		c0.18-0.02,0.38-0.03,0.6-0.03c0.27,0,0.48,0.04,0.63,0.11c0.15,0.07,0.26,0.18,0.32,0.31c0.06,0.14,0.1,0.3,0.1,0.49
		c0,0.15-0.02,0.29-0.06,0.41c-0.04,0.12-0.1,0.24-0.18,0.36c-0.08,0.11-0.18,0.23-0.3,0.34l-0.76,0.75h1.42v0.61H124.47z
		 M121.36,18c0.14-0.22,0.26-0.45,0.38-0.7c0.12-0.25,0.21-0.51,0.28-0.8c0.07-0.28,0.1-0.59,0.1-0.93c0-0.33-0.03-0.63-0.09-0.9
		c-0.06-0.27-0.15-0.53-0.26-0.77c-0.11-0.25-0.25-0.5-0.41-0.75h0.61c0.15,0.19,0.29,0.4,0.42,0.63c0.13,0.23,0.23,0.49,0.3,0.78
		c0.08,0.29,0.11,0.63,0.11,1.02c0,0.37-0.04,0.7-0.12,0.99c-0.08,0.29-0.18,0.56-0.31,0.79c-0.13,0.23-0.26,0.45-0.41,0.64H121.36z
		 M120.32,17.05v-2.74l-0.6,0.08v-0.43l0.68-0.29h0.61v3.39H120.32z M117.09,17.05v-0.54l1.14-1.11c0.09-0.09,0.17-0.17,0.23-0.24
		c0.06-0.08,0.1-0.15,0.13-0.22c0.03-0.07,0.04-0.15,0.04-0.24c0-0.08-0.02-0.15-0.05-0.21c-0.03-0.06-0.08-0.1-0.16-0.13
		c-0.07-0.03-0.17-0.05-0.3-0.05h-0.96v-0.53c0.15-0.03,0.31-0.05,0.49-0.07c0.18-0.02,0.38-0.03,0.6-0.03
		c0.27,0,0.48,0.04,0.63,0.11c0.15,0.07,0.26,0.18,0.32,0.31c0.06,0.14,0.1,0.3,0.1,0.49c0,0.15-0.02,0.29-0.06,0.41
		c-0.04,0.12-0.1,0.24-0.18,0.36c-0.08,0.11-0.18,0.23-0.3,0.34L118,16.44h1.42v0.61H117.09z M115.2,16.46h0.37
		c0.13,0,0.22-0.03,0.28-0.09c0.06-0.06,0.09-0.15,0.09-0.27v-1.47c0-0.13-0.03-0.23-0.09-0.28c-0.06-0.05-0.14-0.08-0.25-0.08
		h-0.42c-0.11,0-0.2,0.03-0.26,0.09c-0.06,0.06-0.09,0.15-0.09,0.27v1.46c0,0.13,0.03,0.22,0.1,0.28
		C114.99,16.43,115.08,16.46,115.2,16.46z M115.04,17.07c-0.19,0-0.35-0.03-0.49-0.1c-0.13-0.06-0.23-0.16-0.3-0.29
		c-0.07-0.13-0.1-0.29-0.1-0.48v-1.63c0-0.2,0.04-0.36,0.11-0.5c0.07-0.13,0.17-0.24,0.31-0.3c0.14-0.07,0.3-0.1,0.48-0.1h0.71
		c0.19,0,0.35,0.04,0.48,0.11c0.13,0.07,0.22,0.17,0.29,0.31c0.06,0.13,0.1,0.3,0.1,0.49v1.63c0,0.28-0.08,0.5-0.23,0.64
		c-0.15,0.15-0.36,0.22-0.64,0.22H115.04z M113.21,18c-0.15-0.19-0.29-0.39-0.41-0.62c-0.13-0.23-0.23-0.49-0.3-0.79
		c-0.08-0.3-0.12-0.64-0.12-1.02c0-0.37,0.04-0.7,0.12-0.99c0.08-0.29,0.18-0.56,0.31-0.8c0.13-0.24,0.26-0.45,0.41-0.63h0.61
		c-0.13,0.21-0.26,0.45-0.37,0.69c-0.12,0.25-0.21,0.51-0.28,0.8c-0.07,0.29-0.11,0.59-0.11,0.93c0,0.33,0.03,0.63,0.09,0.9
		c0.06,0.27,0.15,0.53,0.26,0.78c0.11,0.25,0.25,0.5,0.4,0.75H113.21z M180.91,7.76l0.38-0.63h0.55l-0.53,0.63H180.91z
		 M181.11,10.11c0.08,0,0.15-0.01,0.21-0.02c0.06-0.02,0.1-0.05,0.14-0.09c0.04-0.05,0.06-0.12,0.08-0.22
		c0.02-0.1,0.03-0.22,0.03-0.38c0-0.16-0.01-0.29-0.03-0.38c-0.02-0.1-0.05-0.17-0.08-0.21c-0.04-0.05-0.08-0.08-0.14-0.09
		c-0.06-0.02-0.13-0.02-0.21-0.02c-0.08,0-0.15,0.01-0.21,0.02c-0.06,0.02-0.1,0.05-0.14,0.09c-0.04,0.05-0.06,0.12-0.08,0.21
		c-0.02,0.1-0.03,0.22-0.03,0.38c0,0.16,0.01,0.28,0.03,0.38c0.02,0.1,0.04,0.17,0.08,0.22c0.04,0.05,0.08,0.08,0.14,0.09
		C180.96,10.1,181.03,10.11,181.11,10.11z M181.11,10.64c-0.2,0-0.38-0.02-0.52-0.06c-0.14-0.04-0.26-0.11-0.35-0.21
		c-0.09-0.1-0.16-0.23-0.2-0.39c-0.04-0.16-0.06-0.36-0.06-0.59c0-0.25,0.02-0.45,0.06-0.61c0.04-0.16,0.11-0.29,0.2-0.38
		c0.09-0.09,0.21-0.16,0.35-0.19c0.15-0.04,0.32-0.06,0.52-0.06c0.21,0,0.38,0.02,0.53,0.06c0.14,0.04,0.26,0.1,0.35,0.2
		c0.09,0.09,0.16,0.22,0.2,0.38c0.04,0.16,0.06,0.36,0.06,0.61c0,0.24-0.02,0.44-0.06,0.6c-0.04,0.16-0.1,0.29-0.19,0.38
		c-0.09,0.09-0.21,0.16-0.35,0.2C181.49,10.62,181.31,10.64,181.11,10.64z M178.1,10.62V8.19h0.53l0.16,0.37
		c0.09-0.11,0.19-0.21,0.3-0.29c0.11-0.08,0.24-0.12,0.4-0.12c0.03,0,0.07,0,0.1,0c0.04,0,0.07,0.01,0.1,0.02v0.69
		c-0.05-0.01-0.09-0.01-0.15-0.02c-0.05,0-0.1-0.01-0.15-0.01c-0.09,0-0.17,0.01-0.24,0.03c-0.07,0.02-0.14,0.05-0.2,0.09
		c-0.06,0.04-0.12,0.09-0.17,0.15v1.51H178.1z M176.51,10.11c0.08,0,0.15-0.01,0.21-0.02c0.06-0.02,0.1-0.05,0.14-0.09
		c0.04-0.05,0.06-0.12,0.08-0.22c0.02-0.1,0.03-0.22,0.03-0.38c0-0.16-0.01-0.29-0.03-0.38c-0.02-0.1-0.05-0.17-0.08-0.21
		c-0.04-0.05-0.08-0.08-0.14-0.09c-0.06-0.02-0.13-0.02-0.21-0.02c-0.08,0-0.15,0.01-0.21,0.02c-0.06,0.02-0.1,0.05-0.14,0.09
		c-0.04,0.05-0.06,0.12-0.08,0.21c-0.02,0.1-0.03,0.22-0.03,0.38c0,0.16,0.01,0.28,0.03,0.38c0.02,0.1,0.04,0.17,0.08,0.22
		c0.04,0.05,0.08,0.08,0.14,0.09C176.36,10.1,176.43,10.11,176.51,10.11z M176.51,10.64c-0.2,0-0.38-0.02-0.52-0.06
		c-0.14-0.04-0.26-0.11-0.35-0.21c-0.09-0.1-0.16-0.23-0.2-0.39c-0.04-0.16-0.06-0.36-0.06-0.59c0-0.25,0.02-0.45,0.06-0.61
		c0.04-0.16,0.11-0.29,0.2-0.38c0.09-0.09,0.21-0.16,0.35-0.19c0.15-0.04,0.32-0.06,0.52-0.06c0.21,0,0.38,0.02,0.53,0.06
		s0.26,0.1,0.35,0.2c0.09,0.09,0.16,0.22,0.2,0.38c0.04,0.16,0.06,0.36,0.06,0.61c0,0.24-0.02,0.44-0.06,0.6
		c-0.04,0.16-0.1,0.29-0.19,0.38c-0.09,0.09-0.21,0.16-0.35,0.2C176.89,10.62,176.72,10.64,176.51,10.64z M173.5,10.62V8.19h0.53
		l0.16,0.37c0.09-0.11,0.19-0.21,0.3-0.29c0.11-0.08,0.24-0.12,0.4-0.12c0.03,0,0.07,0,0.1,0c0.04,0,0.07,0.01,0.1,0.02v0.69
		c-0.05-0.01-0.09-0.01-0.15-0.02c-0.05,0-0.1-0.01-0.15-0.01c-0.09,0-0.17,0.01-0.24,0.03c-0.07,0.02-0.14,0.05-0.2,0.09
		c-0.06,0.04-0.12,0.09-0.17,0.15v1.51H173.5z M171.91,10.11c0.08,0,0.15-0.01,0.21-0.02c0.06-0.02,0.1-0.05,0.14-0.09
		c0.04-0.05,0.06-0.12,0.08-0.22c0.02-0.1,0.03-0.22,0.03-0.38c0-0.16-0.01-0.29-0.03-0.38c-0.02-0.1-0.05-0.17-0.08-0.21
		c-0.04-0.05-0.08-0.08-0.14-0.09c-0.06-0.02-0.13-0.02-0.21-0.02c-0.08,0-0.15,0.01-0.21,0.02c-0.06,0.02-0.1,0.05-0.14,0.09
		c-0.04,0.05-0.06,0.12-0.08,0.21c-0.02,0.1-0.03,0.22-0.03,0.38c0,0.16,0.01,0.28,0.03,0.38c0.02,0.1,0.04,0.17,0.08,0.22
		c0.04,0.05,0.08,0.08,0.14,0.09C171.76,10.1,171.83,10.11,171.91,10.11z M171.91,10.64c-0.2,0-0.38-0.02-0.52-0.06
		c-0.14-0.04-0.26-0.11-0.35-0.21c-0.09-0.1-0.16-0.23-0.2-0.39c-0.04-0.16-0.06-0.36-0.06-0.59c0-0.25,0.02-0.45,0.06-0.61
		c0.04-0.16,0.11-0.29,0.2-0.38c0.09-0.09,0.21-0.16,0.35-0.19c0.15-0.04,0.32-0.06,0.52-0.06c0.21,0,0.38,0.02,0.53,0.06
		c0.14,0.04,0.26,0.1,0.35,0.2c0.09,0.09,0.16,0.22,0.2,0.38c0.04,0.16,0.06,0.36,0.06,0.61c0,0.24-0.02,0.44-0.06,0.6
		c-0.04,0.16-0.1,0.29-0.19,0.38c-0.09,0.09-0.21,0.16-0.35,0.2C172.3,10.62,172.12,10.64,171.91,10.64z M170,10.62
		c-0.19,0-0.34-0.03-0.46-0.08c-0.12-0.05-0.2-0.14-0.26-0.27c-0.05-0.13-0.08-0.3-0.07-0.51l0.02-1.03h-0.39V8.3l0.41-0.11
		l0.09-0.68h0.54v0.68h0.58v0.54h-0.58v1.02c0,0.07,0.01,0.12,0.02,0.16c0.01,0.04,0.03,0.08,0.05,0.1
		c0.02,0.03,0.05,0.04,0.08,0.06c0.03,0.01,0.06,0.02,0.09,0.02l0.31,0.03v0.5H170z M167.19,10.62V9.61l-1.03-2.34h0.71l0.67,1.65
		l0.67-1.65h0.68l-1.02,2.34v1.02H167.19z M162.41,10.62v-0.54l1.14-1.11c0.09-0.09,0.17-0.17,0.23-0.24
		c0.06-0.08,0.1-0.15,0.13-0.22c0.03-0.07,0.04-0.15,0.04-0.24c0-0.08-0.02-0.15-0.05-0.21c-0.03-0.06-0.08-0.1-0.16-0.13
		c-0.07-0.03-0.17-0.05-0.3-0.05h-0.96V7.35c0.15-0.03,0.31-0.05,0.49-0.07c0.18-0.02,0.38-0.03,0.6-0.03
		c0.27,0,0.48,0.04,0.63,0.11c0.15,0.07,0.26,0.18,0.32,0.31c0.06,0.14,0.1,0.3,0.1,0.49c0,0.15-0.02,0.29-0.06,0.41
		c-0.04,0.12-0.1,0.24-0.18,0.36c-0.08,0.11-0.18,0.23-0.3,0.34l-0.76,0.75h1.42v0.61H162.41z M160.03,10.62V7.27h0.68v3.35H160.03z
		 M157.83,8.84h0.61c0.06,0,0.12-0.01,0.17-0.02c0.05-0.02,0.09-0.04,0.13-0.08c0.04-0.04,0.07-0.09,0.09-0.15
		c0.02-0.06,0.03-0.14,0.03-0.24c0-0.09-0.01-0.17-0.03-0.23c-0.02-0.06-0.05-0.11-0.09-0.14c-0.04-0.03-0.08-0.06-0.13-0.07
		c-0.05-0.01-0.1-0.02-0.17-0.02h-0.61V8.84z M157.14,10.62V7.27h1.41c0.14,0,0.26,0.02,0.38,0.05c0.12,0.03,0.22,0.09,0.31,0.17
		c0.09,0.08,0.16,0.19,0.21,0.33c0.05,0.14,0.08,0.32,0.08,0.53c0,0.15-0.02,0.29-0.05,0.39c-0.03,0.11-0.07,0.2-0.12,0.27
		c-0.05,0.07-0.11,0.13-0.17,0.17c-0.06,0.04-0.13,0.08-0.2,0.1l0.64,1.35h-0.7l-0.55-1.24c-0.04,0-0.08,0-0.13,0
		c-0.05,0-0.1,0-0.15,0c-0.05,0-0.1,0-0.15,0c-0.05,0-0.09,0-0.13,0v1.25H157.14z M153.6,10.95l1.29-3.82h0.7l-1.29,3.82H153.6z
		 M152.5,10.65c-0.15,0-0.29-0.02-0.42-0.06c-0.13-0.04-0.24-0.1-0.33-0.2c-0.09-0.09-0.16-0.22-0.21-0.38
		c-0.05-0.16-0.08-0.36-0.08-0.6c0-0.25,0.02-0.45,0.07-0.62c0.05-0.16,0.11-0.29,0.2-0.39c0.09-0.1,0.2-0.16,0.33-0.2
		c0.13-0.04,0.28-0.06,0.45-0.06c0.15,0,0.29,0.01,0.43,0.02c0.14,0.02,0.28,0.05,0.43,0.09v0.39h-0.65c-0.14,0-0.25,0.02-0.34,0.06
		c-0.09,0.04-0.15,0.12-0.19,0.23c-0.04,0.11-0.06,0.27-0.06,0.47c0,0.2,0.02,0.36,0.06,0.46c0.04,0.11,0.1,0.18,0.19,0.21
		c0.09,0.04,0.2,0.05,0.35,0.05h0.68v0.38c-0.08,0.02-0.17,0.05-0.27,0.07c-0.1,0.02-0.21,0.03-0.32,0.05
		C152.72,10.64,152.61,10.65,152.5,10.65z M148.41,10.04h0.37c0.13,0,0.22-0.03,0.28-0.09c0.06-0.06,0.09-0.15,0.09-0.27V8.2
		c0-0.13-0.03-0.23-0.09-0.28c-0.06-0.05-0.14-0.08-0.25-0.08h-0.42c-0.11,0-0.2,0.03-0.26,0.09c-0.06,0.06-0.09,0.15-0.09,0.27
		v1.46c0,0.13,0.03,0.22,0.1,0.28C148.2,10.01,148.29,10.04,148.41,10.04z M148.25,10.64c-0.19,0-0.35-0.03-0.49-0.1
		c-0.13-0.06-0.23-0.16-0.3-0.29c-0.07-0.13-0.1-0.29-0.1-0.48V8.14c0-0.2,0.04-0.36,0.11-0.5c0.07-0.13,0.17-0.24,0.31-0.3
		c0.14-0.07,0.3-0.1,0.48-0.1h0.71c0.19,0,0.35,0.04,0.48,0.11c0.13,0.07,0.22,0.17,0.29,0.31c0.06,0.13,0.1,0.3,0.1,0.49v1.63
		c0,0.28-0.08,0.5-0.23,0.64c-0.15,0.15-0.36,0.22-0.64,0.22H148.25z M145.49,8.62h0.34c0.08,0,0.13-0.01,0.17-0.04
		c0.04-0.03,0.07-0.06,0.08-0.11c0.02-0.05,0.02-0.1,0.02-0.16V8.1c0-0.12-0.02-0.2-0.07-0.24c-0.05-0.04-0.11-0.05-0.19-0.05h-0.34
		c-0.1,0-0.17,0.02-0.22,0.06c-0.05,0.04-0.07,0.12-0.07,0.23v0.21c0,0.11,0.02,0.19,0.07,0.24C145.32,8.6,145.39,8.62,145.49,8.62z
		 M145.5,10.07h0.34c0.13,0,0.21-0.02,0.25-0.07c0.04-0.05,0.06-0.12,0.06-0.21v-0.3c0-0.1-0.03-0.17-0.08-0.22
		c-0.05-0.05-0.13-0.07-0.24-0.07h-0.35c-0.04,0-0.08,0.01-0.12,0.02c-0.04,0.01-0.08,0.03-0.11,0.05
		c-0.03,0.02-0.06,0.06-0.08,0.09c-0.02,0.04-0.03,0.08-0.03,0.13v0.3c0,0.1,0.03,0.18,0.09,0.22
		C145.31,10.05,145.39,10.07,145.5,10.07z M145.38,10.64c-0.12,0-0.23-0.01-0.34-0.03c-0.11-0.02-0.21-0.06-0.29-0.11
		c-0.08-0.05-0.15-0.13-0.2-0.22c-0.05-0.1-0.07-0.22-0.07-0.36V9.45c0-0.09,0.02-0.17,0.05-0.24c0.03-0.07,0.07-0.14,0.13-0.19
		c0.06-0.05,0.12-0.09,0.2-0.1c-0.1-0.05-0.17-0.1-0.21-0.16c-0.04-0.06-0.07-0.13-0.08-0.2c-0.01-0.07-0.02-0.15-0.02-0.23V7.94
		c0-0.17,0.04-0.31,0.11-0.41c0.07-0.1,0.17-0.18,0.29-0.22c0.12-0.05,0.25-0.07,0.4-0.07h0.65c0.15,0,0.28,0.02,0.4,0.07
		c0.12,0.05,0.21,0.12,0.28,0.22c0.07,0.1,0.11,0.24,0.11,0.41v0.38c0,0.04,0,0.09-0.01,0.14c-0.01,0.05-0.03,0.11-0.05,0.17
		c-0.02,0.06-0.05,0.11-0.09,0.15c-0.04,0.04-0.09,0.07-0.15,0.08c0.1,0.02,0.18,0.07,0.23,0.13c0.05,0.07,0.09,0.14,0.11,0.22
		c0.02,0.08,0.03,0.16,0.03,0.22v0.47c0,0.2-0.04,0.35-0.11,0.46c-0.08,0.1-0.18,0.18-0.3,0.22c-0.13,0.04-0.27,0.06-0.42,0.06
		H145.38z M142.54,10.04h0.37c0.13,0,0.22-0.03,0.28-0.09c0.06-0.06,0.09-0.15,0.09-0.27V8.2c0-0.13-0.03-0.23-0.09-0.28
		c-0.06-0.05-0.14-0.08-0.25-0.08h-0.42c-0.11,0-0.2,0.03-0.26,0.09c-0.06,0.06-0.09,0.15-0.09,0.27v1.46c0,0.13,0.03,0.22,0.1,0.28
		C142.33,10.01,142.42,10.04,142.54,10.04z M142.38,10.64c-0.19,0-0.35-0.03-0.49-0.1c-0.13-0.06-0.23-0.16-0.3-0.29
		c-0.07-0.13-0.1-0.29-0.1-0.48V8.14c0-0.2,0.04-0.36,0.11-0.5c0.07-0.13,0.17-0.24,0.31-0.3c0.14-0.07,0.3-0.1,0.48-0.1h0.71
		c0.19,0,0.35,0.04,0.48,0.11c0.13,0.07,0.22,0.17,0.29,0.31c0.06,0.13,0.1,0.3,0.1,0.49v1.63c0,0.28-0.08,0.5-0.23,0.64
		c-0.15,0.15-0.36,0.22-0.64,0.22H142.38z M139.88,10.64c-0.19,0-0.38-0.01-0.59-0.02c-0.21-0.02-0.4-0.03-0.59-0.05v-0.53h1.2
		c0.11,0,0.2-0.02,0.26-0.05c0.06-0.04,0.11-0.08,0.13-0.14c0.03-0.06,0.04-0.12,0.04-0.18V9.43c0-0.11-0.03-0.19-0.08-0.25
		c-0.05-0.06-0.14-0.09-0.27-0.09h-0.27c-0.1,0-0.18,0.02-0.23,0.06c-0.05,0.04-0.08,0.1-0.1,0.19h-0.65l0.1-2.07h2.05v0.6h-1.46
		l-0.04,0.8c0.05-0.05,0.11-0.09,0.19-0.11c0.08-0.03,0.17-0.04,0.27-0.04h0.37c0.18,0,0.33,0.03,0.44,0.1
		c0.12,0.07,0.2,0.16,0.26,0.28c0.06,0.12,0.09,0.25,0.09,0.4V9.8c0,0.2-0.04,0.36-0.13,0.48c-0.09,0.12-0.22,0.22-0.39,0.27
		C140.34,10.61,140.13,10.64,139.88,10.64z M135.13,10.62v-0.48l1.17-1.41h-1.21V8.19h2v0.48l-1.17,1.41h1.17v0.54H135.13z
		 M133.3,9.24h0.56c0.09,0,0.16-0.02,0.2-0.05c0.04-0.04,0.06-0.1,0.06-0.19c0-0.09-0.01-0.16-0.04-0.21
		c-0.03-0.05-0.07-0.09-0.13-0.11c-0.06-0.02-0.14-0.03-0.23-0.03c-0.1,0-0.19,0.02-0.25,0.05c-0.06,0.03-0.11,0.1-0.13,0.18
		C133.32,8.96,133.3,9.08,133.3,9.24z M133.75,10.64c-0.27,0-0.49-0.04-0.65-0.11c-0.16-0.07-0.28-0.2-0.35-0.38
		c-0.07-0.18-0.11-0.43-0.11-0.75c0-0.33,0.03-0.58,0.1-0.77c0.07-0.18,0.18-0.31,0.34-0.38c0.16-0.07,0.38-0.11,0.65-0.11
		c0.25,0,0.44,0.02,0.59,0.07c0.15,0.05,0.25,0.13,0.32,0.25c0.07,0.12,0.1,0.29,0.1,0.51c0,0.16-0.03,0.29-0.1,0.39
		c-0.07,0.1-0.16,0.16-0.28,0.2c-0.12,0.04-0.26,0.06-0.42,0.06h-0.62c0.01,0.12,0.03,0.22,0.06,0.3c0.03,0.07,0.09,0.13,0.18,0.16
		c0.09,0.03,0.21,0.05,0.38,0.05h0.72v0.39c-0.12,0.02-0.25,0.05-0.39,0.07C134.11,10.63,133.95,10.64,133.75,10.64z M131.16,10.1
		c0.07,0,0.14-0.02,0.2-0.06c0.06-0.04,0.12-0.11,0.15-0.21c0.04-0.1,0.06-0.24,0.06-0.43c0-0.18-0.02-0.32-0.05-0.43
		c-0.04-0.1-0.08-0.18-0.15-0.22c-0.06-0.04-0.13-0.07-0.22-0.07c-0.1,0-0.18,0.02-0.26,0.05c-0.08,0.03-0.15,0.06-0.2,0.09v1.16
		c0.06,0.04,0.13,0.06,0.22,0.09C130.99,10.09,131.08,10.1,131.16,10.1z M130.01,11.69V8.19h0.57l0.11,0.23
		c0.06-0.05,0.12-0.09,0.19-0.13c0.07-0.04,0.15-0.07,0.23-0.1c0.08-0.03,0.17-0.04,0.26-0.04c0.15,0,0.28,0.03,0.39,0.09
		c0.11,0.06,0.2,0.14,0.27,0.25c0.07,0.11,0.12,0.24,0.16,0.4c0.03,0.16,0.05,0.33,0.05,0.52c0,0.26-0.03,0.48-0.08,0.67
		c-0.05,0.19-0.14,0.33-0.27,0.43c-0.13,0.1-0.3,0.15-0.53,0.15c-0.12,0-0.24-0.01-0.36-0.04c-0.12-0.03-0.23-0.07-0.33-0.12v1.2
		H130.01z M128.22,7.76l0.38-0.63h0.55l-0.53,0.63H128.22z M128.42,10.11c0.08,0,0.15-0.01,0.21-0.02c0.06-0.02,0.1-0.05,0.14-0.09
		c0.04-0.05,0.06-0.12,0.08-0.22c0.02-0.1,0.03-0.22,0.03-0.38c0-0.16-0.01-0.29-0.03-0.38c-0.02-0.1-0.05-0.17-0.08-0.21
		c-0.04-0.05-0.08-0.08-0.14-0.09c-0.06-0.02-0.13-0.02-0.21-0.02c-0.08,0-0.15,0.01-0.21,0.02c-0.06,0.02-0.1,0.05-0.14,0.09
		c-0.04,0.05-0.06,0.12-0.08,0.21c-0.02,0.1-0.03,0.22-0.03,0.38c0,0.16,0.01,0.28,0.03,0.38c0.02,0.1,0.04,0.17,0.08,0.22
		c0.04,0.05,0.08,0.08,0.14,0.09C128.27,10.1,128.34,10.11,128.42,10.11z M128.42,10.64c-0.2,0-0.38-0.02-0.52-0.06
		c-0.14-0.04-0.26-0.11-0.35-0.21c-0.09-0.1-0.16-0.23-0.2-0.39c-0.04-0.16-0.06-0.36-0.06-0.59c0-0.25,0.02-0.45,0.06-0.61
		c0.04-0.16,0.11-0.29,0.2-0.38c0.09-0.09,0.21-0.16,0.35-0.19c0.15-0.04,0.32-0.06,0.52-0.06c0.21,0,0.38,0.02,0.53,0.06
		c0.14,0.04,0.26,0.1,0.35,0.2c0.09,0.09,0.16,0.22,0.2,0.38c0.04,0.16,0.06,0.36,0.06,0.61c0,0.24-0.02,0.44-0.06,0.6
		c-0.04,0.16-0.1,0.29-0.19,0.38c-0.09,0.09-0.21,0.16-0.35,0.2C128.81,10.62,128.63,10.64,128.42,10.64z M125.74,10.62
		c-0.18,0-0.32-0.03-0.44-0.08c-0.12-0.05-0.21-0.14-0.27-0.25c-0.06-0.12-0.09-0.27-0.09-0.46V7.27h0.68v2.45
		c0,0.07,0.01,0.13,0.04,0.18c0.03,0.05,0.06,0.08,0.11,0.09c0.05,0.02,0.1,0.02,0.16,0.02h1.08v0.61H125.74z M122.71,10.62
		c-0.06,0-0.09-0.03-0.09-0.09v-0.46c0-0.06,0.03-0.1,0.09-0.1h0.4c0.07,0,0.1,0.03,0.1,0.1v0.46c0,0.04-0.01,0.06-0.03,0.07
		c-0.02,0.01-0.04,0.02-0.07,0.02H122.71z M121.96,10.63c-0.18,0-0.32-0.03-0.44-0.08c-0.12-0.06-0.2-0.14-0.26-0.26
		c-0.06-0.12-0.08-0.27-0.08-0.45V7.16h0.68v2.57c0,0.09,0.01,0.16,0.03,0.22c0.02,0.05,0.05,0.09,0.09,0.12
		c0.04,0.02,0.09,0.04,0.15,0.05l0.19,0.03v0.48H121.96z M119.53,10.18c0.03,0,0.07,0,0.1-0.01c0.04-0.01,0.08-0.02,0.12-0.03
		c0.04-0.01,0.08-0.02,0.12-0.03c0.04-0.01,0.06-0.02,0.09-0.03c0.02-0.01,0.04-0.02,0.04-0.02V9.5l-0.41,0.03
		c-0.12,0.01-0.21,0.04-0.26,0.09c-0.06,0.05-0.09,0.12-0.09,0.21v0.1c0,0.06,0.01,0.11,0.04,0.15c0.03,0.04,0.06,0.07,0.11,0.08
		C119.42,10.17,119.47,10.18,119.53,10.18z M119.18,10.65c-0.19,0-0.34-0.05-0.46-0.16c-0.12-0.11-0.18-0.26-0.18-0.45V9.81
		c0-0.18,0.07-0.34,0.2-0.46c0.13-0.12,0.34-0.18,0.62-0.18H120V9.01c0-0.08-0.01-0.14-0.04-0.19c-0.03-0.05-0.08-0.09-0.15-0.11
		c-0.08-0.02-0.19-0.03-0.34-0.03h-0.74V8.29c0.12-0.04,0.26-0.07,0.42-0.1c0.16-0.03,0.35-0.04,0.57-0.04
		c0.21,0,0.38,0.02,0.53,0.07c0.15,0.05,0.26,0.13,0.33,0.25c0.08,0.12,0.11,0.28,0.11,0.49v1.65h-0.54l-0.11-0.26
		c-0.02,0.02-0.06,0.05-0.11,0.08c-0.05,0.03-0.12,0.06-0.19,0.09c-0.08,0.03-0.16,0.06-0.25,0.08
		C119.38,10.64,119.28,10.65,119.18,10.65z M117.36,10.65c-0.15,0-0.29-0.02-0.42-0.06c-0.13-0.04-0.24-0.1-0.33-0.2
		c-0.09-0.09-0.16-0.22-0.21-0.38c-0.05-0.16-0.08-0.36-0.08-0.6c0-0.25,0.02-0.45,0.07-0.62c0.05-0.16,0.11-0.29,0.2-0.39
		c0.09-0.1,0.2-0.16,0.33-0.2c0.13-0.04,0.28-0.06,0.45-0.06c0.15,0,0.29,0.01,0.43,0.02c0.14,0.02,0.28,0.05,0.43,0.09v0.39h-0.65
		c-0.14,0-0.25,0.02-0.34,0.06c-0.09,0.04-0.15,0.12-0.19,0.23c-0.04,0.11-0.06,0.27-0.06,0.47c0,0.2,0.02,0.36,0.06,0.46
		c0.04,0.11,0.1,0.18,0.19,0.21c0.09,0.04,0.2,0.05,0.35,0.05h0.68v0.38c-0.08,0.02-0.17,0.05-0.27,0.07
		c-0.1,0.02-0.21,0.03-0.32,0.05C117.58,10.64,117.47,10.65,117.36,10.65z M112.32,10.62l0.4-3.35h0.65l0.78,2.57l0.78-2.57h0.65
		l0.4,3.35h-0.66l-0.29-2.47l0.11,0.01l-0.67,2.46h-0.64l-0.68-2.46l0.12,0l-0.29,2.47H112.32z"/>
	<path class="st2" d="M139.82,23.48v-2.43h0.53l0.16,0.37c0.09-0.11,0.19-0.21,0.3-0.29c0.11-0.08,0.24-0.12,0.4-0.12
		c0.03,0,0.07,0,0.1,0c0.04,0,0.07,0.01,0.1,0.02v0.69c-0.05-0.01-0.09-0.01-0.15-0.02c-0.05,0-0.1-0.01-0.15-0.01
		c-0.09,0-0.17,0.01-0.24,0.03c-0.07,0.02-0.14,0.05-0.2,0.09c-0.06,0.04-0.12,0.09-0.17,0.15v1.51H139.82z M138.23,22.96
		c0.08,0,0.15-0.01,0.21-0.02c0.06-0.02,0.1-0.05,0.14-0.09c0.04-0.05,0.06-0.12,0.08-0.22c0.02-0.1,0.03-0.22,0.03-0.38
		c0-0.16-0.01-0.29-0.03-0.38c-0.02-0.1-0.05-0.17-0.08-0.21c-0.04-0.05-0.08-0.08-0.14-0.09c-0.06-0.02-0.13-0.02-0.21-0.02
		c-0.08,0-0.15,0.01-0.21,0.02c-0.06,0.02-0.1,0.05-0.14,0.09c-0.04,0.05-0.06,0.12-0.08,0.21c-0.02,0.1-0.03,0.22-0.03,0.38
		c0,0.16,0.01,0.28,0.03,0.38c0.02,0.1,0.04,0.17,0.08,0.22c0.04,0.05,0.08,0.08,0.14,0.09C138.08,22.96,138.15,22.96,138.23,22.96z
		 M138.23,23.5c-0.2,0-0.38-0.02-0.52-0.06c-0.14-0.04-0.26-0.11-0.35-0.21c-0.09-0.1-0.16-0.23-0.2-0.39
		c-0.04-0.16-0.06-0.36-0.06-0.59c0-0.25,0.02-0.45,0.06-0.61c0.04-0.16,0.11-0.29,0.2-0.38c0.09-0.09,0.21-0.16,0.35-0.19
		c0.15-0.04,0.32-0.06,0.52-0.06c0.21,0,0.38,0.02,0.53,0.06c0.14,0.04,0.26,0.1,0.35,0.2c0.09,0.09,0.16,0.22,0.2,0.38
		c0.04,0.16,0.06,0.36,0.06,0.61c0,0.24-0.02,0.44-0.06,0.6c-0.04,0.16-0.1,0.29-0.19,0.38c-0.09,0.09-0.21,0.16-0.35,0.2
		C138.62,23.48,138.44,23.5,138.23,23.5z M136.17,23.48c-0.06,0-0.09-0.03-0.09-0.09v-0.46c0-0.06,0.03-0.1,0.09-0.1h0.4
		c0.07,0,0.1,0.03,0.1,0.1v0.46c0,0.04-0.01,0.06-0.03,0.07c-0.02,0.01-0.04,0.02-0.07,0.02H136.17z M134.55,22.95
		c0.07,0,0.14-0.02,0.2-0.06c0.06-0.04,0.12-0.11,0.15-0.21c0.04-0.1,0.06-0.24,0.06-0.43c0-0.18-0.02-0.32-0.05-0.43
		c-0.04-0.1-0.08-0.18-0.15-0.22c-0.06-0.04-0.13-0.07-0.22-0.07c-0.1,0-0.18,0.02-0.26,0.05c-0.08,0.03-0.15,0.06-0.2,0.09v1.16
		c0.06,0.04,0.13,0.06,0.22,0.09C134.38,22.94,134.46,22.95,134.55,22.95z M133.4,24.55v-3.51h0.57l0.11,0.23
		c0.06-0.05,0.12-0.09,0.19-0.13c0.07-0.04,0.15-0.07,0.23-0.1c0.08-0.03,0.17-0.04,0.26-0.04c0.15,0,0.28,0.03,0.39,0.09
		c0.11,0.06,0.2,0.14,0.27,0.25c0.07,0.11,0.12,0.24,0.16,0.4s0.05,0.33,0.05,0.52c0,0.26-0.03,0.48-0.08,0.67
		c-0.05,0.19-0.14,0.33-0.27,0.43c-0.13,0.1-0.3,0.15-0.53,0.15c-0.12,0-0.24-0.01-0.36-0.04c-0.12-0.03-0.23-0.07-0.33-0.12v1.2
		H133.4z M132.1,23.5c-0.15,0-0.29-0.02-0.42-0.06c-0.13-0.04-0.24-0.1-0.33-0.2c-0.09-0.09-0.16-0.22-0.21-0.38
		c-0.05-0.16-0.08-0.36-0.08-0.6c0-0.25,0.02-0.45,0.07-0.62c0.05-0.16,0.11-0.29,0.2-0.39c0.09-0.1,0.2-0.16,0.33-0.2
		c0.13-0.04,0.28-0.06,0.45-0.06c0.15,0,0.29,0.01,0.43,0.02c0.14,0.02,0.28,0.05,0.43,0.09v0.39h-0.65c-0.14,0-0.25,0.02-0.34,0.06
		s-0.15,0.12-0.19,0.23c-0.04,0.11-0.06,0.27-0.06,0.47c0,0.2,0.02,0.36,0.06,0.46c0.04,0.11,0.1,0.18,0.19,0.21
		c0.09,0.04,0.2,0.05,0.35,0.05h0.68v0.38c-0.08,0.02-0.17,0.05-0.27,0.07c-0.1,0.02-0.21,0.03-0.32,0.05
		C132.32,23.5,132.21,23.5,132.1,23.5z M126.85,23.48v-2.43h0.56l0.12,0.25c0.11-0.08,0.23-0.15,0.35-0.2
		c0.13-0.06,0.28-0.09,0.47-0.09c0.16,0,0.29,0.03,0.39,0.1c0.1,0.06,0.18,0.15,0.23,0.25c0.07-0.05,0.15-0.11,0.25-0.16
		c0.09-0.05,0.19-0.1,0.3-0.13c0.11-0.04,0.21-0.05,0.32-0.05c0.2,0,0.36,0.04,0.47,0.11c0.12,0.07,0.2,0.18,0.24,0.31
		c0.05,0.13,0.07,0.29,0.07,0.47v1.58h-0.68v-1.52c0-0.08-0.01-0.14-0.04-0.19c-0.03-0.05-0.07-0.09-0.12-0.12
		c-0.05-0.03-0.12-0.04-0.19-0.04c-0.09,0-0.18,0.02-0.28,0.06c-0.09,0.04-0.18,0.08-0.25,0.13c0.01,0.03,0.01,0.06,0.01,0.09
		c0,0.03,0,0.06,0,0.09v1.5h-0.68v-1.52c0-0.08-0.01-0.14-0.04-0.19c-0.03-0.05-0.07-0.09-0.12-0.12c-0.05-0.03-0.12-0.04-0.19-0.04
		c-0.06,0-0.13,0.01-0.19,0.02c-0.06,0.02-0.12,0.04-0.17,0.06c-0.05,0.03-0.11,0.06-0.15,0.1v1.69H126.85z M125.56,23.5
		c-0.15,0-0.29-0.02-0.42-0.06c-0.13-0.04-0.24-0.1-0.33-0.2c-0.09-0.09-0.16-0.22-0.21-0.38c-0.05-0.16-0.08-0.36-0.08-0.6
		c0-0.25,0.02-0.45,0.07-0.62c0.05-0.16,0.11-0.29,0.2-0.39c0.09-0.1,0.2-0.16,0.33-0.2s0.28-0.06,0.45-0.06
		c0.15,0,0.29,0.01,0.43,0.02c0.14,0.02,0.28,0.05,0.43,0.09v0.39h-0.65c-0.14,0-0.25,0.02-0.34,0.06
		c-0.09,0.04-0.15,0.12-0.19,0.23c-0.04,0.11-0.06,0.27-0.06,0.47c0,0.2,0.02,0.36,0.06,0.46c0.04,0.11,0.1,0.18,0.19,0.21
		c0.09,0.04,0.2,0.05,0.35,0.05h0.68v0.38c-0.08,0.02-0.17,0.05-0.27,0.07c-0.1,0.02-0.21,0.03-0.32,0.05
		C125.77,23.5,125.66,23.5,125.56,23.5z M123.59,23.48c-0.06,0-0.09-0.03-0.09-0.09v-0.46c0-0.06,0.03-0.1,0.09-0.1h0.4
		c0.07,0,0.1,0.03,0.1,0.1v0.46c0,0.04-0.01,0.06-0.03,0.07c-0.02,0.01-0.04,0.02-0.07,0.02H123.59z M120.43,23.48l-0.65-2.43h0.7
		l0.39,1.81l0.49-1.81h0.56l0.49,1.81l0.35-1.81h0.7l-0.65,2.43h-0.76l-0.44-1.48l-0.46,1.48H120.43z M116.63,23.48l-0.65-2.43h0.7
		l0.39,1.81l0.49-1.81h0.56l0.49,1.81l0.35-1.81h0.7l-0.64,2.43h-0.76l-0.44-1.48l-0.46,1.48H116.63z M112.82,23.48l-0.65-2.43h0.7
		l0.39,1.81l0.49-1.81h0.56l0.49,1.81l0.35-1.81h0.7l-0.65,2.43h-0.76l-0.44-1.48l-0.46,1.48H112.82z M201.74,17.05v-2.74l-0.6,0.08
		v-0.43l0.68-0.29h0.61v3.39H201.74z M199.8,17.08c-0.25,0-0.48-0.01-0.7-0.02c-0.22-0.02-0.42-0.04-0.6-0.07v-0.54h1.05
		c0.13,0,0.23-0.01,0.31-0.03c0.08-0.02,0.14-0.05,0.18-0.1c0.04-0.05,0.06-0.11,0.06-0.19v-0.14c0-0.08-0.02-0.15-0.06-0.19
		c-0.04-0.05-0.09-0.08-0.16-0.1c-0.07-0.02-0.14-0.04-0.23-0.04l-0.84-0.03V15.1l0.81-0.05c0.14-0.01,0.25-0.03,0.32-0.07
		c0.08-0.04,0.12-0.11,0.12-0.22v-0.11c0-0.12-0.04-0.21-0.12-0.27c-0.08-0.06-0.22-0.09-0.41-0.09h-0.95v-0.53
		c0.18-0.03,0.37-0.05,0.57-0.07c0.21-0.02,0.42-0.03,0.65-0.02c0.2,0,0.37,0.04,0.51,0.1c0.14,0.06,0.24,0.15,0.32,0.28
		c0.07,0.12,0.11,0.27,0.11,0.46v0.25c0,0.08-0.01,0.16-0.03,0.23c-0.02,0.07-0.05,0.13-0.09,0.18c-0.04,0.05-0.09,0.09-0.14,0.13
		c-0.05,0.03-0.11,0.06-0.17,0.08c0.06,0.02,0.13,0.04,0.18,0.09c0.06,0.04,0.11,0.09,0.15,0.15c0.04,0.06,0.08,0.13,0.1,0.21
		c0.03,0.08,0.04,0.17,0.04,0.27v0.17c0,0.27-0.09,0.47-0.26,0.61C200.34,17.01,200.11,17.08,199.8,17.08z M197.36,17.05v-2.74
		l-0.6,0.08v-0.43l0.68-0.29h0.61v3.39H197.36z M192.93,17.05v-0.54l1.14-1.11c0.09-0.09,0.17-0.17,0.23-0.24
		c0.06-0.08,0.1-0.15,0.13-0.22c0.03-0.07,0.04-0.15,0.04-0.24c0-0.08-0.02-0.15-0.05-0.21c-0.03-0.06-0.08-0.1-0.16-0.13
		c-0.07-0.03-0.17-0.05-0.3-0.05h-0.96v-0.53c0.15-0.03,0.31-0.05,0.49-0.07c0.18-0.02,0.38-0.03,0.6-0.03
		c0.27,0,0.48,0.04,0.63,0.11c0.15,0.07,0.26,0.18,0.32,0.31c0.06,0.14,0.1,0.3,0.1,0.49c0,0.15-0.02,0.29-0.06,0.41
		c-0.04,0.12-0.1,0.24-0.18,0.36c-0.08,0.11-0.18,0.23-0.3,0.34l-0.76,0.75h1.42v0.61H192.93z M191.37,17.07
		c-0.19,0-0.38-0.01-0.59-0.02c-0.21-0.02-0.4-0.03-0.59-0.05v-0.53h1.2c0.11,0,0.2-0.02,0.26-0.05c0.06-0.04,0.11-0.08,0.13-0.14
		c0.03-0.06,0.04-0.12,0.04-0.18v-0.23c0-0.11-0.03-0.19-0.08-0.25c-0.05-0.06-0.14-0.09-0.27-0.09h-0.27
		c-0.1,0-0.18,0.02-0.23,0.06c-0.05,0.04-0.08,0.1-0.1,0.19h-0.64l0.1-2.07h2.05v0.6h-1.46l-0.04,0.8c0.05-0.05,0.11-0.09,0.19-0.11
		c0.08-0.03,0.17-0.04,0.27-0.04h0.37c0.18,0,0.33,0.03,0.44,0.1c0.12,0.07,0.2,0.16,0.26,0.28c0.06,0.12,0.09,0.25,0.09,0.4v0.49
		c0,0.2-0.04,0.36-0.13,0.48c-0.09,0.12-0.22,0.22-0.39,0.27C191.83,17.04,191.62,17.07,191.37,17.07z M188.8,17.04v-0.71h-1.49
		l-0.13-0.32l1.11-2.32h0.7l-0.99,2.07h0.81v-0.65l0.13-0.39h0.55v1.04h0.35v0.46l-0.35,0.11v0.71H188.8z M184.76,17.04v-0.71h-1.49
		l-0.13-0.32l1.11-2.32h0.7l-0.99,2.07h0.81v-0.65l0.13-0.39h0.55v1.04h0.35v0.46l-0.35,0.11v0.71H184.76z M181.25,17.05l1.01-2.68
		h-1.45v-0.67h2.15l0.18,0.29l-1.13,3.07H181.25z M179.23,15.14h0.58c0-0.17-0.01-0.31-0.03-0.43c-0.02-0.11-0.05-0.2-0.09-0.27
		c-0.04-0.06-0.09-0.11-0.15-0.14c-0.06-0.03-0.13-0.04-0.21-0.04h-0.21c-0.06,0-0.12,0.01-0.17,0.03c-0.05,0.02-0.08,0.05-0.11,0.1
		c-0.02,0.05-0.04,0.11-0.04,0.19v0.22c0,0.09,0.01,0.15,0.04,0.2c0.03,0.05,0.07,0.08,0.14,0.1
		C179.05,15.13,179.13,15.14,179.23,15.14z M179.2,17.07c-0.15,0-0.3-0.01-0.45-0.02c-0.15-0.01-0.29-0.03-0.41-0.05v-0.53h0.8
		c0.23,0,0.4-0.07,0.51-0.21c0.11-0.14,0.16-0.35,0.16-0.62c-0.07,0.02-0.14,0.04-0.22,0.05c-0.08,0.01-0.17,0.02-0.26,0.02
		c-0.09,0-0.19,0-0.29,0c-0.22,0-0.4-0.03-0.53-0.09c-0.13-0.06-0.23-0.15-0.28-0.27c-0.06-0.11-0.09-0.25-0.09-0.41v-0.48
		c0-0.19,0.04-0.34,0.11-0.46c0.07-0.12,0.17-0.2,0.3-0.25c0.13-0.05,0.27-0.08,0.44-0.08h0.49c0.17,0,0.31,0.02,0.44,0.07
		c0.13,0.05,0.23,0.14,0.32,0.26c0.09,0.12,0.15,0.29,0.2,0.51c0.04,0.22,0.07,0.49,0.07,0.82c0,0.33-0.03,0.6-0.09,0.83
		c-0.06,0.23-0.14,0.4-0.25,0.54c-0.11,0.13-0.25,0.23-0.41,0.29C179.58,17.04,179.4,17.07,179.2,17.07z M175.37,17.07
		c-0.19,0-0.38-0.01-0.59-0.02c-0.21-0.02-0.4-0.03-0.59-0.05v-0.53h1.2c0.11,0,0.2-0.02,0.26-0.05c0.06-0.04,0.11-0.08,0.13-0.14
		c0.03-0.06,0.04-0.12,0.04-0.18v-0.23c0-0.11-0.03-0.19-0.08-0.25c-0.05-0.06-0.14-0.09-0.27-0.09h-0.27
		c-0.1,0-0.18,0.02-0.23,0.06c-0.05,0.04-0.08,0.1-0.1,0.19h-0.64l0.1-2.07h2.05v0.6h-1.46l-0.04,0.8c0.05-0.05,0.11-0.09,0.19-0.11
		c0.08-0.03,0.17-0.04,0.27-0.04h0.37c0.18,0,0.33,0.03,0.44,0.1c0.12,0.07,0.2,0.16,0.26,0.28c0.06,0.12,0.09,0.25,0.09,0.4v0.49
		c0,0.2-0.04,0.36-0.13,0.48c-0.09,0.12-0.22,0.22-0.39,0.27C175.83,17.04,175.62,17.07,175.37,17.07z M172.44,15.14h0.58
		c0-0.17-0.01-0.31-0.03-0.43c-0.02-0.11-0.05-0.2-0.09-0.27c-0.04-0.06-0.09-0.11-0.15-0.14c-0.06-0.03-0.13-0.04-0.21-0.04h-0.21
		c-0.06,0-0.12,0.01-0.17,0.03c-0.05,0.02-0.08,0.05-0.11,0.1c-0.02,0.05-0.04,0.11-0.04,0.19v0.22c0,0.09,0.01,0.15,0.04,0.2
		c0.03,0.05,0.07,0.08,0.14,0.1C172.27,15.13,172.35,15.14,172.44,15.14z M172.42,17.07c-0.15,0-0.3-0.01-0.45-0.02
		c-0.15-0.01-0.29-0.03-0.41-0.05v-0.53h0.8c0.23,0,0.4-0.07,0.51-0.21c0.11-0.14,0.16-0.35,0.16-0.62
		c-0.07,0.02-0.14,0.04-0.22,0.05c-0.08,0.01-0.17,0.02-0.26,0.02c-0.09,0-0.19,0-0.29,0c-0.22,0-0.4-0.03-0.53-0.09
		c-0.13-0.06-0.23-0.15-0.28-0.27c-0.06-0.11-0.09-0.25-0.09-0.41v-0.48c0-0.19,0.04-0.34,0.11-0.46c0.07-0.12,0.17-0.2,0.3-0.25
		c0.13-0.05,0.27-0.08,0.44-0.08h0.49c0.17,0,0.31,0.02,0.44,0.07c0.13,0.05,0.23,0.14,0.32,0.26c0.09,0.12,0.15,0.29,0.2,0.51
		c0.04,0.22,0.07,0.49,0.07,0.82c0,0.33-0.03,0.6-0.09,0.83c-0.06,0.23-0.14,0.4-0.25,0.54c-0.11,0.13-0.25,0.23-0.41,0.29
		C172.8,17.04,172.62,17.07,172.42,17.07z M169.78,17.07c-0.19,0-0.38-0.01-0.59-0.02c-0.21-0.02-0.4-0.03-0.59-0.05v-0.53h1.2
		c0.11,0,0.2-0.02,0.26-0.05c0.06-0.04,0.11-0.08,0.13-0.14c0.03-0.06,0.04-0.12,0.04-0.18v-0.23c0-0.11-0.03-0.19-0.08-0.25
		c-0.05-0.06-0.14-0.09-0.27-0.09h-0.27c-0.1,0-0.18,0.02-0.23,0.06c-0.05,0.04-0.08,0.1-0.1,0.19h-0.64l0.1-2.07h2.05v0.6h-1.46
		l-0.04,0.8c0.05-0.05,0.11-0.09,0.19-0.11c0.08-0.03,0.17-0.04,0.27-0.04h0.37c0.18,0,0.33,0.03,0.44,0.1
		c0.12,0.07,0.2,0.16,0.26,0.28c0.06,0.12,0.09,0.25,0.09,0.4v0.49c0,0.2-0.04,0.36-0.13,0.48c-0.09,0.12-0.22,0.22-0.39,0.27
		C170.24,17.04,170.03,17.07,169.78,17.07z M164.71,15.71v-0.54h2.06v0.54H164.71z M165.46,16.45v-2.03h0.55v2.03H165.46z
		 M162.3,17.37v-3.82h0.55v3.82H162.3z M158.8,17.05l1.01-2.68h-1.45v-0.67h2.15l0.18,0.29l-1.13,3.07H158.8z M156.85,16.47h0.2
		c0.07,0,0.12-0.01,0.17-0.03c0.05-0.02,0.08-0.06,0.11-0.1c0.03-0.05,0.04-0.11,0.04-0.19v-0.22c0-0.09-0.01-0.15-0.04-0.2
		c-0.03-0.05-0.07-0.08-0.14-0.1c-0.06-0.02-0.14-0.03-0.24-0.03h-0.58c0,0.17,0.01,0.31,0.03,0.43c0.02,0.11,0.05,0.2,0.09,0.27
		c0.04,0.06,0.09,0.11,0.15,0.14C156.7,16.45,156.77,16.47,156.85,16.47z M156.71,17.07c-0.17,0-0.31-0.02-0.44-0.07
		c-0.13-0.05-0.23-0.14-0.32-0.26c-0.09-0.12-0.15-0.29-0.19-0.51c-0.04-0.21-0.06-0.49-0.06-0.82c0-0.33,0.03-0.61,0.09-0.83
		c0.06-0.22,0.14-0.4,0.25-0.54c0.11-0.14,0.25-0.23,0.41-0.29c0.16-0.06,0.34-0.09,0.54-0.09c0.15,0,0.3,0.01,0.46,0.02
		c0.15,0.01,0.29,0.03,0.41,0.05v0.53h-0.81c-0.23,0-0.4,0.07-0.51,0.21c-0.11,0.14-0.16,0.35-0.16,0.62
		c0.07-0.02,0.15-0.04,0.23-0.05c0.08-0.01,0.16-0.02,0.25-0.02c0.09,0,0.19-0.01,0.29-0.01c0.22,0,0.4,0.03,0.54,0.09
		c0.13,0.06,0.23,0.15,0.29,0.27c0.06,0.12,0.09,0.25,0.09,0.41v0.48c0,0.19-0.04,0.34-0.11,0.46c-0.07,0.11-0.17,0.2-0.3,0.25
		c-0.13,0.05-0.27,0.08-0.44,0.08H156.71z M154.49,17.05v-2.74l-0.6,0.08v-0.43l0.68-0.29h0.61v3.39H154.49z M151.82,17.05
		c-0.06,0-0.09-0.03-0.09-0.09V16.5c0-0.06,0.03-0.1,0.09-0.1h0.4c0.07,0,0.1,0.03,0.1,0.1v0.46c0,0.04-0.01,0.06-0.03,0.07
		c-0.02,0.01-0.04,0.02-0.07,0.02H151.82z M150.89,17.05c-0.19,0-0.34-0.03-0.46-0.08c-0.12-0.05-0.2-0.15-0.26-0.27
		c-0.05-0.13-0.08-0.3-0.07-0.51l0.02-1.03h-0.39v-0.43l0.41-0.11l0.09-0.68h0.54v0.68h0.58v0.54h-0.58v1.02
		c0,0.07,0.01,0.12,0.02,0.16c0.01,0.04,0.03,0.08,0.05,0.1c0.02,0.03,0.05,0.04,0.08,0.06c0.03,0.01,0.06,0.02,0.09,0.02l0.31,0.03
		v0.5H150.89z M147.21,17.05v-2.43h0.56l0.12,0.25c0.09-0.08,0.21-0.14,0.35-0.2c0.14-0.06,0.28-0.09,0.43-0.09
		c0.2,0,0.36,0.04,0.47,0.12c0.11,0.08,0.19,0.18,0.23,0.31c0.04,0.13,0.07,0.28,0.07,0.44v1.6h-0.68v-1.52
		c0-0.08-0.01-0.14-0.04-0.19c-0.03-0.05-0.07-0.09-0.12-0.12c-0.05-0.03-0.12-0.04-0.19-0.04c-0.06,0-0.13,0.01-0.19,0.02
		c-0.06,0.02-0.12,0.04-0.17,0.06c-0.05,0.03-0.11,0.06-0.15,0.1v1.69H147.21z M146,17.05v-2.43h0.68v2.43H146z M146.08,14.26
		c-0.06,0-0.1-0.03-0.1-0.09v-0.44c0-0.06,0.03-0.1,0.1-0.1h0.53c0.03,0,0.05,0.01,0.06,0.03c0.02,0.02,0.02,0.04,0.02,0.07v0.44
		c0,0.06-0.03,0.09-0.09,0.09H146.08z M142.88,16.46h0.37c0.13,0,0.22-0.03,0.28-0.09c0.06-0.06,0.09-0.15,0.09-0.27v-1.47
		c0-0.13-0.03-0.23-0.09-0.28c-0.06-0.05-0.14-0.08-0.25-0.08h-0.42c-0.11,0-0.2,0.03-0.26,0.09c-0.06,0.06-0.09,0.15-0.09,0.27
		v1.46c0,0.13,0.03,0.22,0.1,0.28C142.66,16.43,142.76,16.46,142.88,16.46z M142.71,17.07c-0.19,0-0.35-0.03-0.49-0.1
		c-0.13-0.06-0.23-0.16-0.3-0.29c-0.07-0.13-0.1-0.29-0.1-0.48v-1.63c0-0.2,0.04-0.36,0.11-0.5c0.07-0.13,0.17-0.24,0.31-0.3
		c0.14-0.07,0.3-0.1,0.48-0.1h0.71c0.19,0,0.35,0.04,0.48,0.11c0.13,0.07,0.22,0.17,0.29,0.31c0.06,0.13,0.1,0.3,0.1,0.49v1.63
		c0,0.28-0.08,0.5-0.23,0.64c-0.15,0.15-0.36,0.22-0.64,0.22H142.71z M139.89,16.46h0.37c0.13,0,0.22-0.03,0.28-0.09
		c0.06-0.06,0.09-0.15,0.09-0.27v-1.47c0-0.13-0.03-0.23-0.09-0.28c-0.06-0.05-0.14-0.08-0.25-0.08h-0.42
		c-0.11,0-0.2,0.03-0.26,0.09c-0.06,0.06-0.09,0.15-0.09,0.27v1.46c0,0.13,0.03,0.22,0.1,0.28
		C139.68,16.43,139.78,16.46,139.89,16.46z M139.73,17.07c-0.19,0-0.35-0.03-0.49-0.1c-0.13-0.06-0.23-0.16-0.3-0.29
		c-0.07-0.13-0.1-0.29-0.1-0.48v-1.63c0-0.2,0.04-0.36,0.11-0.5c0.07-0.13,0.17-0.24,0.31-0.3c0.14-0.07,0.3-0.1,0.48-0.1h0.71
		c0.19,0,0.35,0.04,0.48,0.11c0.13,0.07,0.22,0.17,0.29,0.31c0.06,0.13,0.1,0.3,0.1,0.49v1.63c0,0.28-0.08,0.5-0.23,0.64
		c-0.15,0.15-0.36,0.22-0.64,0.22H139.73z M136.91,16.46h0.37c0.13,0,0.22-0.03,0.28-0.09c0.06-0.06,0.09-0.15,0.09-0.27v-1.47
		c0-0.13-0.03-0.23-0.09-0.28c-0.06-0.05-0.14-0.08-0.25-0.08h-0.42c-0.11,0-0.2,0.03-0.26,0.09c-0.06,0.06-0.09,0.15-0.09,0.27
		v1.46c0,0.13,0.03,0.22,0.1,0.28C136.7,16.43,136.79,16.46,136.91,16.46z M136.75,17.07c-0.19,0-0.35-0.03-0.49-0.1
		c-0.13-0.06-0.23-0.16-0.3-0.29c-0.07-0.13-0.1-0.29-0.1-0.48v-1.63c0-0.2,0.04-0.36,0.11-0.5c0.07-0.13,0.17-0.24,0.31-0.3
		c0.14-0.07,0.3-0.1,0.48-0.1h0.71c0.19,0,0.35,0.04,0.48,0.11c0.13,0.07,0.22,0.17,0.29,0.31c0.06,0.13,0.1,0.3,0.1,0.49v1.63
		c0,0.28-0.08,0.5-0.23,0.64c-0.15,0.15-0.36,0.22-0.64,0.22H136.75z M134.48,17.04v-0.71h-1.49l-0.13-0.32l1.11-2.32h0.7
		l-0.99,2.07h0.81v-0.65l0.13-0.39h0.55v1.04h0.35v0.46l-0.35,0.11v0.71H134.48z M129.95,15.05h0.34c0.08,0,0.13-0.01,0.17-0.04
		c0.04-0.03,0.07-0.06,0.08-0.11c0.02-0.05,0.02-0.1,0.02-0.16v-0.21c0-0.12-0.02-0.2-0.07-0.24c-0.05-0.04-0.11-0.05-0.19-0.05
		h-0.34c-0.1,0-0.17,0.02-0.22,0.06c-0.05,0.04-0.07,0.12-0.07,0.23v0.21c0,0.11,0.02,0.19,0.07,0.24
		C129.78,15.03,129.85,15.05,129.95,15.05z M129.96,16.5h0.34c0.13,0,0.21-0.02,0.25-0.07c0.04-0.05,0.06-0.12,0.06-0.21v-0.3
		c0-0.1-0.03-0.17-0.08-0.22c-0.05-0.05-0.13-0.07-0.24-0.07h-0.35c-0.04,0-0.08,0.01-0.12,0.02c-0.04,0.01-0.08,0.03-0.11,0.05
		c-0.03,0.02-0.06,0.06-0.08,0.09c-0.02,0.04-0.03,0.08-0.03,0.13v0.3c0,0.1,0.03,0.18,0.09,0.22
		C129.77,16.48,129.85,16.5,129.96,16.5z M129.84,17.07c-0.12,0-0.23-0.01-0.34-0.03c-0.11-0.02-0.21-0.06-0.29-0.11
		c-0.08-0.05-0.15-0.13-0.2-0.22c-0.05-0.1-0.07-0.22-0.07-0.36v-0.46c0-0.09,0.02-0.17,0.05-0.24c0.03-0.07,0.07-0.14,0.13-0.19
		c0.06-0.05,0.12-0.09,0.2-0.1c-0.1-0.05-0.17-0.1-0.21-0.16c-0.04-0.06-0.07-0.13-0.08-0.2c-0.01-0.07-0.02-0.15-0.02-0.23v-0.38
		c0-0.17,0.04-0.31,0.11-0.41c0.07-0.1,0.17-0.18,0.29-0.22c0.12-0.05,0.25-0.07,0.4-0.07h0.64c0.15,0,0.28,0.02,0.4,0.07
		c0.12,0.05,0.21,0.12,0.28,0.22c0.07,0.1,0.11,0.24,0.11,0.41v0.38c0,0.04,0,0.09-0.01,0.14c-0.01,0.05-0.03,0.11-0.05,0.17
		c-0.02,0.06-0.05,0.11-0.09,0.14c-0.04,0.04-0.09,0.07-0.15,0.08c0.1,0.02,0.18,0.07,0.23,0.13c0.05,0.07,0.09,0.14,0.11,0.22
		c0.02,0.08,0.03,0.16,0.03,0.22v0.47c0,0.2-0.04,0.35-0.11,0.46c-0.08,0.1-0.18,0.18-0.3,0.22s-0.27,0.06-0.42,0.06H129.84z"/>
	<path class="st2" d="M148.91,24.55l0.27-1.07c-0.14,0-0.26-0.03-0.36-0.08c-0.1-0.05-0.19-0.12-0.26-0.22
		c-0.07-0.1-0.12-0.21-0.16-0.36l-0.47-1.78h0.71l0.39,1.64c0.02,0.06,0.04,0.1,0.06,0.14c0.02,0.03,0.05,0.06,0.08,0.07
		c0.03,0.01,0.05,0.02,0.08,0.03c0.02,0,0.04,0.01,0.05,0.01l0.45-1.89h0.69l-0.74,3.06l-0.22,0.45H148.91z M146.68,22.95
		c0.07,0,0.14-0.02,0.2-0.06c0.06-0.04,0.12-0.11,0.15-0.21c0.04-0.1,0.06-0.24,0.06-0.43c0-0.18-0.02-0.32-0.05-0.43
		c-0.04-0.1-0.08-0.18-0.15-0.22c-0.06-0.04-0.13-0.07-0.22-0.07c-0.1,0-0.18,0.02-0.26,0.05c-0.08,0.03-0.15,0.06-0.2,0.09v1.16
		c0.06,0.04,0.13,0.06,0.22,0.09C146.51,22.94,146.59,22.95,146.68,22.95z M145.53,24.55v-3.51h0.57l0.11,0.23
		c0.06-0.05,0.12-0.09,0.19-0.13c0.07-0.04,0.15-0.07,0.23-0.1c0.08-0.03,0.17-0.04,0.26-0.04c0.15,0,0.28,0.03,0.39,0.09
		c0.11,0.06,0.2,0.14,0.27,0.25c0.07,0.11,0.12,0.24,0.16,0.4c0.03,0.16,0.05,0.33,0.05,0.52c0,0.26-0.03,0.48-0.08,0.67
		c-0.05,0.19-0.14,0.33-0.27,0.43c-0.13,0.1-0.3,0.15-0.53,0.15c-0.12,0-0.24-0.01-0.36-0.04c-0.12-0.03-0.23-0.07-0.33-0.12v1.2
		H145.53z M144.53,23.48c-0.06,0-0.09-0.03-0.09-0.09v-0.46c0-0.06,0.03-0.1,0.09-0.1h0.4c0.07,0,0.1,0.03,0.1,0.1v0.46
		c0,0.04-0.01,0.06-0.03,0.07c-0.02,0.01-0.04,0.02-0.07,0.02H144.53z M142.68,22.23h0.26c0.1,0,0.17-0.01,0.22-0.04
		c0.05-0.03,0.09-0.07,0.11-0.12c0.02-0.05,0.03-0.11,0.03-0.17c0-0.08-0.01-0.15-0.04-0.2c-0.03-0.05-0.06-0.09-0.11-0.11
		c-0.05-0.02-0.11-0.03-0.18-0.03h-0.26c-0.12,0-0.2,0.02-0.26,0.07c-0.06,0.05-0.09,0.14-0.09,0.26c0,0.12,0.03,0.2,0.08,0.26
		C142.49,22.2,142.57,22.23,142.68,22.23z M142.41,24.6c-0.16,0-0.3-0.02-0.42-0.07c-0.12-0.05-0.22-0.11-0.29-0.2
		c-0.07-0.09-0.11-0.19-0.11-0.32v-0.07c0-0.13,0.04-0.24,0.11-0.33c0.08-0.09,0.17-0.16,0.29-0.21c0.12-0.05,0.25-0.07,0.38-0.07
		l0.2,0.21c-0.07,0-0.13,0.01-0.18,0.03c-0.05,0.02-0.09,0.05-0.12,0.09c-0.03,0.04-0.04,0.09-0.04,0.15v0.05
		c0,0.09,0.03,0.15,0.09,0.2c0.06,0.05,0.15,0.07,0.26,0.07h0.47c0.11,0,0.21-0.02,0.27-0.07c0.07-0.04,0.1-0.11,0.1-0.2v-0.07
		c0-0.05-0.01-0.1-0.04-0.14c-0.03-0.04-0.06-0.07-0.12-0.09c-0.05-0.02-0.12-0.03-0.2-0.03h-0.55c-0.28,0-0.48-0.05-0.62-0.15
		c-0.13-0.1-0.2-0.23-0.2-0.37c0-0.12,0.04-0.23,0.11-0.31c0.07-0.08,0.17-0.14,0.3-0.17c-0.1-0.05-0.18-0.11-0.23-0.19
		c-0.06-0.07-0.1-0.15-0.12-0.24c-0.02-0.09-0.04-0.18-0.04-0.27c0-0.18,0.04-0.33,0.11-0.44c0.08-0.12,0.19-0.21,0.34-0.26
		c0.15-0.06,0.34-0.09,0.57-0.09h1.34v0.37l-0.38,0.07c0.03,0.03,0.06,0.07,0.08,0.11s0.05,0.09,0.07,0.16
		c0.02,0.06,0.03,0.15,0.03,0.24c0,0.14-0.03,0.26-0.09,0.38c-0.06,0.11-0.16,0.2-0.29,0.27c-0.13,0.07-0.3,0.1-0.52,0.1h-0.44
		c-0.08,0-0.15,0.01-0.2,0.04c-0.05,0.02-0.08,0.07-0.08,0.13c0,0.05,0.02,0.09,0.07,0.11c0.04,0.02,0.09,0.03,0.15,0.03h0.68
		c0.19,0,0.35,0.02,0.48,0.07c0.13,0.05,0.23,0.13,0.3,0.23c0.07,0.11,0.11,0.25,0.11,0.42v0.07c0,0.24-0.08,0.43-0.23,0.56
		c-0.15,0.14-0.39,0.21-0.71,0.21H142.41z"/>
	<polygon class="st2" points="31.96,26.02 31.96,23.81 32.46,23.81 32.46,25.64 33.68,25.64 33.68,26.02 	"/>
	<rect x="34.02" y="23.79" class="st2" width="0.49" height="2.22"/>
	<path class="st2" d="M34.98,23.79h0.9c0.2,0,0.36,0.01,0.46,0.04c0.14,0.04,0.27,0.11,0.37,0.2c0.1,0.1,0.18,0.22,0.23,0.36
		c0.05,0.14,0.08,0.32,0.08,0.52c0,0.18-0.02,0.34-0.07,0.47c-0.06,0.16-0.15,0.29-0.26,0.39c-0.08,0.08-0.2,0.13-0.35,0.18
		c-0.11,0.03-0.26,0.05-0.44,0.05h-0.93V23.79z M35.47,24.17v1.47h0.37c0.14,0,0.24-0.01,0.3-0.02c0.08-0.02,0.15-0.05,0.2-0.09
		c0.05-0.04,0.1-0.11,0.13-0.21c0.03-0.1,0.05-0.23,0.05-0.41c0-0.17-0.02-0.3-0.05-0.39c-0.03-0.09-0.08-0.16-0.14-0.22
		c-0.06-0.05-0.14-0.09-0.23-0.1c-0.07-0.01-0.2-0.02-0.4-0.02H35.47z"/>
	<polygon class="st2" points="37.44,26.02 37.44,23.79 39.25,23.79 39.25,24.17 37.94,24.17 37.94,24.66 39.16,24.66 39.16,25.04 
		37.94,25.04 37.94,25.64 39.3,25.64 39.3,26.02 	"/>
	<path class="st2" d="M39.72,26.02v-2.22h1.04c0.26,0,0.45,0.02,0.57,0.06c0.12,0.04,0.21,0.11,0.29,0.21
		c0.07,0.1,0.11,0.22,0.11,0.35c0,0.17-0.06,0.3-0.16,0.41c-0.11,0.11-0.27,0.18-0.48,0.21c0.1,0.06,0.19,0.12,0.26,0.19
		c0.07,0.07,0.16,0.19,0.28,0.36l0.3,0.44h-0.59l-0.36-0.48c-0.13-0.17-0.21-0.28-0.26-0.33c-0.05-0.05-0.1-0.08-0.15-0.09
		c-0.05-0.02-0.14-0.03-0.25-0.03h-0.1v0.93H39.72z M40.21,24.73h0.36c0.24,0,0.39-0.01,0.44-0.03c0.06-0.02,0.1-0.05,0.14-0.1
		c0.03-0.04,0.05-0.1,0.05-0.17c0-0.07-0.02-0.13-0.07-0.18c-0.04-0.05-0.11-0.07-0.18-0.09c-0.04,0-0.16-0.01-0.36-0.01h-0.38
		V24.73z"/>
	<polygon class="st2" points="43.13,26.02 43.13,23.79 44.94,23.79 44.94,24.17 43.62,24.17 43.62,24.66 44.85,24.66 44.85,25.04 
		43.62,25.04 43.62,25.64 44.98,25.64 44.98,26.02 	"/>
	<polygon class="st2" points="45.41,26.02 45.41,23.79 45.88,23.79 46.88,25.28 46.88,23.79 47.34,23.79 47.34,26.02 46.85,26.02 
		45.86,24.57 45.86,26.02 	"/>
	<path class="st2" d="M49.69,23.79h0.49v1.4c0,0.18-0.02,0.32-0.05,0.42c-0.05,0.13-0.13,0.23-0.26,0.31
		c-0.12,0.08-0.29,0.12-0.5,0.12c-0.24,0-0.43-0.06-0.56-0.19c-0.13-0.12-0.19-0.3-0.2-0.54l0.46-0.05
		c0.01,0.13,0.03,0.22,0.06,0.27c0.05,0.08,0.13,0.12,0.24,0.12c0.11,0,0.19-0.03,0.24-0.08c0.05-0.06,0.07-0.18,0.07-0.36V23.79z"
		/>
	<path class="st2" d="M50.7,23.79h0.49V25c0,0.19,0.01,0.31,0.02,0.37c0.02,0.09,0.07,0.16,0.15,0.22c0.08,0.06,0.19,0.08,0.33,0.08
		c0.14,0,0.25-0.03,0.32-0.08c0.07-0.05,0.11-0.12,0.13-0.19c0.01-0.08,0.02-0.2,0.02-0.38v-1.23h0.49v1.17
		c0,0.27-0.01,0.46-0.04,0.57c-0.03,0.11-0.08,0.2-0.15,0.28c-0.07,0.08-0.17,0.14-0.29,0.18c-0.12,0.04-0.27,0.07-0.47,0.07
		c-0.23,0-0.41-0.02-0.53-0.08c-0.12-0.05-0.22-0.11-0.29-0.19c-0.07-0.08-0.12-0.16-0.14-0.25c-0.03-0.13-0.05-0.31-0.05-0.56
		V23.79z"/>
	<path class="st2" d="M53.17,23.79h0.97c0.19,0,0.34,0.01,0.43,0.02c0.1,0.01,0.18,0.05,0.25,0.09c0.08,0.05,0.14,0.11,0.19,0.19
		c0.05,0.07,0.07,0.16,0.07,0.26c0,0.1-0.03,0.2-0.09,0.29c-0.06,0.09-0.14,0.15-0.25,0.19c0.15,0.04,0.26,0.11,0.34,0.2
		c0.08,0.09,0.12,0.21,0.12,0.33c0,0.1-0.03,0.2-0.08,0.3c-0.05,0.09-0.12,0.17-0.21,0.23c-0.09,0.06-0.2,0.09-0.33,0.11
		c-0.08,0.01-0.28,0.01-0.59,0.02h-0.83V23.79z M53.66,24.16v0.51h0.32c0.19,0,0.31,0,0.36-0.01c0.08-0.01,0.15-0.04,0.2-0.08
		c0.05-0.04,0.07-0.1,0.07-0.17c0-0.07-0.02-0.13-0.06-0.17c-0.04-0.04-0.1-0.07-0.19-0.08c-0.05,0-0.19-0.01-0.42-0.01H53.66z
		 M53.66,25.05v0.6h0.46c0.18,0,0.29-0.01,0.34-0.02c0.07-0.01,0.13-0.04,0.18-0.09c0.04-0.05,0.07-0.11,0.07-0.19
		c0-0.07-0.02-0.12-0.05-0.17c-0.04-0.05-0.09-0.08-0.15-0.1c-0.07-0.02-0.21-0.03-0.44-0.03H53.66z"/>
	<rect x="55.62" y="23.79" class="st2" width="0.49" height="2.22"/>
	<polygon class="st2" points="56.59,26.02 56.59,23.81 57.08,23.81 57.08,25.64 58.31,25.64 58.31,26.02 	"/>
	<path class="st2" d="M60.86,26.02h-0.54l-0.21-0.51h-0.98l-0.2,0.51h-0.52l0.95-2.22h0.52L60.86,26.02z M59.95,25.14l-0.34-0.82
		l-0.33,0.82H59.95z"/>
	<path class="st2" d="M62.68,25.2l0.48,0.14c-0.07,0.24-0.2,0.42-0.37,0.54c-0.17,0.12-0.38,0.18-0.65,0.18
		c-0.32,0-0.59-0.1-0.8-0.3c-0.21-0.2-0.31-0.48-0.31-0.83c0-0.37,0.1-0.66,0.32-0.86c0.21-0.2,0.49-0.31,0.83-0.31
		c0.3,0,0.54,0.08,0.73,0.24c0.11,0.1,0.19,0.23,0.25,0.41l-0.49,0.11c-0.03-0.11-0.09-0.21-0.18-0.27c-0.09-0.07-0.2-0.1-0.34-0.1
		c-0.18,0-0.33,0.06-0.44,0.18c-0.11,0.12-0.17,0.31-0.17,0.57c0,0.28,0.06,0.48,0.17,0.6c0.11,0.12,0.26,0.18,0.43,0.18
		c0.13,0,0.24-0.04,0.34-0.11C62.58,25.48,62.64,25.36,62.68,25.2"/>
	<rect x="63.57" y="23.79" class="st2" width="0.49" height="2.22"/>
	<path class="st2" d="M64.43,24.92c0-0.23,0.04-0.41,0.11-0.57c0.05-0.11,0.13-0.21,0.23-0.3c0.1-0.09,0.2-0.16,0.31-0.2
		c0.15-0.06,0.33-0.09,0.53-0.09c0.36,0,0.65,0.1,0.86,0.3c0.22,0.2,0.32,0.49,0.32,0.85c0,0.36-0.11,0.64-0.32,0.84
		c-0.21,0.2-0.5,0.3-0.86,0.3c-0.36,0-0.65-0.1-0.86-0.3C64.54,25.55,64.43,25.27,64.43,24.92 M64.94,24.9
		c0,0.25,0.06,0.44,0.19,0.57c0.13,0.13,0.29,0.19,0.48,0.19c0.2,0,0.36-0.06,0.48-0.19c0.13-0.13,0.19-0.32,0.19-0.58
		c0-0.25-0.06-0.44-0.18-0.57c-0.12-0.13-0.29-0.19-0.49-0.19c-0.2,0-0.36,0.07-0.49,0.19C65,24.46,64.94,24.65,64.94,24.9z"/>
	<polygon class="st2" points="67.19,26.02 67.19,23.79 67.67,23.79 68.67,25.28 68.67,23.79 69.12,23.79 69.12,26.02 68.63,26.02 
		67.65,24.57 67.65,26.02 	"/>
	<polygon class="st2" points="71.21,26.02 70.34,23.79 70.88,23.79 71.49,25.44 72.09,23.79 72.61,23.79 71.74,26.02 	"/>
	<path class="st2" d="M72.77,24.92c0-0.23,0.04-0.41,0.11-0.57c0.06-0.11,0.13-0.21,0.23-0.3c0.1-0.09,0.2-0.16,0.32-0.2
		c0.15-0.06,0.33-0.09,0.53-0.09c0.36,0,0.65,0.1,0.86,0.3c0.22,0.2,0.32,0.49,0.32,0.85c0,0.36-0.11,0.64-0.32,0.84
		c-0.21,0.2-0.5,0.3-0.86,0.3c-0.36,0-0.65-0.1-0.87-0.3C72.87,25.55,72.77,25.27,72.77,24.92 M73.27,24.9
		c0,0.25,0.06,0.44,0.19,0.57c0.13,0.13,0.29,0.19,0.49,0.19c0.2,0,0.36-0.06,0.48-0.19c0.13-0.13,0.19-0.32,0.19-0.58
		c0-0.25-0.06-0.44-0.18-0.57c-0.12-0.13-0.28-0.19-0.49-0.19c-0.2,0-0.37,0.07-0.49,0.19C73.34,24.46,73.27,24.65,73.27,24.9z"/>
	<polygon class="st2" points="75.53,26.02 75.53,23.81 76.02,23.81 76.02,25.64 77.25,25.64 77.25,26.02 	"/>
	<path class="st2" d="M77.6,23.79h0.49V25c0,0.19,0.01,0.31,0.02,0.37c0.02,0.09,0.07,0.16,0.15,0.22c0.08,0.06,0.19,0.08,0.33,0.08
		c0.14,0,0.25-0.03,0.32-0.08c0.07-0.05,0.11-0.12,0.13-0.19c0.01-0.08,0.02-0.2,0.02-0.38v-1.23h0.49v1.17
		c0,0.27-0.01,0.46-0.04,0.57c-0.03,0.11-0.08,0.2-0.15,0.28c-0.07,0.08-0.17,0.14-0.29,0.18c-0.12,0.04-0.28,0.07-0.47,0.07
		c-0.23,0-0.41-0.02-0.53-0.08c-0.12-0.05-0.21-0.11-0.29-0.19c-0.07-0.08-0.11-0.16-0.14-0.25c-0.03-0.13-0.05-0.31-0.05-0.56
		V23.79z"/>
	<polygon class="st2" points="80.07,26.02 80.07,23.79 80.55,23.79 81.54,25.28 81.54,23.79 82,23.79 82,26.02 81.51,26.02 
		80.53,24.57 80.53,26.02 	"/>
	<polygon class="st2" points="83.07,26.02 83.07,24.17 82.35,24.17 82.35,23.79 84.29,23.79 84.29,24.17 83.57,24.17 83.57,26.02 	
		"/>
	<path class="st2" d="M86.56,26.02h-0.54l-0.21-0.51h-0.98l-0.2,0.51h-0.52l0.95-2.22h0.52L86.56,26.02z M85.65,25.14l-0.34-0.82
		l-0.33,0.82H85.65z"/>
	<path class="st2" d="M86.82,26.02v-2.22h1.04c0.26,0,0.45,0.02,0.57,0.06c0.12,0.04,0.21,0.11,0.28,0.21
		c0.07,0.1,0.11,0.22,0.11,0.35c0,0.17-0.05,0.3-0.16,0.41c-0.11,0.11-0.27,0.18-0.48,0.21c0.11,0.06,0.19,0.12,0.26,0.19
		c0.07,0.07,0.16,0.19,0.28,0.36l0.3,0.44h-0.59l-0.36-0.48c-0.13-0.17-0.21-0.28-0.26-0.33c-0.05-0.05-0.1-0.08-0.15-0.09
		c-0.05-0.02-0.14-0.03-0.25-0.03h-0.1v0.93H86.82z M87.31,24.73h0.36c0.24,0,0.38-0.01,0.44-0.03c0.06-0.02,0.1-0.05,0.14-0.1
		c0.03-0.04,0.05-0.1,0.05-0.17c0-0.07-0.02-0.13-0.07-0.18c-0.04-0.05-0.11-0.07-0.18-0.09c-0.04,0-0.16-0.01-0.36-0.01h-0.38
		V24.73z"/>
	<rect x="89.26" y="23.79" class="st2" width="0.49" height="2.22"/>
	<path class="st2" d="M92.43,26.02h-0.54l-0.21-0.51H90.7l-0.2,0.51h-0.52l0.95-2.22h0.52L92.43,26.02z M91.52,25.14l-0.33-0.82
		l-0.33,0.82H91.52z"/>
	<path class="st2" d="M26.41,11.34v1.74h-1.25c0,0-2.05,0.16-2.05,2.18c0,0-0.52,2.14,3.3,2.14v1.74c0,0-5.39,0.36-5.39-4.04
		C21.01,15.1,20.93,11.34,26.41,11.34 M27.37,13.91v5.19h1.97v-4.59c0-1.35,1.21-1.51,1.21-1.51c1.33,0,1.17,1.51,1.17,1.51h-1.85
		v1.66h1.89v2.93h1.93v-4.95c0-2.57-3.06-2.89-3.06-2.89C27.65,11.26,27.37,13.91,27.37,13.91z M36.83,16.41
		c0,0.95-0.84,0.95-0.84,0.95h-1.53v1.74h1.57c2.62,0,2.82-2.22,2.82-2.22v-5.54h-2.05L36.83,16.41z M40.13,14.35v4.75h1.89v-4.67
		c0-1.39,1.25-1.51,1.25-1.51c1.25,0,1.17,1.59,1.17,1.59h-1.81v1.7h1.77v3.01h2.05v-4.83c0-3.13-3.26-3.21-3.26-3.21
		C40.21,11.18,40.13,14.35,40.13,14.35z M79.98,14.35v4.75h1.89v-4.67c0-1.39,1.25-1.51,1.25-1.51c1.25,0,1.17,1.59,1.17,1.59h-1.81
		v1.7h1.77v3.01h2.05v-4.83c0-3.13-3.26-3.21-3.26-3.21C80.06,11.18,79.98,14.35,79.98,14.35z M49.18,12.76l-0.97,6.3h1.85L50.75,13
		l1.17,5.03c0.12,0.99,1.17,1.15,1.17,1.15c0.85,0.04,1.17-1.47,1.17-1.47l1.05-4.75l0.68,6.18h1.97l-0.93-6.53
		c-0.16-1.38-1.41-1.46-1.41-1.46c-1.37,0.04-1.81,1.66-1.81,1.66L53,16.33l-0.81-3.56c-0.28-1.62-1.49-1.5-1.49-1.5
		C49.38,11.26,49.18,12.76,49.18,12.76z M58.72,16.49c0,2.57,3.14,2.77,3.14,2.77c3.02-0.04,3.22-2.85,3.22-2.85v-5.15h-2.1v5.07
		c0.04,0.99-1,1.07-1,1.07c-1.29,0-1.25-0.99-1.25-0.99V11.3h-2.01V16.49z M72.37,16.49c0,2.57,3.14,2.77,3.14,2.77
		c3.02-0.04,3.22-2.85,3.22-2.85v-5.15h-2.09v5.07c0.04,0.99-1.01,1.07-1.01,1.07c-1.29,0-1.25-0.99-1.25-0.99V11.3h-2.01V16.49z
		 M65.84,13.08h1.89v6.02h2.01v-5.98h1.77v-1.86h-5.68V13.08z M87.45,16.96c0,2.02,2.46,2.14,2.46,2.14h2.17v-1.78h-1.77
		c-0.85-0.08-0.84-0.79-0.84-0.79V11.3h-2.09L87.45,16.96z"/>
	<path class="st2" d="M29.87,6.21l2.31-0.34l-2.54,1.51l0.09,1.91l-1.39-0.99l-2.46,1.68l1.5-2.13L26,7.09l2.52-0.54l1.53-1.87
		L29.87,6.21z M21.92,8.54l-2.37,0.54l1.36,0.57l-1.59,1.9l2.34-1.51l1.33,0.97l0.14-1.76l2.34-1.19l-2.2,0.28l0.26-1.59L21.92,8.54
		z M15.08,12.66l-2.2,1.05l1.47,0.17l-0.61,1.71l1.96-1.68h1.88l-0.72-1.17l1.76-1.68l-2.34,1.08l-0.52-1.31L15.08,12.66z
		 M13.78,19.37l-2.05,1.11l1.5,0.05c0,0-0.58,1.59-0.58,1.71c0,0.11,1.82-1.85,1.82-1.85l1.76,0.14l-0.66-1.11l1.36-1.53l-1.94,0.94
		l-0.75-1.22L13.78,19.37z M15.63,24.43c0,0-1.16,0.97-1.24,1.02c-0.09,0.06,1.33-0.11,1.33-0.11s0.06,1.02,0.06,1.11
		c0,0.09,1.1-1.62,1.1-1.62l1.68-0.4l-0.78-0.6l0.69-1.28l-1.56,0.94l-1.3-0.31L15.63,24.43z M20.88,24.77l-1.39,0.37l0.69,0.2
		c0,0-0.32,1.11-0.29,1.19c0.03,0.09,1.19-0.94,1.19-0.94l0.64,0.34l0.09-0.94l1.1-0.85l-1.18,0.31l-0.26-0.71L20.88,24.77z
		 M24.99,23.57l-1.13,0.68l0.75,0.08l0.03,0.82l0.87-0.99l0.81,0.2l-0.26-0.71l0.69-0.97l-1.01,0.48l-0.49-0.63L24.99,23.57z"/>
	<path class="st2" d="M32.89,20.8v1.73h-0.73V20.1h0.96c0.42,0,0.75,0.09,0.99,0.28c0.28,0.22,0.42,0.53,0.42,0.91
		c0,0.37-0.12,0.67-0.36,0.9c-0.24,0.23-0.55,0.35-0.93,0.35c-0.04,0-0.12,0-0.22-0.01v-0.71h0.12c0.43,0,0.64-0.18,0.64-0.53
		c0-0.33-0.21-0.49-0.63-0.49H32.89z"/>
	<path class="st2" d="M36.18,21.04v0.54H35.7c-0.07,0-0.11,0.01-0.14,0.03c-0.03,0.02-0.04,0.05-0.04,0.1c0,0.05,0.01,0.08,0.04,0.1
		c0.03,0.02,0.08,0.02,0.17,0.02h0.49v0.69h-0.58c-0.27,0-0.48-0.06-0.62-0.19c-0.14-0.13-0.21-0.31-0.21-0.55v-0.95
		c0-0.23,0.07-0.41,0.2-0.54c0.14-0.13,0.33-0.19,0.57-0.19h0.64v0.7h-0.47c-0.13,0-0.19,0.04-0.19,0.12c0,0.05,0.02,0.08,0.05,0.1
		c0.03,0.02,0.08,0.03,0.16,0.03H36.18z"/>
	<path class="st2" d="M39.24,21.34l0.77,0.02c-0.05,0.39-0.19,0.69-0.41,0.91c-0.23,0.21-0.52,0.32-0.88,0.32
		c-0.37,0-0.68-0.12-0.92-0.36c-0.25-0.24-0.37-0.54-0.37-0.9c0-0.36,0.13-0.67,0.38-0.91c0.25-0.25,0.56-0.37,0.93-0.37
		c0.36,0,0.67,0.12,0.91,0.36c0.17,0.17,0.29,0.4,0.36,0.7l-0.79,0.05c-0.09-0.27-0.26-0.4-0.5-0.4c-0.16,0-0.29,0.05-0.39,0.16
		c-0.1,0.11-0.15,0.24-0.15,0.41c0,0.16,0.05,0.29,0.15,0.39c0.1,0.1,0.23,0.16,0.38,0.16c0.16,0,0.28-0.04,0.37-0.14
		C39.17,21.64,39.22,21.51,39.24,21.34"/>
	<path class="st2" d="M41.52,20.04c0.35,0,0.65,0.13,0.9,0.37c0.25,0.25,0.38,0.55,0.38,0.9c0,0.35-0.13,0.65-0.38,0.9
		c-0.25,0.25-0.56,0.37-0.92,0.37c-0.36,0-0.66-0.12-0.92-0.37c-0.25-0.25-0.38-0.55-0.38-0.9c0-0.36,0.13-0.66,0.38-0.9
		C40.84,20.16,41.15,20.04,41.52,20.04 M41.5,20.75c-0.15,0-0.28,0.05-0.39,0.16c-0.11,0.11-0.16,0.24-0.16,0.4
		c0,0.15,0.05,0.28,0.16,0.39c0.11,0.11,0.23,0.16,0.38,0.16c0.15,0,0.28-0.05,0.39-0.16c0.11-0.11,0.16-0.24,0.16-0.4
		c0-0.16-0.05-0.29-0.16-0.4C41.78,20.81,41.65,20.75,41.5,20.75z"/>
	<path class="st2" d="M44.31,20.04c0.35,0,0.65,0.13,0.9,0.37c0.25,0.25,0.38,0.55,0.38,0.9c0,0.35-0.13,0.65-0.38,0.9
		c-0.25,0.25-0.56,0.37-0.92,0.37c-0.36,0-0.66-0.12-0.92-0.37c-0.25-0.25-0.38-0.55-0.38-0.9c0-0.36,0.13-0.66,0.38-0.9
		C43.63,20.16,43.94,20.04,44.31,20.04 M44.29,20.75c-0.15,0-0.28,0.05-0.38,0.16c-0.11,0.11-0.16,0.24-0.16,0.4
		c0,0.15,0.05,0.28,0.16,0.39c0.11,0.11,0.24,0.16,0.38,0.16c0.15,0,0.28-0.05,0.39-0.16c0.1-0.11,0.16-0.24,0.16-0.4
		c0-0.16-0.05-0.29-0.16-0.4C44.57,20.81,44.44,20.75,44.29,20.75z"/>
	<path class="st2" d="M46.73,21.69v-0.64c0.15,0,0.22-0.06,0.22-0.17c0-0.1-0.06-0.15-0.17-0.15c-0.11,0-0.17,0.07-0.17,0.21v1.59
		h-0.73v-1.51c0-0.16,0.01-0.28,0.05-0.39c0.03-0.1,0.09-0.19,0.16-0.28c0.09-0.1,0.2-0.17,0.33-0.23c0.13-0.06,0.27-0.08,0.4-0.08
		c0.25,0,0.46,0.08,0.63,0.25c0.17,0.16,0.26,0.37,0.26,0.62c0,0.24-0.08,0.43-0.23,0.58c-0.14,0.13-0.35,0.2-0.63,0.2L46.73,21.69z
		"/>
	<path class="st2" d="M49.33,21.04v0.54h-0.48c-0.07,0-0.11,0.01-0.14,0.03c-0.03,0.02-0.04,0.05-0.04,0.1
		c0,0.05,0.01,0.08,0.04,0.1c0.03,0.02,0.08,0.02,0.17,0.02h0.49v0.69H48.8c-0.27,0-0.48-0.06-0.62-0.19
		c-0.14-0.13-0.22-0.31-0.22-0.55v-0.95c0-0.23,0.07-0.41,0.2-0.54c0.13-0.13,0.33-0.19,0.57-0.19h0.64v0.7h-0.47
		c-0.13,0-0.19,0.04-0.19,0.12c0,0.05,0.02,0.08,0.04,0.1c0.03,0.02,0.08,0.03,0.16,0.03H49.33z"/>
	<path class="st2" d="M50.53,20.75v1.78H49.8V20.1h0.94c0.29,0,0.51,0.07,0.67,0.21c0.17,0.16,0.26,0.35,0.26,0.6
		c0,0.25-0.11,0.45-0.33,0.62l0.42,1H51l-0.36-0.78v-0.62h0.06c0.16,0,0.23-0.07,0.23-0.2c0-0.11-0.09-0.17-0.27-0.17H50.53z"/>
	<path class="st2" d="M52.91,21.31v0.64h-0.21v0.58h-0.73v-1.54c0-0.3,0.08-0.53,0.25-0.7c0.17-0.17,0.4-0.25,0.7-0.25
		c0.29,0,0.5,0.08,0.64,0.22c0.14,0.15,0.21,0.38,0.21,0.69v1.57h-0.74V21c0-0.09-0.01-0.16-0.03-0.2
		c-0.02-0.04-0.06-0.05-0.12-0.05c-0.11,0-0.17,0.08-0.17,0.25v0.3H52.91z"/>
	<polygon class="st2" points="55.28,20.8 55.28,22.53 54.54,22.53 54.54,20.8 53.98,20.8 53.98,20.1 55.84,20.1 55.84,20.8 	"/>
	<rect x="56.11" y="20.1" class="st2" width="0.73" height="2.43"/>
	<polygon class="st2" points="59.11,20.1 58.03,22.66 56.96,20.1 57.81,20.1 58.04,20.85 58.29,20.1 	"/>
	<rect x="59.27" y="20.1" class="st2" width="0.73" height="2.43"/>
	<path class="st2" d="M61.66,20.09v0.69c-0.05-0.02-0.09-0.03-0.12-0.03c-0.06,0-0.1,0.02-0.14,0.06c-0.04,0.04-0.06,0.09-0.06,0.15
		c0,0.05,0.02,0.11,0.06,0.18l0.06,0.1c0.1,0.17,0.15,0.34,0.15,0.5c0,0.24-0.08,0.43-0.25,0.6c-0.17,0.16-0.38,0.24-0.63,0.24
		c-0.12,0-0.23-0.02-0.35-0.08v-0.7c0.07,0.04,0.13,0.07,0.19,0.07c0.07,0,0.12-0.02,0.16-0.05c0.04-0.04,0.06-0.08,0.06-0.14
		c0-0.04-0.03-0.11-0.1-0.23c-0.11-0.19-0.16-0.38-0.16-0.57c0-0.23,0.08-0.43,0.25-0.59c0.17-0.17,0.36-0.25,0.59-0.25
		C61.46,20.04,61.56,20.05,61.66,20.09"/>
	<polygon class="st2" points="63.1,20.8 63.1,22.53 62.37,22.53 62.37,20.8 61.8,20.8 61.8,20.1 63.66,20.1 63.66,20.8 	"/>
	<path class="st2" d="M64.83,21.31v0.64h-0.21v0.58h-0.73v-1.54c0-0.3,0.08-0.53,0.25-0.7c0.17-0.17,0.4-0.25,0.7-0.25
		c0.29,0,0.5,0.08,0.64,0.22c0.14,0.15,0.21,0.38,0.21,0.69v1.57h-0.73V21c0-0.09-0.01-0.16-0.03-0.2
		c-0.02-0.04-0.06-0.05-0.12-0.05c-0.11,0-0.17,0.08-0.17,0.25v0.3H64.83z"/>
	<path class="st2" d="M67.28,20.09v0.69c-0.05-0.02-0.09-0.03-0.12-0.03c-0.06,0-0.11,0.02-0.14,0.06
		c-0.04,0.04-0.06,0.09-0.06,0.15c0,0.05,0.02,0.11,0.07,0.18l0.06,0.1c0.1,0.17,0.15,0.34,0.15,0.5c0,0.24-0.08,0.43-0.25,0.6
		c-0.17,0.16-0.38,0.24-0.62,0.24c-0.12,0-0.24-0.02-0.35-0.08v-0.7c0.07,0.04,0.13,0.07,0.19,0.07c0.06,0,0.12-0.02,0.16-0.05
		c0.04-0.04,0.06-0.08,0.06-0.14c0-0.04-0.03-0.11-0.1-0.23c-0.11-0.19-0.16-0.38-0.16-0.57c0-0.23,0.08-0.43,0.25-0.59
		c0.17-0.17,0.36-0.25,0.6-0.25C67.09,20.04,67.19,20.05,67.28,20.09"/>
	<path class="st2" d="M69.32,20.8v1.73h-0.73V20.1h0.96c0.42,0,0.75,0.09,0.98,0.28c0.28,0.22,0.42,0.53,0.42,0.91
		c0,0.37-0.12,0.67-0.36,0.9c-0.24,0.23-0.55,0.35-0.93,0.35c-0.04,0-0.12,0-0.22-0.01v-0.71h0.12c0.43,0,0.64-0.18,0.64-0.53
		c0-0.33-0.21-0.49-0.63-0.49H69.32z"/>
	<path class="st2" d="M72.61,21.04v0.54h-0.48c-0.06,0-0.11,0.01-0.14,0.03c-0.03,0.02-0.04,0.05-0.04,0.1
		c0,0.05,0.01,0.08,0.04,0.1c0.03,0.02,0.08,0.02,0.17,0.02h0.49v0.69h-0.58c-0.27,0-0.48-0.06-0.62-0.19
		c-0.14-0.13-0.21-0.31-0.21-0.55v-0.95c0-0.23,0.07-0.41,0.2-0.54c0.14-0.13,0.33-0.19,0.57-0.19h0.64v0.7h-0.47
		c-0.13,0-0.19,0.04-0.19,0.12c0,0.05,0.02,0.08,0.05,0.1c0.03,0.02,0.08,0.03,0.16,0.03H72.61z"/>
	<path class="st2" d="M73.03,20.1h0.73v1.44c0,0.11,0.02,0.19,0.06,0.23c0.04,0.04,0.11,0.06,0.22,0.06h0.04v0.7h-0.2
		c-0.27,0-0.48-0.08-0.62-0.23c-0.15-0.15-0.22-0.37-0.22-0.64V20.1z"/>
	<path class="st2" d="M76.04,21.69v-0.64c0.15,0,0.22-0.06,0.22-0.17c0-0.1-0.06-0.15-0.17-0.15c-0.11,0-0.17,0.07-0.17,0.21v1.59
		h-0.73v-1.51c0-0.16,0.02-0.28,0.05-0.39c0.03-0.1,0.09-0.19,0.16-0.28c0.09-0.1,0.2-0.17,0.32-0.23c0.13-0.06,0.27-0.08,0.41-0.08
		c0.25,0,0.46,0.08,0.63,0.25c0.17,0.16,0.26,0.37,0.26,0.62c0,0.24-0.08,0.43-0.23,0.58c-0.14,0.13-0.35,0.2-0.64,0.2L76.04,21.69z
		"/>
	<path class="st2" d="M78.22,21.31v0.64h-0.21v0.58h-0.73v-1.54c0-0.3,0.08-0.53,0.25-0.7c0.17-0.17,0.4-0.25,0.7-0.25
		c0.29,0,0.5,0.08,0.64,0.22c0.14,0.15,0.21,0.38,0.21,0.69v1.57h-0.74V21c0-0.09-0.01-0.16-0.03-0.2
		c-0.02-0.04-0.06-0.05-0.12-0.05c-0.12,0-0.17,0.08-0.17,0.25v0.3H78.22z"/>
	<path class="st2" d="M80.25,20.75v1.78h-0.73V20.1h0.94c0.29,0,0.51,0.07,0.67,0.21c0.18,0.16,0.26,0.35,0.26,0.6
		c0,0.25-0.11,0.45-0.33,0.62l0.42,1h-0.77l-0.36-0.78v-0.62h0.06c0.15,0,0.23-0.07,0.23-0.2c0-0.11-0.09-0.17-0.27-0.17H80.25z"/>
	<path class="st2" d="M82.62,21.31v0.64h-0.21v0.58h-0.73v-1.54c0-0.3,0.08-0.53,0.25-0.7c0.17-0.17,0.4-0.25,0.7-0.25
		c0.29,0,0.5,0.08,0.64,0.22c0.14,0.15,0.21,0.38,0.21,0.69v1.57h-0.73V21c0-0.09-0.01-0.16-0.03-0.2
		c-0.02-0.04-0.07-0.05-0.12-0.05c-0.11,0-0.17,0.08-0.17,0.25v0.3H82.62z"/>
	<path class="st2" d="M84.96,21.17h0.7c0.15,0.18,0.23,0.38,0.23,0.58c0,0.24-0.09,0.44-0.27,0.6c-0.18,0.16-0.39,0.24-0.65,0.24
		c-0.33,0-0.62-0.12-0.85-0.37c-0.23-0.25-0.35-0.56-0.35-0.92c0-0.36,0.12-0.66,0.36-0.9c0.24-0.24,0.53-0.36,0.89-0.36
		c0.12,0,0.26,0.03,0.41,0.07v0.72c-0.11-0.06-0.22-0.08-0.32-0.08c-0.17,0-0.31,0.05-0.42,0.16c-0.11,0.11-0.16,0.24-0.16,0.41
		c0,0.17,0.05,0.31,0.15,0.41c0.1,0.1,0.24,0.15,0.41,0.15c0.11,0,0.17-0.03,0.17-0.09c0-0.05-0.04-0.07-0.11-0.07h-0.18V21.17z"/>
	<path class="st2" d="M87.92,20.1v1.57c0,0.28-0.08,0.5-0.25,0.66c-0.17,0.17-0.39,0.25-0.67,0.25c-0.28,0-0.49-0.08-0.64-0.24
		c-0.15-0.16-0.22-0.39-0.22-0.7V20.1h0.73v1.55c0,0.15,0.05,0.22,0.16,0.22c0.1,0,0.15-0.07,0.15-0.22V20.1H87.92z"/>
	<path class="st2" d="M89.26,21.31v0.64h-0.21v0.58h-0.73v-1.54c0-0.3,0.08-0.53,0.25-0.7c0.16-0.17,0.4-0.25,0.7-0.25
		c0.29,0,0.5,0.08,0.64,0.22c0.14,0.15,0.21,0.38,0.21,0.69v1.57h-0.73V21c0-0.09-0.01-0.16-0.04-0.2
		c-0.02-0.04-0.06-0.05-0.12-0.05c-0.12,0-0.17,0.08-0.17,0.25v0.3H89.26z"/>
	<polygon class="st2" points="92.3,20.1 91.6,21.18 91.6,22.53 90.87,22.53 90.87,21.18 90.16,20.1 90.91,20.1 91.22,20.6 
		91.57,20.1 	"/>
</g>
</svg>
